<svg width="33" height="33" viewBox="0 0 33 33" fill="none" xmlns="http://www.w3.org/2000/svg">
<g clip-path="url(#clip0_11695_14321)">
<path d="M29.8332 21.8332V5.83317C29.8332 4.3665 28.6332 3.1665 27.1665 3.1665H11.1665C9.69984 3.1665 8.49984 4.3665 8.49984 5.83317V21.8332C8.49984 23.2998 9.69984 24.4998 11.1665 24.4998H27.1665C28.6332 24.4998 29.8332 23.2998 29.8332 21.8332ZM15.1665 16.4998L17.8732 20.1132L21.8332 15.1665L27.1665 21.8332H11.1665L15.1665 16.4998ZM3.1665 8.49984V27.1665C3.1665 28.6332 4.3665 29.8332 5.83317 29.8332H24.4998V27.1665H5.83317V8.49984H3.1665Z" fill="#252C34"/>
</g>
<defs>
<clipPath id="clip0_11695_14321">
<rect width="32" height="32" fill="white" transform="translate(0.5 0.5)"/>
</clipPath>
</defs>
</svg>
