<svg width="33" height="33" viewBox="0 0 33 33" fill="none" xmlns="http://www.w3.org/2000/svg">
<path d="M12.9706 27.5C12.9706 28.0523 13.4183 28.5 13.9706 28.5H19.0294C19.5817 28.5 20.0294 28.0523 20.0294 27.5V18.4231C20.0294 17.8708 19.5817 17.4231 19.0294 17.4231H13.9706C13.4183 17.4231 12.9706 17.8708 12.9706 18.4231V27.5ZM4.5 27.5C4.5 28.0523 4.94772 28.5 5.5 28.5H10.5588C11.1111 28.5 11.5588 28.0523 11.5588 27.5V5.5C11.5588 4.94772 11.1111 4.5 10.5588 4.5H5.5C4.94772 4.5 4.5 4.94772 4.5 5.5V27.5ZM21.4412 27.5C21.4412 28.0523 21.8889 28.5 22.4412 28.5H27.5C28.0523 28.5 28.5 28.0523 28.5 27.5V18.4231C28.5 17.8708 28.0523 17.4231 27.5 17.4231H22.4412C21.8889 17.4231 21.4412 17.8708 21.4412 18.4231V27.5ZM13.9706 4.5C13.4183 4.5 12.9706 4.94772 12.9706 5.5V14.5769C12.9706 15.1292 13.4183 15.5769 13.9706 15.5769H27.5C28.0523 15.5769 28.5 15.1292 28.5 14.5769V5.5C28.5 4.94771 28.0523 4.5 27.5 4.5H13.9706Z" fill="#252C34"/>
</svg>
