<svg width="32" height="32" viewBox="0 0 32 32" fill="none" xmlns="http://www.w3.org/2000/svg">
<path d="M17.4855 8H14.3063V14.4H7.94794V17.6H14.3063V24H17.4855V17.6H23.8438V14.4H17.4855V8ZM15.8959 0C7.12135 0 0 7.168 0 16C0 24.832 7.12135 32 15.8959 32C24.6704 32 31.7918 24.832 31.7918 16C31.7918 7.168 24.6704 0 15.8959 0ZM15.8959 28.8C8.8858 28.8 3.17918 23.056 3.17918 16C3.17918 8.944 8.8858 3.2 15.8959 3.2C22.906 3.2 28.6126 8.944 28.6126 16C28.6126 23.056 22.906 28.8 15.8959 28.8Z" fill="#ADB5BD"/>
</svg>
