<svg width="742" height="775" viewBox="0 0 742 775" fill="none" xmlns="http://www.w3.org/2000/svg">
<g clip-path="url(#clip0_11126_261911)">
<rect x="-42" y="-43" width="783" height="902" fill="url(#paint0_linear_11126_261911)"/>
<g opacity="0.3" filter="url(#filter0_df_11126_261911)">
<circle cx="613" cy="22" r="143" transform="rotate(90 613 22)" fill="url(#paint1_linear_11126_261911)"/>
</g>
<g opacity="0.4" filter="url(#filter1_df_11126_261911)">
<circle cx="756.266" cy="139.264" r="95.3454" transform="rotate(-105.419 756.266 139.264)" fill="url(#paint2_linear_11126_261911)"/>
</g>
<g opacity="0.6" filter="url(#filter2_df_11126_261911)">
<ellipse cx="387.5" cy="21.5" rx="37.5" ry="37.5" transform="rotate(-90 387.5 21.5)" fill="#13B1A8"/>
</g>
<g opacity="0.6" filter="url(#filter3_df_11126_261911)">
<circle cx="254.612" cy="486.612" r="205.612" transform="rotate(-90 254.612 486.612)" fill="url(#paint3_linear_11126_261911)"/>
</g>
<g opacity="0.6" filter="url(#filter4_df_11126_261911)">
<ellipse cx="464" cy="719" rx="27" ry="27" transform="rotate(-90 464 719)" fill="#13B1A8"/>
</g>
<g opacity="0.6" filter="url(#filter5_df_11126_261911)">
<circle cx="396.735" cy="651.736" r="68.8971" transform="rotate(-105.419 396.735 651.736)" fill="url(#paint4_linear_11126_261911)"/>
</g>
<g opacity="0.7" filter="url(#filter6_df_11126_261911)">
<circle cx="617" cy="494" r="34" transform="rotate(-90 617 494)" fill="#6061E5"/>
</g>
<path d="M83.5632 202.384C83.4666 201.41 83.0521 200.654 82.3196 200.114C81.5871 199.575 80.593 199.305 79.3374 199.305C78.4841 199.305 77.7637 199.426 77.1761 199.668C76.5885 199.901 76.1378 200.227 75.8239 200.646C75.518 201.064 75.3651 201.539 75.3651 202.07C75.349 202.513 75.4415 202.899 75.6428 203.229C75.852 203.559 76.1378 203.845 76.5 204.087C76.8622 204.32 77.2808 204.525 77.7557 204.702C78.2306 204.871 78.7377 205.016 79.277 205.137L81.4986 205.668C82.5772 205.91 83.5672 206.232 84.4688 206.634C85.3703 207.037 86.151 207.532 86.8111 208.119C87.4711 208.707 87.9822 209.399 88.3445 210.196C88.7147 210.993 88.9039 211.906 88.9119 212.937C88.9039 214.45 88.5175 215.762 87.7528 216.873C86.9962 217.976 85.9015 218.833 84.4688 219.445C83.044 220.048 81.3255 220.35 79.3132 220.35C77.317 220.35 75.5784 220.044 74.0973 219.433C72.6243 218.821 71.4732 217.915 70.6442 216.716C69.8232 215.509 69.3925 214.015 69.3523 212.237H74.4112C74.4676 213.066 74.705 213.758 75.1236 214.313C75.5502 214.861 76.1177 215.275 76.826 215.557C77.5424 215.83 78.3513 215.967 79.2528 215.967C80.1383 215.967 80.907 215.839 81.5589 215.581C82.219 215.323 82.7301 214.965 83.0923 214.506C83.4545 214.048 83.6357 213.52 83.6357 212.925C83.6357 212.369 83.4706 211.902 83.1406 211.524C82.8187 211.146 82.3438 210.824 81.7159 210.558C81.0961 210.293 80.3355 210.051 79.4339 209.834L76.7415 209.158C74.6567 208.651 73.0107 207.858 71.8033 206.779C70.5959 205.701 69.9962 204.248 70.0043 202.42C69.9962 200.923 70.3946 199.615 71.1996 198.496C72.0125 197.378 73.1274 196.504 74.544 195.876C75.9607 195.249 77.5705 194.935 79.3736 194.935C81.2088 194.935 82.8106 195.249 84.179 195.876C85.5554 196.504 86.6259 197.378 87.3906 198.496C88.1553 199.615 88.5497 200.911 88.5739 202.384H83.5632ZM104.225 212.104V201.455H109.368V220H104.43V216.631H104.237C103.818 217.718 103.122 218.591 102.148 219.251C101.182 219.911 100.003 220.241 98.6103 220.241C97.3707 220.241 96.28 219.96 95.3382 219.396C94.3965 218.833 93.66 218.032 93.1287 216.994C92.6055 215.955 92.3399 214.712 92.3319 213.263V201.455H97.4753V212.345C97.4834 213.44 97.7772 214.305 98.3567 214.941C98.9363 215.577 99.713 215.895 100.687 215.895C101.307 215.895 101.886 215.754 102.426 215.472C102.965 215.183 103.4 214.756 103.73 214.192C104.068 213.629 104.233 212.933 104.225 212.104ZM113.579 220V195.273H118.722V204.57H118.879C119.105 204.071 119.431 203.563 119.857 203.048C120.292 202.525 120.855 202.09 121.548 201.744C122.248 201.39 123.117 201.213 124.156 201.213C125.508 201.213 126.755 201.567 127.898 202.276C129.041 202.976 129.955 204.034 130.639 205.451C131.323 206.86 131.665 208.626 131.665 210.751C131.665 212.82 131.331 214.567 130.663 215.991C130.003 217.408 129.102 218.483 127.959 219.215C126.824 219.94 125.552 220.302 124.143 220.302C123.145 220.302 122.296 220.137 121.596 219.807C120.904 219.477 120.336 219.062 119.893 218.563C119.451 218.056 119.113 217.545 118.879 217.03H118.65V220H113.579ZM118.614 210.727C118.614 211.83 118.767 212.792 119.072 213.613C119.378 214.434 119.821 215.074 120.401 215.533C120.98 215.983 121.684 216.209 122.513 216.209C123.351 216.209 124.059 215.979 124.638 215.521C125.218 215.054 125.657 214.41 125.955 213.589C126.26 212.76 126.413 211.806 126.413 210.727C126.413 209.657 126.264 208.715 125.967 207.902C125.669 207.089 125.23 206.453 124.651 205.994C124.071 205.536 123.359 205.306 122.513 205.306C121.676 205.306 120.968 205.527 120.388 205.97C119.817 206.413 119.378 207.041 119.072 207.854C118.767 208.667 118.614 209.625 118.614 210.727ZM150.528 206.743L145.819 207.033C145.739 206.63 145.566 206.268 145.3 205.946C145.034 205.616 144.684 205.354 144.249 205.161C143.823 204.96 143.312 204.859 142.716 204.859C141.919 204.859 141.247 205.028 140.7 205.366C140.152 205.696 139.879 206.139 139.879 206.695C139.879 207.137 140.056 207.512 140.41 207.817C140.764 208.123 141.372 208.369 142.233 208.554L145.59 209.23C147.393 209.6 148.737 210.196 149.622 211.017C150.508 211.838 150.95 212.917 150.95 214.253C150.95 215.468 150.592 216.535 149.876 217.452C149.168 218.37 148.194 219.086 146.954 219.602C145.722 220.109 144.302 220.362 142.692 220.362C140.237 220.362 138.281 219.851 136.824 218.829C135.375 217.799 134.526 216.398 134.276 214.627L139.335 214.362C139.488 215.11 139.859 215.682 140.446 216.076C141.034 216.462 141.786 216.656 142.704 216.656C143.606 216.656 144.33 216.482 144.877 216.136C145.433 215.782 145.714 215.327 145.722 214.772C145.714 214.305 145.517 213.923 145.131 213.625C144.744 213.319 144.149 213.086 143.344 212.925L140.132 212.285C138.321 211.923 136.973 211.295 136.088 210.401C135.21 209.508 134.771 208.369 134.771 206.984C134.771 205.793 135.093 204.767 135.737 203.906C136.389 203.044 137.303 202.38 138.478 201.913C139.661 201.446 141.046 201.213 142.632 201.213C144.974 201.213 146.817 201.708 148.161 202.698C149.514 203.688 150.302 205.036 150.528 206.743ZM162.569 220.362C160.669 220.362 159.035 219.96 157.667 219.155C156.306 218.342 155.26 217.215 154.527 215.774C153.803 214.333 153.441 212.675 153.441 210.8C153.441 208.9 153.807 207.234 154.539 205.801C155.28 204.36 156.33 203.237 157.691 202.433C159.051 201.62 160.669 201.213 162.544 201.213C164.162 201.213 165.579 201.507 166.794 202.094C168.01 202.682 168.972 203.507 169.68 204.57C170.388 205.632 170.779 206.88 170.851 208.312H165.998C165.861 207.387 165.498 206.642 164.911 206.079C164.331 205.507 163.571 205.222 162.629 205.222C161.832 205.222 161.136 205.439 160.54 205.874C159.953 206.3 159.494 206.924 159.164 207.745C158.834 208.566 158.669 209.56 158.669 210.727C158.669 211.911 158.83 212.917 159.152 213.746C159.482 214.575 159.944 215.207 160.54 215.641C161.136 216.076 161.832 216.293 162.629 216.293C163.217 216.293 163.744 216.173 164.211 215.931C164.685 215.69 165.076 215.339 165.382 214.881C165.696 214.414 165.901 213.854 165.998 213.202H170.851C170.771 214.619 170.384 215.867 169.692 216.945C169.008 218.016 168.062 218.853 166.855 219.457C165.647 220.06 164.219 220.362 162.569 220.362ZM174.144 220V201.455H179.131V204.69H179.324C179.662 203.539 180.23 202.67 181.026 202.082C181.823 201.487 182.741 201.189 183.779 201.189C184.037 201.189 184.315 201.205 184.612 201.237C184.91 201.269 185.172 201.314 185.397 201.37V205.934C185.156 205.862 184.822 205.797 184.395 205.741C183.968 205.684 183.578 205.656 183.224 205.656C182.467 205.656 181.791 205.821 181.195 206.151C180.608 206.473 180.141 206.924 179.795 207.504C179.457 208.083 179.288 208.751 179.288 209.508V220H174.144ZM188.056 220V201.455H193.2V220H188.056ZM190.64 199.064C189.876 199.064 189.22 198.81 188.672 198.303C188.133 197.788 187.863 197.172 187.863 196.456C187.863 195.748 188.133 195.14 188.672 194.633C189.22 194.118 189.876 193.86 190.64 193.86C191.405 193.86 192.057 194.118 192.596 194.633C193.144 195.14 193.417 195.748 193.417 196.456C193.417 197.172 193.144 197.788 192.596 198.303C192.057 198.81 191.405 199.064 190.64 199.064ZM197.417 220V195.273H202.56V204.57H202.717C202.943 204.071 203.269 203.563 203.695 203.048C204.13 202.525 204.693 202.09 205.385 201.744C206.086 201.39 206.955 201.213 207.993 201.213C209.346 201.213 210.593 201.567 211.736 202.276C212.879 202.976 213.793 204.034 214.477 205.451C215.161 206.86 215.503 208.626 215.503 210.751C215.503 212.82 215.169 214.567 214.501 215.991C213.841 217.408 212.94 218.483 211.797 219.215C210.662 219.94 209.39 220.302 207.981 220.302C206.983 220.302 206.134 220.137 205.434 219.807C204.742 219.477 204.174 219.062 203.731 218.563C203.289 218.056 202.951 217.545 202.717 217.03H202.488V220H197.417ZM202.452 210.727C202.452 211.83 202.604 212.792 202.91 213.613C203.216 214.434 203.659 215.074 204.238 215.533C204.818 215.983 205.522 216.209 206.351 216.209C207.189 216.209 207.897 215.979 208.476 215.521C209.056 215.054 209.495 214.41 209.792 213.589C210.098 212.76 210.251 211.806 210.251 210.727C210.251 209.657 210.102 208.715 209.805 207.902C209.507 207.089 209.068 206.453 208.488 205.994C207.909 205.536 207.197 205.306 206.351 205.306C205.514 205.306 204.806 205.527 204.226 205.97C203.655 206.413 203.216 207.041 202.91 207.854C202.604 208.667 202.452 209.625 202.452 210.727ZM227.387 220.362C225.479 220.362 223.837 219.976 222.461 219.203C221.093 218.422 220.038 217.32 219.298 215.895C218.557 214.462 218.187 212.768 218.187 210.812C218.187 208.904 218.557 207.23 219.298 205.789C220.038 204.348 221.08 203.225 222.425 202.42C223.777 201.616 225.363 201.213 227.182 201.213C228.405 201.213 229.544 201.41 230.599 201.805C231.661 202.191 232.587 202.775 233.376 203.555C234.173 204.336 234.792 205.318 235.235 206.501C235.678 207.677 235.899 209.053 235.899 210.631V212.043H220.239V208.856H231.058C231.058 208.115 230.897 207.459 230.575 206.888C230.253 206.316 229.806 205.87 229.234 205.548C228.671 205.218 228.015 205.053 227.266 205.053C226.486 205.053 225.793 205.234 225.19 205.596C224.594 205.95 224.127 206.429 223.789 207.033C223.451 207.628 223.278 208.292 223.27 209.025V212.055C223.27 212.973 223.439 213.766 223.777 214.434C224.123 215.102 224.61 215.617 225.238 215.979C225.866 216.342 226.61 216.523 227.472 216.523C228.043 216.523 228.566 216.442 229.041 216.281C229.516 216.12 229.923 215.879 230.261 215.557C230.599 215.235 230.856 214.84 231.033 214.374L235.79 214.688C235.549 215.83 235.054 216.829 234.305 217.682C233.565 218.527 232.607 219.187 231.432 219.662C230.265 220.129 228.916 220.362 227.387 220.362ZM256.989 201.455V205.318H245.821V201.455H256.989ZM248.356 197.011H253.5V214.301C253.5 214.776 253.572 215.146 253.717 215.412C253.862 215.67 254.063 215.851 254.321 215.955C254.586 216.06 254.892 216.112 255.238 216.112C255.48 216.112 255.721 216.092 255.963 216.052C256.204 216.004 256.39 215.967 256.518 215.943L257.327 219.771C257.07 219.851 256.707 219.944 256.241 220.048C255.774 220.161 255.206 220.229 254.538 220.254C253.299 220.302 252.212 220.137 251.278 219.759C250.353 219.38 249.632 218.793 249.117 217.996C248.602 217.199 248.348 216.193 248.356 214.977V197.011ZM268.52 220.362C266.644 220.362 265.022 219.964 263.654 219.167C262.294 218.362 261.243 217.243 260.503 215.81C259.762 214.37 259.392 212.699 259.392 210.8C259.392 208.884 259.762 207.21 260.503 205.777C261.243 204.336 262.294 203.217 263.654 202.42C265.022 201.616 266.644 201.213 268.52 201.213C270.395 201.213 272.013 201.616 273.373 202.42C274.742 203.217 275.796 204.336 276.537 205.777C277.277 207.21 277.648 208.884 277.648 210.8C277.648 212.699 277.277 214.37 276.537 215.81C275.796 217.243 274.742 218.362 273.373 219.167C272.013 219.964 270.395 220.362 268.52 220.362ZM268.544 216.378C269.397 216.378 270.109 216.136 270.681 215.653C271.252 215.162 271.683 214.494 271.973 213.649C272.271 212.804 272.42 211.842 272.42 210.763C272.42 209.685 272.271 208.723 271.973 207.878C271.683 207.033 271.252 206.365 270.681 205.874C270.109 205.383 269.397 205.137 268.544 205.137C267.683 205.137 266.958 205.383 266.371 205.874C265.791 206.365 265.352 207.033 265.055 207.878C264.765 208.723 264.62 209.685 264.62 210.763C264.62 211.842 264.765 212.804 265.055 213.649C265.352 214.494 265.791 215.162 266.371 215.653C266.958 216.136 267.683 216.378 268.544 216.378ZM297.24 220.362C295.365 220.362 293.743 219.964 292.375 219.167C291.014 218.362 289.964 217.243 289.223 215.81C288.483 214.37 288.113 212.699 288.113 210.8C288.113 208.884 288.483 207.21 289.223 205.777C289.964 204.336 291.014 203.217 292.375 202.42C293.743 201.616 295.365 201.213 297.24 201.213C299.116 201.213 300.734 201.616 302.094 202.42C303.462 203.217 304.517 204.336 305.257 205.777C305.998 207.21 306.368 208.884 306.368 210.8C306.368 212.699 305.998 214.37 305.257 215.81C304.517 217.243 303.462 218.362 302.094 219.167C300.734 219.964 299.116 220.362 297.24 220.362ZM297.265 216.378C298.118 216.378 298.83 216.136 299.402 215.653C299.973 215.162 300.404 214.494 300.694 213.649C300.991 212.804 301.14 211.842 301.14 210.763C301.14 209.685 300.991 208.723 300.694 207.878C300.404 207.033 299.973 206.365 299.402 205.874C298.83 205.383 298.118 205.137 297.265 205.137C296.403 205.137 295.679 205.383 295.091 205.874C294.512 206.365 294.073 207.033 293.775 207.878C293.485 208.723 293.341 209.685 293.341 210.763C293.341 211.842 293.485 212.804 293.775 213.649C294.073 214.494 294.512 215.162 295.091 215.653C295.679 216.136 296.403 216.378 297.265 216.378ZM321.605 212.104V201.455H326.749V220H321.811V216.631H321.618C321.199 217.718 320.503 218.591 319.529 219.251C318.563 219.911 317.384 220.241 315.991 220.241C314.752 220.241 313.661 219.96 312.719 219.396C311.777 218.833 311.041 218.032 310.51 216.994C309.986 215.955 309.721 214.712 309.713 213.263V201.455H314.856V212.345C314.864 213.44 315.158 214.305 315.738 214.941C316.317 215.577 317.094 215.895 318.068 215.895C318.688 215.895 319.267 215.754 319.806 215.472C320.346 215.183 320.78 214.756 321.11 214.192C321.449 213.629 321.614 212.933 321.605 212.104ZM330.863 220V201.455H335.85V204.69H336.043C336.381 203.539 336.948 202.67 337.745 202.082C338.542 201.487 339.46 201.189 340.498 201.189C340.756 201.189 341.033 201.205 341.331 201.237C341.629 201.269 341.891 201.314 342.116 201.37V205.934C341.874 205.862 341.54 205.797 341.114 205.741C340.687 205.684 340.297 205.656 339.943 205.656C339.186 205.656 338.51 205.821 337.914 206.151C337.327 206.473 336.86 206.924 336.514 207.504C336.176 208.083 336.007 208.751 336.007 209.508V220H330.863ZM357.788 209.278V220H352.644V201.455H357.546V204.727H357.764C358.174 203.648 358.862 202.795 359.828 202.167C360.794 201.531 361.965 201.213 363.342 201.213C364.63 201.213 365.753 201.495 366.71 202.058C367.668 202.622 368.413 203.427 368.944 204.473C369.475 205.511 369.741 206.751 369.741 208.192V220H364.597V209.109C364.606 207.974 364.316 207.089 363.728 206.453C363.141 205.809 362.332 205.487 361.301 205.487C360.609 205.487 359.997 205.636 359.466 205.934C358.943 206.232 358.532 206.666 358.235 207.238C357.945 207.801 357.796 208.482 357.788 209.278ZM382.246 220.362C380.339 220.362 378.697 219.976 377.32 219.203C375.952 218.422 374.897 217.32 374.157 215.895C373.416 214.462 373.046 212.768 373.046 210.812C373.046 208.904 373.416 207.23 374.157 205.789C374.897 204.348 375.94 203.225 377.284 202.42C378.636 201.616 380.222 201.213 382.041 201.213C383.265 201.213 384.404 201.41 385.458 201.805C386.521 202.191 387.446 202.775 388.235 203.555C389.032 204.336 389.652 205.318 390.094 206.501C390.537 207.677 390.759 209.053 390.759 210.631V212.043H375.099V208.856H385.917C385.917 208.115 385.756 207.459 385.434 206.888C385.112 206.316 384.665 205.87 384.094 205.548C383.53 205.218 382.874 205.053 382.126 205.053C381.345 205.053 380.653 205.234 380.049 205.596C379.453 205.95 378.987 206.429 378.648 207.033C378.31 207.628 378.137 208.292 378.129 209.025V212.055C378.129 212.973 378.298 213.766 378.636 214.434C378.982 215.102 379.469 215.617 380.097 215.979C380.725 216.342 381.47 216.523 382.331 216.523C382.902 216.523 383.426 216.442 383.901 216.281C384.375 216.12 384.782 215.879 385.12 215.557C385.458 215.235 385.716 214.84 385.893 214.374L390.65 214.688C390.408 215.83 389.913 216.829 389.165 217.682C388.424 218.527 387.466 219.187 386.291 219.662C385.124 220.129 383.776 220.362 382.246 220.362ZM397.641 220L392.594 201.455H397.798L400.671 213.915H400.84L403.835 201.455H408.942L411.984 213.842H412.141L414.967 201.455H420.158L415.124 220H409.678L406.491 208.337H406.261L403.074 220H397.641ZM438.333 206.743L433.624 207.033C433.543 206.63 433.37 206.268 433.105 205.946C432.839 205.616 432.489 205.354 432.054 205.161C431.628 204.96 431.116 204.859 430.521 204.859C429.724 204.859 429.052 205.028 428.504 205.366C427.957 205.696 427.683 206.139 427.683 206.695C427.683 207.137 427.86 207.512 428.215 207.817C428.569 208.123 429.177 208.369 430.038 208.554L433.394 209.23C435.197 209.6 436.542 210.196 437.427 211.017C438.312 211.838 438.755 212.917 438.755 214.253C438.755 215.468 438.397 216.535 437.681 217.452C436.972 218.37 435.998 219.086 434.759 219.602C433.527 220.109 432.106 220.362 430.497 220.362C428.042 220.362 426.086 219.851 424.629 218.829C423.18 217.799 422.331 216.398 422.081 214.627L427.14 214.362C427.293 215.11 427.663 215.682 428.251 216.076C428.838 216.462 429.591 216.656 430.509 216.656C431.41 216.656 432.135 216.482 432.682 216.136C433.237 215.782 433.519 215.327 433.527 214.772C433.519 214.305 433.322 213.923 432.936 213.625C432.549 213.319 431.954 213.086 431.149 212.925L427.937 212.285C426.126 211.923 424.778 211.295 423.892 210.401C423.015 209.508 422.576 208.369 422.576 206.984C422.576 205.793 422.898 204.767 423.542 203.906C424.194 203.044 425.108 202.38 426.283 201.913C427.466 201.446 428.851 201.213 430.436 201.213C432.779 201.213 434.622 201.708 435.966 202.698C437.318 203.688 438.107 205.036 438.333 206.743ZM447.137 195.273V220H441.994V195.273H447.137ZM459.709 220.362C457.802 220.362 456.16 219.976 454.783 219.203C453.415 218.422 452.36 217.32 451.62 215.895C450.879 214.462 450.509 212.768 450.509 210.812C450.509 208.904 450.879 207.23 451.62 205.789C452.36 204.348 453.403 203.225 454.747 202.42C456.099 201.616 457.685 201.213 459.504 201.213C460.728 201.213 461.867 201.41 462.921 201.805C463.983 202.191 464.909 202.775 465.698 203.555C466.495 204.336 467.115 205.318 467.557 206.501C468 207.677 468.221 209.053 468.221 210.631V212.043H452.562V208.856H463.38C463.38 208.115 463.219 207.459 462.897 206.888C462.575 206.316 462.128 205.87 461.557 205.548C460.993 205.218 460.337 205.053 459.589 205.053C458.808 205.053 458.116 205.234 457.512 205.596C456.916 205.95 456.449 206.429 456.111 207.033C455.773 207.628 455.6 208.292 455.592 209.025V212.055C455.592 212.973 455.761 213.766 456.099 214.434C456.445 215.102 456.932 215.617 457.56 215.979C458.188 216.342 458.933 216.523 459.794 216.523C460.365 216.523 460.889 216.442 461.363 216.281C461.838 216.12 462.245 215.879 462.583 215.557C462.921 215.235 463.179 214.84 463.356 214.374L468.113 214.688C467.871 215.83 467.376 216.829 466.628 217.682C465.887 218.527 464.929 219.187 463.754 219.662C462.587 220.129 461.239 220.362 459.709 220.362ZM481.442 201.455V205.318H470.274V201.455H481.442ZM472.809 197.011H477.953V214.301C477.953 214.776 478.025 215.146 478.17 215.412C478.315 215.67 478.516 215.851 478.774 215.955C479.04 216.06 479.345 216.112 479.692 216.112C479.933 216.112 480.175 216.092 480.416 216.052C480.657 216.004 480.843 215.967 480.971 215.943L481.78 219.771C481.523 219.851 481.161 219.944 480.694 220.048C480.227 220.161 479.659 220.229 478.991 220.254C477.752 220.302 476.665 220.137 475.731 219.759C474.806 219.38 474.085 218.793 473.57 217.996C473.055 217.199 472.801 216.193 472.809 214.977V197.011ZM494.657 201.455V205.318H483.489V201.455H494.657ZM486.024 197.011H491.168V214.301C491.168 214.776 491.24 215.146 491.385 215.412C491.53 215.67 491.731 215.851 491.989 215.955C492.254 216.06 492.56 216.112 492.906 216.112C493.148 216.112 493.389 216.092 493.631 216.052C493.872 216.004 494.057 215.967 494.186 215.943L494.995 219.771C494.738 219.851 494.375 219.944 493.909 220.048C493.442 220.161 492.874 220.229 492.206 220.254C490.967 220.302 489.88 220.137 488.946 219.759C488.021 219.38 487.3 218.793 486.785 217.996C486.27 217.199 486.016 216.193 486.024 214.977V197.011ZM506.26 220.362C504.352 220.362 502.71 219.976 501.334 219.203C499.966 218.422 498.911 217.32 498.171 215.895C497.43 214.462 497.06 212.768 497.06 210.812C497.06 208.904 497.43 207.23 498.171 205.789C498.911 204.348 499.954 203.225 501.298 202.42C502.65 201.616 504.236 201.213 506.055 201.213C507.278 201.213 508.417 201.41 509.472 201.805C510.534 202.191 511.46 202.775 512.249 203.555C513.046 204.336 513.665 205.318 514.108 206.501C514.551 207.677 514.772 209.053 514.772 210.631V212.043H499.112V208.856H509.931C509.931 208.115 509.77 207.459 509.448 206.888C509.126 206.316 508.679 205.87 508.107 205.548C507.544 205.218 506.888 205.053 506.139 205.053C505.359 205.053 504.666 205.234 504.063 205.596C503.467 205.95 503 206.429 502.662 207.033C502.324 207.628 502.151 208.292 502.143 209.025V212.055C502.143 212.973 502.312 213.766 502.65 214.434C502.996 215.102 503.483 215.617 504.111 215.979C504.739 216.342 505.483 216.523 506.345 216.523C506.916 216.523 507.439 216.442 507.914 216.281C508.389 216.12 508.796 215.879 509.134 215.557C509.472 215.235 509.729 214.84 509.906 214.374L514.664 214.688C514.422 215.83 513.927 216.829 513.178 217.682C512.438 218.527 511.48 219.187 510.305 219.662C509.138 220.129 507.789 220.362 506.26 220.362ZM518.129 220V201.455H523.115V204.69H523.308C523.646 203.539 524.214 202.67 525.011 202.082C525.808 201.487 526.725 201.189 527.764 201.189C528.021 201.189 528.299 201.205 528.597 201.237C528.895 201.269 529.156 201.314 529.382 201.37V205.934C529.14 205.862 528.806 205.797 528.379 205.741C527.953 205.684 527.562 205.656 527.208 205.656C526.452 205.656 525.776 205.821 525.18 206.151C524.592 206.473 524.125 206.924 523.779 207.504C523.441 208.083 523.272 208.751 523.272 209.508V220H518.129Z" fill="#6061E5"/>
<path d="M71.996 278.072L68.396 265.4H71.15L73.274 273.698L75.578 265.364H77.846L80.168 273.698L82.274 265.4H84.974L81.374 278.072H78.98L76.676 270.062L74.372 278.072H71.996ZM87.8195 278.18C86.2355 278.18 84.9575 277.118 84.9575 275.246V275.138C84.9575 273.014 86.3435 272.06 88.3235 272.06C89.1335 272.06 89.7455 272.222 90.3395 272.456V272.168C90.3395 271.052 89.6735 270.476 88.5215 270.476C87.6215 270.476 86.9015 270.764 86.3075 271.016L85.6055 269.018C86.5415 268.55 87.5135 268.244 88.8995 268.244C90.2135 268.244 91.2035 268.604 91.8335 269.234C92.4995 269.9 92.8235 270.908 92.8235 272.15V278H90.3215V276.956C89.7455 277.712 88.9535 278.18 87.8195 278.18ZM88.6655 276.308C89.6555 276.326 90.3755 275.714 90.3755 274.832V274.022C89.9975 273.842 89.4755 273.716 88.9535 273.716C88.0175 273.716 87.4235 274.184 87.4235 275.066V275.102C87.4235 275.894 87.9275 276.29 88.6655 276.308ZM94.778 278V268.352H97.334V269.648C97.892 268.874 98.594 268.172 99.818 268.172C101.618 268.172 102.662 269.432 102.662 271.43V278H100.106V272.186C100.106 271.052 99.602 270.476 98.738 270.476C97.892 270.476 97.334 271.052 97.334 272.186V278H94.778ZM107.574 278.162C106.098 278.162 105.018 277.586 105.018 275.588V270.512H104.046V268.352H105.018V265.886H107.574V268.352H109.482V270.512H107.574V275.066C107.574 275.624 107.826 275.894 108.366 275.894C108.762 275.894 109.14 275.786 109.464 275.624V277.658C108.96 277.946 108.348 278.162 107.574 278.162ZM118.138 278.162C116.662 278.162 115.582 277.586 115.582 275.588V270.512H114.61V268.352H115.582V265.886H118.138V268.352H120.046V270.512H118.138V275.066C118.138 275.624 118.39 275.894 118.93 275.894C119.326 275.894 119.704 275.786 120.028 275.624V277.658C119.524 277.946 118.912 278.162 118.138 278.162ZM125.637 278.216C123.027 278.216 121.101 276.182 121.101 273.302V273.104C121.101 270.242 123.045 268.172 125.655 268.172C128.265 268.172 130.173 270.206 130.173 273.086V273.284C130.173 276.146 128.247 278.216 125.637 278.216ZM125.655 276.002C126.915 276.002 127.653 274.832 127.653 273.266V273.14C127.653 271.574 126.861 270.386 125.637 270.386C124.359 270.386 123.621 271.556 123.621 273.122V273.248C123.621 274.796 124.431 276.002 125.655 276.002ZM141.059 278.18C139.763 278.18 138.989 277.478 138.449 276.758V278H135.893V265.004H138.449V269.684C139.007 268.874 139.781 268.172 141.059 268.172C142.967 268.172 144.731 269.738 144.731 273.032V273.32C144.731 276.614 142.985 278.18 141.059 278.18ZM140.303 275.948C141.365 275.948 142.175 274.904 142.175 273.266V273.086C142.175 271.448 141.365 270.404 140.303 270.404C139.241 270.404 138.413 271.448 138.413 273.086V273.266C138.413 274.904 139.241 275.948 140.303 275.948ZM150.562 278.216C148.006 278.216 146.044 276.29 146.044 273.284V273.122C146.044 270.26 147.826 268.172 150.256 268.172C153.01 268.172 154.36 270.422 154.36 273.302C154.36 273.446 154.36 273.752 154.342 274.13H148.582C148.798 275.408 149.59 276.074 150.67 276.074C151.462 276.074 152.074 275.714 152.686 275.12L154 276.668C153.118 277.64 152.002 278.216 150.562 278.216ZM148.564 272.438H151.894C151.786 271.106 151.21 270.278 150.256 270.278C149.32 270.278 148.708 271.07 148.564 272.438ZM163.015 278.162C161.539 278.162 160.459 277.586 160.459 275.588V270.512H159.487V268.352H160.459V265.886H163.015V268.352H164.923V270.512H163.015V275.066C163.015 275.624 163.267 275.894 163.807 275.894C164.203 275.894 164.581 275.786 164.905 275.624V277.658C164.401 277.946 163.789 278.162 163.015 278.162ZM166.602 278V265.004H169.158V269.648C169.716 268.874 170.418 268.172 171.642 268.172C173.442 268.172 174.486 269.432 174.486 271.43V278H171.93V272.186C171.93 271.052 171.426 270.476 170.562 270.476C169.716 270.476 169.158 271.052 169.158 272.186V278H166.602ZM180.586 278.216C178.03 278.216 176.068 276.29 176.068 273.284V273.122C176.068 270.26 177.85 268.172 180.28 268.172C183.034 268.172 184.384 270.422 184.384 273.302C184.384 273.446 184.384 273.752 184.366 274.13H178.606C178.822 275.408 179.614 276.074 180.694 276.074C181.486 276.074 182.098 275.714 182.71 275.12L184.024 276.668C183.142 277.64 182.026 278.216 180.586 278.216ZM178.588 272.438H181.918C181.81 271.106 181.234 270.278 180.28 270.278C179.344 270.278 178.732 271.07 178.588 272.438ZM190.483 278V270.512H189.511V268.424H190.483V267.776C190.483 266.786 190.735 266.084 191.203 265.616C191.689 265.13 192.391 264.896 193.309 264.896C194.011 264.896 194.479 264.986 194.893 265.112V267.218C194.587 267.128 194.317 267.056 193.957 267.056C193.363 267.056 193.021 267.362 193.021 268.046V268.424H194.893V270.512H193.039V278H190.483ZM196.243 278V268.352H198.799V278H196.243ZM196.189 267.326V265.004H198.853V267.326H196.189ZM200.932 278V268.352H203.488V270.062C203.956 268.892 204.73 268.118 206.098 268.19V270.962H205.99C204.424 270.962 203.488 271.934 203.488 273.95V278H200.932ZM210.458 278.18C209.324 278.18 207.974 277.802 206.804 276.848L207.92 275.048C208.784 275.714 209.702 276.128 210.494 276.128C211.214 276.128 211.52 275.786 211.52 275.39V275.354C211.52 274.796 210.8 274.562 209.756 274.112C208.388 273.518 207.218 272.834 207.218 271.196V271.16C207.218 269.306 208.658 268.208 210.53 268.208C211.574 268.208 212.744 268.568 213.716 269.252L212.69 271.088C211.97 270.62 211.178 270.26 210.494 270.26C209.882 270.26 209.558 270.566 209.558 270.944V270.98C209.558 271.484 210.278 271.772 211.304 272.24C212.708 272.906 213.86 273.608 213.86 275.138V275.174C213.86 277.172 212.384 278.18 210.458 278.18ZM218.228 278.162C216.752 278.162 215.672 277.586 215.672 275.588V270.512H214.7V268.352H215.672V265.886H218.228V268.352H220.136V270.512H218.228V275.066C218.228 275.624 218.48 275.894 219.02 275.894C219.416 275.894 219.794 275.786 220.118 275.624V277.658C219.614 277.946 219.002 278.162 218.228 278.162ZM229.998 278.216C227.388 278.216 225.462 276.182 225.462 273.302V273.104C225.462 270.242 227.406 268.172 230.016 268.172C232.626 268.172 234.534 270.206 234.534 273.086V273.284C234.534 276.146 232.608 278.216 229.998 278.216ZM230.016 276.002C231.276 276.002 232.014 274.832 232.014 273.266V273.14C232.014 271.574 231.222 270.386 229.998 270.386C228.72 270.386 227.982 271.556 227.982 273.122V273.248C227.982 274.796 228.792 276.002 230.016 276.002ZM236.229 278V268.352H238.785V269.648C239.343 268.874 240.045 268.172 241.269 268.172C243.069 268.172 244.113 269.432 244.113 271.43V278H241.557V272.186C241.557 271.052 241.053 270.476 240.189 270.476C239.343 270.476 238.785 271.052 238.785 272.186V278H236.229ZM250.212 278.216C247.656 278.216 245.694 276.29 245.694 273.284V273.122C245.694 270.26 247.476 268.172 249.906 268.172C252.66 268.172 254.01 270.422 254.01 273.302C254.01 273.446 254.01 273.752 253.992 274.13H248.232C248.448 275.408 249.24 276.074 250.32 276.074C251.112 276.074 251.724 275.714 252.336 275.12L253.65 276.668C252.768 277.64 251.652 278.216 250.212 278.216ZM248.214 272.438H251.544C251.436 271.106 250.86 270.278 249.906 270.278C248.97 270.278 248.358 271.07 248.214 272.438ZM262.666 278.162C261.19 278.162 260.11 277.586 260.11 275.588V270.512H259.138V268.352H260.11V265.886H262.666V268.352H264.574V270.512H262.666V275.066C262.666 275.624 262.918 275.894 263.458 275.894C263.854 275.894 264.232 275.786 264.556 275.624V277.658C264.052 277.946 263.439 278.162 262.666 278.162ZM270.164 278.216C267.554 278.216 265.628 276.182 265.628 273.302V273.104C265.628 270.242 267.572 268.172 270.182 268.172C272.792 268.172 274.7 270.206 274.7 273.086V273.284C274.7 276.146 272.774 278.216 270.164 278.216ZM270.182 276.002C271.442 276.002 272.18 274.832 272.18 273.266V273.14C272.18 271.574 271.388 270.386 270.164 270.386C268.886 270.386 268.148 271.556 268.148 273.122V273.248C268.148 274.796 268.958 276.002 270.182 276.002ZM280.421 278V265.004H282.977V271.916L285.605 268.352H288.593L285.533 272.186L288.665 278H285.749L283.769 274.13L282.977 275.156V278H280.421ZM289.772 278V268.352H292.328V269.648C292.886 268.874 293.588 268.172 294.812 268.172C296.612 268.172 297.656 269.432 297.656 271.43V278H295.1V272.186C295.1 271.052 294.596 270.476 293.732 270.476C292.886 270.476 292.328 271.052 292.328 272.186V278H289.772ZM303.791 278.216C301.181 278.216 299.255 276.182 299.255 273.302V273.104C299.255 270.242 301.199 268.172 303.809 268.172C306.419 268.172 308.327 270.206 308.327 273.086V273.284C308.327 276.146 306.401 278.216 303.791 278.216ZM303.809 276.002C305.069 276.002 305.807 274.832 305.807 273.266V273.14C305.807 271.574 305.015 270.386 303.791 270.386C302.513 270.386 301.775 271.556 301.775 273.122V273.248C301.775 274.796 302.585 276.002 303.809 276.002ZM311.561 278.072L309.005 268.352H311.579L312.893 274.058L314.387 268.316H316.565L318.077 274.076L319.409 268.352H321.947L319.355 278.072H316.997L315.467 272.348L313.901 278.072H311.561ZM329.244 278.072L326.688 268.352H329.262L330.576 274.058L332.07 268.316H334.248L335.76 274.076L337.092 268.352H339.63L337.038 278.072H334.68L333.15 272.348L331.584 278.072H329.244ZM341.012 278V265.004H343.568V269.648C344.126 268.874 344.828 268.172 346.052 268.172C347.852 268.172 348.896 269.432 348.896 271.43V278H346.34V272.186C346.34 271.052 345.836 270.476 344.972 270.476C344.126 270.476 343.568 271.052 343.568 272.186V278H341.012ZM354.996 278.216C352.44 278.216 350.478 276.29 350.478 273.284V273.122C350.478 270.26 352.26 268.172 354.69 268.172C357.444 268.172 358.794 270.422 358.794 273.302C358.794 273.446 358.794 273.752 358.776 274.13H353.016C353.232 275.408 354.024 276.074 355.104 276.074C355.896 276.074 356.508 275.714 357.12 275.12L358.434 276.668C357.552 277.64 356.436 278.216 354.996 278.216ZM352.998 272.438H356.328C356.22 271.106 355.644 270.278 354.69 270.278C353.754 270.278 353.142 271.07 352.998 272.438ZM360.471 278V268.352H363.027V269.648C363.585 268.874 364.287 268.172 365.511 268.172C367.311 268.172 368.355 269.432 368.355 271.43V278H365.799V272.186C365.799 271.052 365.295 270.476 364.431 270.476C363.585 270.476 363.027 271.052 363.027 272.186V278H360.471ZM376.248 278.072L373.692 268.352H376.266L377.58 274.058L379.074 268.316H381.252L382.764 274.076L384.096 268.352H386.634L384.042 278.072H381.684L380.154 272.348L378.588 278.072H376.248ZM391.734 278.216C389.178 278.216 387.216 276.29 387.216 273.284V273.122C387.216 270.26 388.998 268.172 391.428 268.172C394.182 268.172 395.532 270.422 395.532 273.302C395.532 273.446 395.532 273.752 395.514 274.13H389.754C389.97 275.408 390.762 276.074 391.842 276.074C392.634 276.074 393.246 275.714 393.858 275.12L395.172 276.668C394.29 277.64 393.174 278.216 391.734 278.216ZM389.736 272.438H393.066C392.958 271.106 392.382 270.278 391.428 270.278C390.492 270.278 389.88 271.07 389.736 272.438ZM401.325 278V265.004H403.881V278H401.325ZM408.392 278.18C406.808 278.18 405.53 277.118 405.53 275.246V275.138C405.53 273.014 406.916 272.06 408.896 272.06C409.706 272.06 410.318 272.222 410.912 272.456V272.168C410.912 271.052 410.246 270.476 409.094 270.476C408.194 270.476 407.474 270.764 406.88 271.016L406.178 269.018C407.114 268.55 408.086 268.244 409.472 268.244C410.786 268.244 411.776 268.604 412.406 269.234C413.072 269.9 413.396 270.908 413.396 272.15V278H410.894V276.956C410.318 277.712 409.526 278.18 408.392 278.18ZM409.238 276.308C410.228 276.326 410.948 275.714 410.948 274.832V274.022C410.57 273.842 410.048 273.716 409.526 273.716C408.59 273.716 407.996 274.184 407.996 275.066V275.102C407.996 275.894 408.5 276.29 409.238 276.308ZM418.14 278.18C416.322 278.18 415.296 276.92 415.296 274.922V268.352H417.834V274.166C417.834 275.3 418.338 275.876 419.202 275.876C420.066 275.876 420.606 275.3 420.606 274.166V268.352H423.162V278H420.606V276.704C420.066 277.478 419.346 278.18 418.14 278.18ZM425.212 278V268.352H427.768V269.648C428.326 268.874 429.028 268.172 430.252 268.172C432.052 268.172 433.096 269.432 433.096 271.43V278H430.54V272.186C430.54 271.052 430.036 270.476 429.172 270.476C428.326 270.476 427.768 271.052 427.768 272.186V278H425.212ZM439.069 278.216C436.513 278.216 434.695 276.164 434.695 273.32V273.104C434.695 270.242 436.549 268.172 439.159 268.172C440.545 268.172 441.481 268.64 442.309 269.468L440.923 271.322C440.455 270.836 439.969 270.458 439.195 270.458C438.025 270.458 437.233 271.574 437.233 273.14V273.212C437.233 274.814 437.971 275.93 439.249 275.93C440.005 275.93 440.491 275.57 440.995 275.048L442.345 276.74C441.553 277.622 440.581 278.216 439.069 278.216ZM443.792 278V265.004H446.348V269.648C446.906 268.874 447.608 268.172 448.832 268.172C450.632 268.172 451.676 269.432 451.676 271.43V278H449.12V272.186C449.12 271.052 448.616 270.476 447.752 270.476C446.906 270.476 446.348 271.052 446.348 272.186V278H443.792ZM461.836 278.216C459.226 278.216 457.3 276.182 457.3 273.302V273.104C457.3 270.242 459.244 268.172 461.854 268.172C464.464 268.172 466.372 270.206 466.372 273.086V273.284C466.372 276.146 464.446 278.216 461.836 278.216ZM461.854 276.002C463.114 276.002 463.852 274.832 463.852 273.266V273.14C463.852 271.574 463.06 270.386 461.836 270.386C460.558 270.386 459.82 271.556 459.82 273.122V273.248C459.82 274.796 460.63 276.002 461.854 276.002ZM470.857 278.18C469.039 278.18 468.013 276.92 468.013 274.922V268.352H470.551V274.166C470.551 275.3 471.055 275.876 471.919 275.876C472.783 275.876 473.323 275.3 473.323 274.166V268.352H475.879V278H473.323V276.704C472.783 277.478 472.063 278.18 470.857 278.18ZM477.928 278V268.352H480.484V270.062C480.952 268.892 481.726 268.118 483.094 268.19V270.962H482.986C481.42 270.962 480.484 271.934 480.484 273.95V278H477.928ZM493.729 278.18C492.433 278.18 491.659 277.478 491.119 276.758V278H488.563V265.004H491.119V269.684C491.677 268.874 492.451 268.172 493.729 268.172C495.637 268.172 497.401 269.738 497.401 273.032V273.32C497.401 276.614 495.655 278.18 493.729 278.18ZM492.973 275.948C494.035 275.948 494.845 274.904 494.845 273.266V273.086C494.845 271.448 494.035 270.404 492.973 270.404C491.911 270.404 491.083 271.448 491.083 273.086V273.266C491.083 274.904 491.911 275.948 492.973 275.948ZM499.11 278V268.352H501.666V270.062C502.134 268.892 502.908 268.118 504.276 268.19V270.962H504.168C502.602 270.962 501.666 271.934 501.666 273.95V278H499.11ZM507.726 278.18C506.142 278.18 504.864 277.118 504.864 275.246V275.138C504.864 273.014 506.25 272.06 508.23 272.06C509.04 272.06 509.652 272.222 510.246 272.456V272.168C510.246 271.052 509.58 270.476 508.428 270.476C507.528 270.476 506.808 270.764 506.214 271.016L505.512 269.018C506.448 268.55 507.42 268.244 508.806 268.244C510.12 268.244 511.11 268.604 511.74 269.234C512.406 269.9 512.73 270.908 512.73 272.15V278H510.228V276.956C509.652 277.712 508.86 278.18 507.726 278.18ZM508.572 276.308C509.562 276.326 510.282 275.714 510.282 274.832V274.022C509.904 273.842 509.382 273.716 508.86 273.716C507.924 273.716 507.33 274.184 507.33 275.066V275.102C507.33 275.894 507.834 276.29 508.572 276.308ZM514.684 278V268.352H517.24V269.648C517.798 268.874 518.5 268.172 519.724 268.172C521.524 268.172 522.568 269.432 522.568 271.43V278H520.012V272.186C520.012 271.052 519.508 270.476 518.644 270.476C517.798 270.476 517.24 271.052 517.24 272.186V278H514.684ZM527.876 278.18C525.968 278.18 524.204 276.614 524.204 273.32V273.032C524.204 269.738 525.95 268.172 527.876 268.172C529.172 268.172 529.928 268.874 530.486 269.594V265.004H533.042V278H530.486V276.668C529.928 277.478 529.154 278.18 527.876 278.18ZM528.632 275.948C529.694 275.948 530.522 274.904 530.522 273.266V273.086C530.522 271.448 529.694 270.404 528.632 270.404C527.57 270.404 526.76 271.448 526.76 273.086V273.266C526.76 274.904 527.57 275.948 528.632 275.948ZM539.118 278V268.352H541.674V269.648C542.232 268.874 542.934 268.172 544.158 268.172C545.958 268.172 547.002 269.432 547.002 271.43V278H544.446V272.186C544.446 271.052 543.942 270.476 543.078 270.476C542.232 270.476 541.674 271.052 541.674 272.186V278H539.118ZM553.101 278.216C550.545 278.216 548.583 276.29 548.583 273.284V273.122C548.583 270.26 550.365 268.172 552.795 268.172C555.549 268.172 556.899 270.422 556.899 273.302C556.899 273.446 556.899 273.752 556.881 274.13H551.121C551.337 275.408 552.129 276.074 553.209 276.074C554.001 276.074 554.613 275.714 555.225 275.12L556.539 276.668C555.657 277.64 554.541 278.216 553.101 278.216ZM551.103 272.438H554.433C554.325 271.106 553.749 270.278 552.795 270.278C551.859 270.278 551.247 271.07 551.103 272.438ZM560.168 278.072L557.612 268.352H560.186L561.5 274.058L562.994 268.316H565.172L566.684 274.076L568.016 268.352H570.554L567.962 278.072H565.604L564.074 272.348L562.508 278.072H560.168ZM575.242 278L579.76 265.328H582.244L586.762 278H584.062L583.126 275.264H578.788L577.87 278H575.242ZM579.58 272.96H582.334L580.966 268.856L579.58 272.96ZM588.414 278V265.4H591.024V278H588.414ZM593.219 273.662V271.178H598.493V273.662H593.219ZM69.026 302.718V290.352H71.582V291.684C72.14 290.874 72.914 290.172 74.192 290.172C76.1 290.172 77.864 291.738 77.864 295.032V295.32C77.864 298.614 76.118 300.18 74.192 300.18C72.896 300.18 72.122 299.478 71.582 298.758V302.718H69.026ZM73.436 297.948C74.498 297.948 75.308 296.904 75.308 295.266V295.086C75.308 293.448 74.498 292.404 73.436 292.404C72.374 292.404 71.546 293.448 71.546 295.086V295.266C71.546 296.904 72.374 297.948 73.436 297.948ZM83.7309 300.216C81.1209 300.216 79.1949 298.182 79.1949 295.302V295.104C79.1949 292.242 81.1389 290.172 83.7489 290.172C86.3589 290.172 88.2669 292.206 88.2669 295.086V295.284C88.2669 298.146 86.3409 300.216 83.7309 300.216ZM83.7489 298.002C85.0089 298.002 85.7469 296.832 85.7469 295.266V295.14C85.7469 293.574 84.9549 292.386 83.7309 292.386C82.4529 292.386 81.7149 293.556 81.7149 295.122V295.248C81.7149 296.796 82.5249 298.002 83.7489 298.002ZM91.5 300.072L88.944 290.352H91.518L92.832 296.058L94.326 290.316H96.504L98.016 296.076L99.348 290.352H101.886L99.294 300.072H96.936L95.406 294.348L93.84 300.072H91.5ZM106.986 300.216C104.43 300.216 102.468 298.29 102.468 295.284V295.122C102.468 292.26 104.25 290.172 106.68 290.172C109.434 290.172 110.784 292.422 110.784 295.302C110.784 295.446 110.784 295.752 110.766 296.13H105.006C105.222 297.408 106.014 298.074 107.094 298.074C107.886 298.074 108.498 297.714 109.11 297.12L110.424 298.668C109.542 299.64 108.426 300.216 106.986 300.216ZM104.988 294.438H108.318C108.21 293.106 107.634 292.278 106.68 292.278C105.744 292.278 105.132 293.07 104.988 294.438ZM112.462 300V290.352H115.018V292.062C115.486 290.892 116.26 290.118 117.628 290.19V292.962H117.52C115.954 292.962 115.018 293.934 115.018 295.95V300H112.462ZM122.929 300.216C120.373 300.216 118.411 298.29 118.411 295.284V295.122C118.411 292.26 120.193 290.172 122.623 290.172C125.377 290.172 126.727 292.422 126.727 295.302C126.727 295.446 126.727 295.752 126.709 296.13H120.949C121.165 297.408 121.957 298.074 123.037 298.074C123.829 298.074 124.441 297.714 125.053 297.12L126.367 298.668C125.485 299.64 124.369 300.216 122.929 300.216ZM120.931 294.438H124.261C124.153 293.106 123.577 292.278 122.623 292.278C121.687 292.278 121.075 293.07 120.931 294.438ZM131.735 300.18C129.827 300.18 128.063 298.614 128.063 295.32V295.032C128.063 291.738 129.809 290.172 131.735 290.172C133.031 290.172 133.787 290.874 134.345 291.594V287.004H136.901V300H134.345V298.668C133.787 299.478 133.013 300.18 131.735 300.18ZM132.491 297.948C133.553 297.948 134.381 296.904 134.381 295.266V295.086C134.381 293.448 133.553 292.404 132.491 292.404C131.429 292.404 130.619 293.448 130.619 295.086V295.266C130.619 296.904 131.429 297.948 132.491 297.948ZM145.929 300.162C144.453 300.162 143.373 299.586 143.373 297.588V292.512H142.401V290.352H143.373V287.886H145.929V290.352H147.837V292.512H145.929V297.066C145.929 297.624 146.181 297.894 146.721 297.894C147.117 297.894 147.495 297.786 147.819 297.624V299.658C147.315 299.946 146.703 300.162 145.929 300.162ZM153.392 300.216C150.836 300.216 148.874 298.29 148.874 295.284V295.122C148.874 292.26 150.656 290.172 153.086 290.172C155.84 290.172 157.19 292.422 157.19 295.302C157.19 295.446 157.19 295.752 157.172 296.13H151.412C151.628 297.408 152.42 298.074 153.5 298.074C154.292 298.074 154.904 297.714 155.516 297.12L156.83 298.668C155.948 299.64 154.832 300.216 153.392 300.216ZM151.394 294.438H154.724C154.616 293.106 154.04 292.278 153.086 292.278C152.15 292.278 151.538 293.07 151.394 294.438ZM158.868 300V290.352H161.424V291.648C162 290.838 162.72 290.172 163.926 290.172C165.042 290.172 165.852 290.712 166.302 291.576C167.004 290.73 167.868 290.172 169.038 290.172C170.748 290.172 171.9 291.288 171.9 293.412V300H169.362V294.186C169.362 293.07 168.876 292.476 168.03 292.476C167.184 292.476 166.662 293.07 166.662 294.186V300H164.106V294.186C164.106 293.07 163.638 292.476 162.792 292.476C161.946 292.476 161.424 293.07 161.424 294.186V300H158.868ZM173.915 302.718V290.352H176.471V291.684C177.029 290.874 177.803 290.172 179.081 290.172C180.989 290.172 182.753 291.738 182.753 295.032V295.32C182.753 298.614 181.007 300.18 179.081 300.18C177.785 300.18 177.011 299.478 176.471 298.758V302.718H173.915ZM178.325 297.948C179.387 297.948 180.197 296.904 180.197 295.266V295.086C180.197 293.448 179.387 292.404 178.325 292.404C177.263 292.404 176.435 293.448 176.435 295.086V295.266C176.435 296.904 177.263 297.948 178.325 297.948ZM184.552 300V287.004H187.108V300H184.552ZM191.618 300.18C190.034 300.18 188.756 299.118 188.756 297.246V297.138C188.756 295.014 190.142 294.06 192.122 294.06C192.932 294.06 193.544 294.222 194.138 294.456V294.168C194.138 293.052 193.472 292.476 192.32 292.476C191.42 292.476 190.7 292.764 190.106 293.016L189.404 291.018C190.34 290.55 191.312 290.244 192.698 290.244C194.012 290.244 195.002 290.604 195.632 291.234C196.298 291.9 196.622 292.908 196.622 294.15V300H194.12V298.956C193.544 299.712 192.752 300.18 191.618 300.18ZM192.464 298.308C193.454 298.326 194.174 297.714 194.174 296.832V296.022C193.796 295.842 193.274 295.716 192.752 295.716C191.816 295.716 191.222 296.184 191.222 297.066V297.102C191.222 297.894 191.726 298.29 192.464 298.308ZM201.441 300.162C199.965 300.162 198.885 299.586 198.885 297.588V292.512H197.913V290.352H198.885V287.886H201.441V290.352H203.349V292.512H201.441V297.066C201.441 297.624 201.693 297.894 202.233 297.894C202.629 297.894 203.007 297.786 203.331 297.624V299.658C202.827 299.946 202.215 300.162 201.441 300.162ZM208.904 300.216C206.348 300.216 204.386 298.29 204.386 295.284V295.122C204.386 292.26 206.168 290.172 208.598 290.172C211.352 290.172 212.702 292.422 212.702 295.302C212.702 295.446 212.702 295.752 212.684 296.13H206.924C207.14 297.408 207.932 298.074 209.012 298.074C209.804 298.074 210.416 297.714 211.028 297.12L212.342 298.668C211.46 299.64 210.344 300.216 208.904 300.216ZM206.906 294.438H210.236C210.128 293.106 209.552 292.278 208.598 292.278C207.662 292.278 207.05 293.07 206.906 294.438ZM218.801 300V292.512H217.829V290.424H218.801V289.776C218.801 288.786 219.053 288.084 219.521 287.616C220.007 287.13 220.709 286.896 221.627 286.896C222.329 286.896 222.797 286.986 223.211 287.112V289.218C222.905 289.128 222.635 289.056 222.275 289.056C221.681 289.056 221.339 289.362 221.339 290.046V290.424H223.211V292.512H221.357V300H218.801ZM228.416 300.216C225.806 300.216 223.88 298.182 223.88 295.302V295.104C223.88 292.242 225.824 290.172 228.434 290.172C231.044 290.172 232.952 292.206 232.952 295.086V295.284C232.952 298.146 231.026 300.216 228.416 300.216ZM228.434 298.002C229.694 298.002 230.432 296.832 230.432 295.266V295.14C230.432 293.574 229.64 292.386 228.416 292.386C227.138 292.386 226.4 293.556 226.4 295.122V295.248C226.4 296.796 227.21 298.002 228.434 298.002ZM234.647 300V290.352H237.203V292.062C237.671 290.892 238.445 290.118 239.813 290.19V292.962H239.705C238.139 292.962 237.203 293.934 237.203 295.95V300H234.647ZM245.282 300V290.352H247.838V292.062C248.306 290.892 249.08 290.118 250.448 290.19V292.962H250.34C248.774 292.962 247.838 293.934 247.838 295.95V300H245.282ZM255.75 300.216C253.194 300.216 251.232 298.29 251.232 295.284V295.122C251.232 292.26 253.014 290.172 255.444 290.172C258.198 290.172 259.548 292.422 259.548 295.302C259.548 295.446 259.548 295.752 259.53 296.13H253.77C253.986 297.408 254.778 298.074 255.858 298.074C256.65 298.074 257.262 297.714 257.874 297.12L259.188 298.668C258.306 299.64 257.19 300.216 255.75 300.216ZM253.752 294.438H257.082C256.974 293.106 256.398 292.278 255.444 292.278C254.508 292.278 253.896 293.07 253.752 294.438ZM261.225 302.718V290.352H263.781V291.684C264.339 290.874 265.113 290.172 266.391 290.172C268.299 290.172 270.063 291.738 270.063 295.032V295.32C270.063 298.614 268.317 300.18 266.391 300.18C265.095 300.18 264.321 299.478 263.781 298.758V302.718H261.225ZM265.635 297.948C266.697 297.948 267.507 296.904 267.507 295.266V295.086C267.507 293.448 266.697 292.404 265.635 292.404C264.573 292.404 263.745 293.448 263.745 295.086V295.266C263.745 296.904 264.573 297.948 265.635 297.948ZM275.93 300.216C273.32 300.216 271.394 298.182 271.394 295.302V295.104C271.394 292.242 273.338 290.172 275.948 290.172C278.558 290.172 280.466 292.206 280.466 295.086V295.284C280.466 298.146 278.54 300.216 275.93 300.216ZM275.948 298.002C277.208 298.002 277.946 296.832 277.946 295.266V295.14C277.946 293.574 277.154 292.386 275.93 292.386C274.652 292.386 273.914 293.556 273.914 295.122V295.248C273.914 296.796 274.724 298.002 275.948 298.002ZM282.161 300V290.352H284.717V292.062C285.185 290.892 285.959 290.118 287.327 290.19V292.962H287.219C285.653 292.962 284.717 293.934 284.717 295.95V300H282.161ZM291.722 300.162C290.246 300.162 289.166 299.586 289.166 297.588V292.512H288.194V290.352H289.166V287.886H291.722V290.352H293.63V292.512H291.722V297.066C291.722 297.624 291.974 297.894 292.514 297.894C292.91 297.894 293.288 297.786 293.612 297.624V299.658C293.108 299.946 292.496 300.162 291.722 300.162ZM298.225 300.18C297.091 300.18 295.741 299.802 294.571 298.848L295.687 297.048C296.551 297.714 297.469 298.128 298.261 298.128C298.981 298.128 299.287 297.786 299.287 297.39V297.354C299.287 296.796 298.567 296.562 297.523 296.112C296.155 295.518 294.985 294.834 294.985 293.196V293.16C294.985 291.306 296.425 290.208 298.297 290.208C299.341 290.208 300.511 290.568 301.483 291.252L300.457 293.088C299.737 292.62 298.945 292.26 298.261 292.26C297.649 292.26 297.325 292.566 297.325 292.944V292.98C297.325 293.484 298.045 293.772 299.071 294.24C300.475 294.906 301.627 295.608 301.627 297.138V297.174C301.627 299.172 300.151 300.18 298.225 300.18ZM304.602 295.824L304.26 292.836L304.35 292.746C306.24 292.584 307.068 291.936 307.068 290.964V290.928C307.068 290.118 306.474 289.632 305.538 289.632C304.602 289.632 303.864 290.118 303.288 290.712L301.812 288.93C302.784 287.94 303.99 287.256 305.628 287.256C308.058 287.256 309.642 288.624 309.642 290.856V290.874C309.642 293.016 308.238 293.988 306.528 294.402L306.33 295.824H304.602ZM304.044 300V297.228H306.834V300H304.044ZM315.477 300V287.4H319.545C323.199 287.4 325.557 289.92 325.557 293.61V293.772C325.557 297.462 323.199 300 319.545 300H315.477ZM319.527 289.758H318.087V297.642H319.527C321.507 297.642 322.857 296.256 322.857 293.754V293.664C322.857 291.162 321.507 289.758 319.527 289.758ZM331.53 300.216C328.92 300.216 326.994 298.182 326.994 295.302V295.104C326.994 292.242 328.938 290.172 331.548 290.172C334.158 290.172 336.066 292.206 336.066 295.086V295.284C336.066 298.146 334.14 300.216 331.53 300.216ZM331.548 298.002C332.808 298.002 333.546 296.832 333.546 295.266V295.14C333.546 293.574 332.754 292.386 331.53 292.386C330.252 292.386 329.514 293.556 329.514 295.122V295.248C329.514 296.796 330.324 298.002 331.548 298.002ZM337.76 300V290.352H340.316V291.648C340.874 290.874 341.576 290.172 342.8 290.172C344.6 290.172 345.644 291.432 345.644 293.43V300H343.088V294.186C343.088 293.052 342.584 292.476 341.72 292.476C340.874 292.476 340.316 293.052 340.316 294.186V300H337.76ZM347.55 293.142L347.784 287.4H350.592V287.508L348.792 293.142H347.55ZM355.162 300.162C353.686 300.162 352.606 299.586 352.606 297.588V292.512H351.634V290.352H352.606V287.886H355.162V290.352H357.07V292.512H355.162V297.066C355.162 297.624 355.414 297.894 355.954 297.894C356.35 297.894 356.728 297.786 357.052 297.624V299.658C356.548 299.946 355.936 300.162 355.162 300.162ZM362.774 300V290.352H365.33V291.648C365.906 290.838 366.626 290.172 367.832 290.172C368.948 290.172 369.758 290.712 370.208 291.576C370.91 290.73 371.774 290.172 372.944 290.172C374.654 290.172 375.806 291.288 375.806 293.412V300H373.268V294.186C373.268 293.07 372.782 292.476 371.936 292.476C371.09 292.476 370.568 293.07 370.568 294.186V300H368.012V294.186C368.012 293.07 367.544 292.476 366.698 292.476C365.852 292.476 365.33 293.07 365.33 294.186V300H362.774ZM377.857 289.326V287.004H380.521V289.326H377.857ZM377.911 300V290.352H380.467V300H377.911ZM385.536 300.18C384.402 300.18 383.052 299.802 381.882 298.848L382.998 297.048C383.862 297.714 384.78 298.128 385.572 298.128C386.292 298.128 386.598 297.786 386.598 297.39V297.354C386.598 296.796 385.878 296.562 384.834 296.112C383.466 295.518 382.296 294.834 382.296 293.196V293.16C382.296 291.306 383.736 290.208 385.608 290.208C386.652 290.208 387.822 290.568 388.794 291.252L387.768 293.088C387.048 292.62 386.256 292.26 385.572 292.26C384.96 292.26 384.636 292.566 384.636 292.944V292.98C384.636 293.484 385.356 293.772 386.382 294.24C387.786 294.906 388.938 295.608 388.938 297.138V297.174C388.938 299.172 387.462 300.18 385.536 300.18ZM393.305 300.18C392.171 300.18 390.821 299.802 389.651 298.848L390.767 297.048C391.631 297.714 392.549 298.128 393.341 298.128C394.061 298.128 394.367 297.786 394.367 297.39V297.354C394.367 296.796 393.647 296.562 392.603 296.112C391.235 295.518 390.065 294.834 390.065 293.196V293.16C390.065 291.306 391.505 290.208 393.377 290.208C394.421 290.208 395.591 290.568 396.563 291.252L395.537 293.088C394.817 292.62 394.025 292.26 393.341 292.26C392.729 292.26 392.405 292.566 392.405 292.944V292.98C392.405 293.484 393.125 293.772 394.151 294.24C395.555 294.906 396.707 295.608 396.707 297.138V297.174C396.707 299.172 395.231 300.18 393.305 300.18ZM406.465 300.216C403.855 300.216 401.929 298.182 401.929 295.302V295.104C401.929 292.242 403.873 290.172 406.483 290.172C409.093 290.172 411.001 292.206 411.001 295.086V295.284C411.001 298.146 409.075 300.216 406.465 300.216ZM406.483 298.002C407.743 298.002 408.481 296.832 408.481 295.266V295.14C408.481 293.574 407.689 292.386 406.465 292.386C405.187 292.386 404.449 293.556 404.449 295.122V295.248C404.449 296.796 405.259 298.002 406.483 298.002ZM415.486 300.18C413.668 300.18 412.642 298.92 412.642 296.922V290.352H415.18V296.166C415.18 297.3 415.684 297.876 416.548 297.876C417.412 297.876 417.952 297.3 417.952 296.166V290.352H420.508V300H417.952V298.704C417.412 299.478 416.692 300.18 415.486 300.18ZM425.509 300.162C424.033 300.162 422.953 299.586 422.953 297.588V292.512H421.981V290.352H422.953V287.886H425.509V290.352H427.417V292.512H425.509V297.066C425.509 297.624 425.761 297.894 426.301 297.894C426.697 297.894 427.075 297.786 427.399 297.624V299.658C426.895 299.946 426.283 300.162 425.509 300.162ZM437.28 300.216C434.67 300.216 432.744 298.182 432.744 295.302V295.104C432.744 292.242 434.688 290.172 437.298 290.172C439.908 290.172 441.816 292.206 441.816 295.086V295.284C441.816 298.146 439.89 300.216 437.28 300.216ZM437.298 298.002C438.558 298.002 439.296 296.832 439.296 295.266V295.14C439.296 293.574 438.504 292.386 437.28 292.386C436.002 292.386 435.264 293.556 435.264 295.122V295.248C435.264 296.796 436.074 298.002 437.298 298.002ZM443.51 300V290.352H446.066V291.648C446.624 290.874 447.326 290.172 448.55 290.172C450.35 290.172 451.394 291.432 451.394 293.43V300H448.838V294.186C448.838 293.052 448.334 292.476 447.47 292.476C446.624 292.476 446.066 293.052 446.066 294.186V300H443.51ZM460.349 300.162C458.873 300.162 457.793 299.586 457.793 297.588V292.512H456.821V290.352H457.793V287.886H460.349V290.352H462.257V292.512H460.349V297.066C460.349 297.624 460.601 297.894 461.141 297.894C461.537 297.894 461.915 297.786 462.239 297.624V299.658C461.735 299.946 461.123 300.162 460.349 300.162ZM463.936 300V287.004H466.492V291.648C467.05 290.874 467.752 290.172 468.976 290.172C470.776 290.172 471.82 291.432 471.82 293.43V300H469.264V294.186C469.264 293.052 468.76 292.476 467.896 292.476C467.05 292.476 466.492 293.052 466.492 294.186V300H463.936ZM473.833 289.326V287.004H476.497V289.326H473.833ZM473.887 300V290.352H476.443V300H473.887ZM481.512 300.18C480.378 300.18 479.028 299.802 477.858 298.848L478.974 297.048C479.838 297.714 480.756 298.128 481.548 298.128C482.268 298.128 482.574 297.786 482.574 297.39V297.354C482.574 296.796 481.854 296.562 480.81 296.112C479.442 295.518 478.272 294.834 478.272 293.196V293.16C478.272 291.306 479.712 290.208 481.584 290.208C482.628 290.208 483.798 290.568 484.77 291.252L483.744 293.088C483.024 292.62 482.232 292.26 481.548 292.26C480.936 292.26 480.612 292.566 480.612 292.944V292.98C480.612 293.484 481.332 293.772 482.358 294.24C483.762 294.906 484.914 295.608 484.914 297.138V297.174C484.914 299.172 483.438 300.18 481.512 300.18ZM494.636 300.216C492.08 300.216 490.118 298.29 490.118 295.284V295.122C490.118 292.26 491.9 290.172 494.33 290.172C497.084 290.172 498.434 292.422 498.434 295.302C498.434 295.446 498.434 295.752 498.416 296.13H492.656C492.872 297.408 493.664 298.074 494.744 298.074C495.536 298.074 496.148 297.714 496.76 297.12L498.074 298.668C497.192 299.64 496.076 300.216 494.636 300.216ZM492.638 294.438H495.968C495.86 293.106 495.284 292.278 494.33 292.278C493.394 292.278 492.782 293.07 492.638 294.438ZM501.814 290.352L503.326 293.178L504.856 290.352H507.502L504.712 295.05L507.61 300H504.892L503.29 296.994L501.67 300H499.006L501.886 295.086L499.114 290.352H501.814ZM512.422 300.216C509.866 300.216 508.048 298.164 508.048 295.32V295.104C508.048 292.242 509.902 290.172 512.512 290.172C513.898 290.172 514.834 290.64 515.662 291.468L514.276 293.322C513.808 292.836 513.322 292.458 512.548 292.458C511.378 292.458 510.586 293.574 510.586 295.14V295.212C510.586 296.814 511.324 297.93 512.602 297.93C513.358 297.93 513.844 297.57 514.348 297.048L515.698 298.74C514.906 299.622 513.934 300.216 512.422 300.216ZM517.181 289.326V287.004H519.845V289.326H517.181ZM517.235 300V290.352H519.791V300H517.235ZM524.896 300.162C523.42 300.162 522.34 299.586 522.34 297.588V292.512H521.368V290.352H522.34V287.886H524.896V290.352H526.804V292.512H524.896V297.066C524.896 297.624 525.148 297.894 525.688 297.894C526.084 297.894 526.462 297.786 526.786 297.624V299.658C526.282 299.946 525.67 300.162 524.896 300.162ZM528.519 289.326V287.004H531.183V289.326H528.519ZM528.573 300V290.352H531.129V300H528.573ZM533.282 300V290.352H535.838V291.648C536.396 290.874 537.098 290.172 538.322 290.172C540.122 290.172 541.166 291.432 541.166 293.43V300H538.61V294.186C538.61 293.052 538.106 292.476 537.242 292.476C536.396 292.476 535.838 293.052 535.838 294.186V300H533.282ZM546.869 302.754C545.519 302.754 544.313 302.466 543.197 301.944L543.989 299.964C544.763 300.396 545.717 300.666 546.725 300.666C548.327 300.666 549.101 299.928 549.101 298.38V297.768C548.453 298.614 547.697 299.28 546.401 299.28C544.493 299.28 542.801 297.786 542.801 294.744V294.69C542.801 291.648 544.511 290.172 546.401 290.172C547.715 290.172 548.471 290.838 549.083 291.594V290.352H551.639V298.236C551.639 299.766 551.261 300.864 550.541 301.602C549.731 302.394 548.507 302.754 546.869 302.754ZM547.229 297.084C548.309 297.084 549.119 296.166 549.119 294.726V294.708C549.119 293.286 548.309 292.368 547.229 292.368C546.149 292.368 545.357 293.286 545.357 294.708V294.726C545.357 296.184 546.149 297.084 547.229 297.084ZM561.873 300.216C559.263 300.216 557.337 298.182 557.337 295.302V295.104C557.337 292.242 559.281 290.172 561.891 290.172C564.501 290.172 566.409 292.206 566.409 295.086V295.284C566.409 298.146 564.483 300.216 561.873 300.216ZM561.891 298.002C563.151 298.002 563.889 296.832 563.889 295.266V295.14C563.889 293.574 563.097 292.386 561.873 292.386C560.595 292.386 559.857 293.556 559.857 295.122V295.248C559.857 296.796 560.667 298.002 561.891 298.002ZM568.104 302.718V290.352H570.66V291.684C571.218 290.874 571.992 290.172 573.27 290.172C575.178 290.172 576.942 291.738 576.942 295.032V295.32C576.942 298.614 575.196 300.18 573.27 300.18C571.974 300.18 571.2 299.478 570.66 298.758V302.718H568.104ZM572.514 297.948C573.576 297.948 574.386 296.904 574.386 295.266V295.086C574.386 293.448 573.576 292.404 572.514 292.404C571.452 292.404 570.624 293.448 570.624 295.086V295.266C570.624 296.904 571.452 297.948 572.514 297.948ZM578.651 302.718V290.352H581.207V291.684C581.765 290.874 582.539 290.172 583.817 290.172C585.725 290.172 587.489 291.738 587.489 295.032V295.32C587.489 298.614 585.743 300.18 583.817 300.18C582.521 300.18 581.747 299.478 581.207 298.758V302.718H578.651ZM583.061 297.948C584.123 297.948 584.933 296.904 584.933 295.266V295.086C584.933 293.448 584.123 292.404 583.061 292.404C581.999 292.404 581.171 293.448 581.171 295.086V295.266C581.171 296.904 581.999 297.948 583.061 297.948ZM593.356 300.216C590.746 300.216 588.82 298.182 588.82 295.302V295.104C588.82 292.242 590.764 290.172 593.374 290.172C595.984 290.172 597.892 292.206 597.892 295.086V295.284C597.892 298.146 595.966 300.216 593.356 300.216ZM593.374 298.002C594.634 298.002 595.372 296.832 595.372 295.266V295.14C595.372 293.574 594.58 292.386 593.356 292.386C592.078 292.386 591.34 293.556 591.34 295.122V295.248C591.34 296.796 592.15 298.002 593.374 298.002ZM599.587 300V290.352H602.143V292.062C602.611 290.892 603.385 290.118 604.753 290.19V292.962H604.645C603.079 292.962 602.143 293.934 602.143 295.95V300H599.587ZM609.148 300.162C607.672 300.162 606.592 299.586 606.592 297.588V292.512H605.62V290.352H606.592V287.886H609.148V290.352H611.056V292.512H609.148V297.066C609.148 297.624 609.4 297.894 609.94 297.894C610.336 297.894 610.714 297.786 611.038 297.624V299.658C610.534 299.946 609.922 300.162 609.148 300.162ZM615.525 300.18C613.707 300.18 612.681 298.92 612.681 296.922V290.352H615.219V296.166C615.219 297.3 615.723 297.876 616.587 297.876C617.451 297.876 617.991 297.3 617.991 296.166V290.352H620.547V300H617.991V298.704C617.451 299.478 616.731 300.18 615.525 300.18ZM622.596 300V290.352H625.152V291.648C625.71 290.874 626.412 290.172 627.636 290.172C629.436 290.172 630.48 291.432 630.48 293.43V300H627.924V294.186C627.924 293.052 627.42 292.476 626.556 292.476C625.71 292.476 625.152 293.052 625.152 294.186V300H622.596ZM632.494 289.326V287.004H635.158V289.326H632.494ZM632.548 300V290.352H635.104V300H632.548ZM640.208 300.162C638.732 300.162 637.652 299.586 637.652 297.588V292.512H636.68V290.352H637.652V287.886H640.208V290.352H642.116V292.512H640.208V297.066C640.208 297.624 640.46 297.894 641 297.894C641.396 297.894 641.774 297.786 642.098 297.624V299.658C641.594 299.946 640.982 300.162 640.208 300.162ZM647.505 296.742L649.269 290.352H651.861L648.693 300.126C648.045 302.052 647.307 302.79 645.795 302.79C645.039 302.79 644.337 302.574 643.725 302.214L644.427 300.306C644.733 300.486 645.129 300.63 645.471 300.63C645.867 300.63 646.119 300.486 646.299 300.018L643.023 290.352H645.687L647.505 296.742ZM654.1 295.824L653.29 287.76V287.4H656.314V287.76L655.486 295.824H654.1ZM653.398 300V297.228H656.188V300H653.398Z" fill="#231D2C"/>
<g filter="url(#filter7_ddd_11126_261911)">
<rect x="68" y="330" width="293" height="193.147" fill="#FBFBFB"/>
<rect x="68" y="330" width="293" height="19.4362" fill="#6061E5"/>
<circle cx="81.1164" cy="339.718" r="3.64428" fill="white"/>
<circle cx="95.6975" cy="339.718" r="3.64428" fill="white"/>
<circle cx="110.272" cy="339.718" r="3.64428" fill="white"/>
<rect x="107.972" y="369.972" width="216.21" height="29.0703" rx="10.0509" fill="#565656"/>
<rect x="107.972" y="407.97" width="216.21" height="43.9177" rx="6.56923" fill="#F1F3F5"/>
<line x1="119.796" y1="419.191" x2="188.178" y2="419.191" stroke="#CBCBCB" stroke-width="0.0583467"/>
<line x1="119.796" y1="429.051" x2="188.178" y2="429.051" stroke="#CBCBCB" stroke-width="0.0583467"/>
<line x1="119.796" y1="439.903" x2="188.178" y2="439.903" stroke="#CBCBCB" stroke-width="0.0583467"/>
<rect x="124.702" y="442.325" width="21.5299" height="3.5008" rx="1.7504" transform="rotate(-90 124.702 442.325)" fill="#6061E5"/>
<rect x="133.742" y="435.907" width="16.6872" height="3.5008" rx="1.7504" transform="rotate(-90 133.742 435.907)" fill="#F2D1E2"/>
<rect x="124.702" y="442.325" width="10.5024" height="3.5008" rx="1.7504" transform="rotate(-90 124.702 442.325)" fill="#565656"/>
<rect x="133.742" y="435.907" width="7.93515" height="3.5008" rx="1.7504" transform="rotate(-90 133.742 435.907)" fill="#565656"/>
<rect x="142.785" y="435.907" width="21.1798" height="3.5008" rx="1.7504" transform="rotate(-90 142.785 435.907)" fill="#6061E5"/>
<rect x="152.239" y="441.45" width="26.7228" height="3.5008" rx="1.7504" transform="rotate(-90 152.239 441.45)" fill="#F2D1E2"/>
<rect x="160.585" y="437.949" width="17.7374" height="3.5008" rx="1.7504" transform="rotate(-90 160.585 437.949)" fill="#6061E5"/>
<rect x="168.048" y="435.907" width="12.3695" height="3.5008" rx="1.7504" transform="rotate(-90 168.048 435.907)" fill="#F2D1E2"/>
<rect x="175.461" y="435.266" width="12.3695" height="3.5008" rx="1.7504" transform="rotate(-90 175.461 435.266)" fill="#6061E5"/>
<rect x="183.163" y="440.049" width="23.9221" height="3.5008" rx="1.7504" transform="rotate(-90 183.163 440.049)" fill="#F2D1E2"/>
<rect x="142.785" y="435.907" width="7.93515" height="3.5008" rx="1.7504" transform="rotate(-90 142.785 435.907)" fill="#565656"/>
<rect x="152.239" y="441.45" width="12.3695" height="3.5008" rx="1.7504" transform="rotate(-90 152.239 441.45)" fill="#565656"/>
<rect x="160.639" y="437.949" width="7.35168" height="3.5008" rx="1.7504" transform="rotate(-90 160.639 437.949)" fill="#565656"/>
<rect x="168.048" y="435.907" width="9.10208" height="3.5008" rx="1.7504" transform="rotate(-90 168.048 435.907)" fill="#565656"/>
<rect x="175.461" y="435.266" width="6.65152" height="3.5008" rx="1.7504" transform="rotate(-90 175.461 435.266)" fill="#565656"/>
<rect x="183.163" y="440.049" width="11.436" height="3.5008" rx="1.7504" transform="rotate(-90 183.163 440.049)" fill="#565656"/>
<rect x="124.672" y="443.984" width="3.72882" height="1.14733" rx="0.573665" fill="#BCBEC2"/>
<rect x="133.706" y="443.984" width="3.72882" height="1.14733" rx="0.573665" fill="#BCBEC2"/>
<rect x="142.6" y="443.984" width="3.72882" height="1.14733" rx="0.573665" fill="#BCBEC2"/>
<rect x="152.066" y="443.984" width="3.72882" height="1.14733" rx="0.573665" fill="#BCBEC2"/>
<rect x="160.525" y="443.984" width="3.72882" height="1.14733" rx="0.573665" fill="#BCBEC2"/>
<rect x="167.985" y="443.984" width="3.72882" height="1.14733" rx="0.573665" fill="#BCBEC2"/>
<rect x="175.294" y="443.984" width="3.72882" height="1.14733" rx="0.573665" fill="#BCBEC2"/>
<rect x="183.041" y="443.984" width="3.72882" height="1.14733" rx="0.573665" fill="#BCBEC2"/>
<line x1="187.362" y1="419.191" x2="255.745" y2="419.191" stroke="#CBCBCB" stroke-width="0.0583467"/>
<line x1="187.362" y1="429.051" x2="255.745" y2="429.051" stroke="#CBCBCB" stroke-width="0.0583467"/>
<line x1="187.362" y1="439.903" x2="255.745" y2="439.903" stroke="#CBCBCB" stroke-width="0.0583467"/>
<rect x="192.268" y="442.325" width="21.5299" height="3.5008" rx="1.7504" transform="rotate(-90 192.268 442.325)" fill="#6061E5"/>
<rect x="201.308" y="435.907" width="16.6872" height="3.5008" rx="1.7504" transform="rotate(-90 201.308 435.907)" fill="#F2D1E2"/>
<rect x="192.268" y="442.325" width="10.5024" height="3.5008" rx="1.7504" transform="rotate(-90 192.268 442.325)" fill="#565656"/>
<rect x="201.308" y="435.907" width="7.93515" height="3.5008" rx="1.7504" transform="rotate(-90 201.308 435.907)" fill="#565656"/>
<rect x="210.351" y="435.907" width="21.1798" height="3.5008" rx="1.7504" transform="rotate(-90 210.351 435.907)" fill="#6061E5"/>
<rect x="219.805" y="441.45" width="26.7228" height="3.5008" rx="1.7504" transform="rotate(-90 219.805 441.45)" fill="#F2D1E2"/>
<rect x="228.151" y="437.949" width="17.7374" height="3.5008" rx="1.7504" transform="rotate(-90 228.151 437.949)" fill="#6061E5"/>
<rect x="235.614" y="435.907" width="12.3695" height="3.5008" rx="1.7504" transform="rotate(-90 235.614 435.907)" fill="#F2D1E2"/>
<rect x="243.027" y="435.266" width="12.3695" height="3.5008" rx="1.7504" transform="rotate(-90 243.027 435.266)" fill="#6061E5"/>
<rect x="250.726" y="440.049" width="23.9221" height="3.5008" rx="1.7504" transform="rotate(-90 250.726 440.049)" fill="#F2D1E2"/>
<rect x="210.351" y="435.907" width="7.93515" height="3.5008" rx="1.7504" transform="rotate(-90 210.351 435.907)" fill="#565656"/>
<rect x="219.805" y="441.45" width="12.3695" height="3.5008" rx="1.7504" transform="rotate(-90 219.805 441.45)" fill="#565656"/>
<rect x="228.205" y="437.949" width="7.35168" height="3.5008" rx="1.7504" transform="rotate(-90 228.205 437.949)" fill="#565656"/>
<rect x="235.614" y="435.907" width="9.10208" height="3.5008" rx="1.7504" transform="rotate(-90 235.614 435.907)" fill="#565656"/>
<rect x="243.027" y="435.266" width="6.65152" height="3.5008" rx="1.7504" transform="rotate(-90 243.027 435.266)" fill="#565656"/>
<rect x="250.726" y="440.049" width="11.436" height="3.5008" rx="1.7504" transform="rotate(-90 250.726 440.049)" fill="#565656"/>
<rect x="192.235" y="443.984" width="3.72882" height="1.14733" rx="0.573665" fill="#BCBEC2"/>
<rect x="201.272" y="443.984" width="3.72882" height="1.14733" rx="0.573665" fill="#BCBEC2"/>
<rect x="210.167" y="443.984" width="3.72882" height="1.14733" rx="0.573665" fill="#BCBEC2"/>
<rect x="219.632" y="443.984" width="3.72882" height="1.14733" rx="0.573665" fill="#BCBEC2"/>
<rect x="228.091" y="443.984" width="3.72882" height="1.14733" rx="0.573665" fill="#BCBEC2"/>
<rect x="235.552" y="443.984" width="3.72882" height="1.14733" rx="0.573665" fill="#BCBEC2"/>
<rect x="242.86" y="443.984" width="3.72882" height="1.14733" rx="0.573665" fill="#BCBEC2"/>
<rect x="250.606" y="443.984" width="3.72882" height="1.14733" rx="0.573665" fill="#BCBEC2"/>
<line x1="254.928" y1="419.765" x2="310.67" y2="419.765" stroke="#CBCBCB" stroke-width="0.0583467"/>
<line x1="254.928" y1="428.211" x2="310.67" y2="428.211" stroke="#CBCBCB" stroke-width="0.0583467"/>
<line x1="254.928" y1="440.035" x2="310.67" y2="440.035" stroke="#CBCBCB" stroke-width="0.0583467"/>
<rect x="259.831" y="442.325" width="21.5299" height="3.5008" rx="1.7504" transform="rotate(-90 259.831 442.325)" fill="#6061E5"/>
<rect x="268.871" y="435.907" width="16.6872" height="3.5008" rx="1.7504" transform="rotate(-90 268.871 435.907)" fill="#F2D1E2"/>
<rect x="259.831" y="442.325" width="10.5024" height="3.5008" rx="1.7504" transform="rotate(-90 259.831 442.325)" fill="#565656"/>
<rect x="268.871" y="435.907" width="7.93515" height="3.5008" rx="1.7504" transform="rotate(-90 268.871 435.907)" fill="#565656"/>
<rect x="277.914" y="435.907" width="21.1798" height="3.5008" rx="1.7504" transform="rotate(-90 277.914 435.907)" fill="#6061E5"/>
<rect x="287.369" y="441.45" width="26.7228" height="3.5008" rx="1.7504" transform="rotate(-90 287.369 441.45)" fill="#F2D1E2"/>
<rect x="295.717" y="437.949" width="17.7374" height="3.5008" rx="1.7504" transform="rotate(-90 295.717 437.949)" fill="#6061E5"/>
<rect x="303.18" y="435.907" width="12.3695" height="3.5008" rx="1.7504" transform="rotate(-90 303.18 435.907)" fill="#F2D1E2"/>
<rect x="277.914" y="435.907" width="7.93515" height="3.5008" rx="1.7504" transform="rotate(-90 277.914 435.907)" fill="#565656"/>
<rect x="287.369" y="441.45" width="12.3695" height="3.5008" rx="1.7504" transform="rotate(-90 287.369 441.45)" fill="#565656"/>
<rect x="295.771" y="437.949" width="7.35168" height="3.5008" rx="1.7504" transform="rotate(-90 295.771 437.949)" fill="#565656"/>
<rect x="303.18" y="435.907" width="9.10208" height="3.5008" rx="1.7504" transform="rotate(-90 303.18 435.907)" fill="#565656"/>
<rect x="259.801" y="443.984" width="3.72882" height="1.14733" rx="0.573665" fill="#BCBEC2"/>
<rect x="268.838" y="443.984" width="3.72882" height="1.14733" rx="0.573665" fill="#BCBEC2"/>
<rect x="277.732" y="443.984" width="3.72882" height="1.14733" rx="0.573665" fill="#BCBEC2"/>
<rect x="287.199" y="443.984" width="3.72882" height="1.14733" rx="0.573665" fill="#BCBEC2"/>
<rect x="295.657" y="443.984" width="3.72882" height="1.14733" rx="0.573665" fill="#BCBEC2"/>
<rect x="303.118" y="443.984" width="3.72882" height="1.14733" rx="0.573665" fill="#BCBEC2"/>
<rect x="222.434" y="455.366" width="101.746" height="54.5068" rx="5.72394" fill="#F1F3F5"/>
<path d="M260.691 470.166H248.434V484.177H263.692L272.263 478.142V461.65L260.691 470.166Z" fill="#E4EBF8"/>
<path d="M279.803 461.876H273.748V469.47H279.591L296.274 465.886V457.183L279.803 461.876Z" fill="#E4EBF8"/>
<path d="M281.17 496.65H275.053V503.545H280.956L296.276 507.634V500.74L281.17 496.65Z" fill="#E4EBF8"/>
<path d="M285.591 469.47H274.311V477.103H286.44L296.279 477.103V469.47L285.591 469.47Z" fill="#E4EBF8"/>
<path d="M286.054 489.39H274.677V496.837H286.909L296.832 496.837V489.39L286.054 489.39Z" fill="#E4EBF8"/>
<path d="M263.089 484.177H250.478V495.971H263.089L273.935 503.725V489.446L263.089 484.177Z" fill="#E4EBF8"/>
<rect x="251.784" y="470.028" width="25.8777" height="3.90958" rx="1.8617" transform="rotate(90 251.784 470.028)" fill="#6061E5"/>
<path d="M273.746 489.39C274.774 489.39 275.607 490.224 275.607 491.252L275.607 501.864C275.607 502.892 274.774 503.725 273.746 503.725L273.56 503.725C272.531 503.725 271.698 502.892 271.698 501.864L271.698 491.252C271.698 490.224 272.531 489.39 273.56 489.39L273.746 489.39Z" fill="#6061E5"/>
<rect x="275.607" y="461.836" width="16.383" height="3.90958" rx="1.8617" transform="rotate(90 275.607 461.836)" fill="#6061E5"/>
<rect x="298.882" y="457.183" width="8.56383" height="3.90958" rx="1.8617" transform="rotate(90 298.882 457.183)" fill="#6061E5"/>
<rect x="298.882" y="469.657" width="7.44681" height="3.90958" rx="1.8617" transform="rotate(90 298.882 469.657)" fill="#6061E5"/>
<rect x="298.694" y="489.39" width="7.44681" height="4.09575" rx="1.8617" transform="rotate(90 298.694 489.39)" fill="#6061E5"/>
<rect x="298.694" y="500.561" width="7.07447" height="4.09575" rx="1.8617" transform="rotate(90 298.694 500.561)" fill="#6061E5"/>
<rect x="109.791" y="455.366" width="103.563" height="54.5068" rx="5.09431" fill="#F1F3F5"/>
<path d="M138.74 468.449C138.74 466.399 139.691 464.433 141.384 462.983C143.076 461.534 145.372 460.719 147.765 460.719H155.402V503.533H147.765C145.372 503.533 143.076 502.718 141.384 501.269C139.691 499.819 138.74 497.853 138.74 495.803V468.449Z" fill="#6061E5"/>
<path d="M156.666 503.322H173.849C175.892 503.322 177.852 502.376 179.296 500.694C180.741 499.011 181.552 496.729 181.552 494.349V488.137H156.666V503.322Z" fill="#73D3CD"/>
<path d="M181.552 487.082V468.508C181.552 466.443 180.741 464.461 179.296 463.001C177.852 461.54 175.892 460.719 173.849 460.719H156.666V487.082H181.552Z" fill="#F2D1E2"/>
</g>
<g filter="url(#filter8_ddd_11126_261911)">
<rect x="349" y="416" width="196" height="129.204" fill="#FBFBFB"/>
<rect x="349" y="416" width="196" height="13.0017" fill="#E492BD"/>
<circle cx="357.776" cy="422.501" r="2.43781" fill="white"/>
<circle cx="367.527" cy="422.501" r="2.43781" fill="white"/>
<circle cx="377.279" cy="422.501" r="2.43781" fill="white"/>
<rect x="361.154" y="453.678" width="119.287" height="68.5358" rx="6.72345" fill="#F1F3F5"/>
<path d="M405 475.404H392.381V489.829H408.089L416.914 483.615V466.637L405 475.404Z" fill="#E4EBF8"/>
<path d="M424.681 466.869H418.447V474.687H424.463L441.639 470.997V462.037L424.681 466.869Z" fill="#E4EBF8"/>
<path d="M426.087 502.67H419.789V509.768H425.867L441.639 513.978V506.88L426.087 502.67Z" fill="#E4EBF8"/>
<path d="M430.636 474.687H419.022V482.545H431.51L441.639 482.545V474.687L430.636 474.687Z" fill="#E4EBF8"/>
<path d="M431.118 495.195H419.406V502.862H431.999L442.214 502.862V495.195L431.118 495.195Z" fill="#E4EBF8"/>
<path d="M407.472 489.828H394.49V501.97H407.472L418.639 509.953V495.252L407.472 489.828Z" fill="#E4EBF8"/>
<rect x="395.832" y="475.262" width="26.6414" height="4.02495" rx="1.91665" transform="rotate(90 395.832 475.262)" fill="#6061E5"/>
<path d="M418.448 495.195C419.506 495.195 420.364 496.053 420.364 497.112L420.364 508.037C420.364 509.095 419.506 509.953 418.448 509.953L418.256 509.953C417.197 509.953 416.339 509.095 416.339 508.037L416.339 497.112C416.339 496.053 417.197 495.195 418.256 495.195L418.448 495.195Z" fill="#6061E5"/>
<rect x="420.364" y="466.829" width="16.8665" height="4.02495" rx="1.91665" transform="rotate(90 420.364 466.829)" fill="#6061E5"/>
<rect x="444.322" y="462.037" width="8.81657" height="4.02495" rx="1.91665" transform="rotate(90 444.322 462.037)" fill="#6061E5"/>
<rect x="444.322" y="474.879" width="7.66658" height="4.02495" rx="1.91665" transform="rotate(90 444.322 474.879)" fill="#6061E5"/>
<rect x="444.13" y="495.195" width="7.66658" height="4.21662" rx="1.91665" transform="rotate(90 444.13 495.195)" fill="#6061E5"/>
<rect x="444.13" y="506.695" width="7.28325" height="4.21662" rx="1.91665" transform="rotate(90 444.13 506.695)" fill="#6061E5"/>
<rect x="488.771" y="453.677" width="44.9697" height="68.0622" rx="4.90372" fill="#EAEDF3"/>
<rect x="492.417" y="465.831" width="37.6773" height="2.43079" rx="1.2154" fill="#ADB5BD"/>
<rect x="492.417" y="458.539" width="29.1695" height="2.43079" rx="1.2154" fill="#70777E"/>
<rect x="492.681" y="474.339" width="37.1489" height="2.43079" rx="1.2154" fill="#ADB5BD"/>
<rect x="492.954" y="482.003" width="36.5744" height="2.67475" rx="1.33738" fill="#ADB5BD"/>
<rect x="492.681" y="498.647" width="37.1489" height="2.43079" rx="1.2154" fill="#ADB5BD"/>
<rect x="492.681" y="507.155" width="37.1489" height="2.43079" rx="1.2154" fill="#ADB5BD"/>
<rect x="492.681" y="515.663" width="37.1489" height="2.43079" rx="1.2154" fill="#ADB5BD"/>
<rect x="492.681" y="490.139" width="37.1489" height="2.43079" rx="1.2154" fill="#ADB5BD"/>
</g>
<g filter="url(#filter9_ddd_11126_261911)">
<rect x="230" y="537" width="161.264" height="106.306" fill="#FBFBFB"/>
<rect x="230" y="537" width="161.264" height="10.6975" fill="#73D3CD"/>
<circle cx="237.221" cy="542.349" r="2.00577" fill="white"/>
<circle cx="245.244" cy="542.349" r="2.00577" fill="white"/>
<circle cx="253.267" cy="542.349" r="2.00577" fill="white"/>
<rect x="251.029" y="567.688" width="119.084" height="6.60217" rx="3.30109" fill="#EAEDF3"/>
<rect x="282.451" y="559.619" width="56.2407" height="3.79014" rx="1.89507" fill="#565656"/>
<rect x="251.029" y="576.246" width="119.084" height="49.0273" rx="4.03466" fill="#EAEDF3"/>
<path d="M251.029 580.525C251.029 578.162 252.945 576.246 255.308 576.246H365.834C368.197 576.246 370.113 578.162 370.113 580.525V584.56H251.029V580.525Z" fill="#DCE1EA"/>
<path d="M251.029 590.673H370.113V598.254H251.029V590.673Z" fill="#DCE1EA"/>
<path d="M251.029 604.244H370.113V611.824H251.029V604.244Z" fill="#DCE1EA"/>
<path d="M251.029 618.427H370.113V622.217C370.113 624.31 368.416 626.007 366.323 626.007H254.697C252.671 626.007 251.029 624.365 251.029 622.339V618.427Z" fill="#DCE1EA"/>
<rect x="255.308" y="579.792" width="9.41421" height="2.32299" rx="1.11036" fill="#6061E5"/>
<rect x="273.892" y="579.792" width="11.8595" height="2.32299" rx="1.11036" fill="#6061E5"/>
<rect x="294.921" y="579.792" width="8.19158" height="2.32299" rx="1.11036" fill="#6061E5"/>
<rect x="310.571" y="579.792" width="13.5711" height="2.32299" rx="1.11036" fill="#6061E5"/>
<rect x="331.111" y="579.792" width="10.3923" height="2.32299" rx="1.11036" fill="#6061E5"/>
<rect x="348.717" y="579.792" width="14.3047" height="2.32299" rx="1.11036" fill="#6061E5"/>
<rect x="255.308" y="586.516" width="36.6787" height="2.20072" rx="1.10036" fill="#565656"/>
<rect x="254.108" y="569.904" width="14.3346" height="2.2805" rx="1.11036" fill="#565656"/>
<rect x="272.026" y="569.904" width="9.77359" height="2.2805" rx="1.11036" fill="#565656"/>
<rect x="255.308" y="593.73" width="55.2626" height="2.20072" rx="1.10036" fill="#565656"/>
<rect x="255.308" y="600.209" width="37.4123" height="2.20072" rx="1.10036" fill="#565656"/>
<rect x="255.308" y="614.025" width="45.4816" height="2.20072" rx="1.10036" fill="#565656"/>
<rect x="255.308" y="621.117" width="55.2626" height="2.20072" rx="1.10036" fill="#565656"/>
<rect x="255.308" y="606.934" width="48.2937" height="2.20072" rx="1.10036" fill="#565656"/>
<path d="M364.835 571.396H364.674L364.617 571.341C364.817 571.109 364.937 570.807 364.937 570.479C364.937 569.748 364.344 569.155 363.613 569.155C362.881 569.155 362.288 569.748 362.288 570.479C362.288 571.211 362.881 571.804 363.613 571.804C363.941 571.804 364.242 571.684 364.475 571.484L364.53 571.541V571.702L365.548 572.719L365.852 572.415L364.835 571.396ZM363.613 571.396C363.105 571.396 362.696 570.987 362.696 570.479C362.696 569.972 363.105 569.562 363.613 569.562C364.12 569.562 364.53 569.972 364.53 570.479C364.53 570.987 364.12 571.396 363.613 571.396Z" fill="#565656"/>
</g>
</g>
<defs>
<filter id="filter0_df_11126_261911" x="443" y="-125" width="317" height="316" filterUnits="userSpaceOnUse" color-interpolation-filters="sRGB">
<feFlood flood-opacity="0" result="BackgroundImageFix"/>
<feColorMatrix in="SourceAlpha" type="matrix" values="0 0 0 0 0 0 0 0 0 0 0 0 0 0 0 0 0 0 127 0" result="hardAlpha"/>
<feOffset dx="-12" dy="11"/>
<feGaussianBlur stdDeviation="7.5"/>
<feComposite in2="hardAlpha" operator="out"/>
<feColorMatrix type="matrix" values="0 0 0 0 0.807843 0 0 0 0 0.658824 0 0 0 0 0.737255 0 0 0 0.2 0"/>
<feBlend mode="normal" in2="BackgroundImageFix" result="effect1_dropShadow_11126_261911"/>
<feBlend mode="normal" in="SourceGraphic" in2="effect1_dropShadow_11126_261911" result="shape"/>
<feGaussianBlur stdDeviation="2" result="effect2_foregroundBlur_11126_261911"/>
</filter>
<filter id="filter1_df_11126_261911" x="633.896" y="39.8945" width="221.739" height="220.739" filterUnits="userSpaceOnUse" color-interpolation-filters="sRGB">
<feFlood flood-opacity="0" result="BackgroundImageFix"/>
<feColorMatrix in="SourceAlpha" type="matrix" values="0 0 0 0 0 0 0 0 0 0 0 0 0 0 0 0 0 0 127 0" result="hardAlpha"/>
<feOffset dx="-12" dy="11"/>
<feGaussianBlur stdDeviation="7.5"/>
<feComposite in2="hardAlpha" operator="out"/>
<feColorMatrix type="matrix" values="0 0 0 0 0.807843 0 0 0 0 0.658824 0 0 0 0 0.737255 0 0 0 0.2 0"/>
<feBlend mode="normal" in2="BackgroundImageFix" result="effect1_dropShadow_11126_261911"/>
<feBlend mode="normal" in="SourceGraphic" in2="effect1_dropShadow_11126_261911" result="shape"/>
<feGaussianBlur stdDeviation="2" result="effect2_foregroundBlur_11126_261911"/>
</filter>
<filter id="filter2_df_11126_261911" x="336.686" y="-17.9725" width="90.2869" height="89.7938" filterUnits="userSpaceOnUse" color-interpolation-filters="sRGB">
<feFlood flood-opacity="0" result="BackgroundImageFix"/>
<feColorMatrix in="SourceAlpha" type="matrix" values="0 0 0 0 0 0 0 0 0 0 0 0 0 0 0 0 0 0 127 0" result="hardAlpha"/>
<feOffset dx="-5.91752" dy="5.42439"/>
<feGaussianBlur stdDeviation="3.69845"/>
<feComposite in2="hardAlpha" operator="out"/>
<feColorMatrix type="matrix" values="0 0 0 0 0.807843 0 0 0 0 0.658824 0 0 0 0 0.737255 0 0 0 0.2 0"/>
<feBlend mode="normal" in2="BackgroundImageFix" result="effect1_dropShadow_11126_261911"/>
<feBlend mode="normal" in="SourceGraphic" in2="effect1_dropShadow_11126_261911" result="shape"/>
<feGaussianBlur stdDeviation="0.986253" result="effect2_foregroundBlur_11126_261911"/>
</filter>
<filter id="filter3_df_11126_261911" x="22" y="277" width="442.223" height="441.223" filterUnits="userSpaceOnUse" color-interpolation-filters="sRGB">
<feFlood flood-opacity="0" result="BackgroundImageFix"/>
<feColorMatrix in="SourceAlpha" type="matrix" values="0 0 0 0 0 0 0 0 0 0 0 0 0 0 0 0 0 0 127 0" result="hardAlpha"/>
<feOffset dx="-12" dy="11"/>
<feGaussianBlur stdDeviation="7.5"/>
<feComposite in2="hardAlpha" operator="out"/>
<feColorMatrix type="matrix" values="0 0 0 0 0.807843 0 0 0 0 0.658824 0 0 0 0 0.737255 0 0 0 0.2 0"/>
<feBlend mode="normal" in2="BackgroundImageFix" result="effect1_dropShadow_11126_261911"/>
<feBlend mode="normal" in="SourceGraphic" in2="effect1_dropShadow_11126_261911" result="shape"/>
<feGaussianBlur stdDeviation="2" result="effect2_foregroundBlur_11126_261911"/>
</filter>
<filter id="filter4_df_11126_261911" x="423.686" y="690.027" width="69.2869" height="68.7938" filterUnits="userSpaceOnUse" color-interpolation-filters="sRGB">
<feFlood flood-opacity="0" result="BackgroundImageFix"/>
<feColorMatrix in="SourceAlpha" type="matrix" values="0 0 0 0 0 0 0 0 0 0 0 0 0 0 0 0 0 0 127 0" result="hardAlpha"/>
<feOffset dx="-5.91752" dy="5.42439"/>
<feGaussianBlur stdDeviation="3.69845"/>
<feComposite in2="hardAlpha" operator="out"/>
<feColorMatrix type="matrix" values="0 0 0 0 0.807843 0 0 0 0 0.658824 0 0 0 0 0.737255 0 0 0 0.2 0"/>
<feBlend mode="normal" in2="BackgroundImageFix" result="effect1_dropShadow_11126_261911"/>
<feBlend mode="normal" in="SourceGraphic" in2="effect1_dropShadow_11126_261911" result="shape"/>
<feGaussianBlur stdDeviation="0.986253" result="effect2_foregroundBlur_11126_261911"/>
</filter>
<filter id="filter5_df_11126_261911" x="314.506" y="580.849" width="153.116" height="152.622" filterUnits="userSpaceOnUse" color-interpolation-filters="sRGB">
<feFlood flood-opacity="0" result="BackgroundImageFix"/>
<feColorMatrix in="SourceAlpha" type="matrix" values="0 0 0 0 0 0 0 0 0 0 0 0 0 0 0 0 0 0 127 0" result="hardAlpha"/>
<feOffset dx="-5.91752" dy="5.42439"/>
<feGaussianBlur stdDeviation="3.69845"/>
<feComposite in2="hardAlpha" operator="out"/>
<feColorMatrix type="matrix" values="0 0 0 0 0.807843 0 0 0 0 0.658824 0 0 0 0 0.737255 0 0 0 0.2 0"/>
<feBlend mode="normal" in2="BackgroundImageFix" result="effect1_dropShadow_11126_261911"/>
<feBlend mode="normal" in="SourceGraphic" in2="effect1_dropShadow_11126_261911" result="shape"/>
<feGaussianBlur stdDeviation="0.986253" result="effect2_foregroundBlur_11126_261911"/>
</filter>
<filter id="filter6_df_11126_261911" x="569.686" y="458.027" width="83.2869" height="82.7938" filterUnits="userSpaceOnUse" color-interpolation-filters="sRGB">
<feFlood flood-opacity="0" result="BackgroundImageFix"/>
<feColorMatrix in="SourceAlpha" type="matrix" values="0 0 0 0 0 0 0 0 0 0 0 0 0 0 0 0 0 0 127 0" result="hardAlpha"/>
<feOffset dx="-5.91752" dy="5.42439"/>
<feGaussianBlur stdDeviation="3.69845"/>
<feComposite in2="hardAlpha" operator="out"/>
<feColorMatrix type="matrix" values="0 0 0 0 0.807843 0 0 0 0 0.658824 0 0 0 0 0.737255 0 0 0 0.2 0"/>
<feBlend mode="normal" in2="BackgroundImageFix" result="effect1_dropShadow_11126_261911"/>
<feBlend mode="normal" in="SourceGraphic" in2="effect1_dropShadow_11126_261911" result="shape"/>
<feGaussianBlur stdDeviation="0.986253" result="effect2_foregroundBlur_11126_261911"/>
</filter>
<filter id="filter7_ddd_11126_261911" x="56.0591" y="326.02" width="316.882" height="217.029" filterUnits="userSpaceOnUse" color-interpolation-filters="sRGB">
<feFlood flood-opacity="0" result="BackgroundImageFix"/>
<feColorMatrix in="SourceAlpha" type="matrix" values="0 0 0 0 0 0 0 0 0 0 0 0 0 0 0 0 0 0 127 0" result="hardAlpha"/>
<feOffset dy="0.398029"/>
<feGaussianBlur stdDeviation="1.99014"/>
<feColorMatrix type="matrix" values="0 0 0 0 0 0 0 0 0 0 0 0 0 0 0 0 0 0 0.05 0"/>
<feBlend mode="normal" in2="BackgroundImageFix" result="effect1_dropShadow_11126_261911"/>
<feColorMatrix in="SourceAlpha" type="matrix" values="0 0 0 0 0 0 0 0 0 0 0 0 0 0 0 0 0 0 127 0" result="hardAlpha"/>
<feOffset dy="2.38817"/>
<feGaussianBlur stdDeviation="1.99014"/>
<feColorMatrix type="matrix" values="0 0 0 0 0 0 0 0 0 0 0 0 0 0 0 0 0 0 0.05 0"/>
<feBlend mode="normal" in2="effect1_dropShadow_11126_261911" result="effect2_dropShadow_11126_261911"/>
<feColorMatrix in="SourceAlpha" type="matrix" values="0 0 0 0 0 0 0 0 0 0 0 0 0 0 0 0 0 0 127 0" result="hardAlpha"/>
<feOffset dy="7.96057"/>
<feGaussianBlur stdDeviation="5.97043"/>
<feColorMatrix type="matrix" values="0 0 0 0 0 0 0 0 0 0 0 0 0 0 0 0 0 0 0.05 0"/>
<feBlend mode="normal" in2="effect2_dropShadow_11126_261911" result="effect3_dropShadow_11126_261911"/>
<feBlend mode="normal" in="SourceGraphic" in2="effect3_dropShadow_11126_261911" result="shape"/>
</filter>
<filter id="filter8_ddd_11126_261911" x="341.012" y="413.337" width="211.975" height="145.18" filterUnits="userSpaceOnUse" color-interpolation-filters="sRGB">
<feFlood flood-opacity="0" result="BackgroundImageFix"/>
<feColorMatrix in="SourceAlpha" type="matrix" values="0 0 0 0 0 0 0 0 0 0 0 0 0 0 0 0 0 0 127 0" result="hardAlpha"/>
<feOffset dy="0.266258"/>
<feGaussianBlur stdDeviation="1.33129"/>
<feColorMatrix type="matrix" values="0 0 0 0 0 0 0 0 0 0 0 0 0 0 0 0 0 0 0.05 0"/>
<feBlend mode="normal" in2="BackgroundImageFix" result="effect1_dropShadow_11126_261911"/>
<feColorMatrix in="SourceAlpha" type="matrix" values="0 0 0 0 0 0 0 0 0 0 0 0 0 0 0 0 0 0 127 0" result="hardAlpha"/>
<feOffset dy="1.59755"/>
<feGaussianBlur stdDeviation="1.33129"/>
<feColorMatrix type="matrix" values="0 0 0 0 0 0 0 0 0 0 0 0 0 0 0 0 0 0 0.05 0"/>
<feBlend mode="normal" in2="effect1_dropShadow_11126_261911" result="effect2_dropShadow_11126_261911"/>
<feColorMatrix in="SourceAlpha" type="matrix" values="0 0 0 0 0 0 0 0 0 0 0 0 0 0 0 0 0 0 127 0" result="hardAlpha"/>
<feOffset dy="5.32516"/>
<feGaussianBlur stdDeviation="3.99387"/>
<feColorMatrix type="matrix" values="0 0 0 0 0 0 0 0 0 0 0 0 0 0 0 0 0 0 0.05 0"/>
<feBlend mode="normal" in2="effect2_dropShadow_11126_261911" result="effect3_dropShadow_11126_261911"/>
<feBlend mode="normal" in="SourceGraphic" in2="effect3_dropShadow_11126_261911" result="shape"/>
</filter>
<filter id="filter9_ddd_11126_261911" x="223.428" y="534.809" width="174.408" height="119.45" filterUnits="userSpaceOnUse" color-interpolation-filters="sRGB">
<feFlood flood-opacity="0" result="BackgroundImageFix"/>
<feColorMatrix in="SourceAlpha" type="matrix" values="0 0 0 0 0 0 0 0 0 0 0 0 0 0 0 0 0 0 127 0" result="hardAlpha"/>
<feOffset dy="0.219071"/>
<feGaussianBlur stdDeviation="1.09535"/>
<feColorMatrix type="matrix" values="0 0 0 0 0 0 0 0 0 0 0 0 0 0 0 0 0 0 0.05 0"/>
<feBlend mode="normal" in2="BackgroundImageFix" result="effect1_dropShadow_11126_261911"/>
<feColorMatrix in="SourceAlpha" type="matrix" values="0 0 0 0 0 0 0 0 0 0 0 0 0 0 0 0 0 0 127 0" result="hardAlpha"/>
<feOffset dy="1.31443"/>
<feGaussianBlur stdDeviation="1.09535"/>
<feColorMatrix type="matrix" values="0 0 0 0 0 0 0 0 0 0 0 0 0 0 0 0 0 0 0.05 0"/>
<feBlend mode="normal" in2="effect1_dropShadow_11126_261911" result="effect2_dropShadow_11126_261911"/>
<feColorMatrix in="SourceAlpha" type="matrix" values="0 0 0 0 0 0 0 0 0 0 0 0 0 0 0 0 0 0 127 0" result="hardAlpha"/>
<feOffset dy="4.38142"/>
<feGaussianBlur stdDeviation="3.28606"/>
<feColorMatrix type="matrix" values="0 0 0 0 0 0 0 0 0 0 0 0 0 0 0 0 0 0 0.05 0"/>
<feBlend mode="normal" in2="effect2_dropShadow_11126_261911" result="effect3_dropShadow_11126_261911"/>
<feBlend mode="normal" in="SourceGraphic" in2="effect3_dropShadow_11126_261911" result="shape"/>
</filter>
<linearGradient id="paint0_linear_11126_261911" x1="349.5" y1="-598.827" x2="349.5" y2="989.831" gradientUnits="userSpaceOnUse">
<stop stop-color="#A4A0FF"/>
<stop offset="1" stop-color="#F8FCFC"/>
</linearGradient>
<linearGradient id="paint1_linear_11126_261911" x1="613" y1="-121" x2="613" y2="165" gradientUnits="userSpaceOnUse">
<stop stop-color="#F5F9FE"/>
<stop offset="1" stop-color="#F8FCFC"/>
</linearGradient>
<linearGradient id="paint2_linear_11126_261911" x1="756.266" y1="43.9188" x2="756.266" y2="234.61" gradientUnits="userSpaceOnUse">
<stop stop-color="#A4A0FF"/>
<stop offset="1" stop-color="#F8FCFC"/>
</linearGradient>
<linearGradient id="paint3_linear_11126_261911" x1="254.612" y1="281" x2="254.612" y2="692.223" gradientUnits="userSpaceOnUse">
<stop stop-color="#A4A0FF"/>
<stop offset="1" stop-color="#F8FCFC"/>
</linearGradient>
<linearGradient id="paint4_linear_11126_261911" x1="396.735" y1="582.838" x2="396.735" y2="720.633" gradientUnits="userSpaceOnUse">
<stop stop-color="#A4A0FF"/>
<stop offset="1" stop-color="#F8FCFC"/>
</linearGradient>
<clipPath id="clip0_11126_261911">
<rect width="742" height="775" fill="white"/>
</clipPath>
</defs>
</svg>
