<svg width="58" height="56" viewBox="0 0 58 56" fill="none" xmlns="http://www.w3.org/2000/svg">
<g clip-path="url(#clip0_10820_261150)">
<rect width="58.2633" height="69" fill="#E4E4E4"/>
<rect width="58.2633" height="18.1978" fill="#231D2C"/>
<rect x="5.36621" y="4.5498" width="22.9987" height="3.79121" fill="white"/>
<rect x="5.36621" y="10.6152" width="38.3311" height="3.79121" fill="white"/>
<line x1="-14" y1="39" x2="10" y2="39" stroke="black" stroke-width="2"/>
<path d="M43 27.5L49 30H67" stroke="black" stroke-width="2"/>
<line x1="45" y1="39" x2="69" y2="39" stroke="black" stroke-width="2"/>
<path d="M38 49L44 46.5L62 46" stroke="black" stroke-width="2"/>
<line x1="-14" y1="48" x2="15" y2="48" stroke="black" stroke-width="2"/>
<path d="M-14 28H10.5L16 30" stroke="black" stroke-width="2"/>
<path d="M21 30C21 31.6569 19.6569 33 18 33C16.3431 33 15 31.6569 15 30C15 28.3431 16.3431 27 18 27C19.6569 27 21 28.3431 21 30ZM16.2295 30C16.2295 30.9778 17.0222 31.7705 18 31.7705C18.9778 31.7705 19.7705 30.9778 19.7705 30C19.7705 29.0222 18.9778 28.2295 18 28.2295C17.0222 28.2295 16.2295 29.0222 16.2295 30Z" fill="#231D2C"/>
<path d="M39 49C39 50.6569 37.6569 52 36 52C34.3431 52 33 50.6569 33 49C33 47.3431 34.3431 46 36 46C37.6569 46 39 47.3431 39 49ZM34.2295 49C34.2295 49.9778 35.0222 50.7705 36 50.7705C36.9778 50.7705 37.7705 49.9778 37.7705 49C37.7705 48.0222 36.9778 47.2295 36 47.2295C35.0222 47.2295 34.2295 48.0222 34.2295 49Z" fill="#231D2C"/>
<path d="M46 39C46 40.6569 44.6569 42 43 42C41.3431 42 40 40.6569 40 39C40 37.3431 41.3431 36 43 36C44.6569 36 46 37.3431 46 39ZM41.2295 39C41.2295 39.9778 42.0222 40.7705 43 40.7705C43.9778 40.7705 44.7705 39.9778 44.7705 39C44.7705 38.0222 43.9778 37.2295 43 37.2295C42.0222 37.2295 41.2295 38.0222 41.2295 39Z" fill="#231D2C"/>
<path d="M44 27C44 28.6569 42.6569 30 41 30C39.3431 30 38 28.6569 38 27C38 25.3431 39.3431 24 41 24C42.6569 24 44 25.3431 44 27ZM39.2295 27C39.2295 27.9778 40.0222 28.7705 41 28.7705C41.9778 28.7705 42.7705 27.9778 42.7705 27C42.7705 26.0222 41.9778 25.2295 41 25.2295C40.0222 25.2295 39.2295 26.0222 39.2295 27Z" fill="#231D2C"/>
<path d="M20 48C20 49.6569 18.6569 51 17 51C15.3431 51 14 49.6569 14 48C14 46.3431 15.3431 45 17 45C18.6569 45 20 46.3431 20 48ZM15.2295 48C15.2295 48.9778 16.0222 49.7705 17 49.7705C17.9778 49.7705 18.7705 48.9778 18.7705 48C18.7705 47.0222 17.9778 46.2295 17 46.2295C16.0222 46.2295 15.2295 47.0222 15.2295 48Z" fill="#231D2C"/>
<path d="M15 39C15 40.6569 13.6569 42 12 42C10.3431 42 9 40.6569 9 39C9 37.3431 10.3431 36 12 36C13.6569 36 15 37.3431 15 39ZM10.2295 39C10.2295 39.9778 11.0222 40.7705 12 40.7705C12.9778 40.7705 13.7705 39.9778 13.7705 39C13.7705 38.0222 12.9778 37.2295 12 37.2295C11.0222 37.2295 10.2295 38.0222 10.2295 39Z" fill="#231D2C"/>
<path d="M23.288 43H24.692L25.388 41.02H28.652L29.348 43H30.8L27.716 34.552H26.372L23.288 43ZM25.82 39.784L27.02 36.412L28.22 39.784H25.82ZM32.0699 43H33.4619V34.6H32.0699V43Z" fill="black"/>
</g>
<defs>
<clipPath id="clip0_10820_261150">
<rect width="57.63" height="69" fill="white"/>
</clipPath>
</defs>
</svg>
