<svg width="25" height="25" viewBox="0 0 25 25" fill="none" xmlns="http://www.w3.org/2000/svg">
	<g clip-path="url(#clip0_9803_1951)">
		<path d="M12.8302 2.92651C7.30635 2.92651 2.83325 7.40962 2.83325 12.9335C2.83325 18.4573 7.30635 22.9404 12.8302 22.9404C18.364 22.9404 22.8471 18.4573 22.8471 12.9335C22.8471 7.40962 18.364 2.92651 12.8302 2.92651ZM12.8402 20.939C8.41712 20.939 4.83464 17.3565 4.83464 12.9335C4.83464 8.51039 8.41712 4.9279 12.8402 4.9279C17.2633 4.9279 20.8457 8.51039 20.8457 12.9335C20.8457 17.3565 17.2633 20.939 12.8402 20.939Z" fill="white" />
		<path d="M13.3405 7.92993H11.8395V13.9341L17.0932 17.0863L17.8437 15.8554L13.3405 13.1836V7.92993Z" fill="white" />
	</g>
	<defs>
		<clipPath id="clip0_9803_1951">
			<rect width="24.0167" height="24.0167" fill="white" transform="translate(0.831879 0.925049)" />
		</clipPath>
	</defs>
</svg>
