<svg width="16" height="16" viewBox="0 0 16 16" fill="none" xmlns="http://www.w3.org/2000/svg">
<path d="M11.2432 6.10742L10.2246 5.08887L8.1875 7.12598L6.15039 5.08887L5.13184 6.10742L7.16895 8.14453L5.13184 10.1816L6.15039 11.2002L8.1875 9.16309L10.2246 11.2002L11.2432 10.1816L9.20605 8.14453L11.2432 6.10742ZM13.2803 3.05176C10.4691 0.240547 5.90594 0.240547 3.09473 3.05176C0.283516 5.86297 0.283516 10.4261 3.09473 13.2373C5.90594 16.0485 10.4691 16.0485 13.2803 13.2373C16.0915 10.4261 16.0915 5.86297 13.2803 3.05176ZM4.11328 12.2188C1.86737 9.97284 1.86737 6.31623 4.11328 4.07031C6.35919 1.8244 10.0158 1.8244 12.2617 4.07031C14.5076 6.31623 14.5076 9.97284 12.2617 12.2188C10.0158 14.4647 6.35919 14.4647 4.11328 12.2188Z" fill="#373D43"/>
</svg>
