<svg width="184" height="55" viewBox="0 0 184 55" fill="none" xmlns="http://www.w3.org/2000/svg">
<g opacity="0.5">
<rect x="0.5" y="0.5" width="183" height="54" fill="#F2F7FD" stroke="#6061E5"/>
<path d="M69.176 30.5H71.948C74.678 30.5 76.554 28.512 76.554 25.642V25.544C76.554 22.66 74.678 20.7 71.948 20.7H69.176V30.5ZM71.92 21.666C74.062 21.666 75.462 23.234 75.462 25.558V25.656C75.462 27.98 74.062 29.534 71.92 29.534H70.226V21.666H71.92ZM78.9156 21.708H80.0356V20.518H78.9156V21.708ZM78.9716 30.5H79.9796V23.206H78.9716V30.5ZM84.7275 30.556H85.6375L88.3115 23.206H87.2475L85.1755 29.198L83.1315 23.206H82.0395L84.7275 30.556ZM90.3062 21.708H91.4262V20.518H90.3062V21.708ZM90.3622 30.5H91.3702V23.206H90.3622V30.5ZM96.5801 30.64C97.7281 30.64 98.4561 29.926 98.9461 29.1V30.5H99.9541V20.392H98.9461V24.564C98.4701 23.766 97.7421 23.066 96.5801 23.066C95.0961 23.066 93.6681 24.368 93.6681 26.79V26.93C93.6681 29.366 95.0961 30.64 96.5801 30.64ZM96.7901 29.73C95.6561 29.73 94.7041 28.68 94.7041 26.902V26.79C94.7041 24.998 95.6281 23.976 96.7901 23.976C97.9381 23.976 98.9881 25.068 98.9881 26.79V26.916C98.9881 28.638 97.9381 29.73 96.7901 29.73ZM105.372 30.654C106.464 30.654 107.22 30.234 107.878 29.562L107.304 28.918C106.8 29.422 106.212 29.758 105.414 29.758C104.266 29.758 103.272 28.862 103.16 27.252H108.06C108.074 27.126 108.074 26.93 108.074 26.832C108.074 24.634 106.982 23.066 105.148 23.066C103.44 23.066 102.138 24.62 102.138 26.846V26.916C102.138 29.226 103.594 30.654 105.372 30.654ZM103.16 26.468C103.258 24.942 104.07 23.948 105.148 23.948C106.338 23.948 106.996 25.082 107.066 26.468H103.16ZM110.194 30.5H111.202V27.028C111.202 25.152 112.294 24.2 113.652 24.2H113.708V23.108C112.518 23.052 111.636 23.794 111.202 24.816V23.206H110.194V30.5Z" fill="#231D2C"/>
<path fill-rule="evenodd" clip-rule="evenodd" d="M25.1992 25.9992C25.1992 25.787 25.2835 25.5836 25.4335 25.4335C25.5836 25.2835 25.787 25.1992 25.9992 25.1992H41.9992C42.2114 25.1992 42.4149 25.2835 42.5649 25.4335C42.7149 25.5836 42.7992 25.787 42.7992 25.9992C42.7992 26.2114 42.7149 26.4149 42.5649 26.5649C42.4149 26.7149 42.2114 26.7992 41.9992 26.7992H25.9992C25.787 26.7992 25.5836 26.7149 25.4335 26.5649C25.2835 26.4149 25.1992 26.2114 25.1992 25.9992Z" fill="#231D2C"/>
</g>
</svg>
