<svg width="25" height="25" viewBox="0 0 25 25" fill="none" xmlns="http://www.w3.org/2000/svg">
<path d="M9.85294 20.5C9.85294 21.0523 10.3007 21.5 10.8529 21.5H14.1471C14.6993 21.5 15.1471 21.0523 15.1471 20.5V14.1923C15.1471 13.64 14.6993 13.1923 14.1471 13.1923H10.8529C10.3007 13.1923 9.85294 13.64 9.85294 14.1923V20.5ZM3.5 20.5C3.5 21.0523 3.94772 21.5 4.5 21.5H7.79412C8.3464 21.5 8.79412 21.0523 8.79412 20.5V4.5C8.79412 3.94772 8.3464 3.5 7.79412 3.5H4.5C3.94772 3.5 3.5 3.94772 3.5 4.5V20.5ZM16.2059 20.5C16.2059 21.0523 16.6536 21.5 17.2059 21.5H20.5C21.0523 21.5 21.5 21.0523 21.5 20.5V14.1923C21.5 13.64 21.0523 13.1923 20.5 13.1923H17.2059C16.6536 13.1923 16.2059 13.64 16.2059 14.1923V20.5ZM10.8529 3.5C10.3007 3.5 9.85294 3.94772 9.85294 4.5V10.8077C9.85294 11.36 10.3007 11.8077 10.8529 11.8077H20.5C21.0523 11.8077 21.5 11.36 21.5 10.8077V4.5C21.5 3.94772 21.0523 3.5 20.5 3.5H10.8529Z" fill="#ADB5BD"/>
</svg>
