<svg width="48" height="49" viewBox="0 0 48 49" fill="none" xmlns="http://www.w3.org/2000/svg">
<path d="M39.8634 9.58198C40.1206 10.2023 40.0147 10.7318 39.5456 11.1706L28.3573 22.3589V39.1981C28.3573 39.8336 28.0623 40.2799 27.4722 40.5371C27.2756 40.6127 27.0864 40.6506 26.9049 40.6506C26.4964 40.6506 26.156 40.5068 25.8836 40.2194L20.0739 34.4096C19.7864 34.1222 19.6427 33.7817 19.6427 33.3884V22.3589L8.45436 11.1706C7.98534 10.7318 7.87944 10.2023 8.13664 9.58198C8.39384 8.99193 8.84016 8.6969 9.47561 8.6969H38.5244C39.1598 8.6969 39.6062 8.99193 39.8634 9.58198Z" fill="#262C34"/>
</svg>
