<svg width="400" height="55" viewBox="0 0 400 55" fill="none" xmlns="http://www.w3.org/2000/svg">
<rect width="400" height="55" fill="#F2F7FD"/>
<line x1="-4.37114e-08" y1="54.5" x2="400" y2="54.5" stroke="#CFD4DA"/>
<path d="M27.5996 22.6001C27.5996 21.8044 27.9157 21.0414 28.4783 20.4788C29.0409 19.9162 29.804 19.6001 30.5996 19.6001H41.3996C42.1953 19.6001 42.9583 19.9162 43.5209 20.4788C44.0835 21.0414 44.3996 21.8044 44.3996 22.6001V33.4001C44.3996 34.1957 44.0835 34.9588 43.5209 35.5214C42.9583 36.084 42.1953 36.4001 41.3996 36.4001H30.5996C29.804 36.4001 29.0409 36.084 28.4783 35.5214C27.9157 34.9588 27.5996 34.1957 27.5996 33.4001V22.6001ZM29.3996 24.4001V33.4001C29.3996 33.7184 29.526 34.0236 29.7511 34.2486C29.9761 34.4737 30.2813 34.6001 30.5996 34.6001H41.3996C41.7179 34.6001 42.0231 34.4737 42.2481 34.2486C42.4732 34.0236 42.5996 33.7184 42.5996 33.4001V24.4001H29.3996Z" fill="#231D2C"/>
<path d="M71.176 32.5H72.226V28.062H76.958V32.5H78.008V22.7H76.958V27.082H72.226V22.7H71.176V32.5ZM83.5655 32.654C84.6575 32.654 85.4135 32.234 86.0715 31.562L85.4975 30.918C84.9935 31.422 84.4055 31.758 83.6075 31.758C82.4595 31.758 81.4655 30.862 81.3535 29.252H86.2535C86.2675 29.126 86.2675 28.93 86.2675 28.832C86.2675 26.634 85.1755 25.066 83.3415 25.066C81.6335 25.066 80.3315 26.62 80.3315 28.846V28.916C80.3315 31.226 81.7875 32.654 83.5655 32.654ZM81.3535 28.468C81.4515 26.942 82.2635 25.948 83.3415 25.948C84.5315 25.948 85.1895 27.082 85.2595 28.468H81.3535ZM90.2496 32.654C91.3276 32.654 92.0416 32.122 92.4756 31.436V32.5H93.4696V27.81C93.4696 26.956 93.2176 26.284 92.7696 25.836C92.2936 25.36 91.6076 25.108 90.7256 25.108C89.8296 25.108 89.1156 25.36 88.4296 25.696L88.7516 26.522C89.2556 26.256 89.8856 26.032 90.6136 26.032C91.7896 26.032 92.4756 26.662 92.4756 27.838V28.272C91.9296 28.104 91.3696 27.978 90.5996 27.978C88.9896 27.978 87.9116 28.832 87.9116 30.33V30.386C87.9116 31.828 89.0316 32.654 90.2496 32.654ZM90.4736 31.814C89.6056 31.814 88.9196 31.24 88.9196 30.33V30.288C88.9196 29.364 89.5636 28.762 90.7256 28.762C91.4396 28.762 92.0276 28.888 92.4896 29.056V29.966C92.4896 31.03 91.5936 31.828 90.4736 31.814ZM98.4766 32.64C99.6246 32.64 100.353 31.926 100.843 31.1V32.5H101.851V22.392H100.843V26.564C100.367 25.766 99.6386 25.066 98.4766 25.066C96.9926 25.066 95.5646 26.368 95.5646 28.79V28.93C95.5646 31.366 96.9926 32.64 98.4766 32.64ZM98.6866 31.73C97.5526 31.73 96.6006 30.68 96.6006 28.902V28.79C96.6006 26.998 97.5246 25.976 98.6866 25.976C99.8346 25.976 100.885 27.068 100.885 28.79V28.916C100.885 30.638 99.8346 31.73 98.6866 31.73ZM107.269 32.654C108.361 32.654 109.117 32.234 109.775 31.562L109.201 30.918C108.697 31.422 108.109 31.758 107.311 31.758C106.163 31.758 105.169 30.862 105.057 29.252H109.957C109.971 29.126 109.971 28.93 109.971 28.832C109.971 26.634 108.879 25.066 107.045 25.066C105.337 25.066 104.035 26.62 104.035 28.846V28.916C104.035 31.226 105.491 32.654 107.269 32.654ZM105.057 28.468C105.155 26.942 105.967 25.948 107.045 25.948C108.235 25.948 108.893 27.082 108.963 28.468H105.057ZM112.091 32.5H113.099V29.028C113.099 27.152 114.191 26.2 115.549 26.2H115.605V25.108C114.415 25.052 113.533 25.794 113.099 26.816V25.206H112.091V32.5Z" fill="#231D2C"/>
</svg>
