<svg width="36" height="37" viewBox="0 0 36 37" fill="none" xmlns="http://www.w3.org/2000/svg">
<g id="filled/image/collections" clip-path="url(#clip0_11751_20751)">
<path id="Vector" d="M33 24.6968V6.69678C33 5.04678 31.65 3.69678 30 3.69678H12C10.35 3.69678 9 5.04678 9 6.69678V24.6968C9 26.3468 10.35 27.6968 12 27.6968H30C31.65 27.6968 33 26.3468 33 24.6968ZM16.5 18.6968L19.545 22.7618L24 17.1968L30 24.6968H12L16.5 18.6968ZM3 9.69678V30.6968C3 32.3468 4.35 33.6968 6 33.6968H27V30.6968H6V9.69678H3Z" fill="#262C34"/>
</g>
<defs>
<clipPath id="clip0_11751_20751">
<rect width="36" height="36" fill="white" transform="translate(0 0.696777)"/>
</clipPath>
</defs>
</svg>
