<svg width="338" height="122" viewBox="0 0 338 122" fill="none" xmlns="http://www.w3.org/2000/svg">
<g opacity="0.25">
<path d="M7.2128 97.8887H0V92.2887H21.2576V97.8887H14.0224V115.405H7.2128V97.8887Z" fill="#252C34"/>
<path d="M24.9312 92.2887H31.7408V100.823H39.648V92.2887H46.4576V115.405H39.648V106.132H31.7408V115.405H24.9312V92.2887Z" fill="#252C34"/>
<path d="M50.7583 92.2887H68.5439V97.6647H57.3439V101.517H67.9167V105.953H57.3439V110.052H68.8575V115.405H50.7583V92.2887Z" fill="#252C34"/>
<path d="M80.5952 103.937C80.5952 96.7913 86.0608 91.9529 93.5872 91.9529C99.0304 91.9529 103.667 94.9993 104.787 99.2777L98.5376 100.465C98.1023 99.5323 97.3988 98.7507 96.517 98.22C95.6351 97.6893 94.6151 97.4336 93.5872 97.4857C92.7476 97.4685 91.9135 97.6258 91.1378 97.9475C90.362 98.2692 89.6615 98.7483 89.0804 99.3547C88.4994 99.961 88.0504 100.681 87.762 101.47C87.4736 102.259 87.352 103.099 87.4048 103.937C87.3647 104.796 87.5017 105.654 87.8074 106.459C88.1131 107.263 88.5809 107.995 89.1817 108.611C89.7826 109.226 90.5036 109.712 91.3001 110.037C92.0965 110.362 92.9512 110.519 93.8112 110.5C95.1201 110.631 96.4294 110.255 97.4706 109.452C98.5118 108.648 99.2061 107.476 99.4112 106.177H91.5712V102.122H105.93C106.781 110.321 101.584 115.988 93.6544 115.988C86.128 115.988 80.6624 111.015 80.6624 103.847L80.5952 103.937Z" fill="#252C34"/>
<path d="M109.805 92.3112H116.614V109.604H126.582V115.406H109.805V92.3112Z" fill="#252C34"/>
<path d="M148.199 103.937C148.249 103.098 148.128 102.258 147.842 101.468C147.555 100.678 147.111 99.9549 146.535 99.3431C145.959 98.7314 145.264 98.2439 144.493 97.9107C143.721 97.5775 142.89 97.4056 142.05 97.4056C141.21 97.4056 140.378 97.5775 139.607 97.9107C138.836 98.2439 138.141 98.7314 137.565 99.3431C136.989 99.9549 136.544 100.678 136.258 101.468C135.972 102.258 135.85 103.098 135.901 103.937C135.85 104.776 135.972 105.616 136.258 106.406C136.544 107.196 136.989 107.919 137.565 108.531C138.141 109.142 138.836 109.63 139.607 109.963C140.378 110.296 141.21 110.468 142.05 110.468C142.89 110.468 143.721 110.296 144.493 109.963C145.264 109.63 145.959 109.142 146.535 108.531C147.111 107.919 147.555 107.196 147.842 106.406C148.128 105.616 148.249 104.776 148.199 103.937V103.937ZM129.091 103.937C129.091 96.5897 134.311 91.9529 142.061 91.9529C149.811 91.9529 155.008 96.5001 155.008 103.937C155.008 111.374 149.767 115.898 141.971 115.898C134.176 115.898 129.091 111.217 129.091 103.937Z" fill="#252C34"/>
<path d="M169.635 110.5C171.45 110.5 172.794 109.514 172.794 108.125C172.794 106.737 171.45 105.751 169.635 105.751H165.469V110.5H169.635ZM169.187 101.54C170.934 101.54 172.144 100.644 172.144 99.2999C172.144 97.9559 170.934 97.0599 169.187 97.0599H165.469V101.405L169.187 101.54ZM158.659 92.2887H170.509C175.952 92.2887 179.178 94.7975 179.178 98.6727C179.197 99.7186 178.884 100.744 178.284 101.601C177.685 102.458 176.829 103.103 175.84 103.444V103.78C177.012 104.097 178.044 104.8 178.767 105.775C179.491 106.751 179.864 107.942 179.827 109.156C179.827 113.121 176.512 115.383 171.114 115.383H158.659V92.3111V92.2887Z" fill="#252C34"/>
<path d="M196.963 107.05L194.32 98.0904H193.984L191.341 107.05H196.963ZM189.146 92.3112H199.158L206.371 115.406H199.382L198.285 111.889H189.997L189.011 115.406H182L189.258 92.3112H189.146Z" fill="#252C34"/>
<path d="M210.247 92.3112H217.056V109.604H227.024V115.406H210.247V92.3112Z" fill="#252C34"/>
<path d="M239.837 92.2887H257.511V98.1127H246.646V101.988H256.032V107.073H246.646V115.405H239.837V92.2887Z" fill="#252C34"/>
<path d="M261.834 105.908V92.3112H268.554V105.751C268.467 106.331 268.506 106.923 268.669 107.486C268.832 108.049 269.114 108.571 269.497 109.015C269.88 109.459 270.354 109.816 270.887 110.06C271.42 110.304 271.999 110.431 272.586 110.431C273.172 110.431 273.751 110.304 274.284 110.06C274.817 109.816 275.291 109.459 275.674 109.015C276.057 108.571 276.339 108.049 276.502 107.486C276.665 106.923 276.704 106.331 276.618 105.751V92.3112H283.338V105.908C283.338 112.023 278.858 115.898 272.496 115.898C266.134 115.898 261.654 112.023 261.654 105.908H261.834Z" fill="#252C34"/>
<path d="M288.153 92.2887H295.456L303.027 106.625H303.363V92.2887H309.702V115.405H302.422L294.829 101.114H294.515V115.405H288.153V92.2887Z" fill="#252C34"/>
<path d="M323.837 110.276C324.688 110.334 325.543 110.211 326.343 109.914C327.143 109.618 327.872 109.154 328.48 108.555C329.087 107.956 329.561 107.234 329.869 106.438C330.177 105.642 330.312 104.789 330.265 103.937C330.322 103.079 330.194 102.219 329.891 101.415C329.587 100.61 329.115 99.8802 328.506 99.2734C327.897 98.6666 327.166 98.1971 326.36 97.8964C325.555 97.5958 324.694 97.471 323.837 97.5304H321.014V110.366L323.837 110.276ZM314.429 92.356H323.837C331.789 92.356 337.075 96.9704 337.075 103.892C337.075 110.814 331.789 115.45 323.837 115.45H314.451V92.3112L314.429 92.356Z" fill="#252C34"/>
<path d="M167.739 53C163.295 53.0018 159.002 51.3932 155.654 48.4722C155.556 48.3972 155.479 48.2971 155.434 48.1824C155.388 48.0677 155.374 47.9427 155.393 47.8207C155.368 47.7467 155.368 47.6666 155.393 47.5926C155.44 47.5176 155.502 47.4528 155.575 47.4024C155.647 47.352 155.73 47.317 155.817 47.2995V47.2995C155.932 47.2541 156.06 47.2541 156.175 47.2995C158.345 48.718 160.879 49.4762 163.472 49.482C166.876 49.4937 170.15 48.1725 172.592 45.8011C174.488 43.9502 175.784 41.5726 176.313 38.9764C176.841 36.3802 176.578 33.685 175.557 31.2403L175.231 30.5563C174.757 29.498 174.673 28.3064 174.992 27.1918C175.312 26.0772 176.015 25.1113 176.977 24.4646C177.939 23.8179 179.099 23.5319 180.252 23.6571C181.404 23.7823 182.476 24.3106 183.277 25.1489C183.724 25.6517 184.087 26.2237 184.352 26.8428C185.628 29.6527 186.178 32.738 185.952 35.8158C185.726 38.8935 184.731 41.8653 183.058 44.4587C181.385 47.052 179.088 49.1841 176.378 50.6593C173.667 52.1345 170.629 52.9057 167.543 52.9023L167.739 53Z" fill="#3154F4"/>
<path d="M158.781 36.713H158.031C153.843 36.2939 149.923 34.4568 146.922 31.5058C143.92 28.5548 142.016 24.667 141.526 20.4863C141.036 16.3056 141.988 12.0829 144.226 8.51748C146.463 4.95207 149.852 2.2579 153.829 0.881183H154.123C154.229 0.848525 154.342 0.848525 154.448 0.881183C154.448 0.881183 154.448 0.881183 154.611 1.07663C154.677 1.2442 154.677 1.43025 154.611 1.59782C154.585 1.67344 154.543 1.74215 154.486 1.79863C154.43 1.85511 154.361 1.89786 154.285 1.92356C151.571 3.06711 149.324 5.09659 147.911 7.68102C146.498 10.2654 146.003 13.2523 146.506 16.1545C147.008 19.0568 148.479 21.7031 150.679 23.6619C152.878 25.6207 155.677 26.7765 158.618 26.9407H159.367C160.549 27.0374 161.658 27.5556 162.49 28.4009C163.323 29.2461 163.824 30.3623 163.903 31.5461C163.982 32.7299 163.634 33.9027 162.92 34.851C162.207 35.7993 161.178 36.46 160.018 36.713C159.607 36.7497 159.192 36.7497 158.781 36.713V36.713Z" fill="#EA1541"/>
<path d="M195.329 23.683C195.154 23.6686 194.99 23.5869 194.873 23.455C194.843 23.3828 194.827 23.3053 194.827 23.2269C194.827 23.1486 194.843 23.0711 194.873 22.9989C195.137 20.1469 194.453 17.2875 192.928 14.8631C191.403 12.4386 189.122 10.5842 186.437 9.58666C183.752 8.58911 180.813 8.50401 178.075 9.34452C175.337 10.185 172.952 11.9043 171.289 14.2364L170.736 14.8879C170.292 15.519 169.701 16.0327 169.014 16.3845C168.328 16.7364 167.566 16.9159 166.794 16.9075C166.32 16.9088 165.849 16.843 165.393 16.7121C164.164 16.3213 163.135 15.466 162.527 14.3283C161.919 13.1905 161.778 11.8603 162.136 10.6207C162.349 9.99126 162.656 9.39807 163.048 8.86166C164.759 6.48615 167.01 4.55064 169.615 3.21421C172.22 1.87779 175.105 1.1786 178.032 1.17412C179.752 1.17015 181.463 1.41146 183.114 1.89076C187.537 3.17875 191.321 6.06748 193.73 9.99388C196.139 13.9203 196.999 18.603 196.144 23.1292C196.121 23.248 196.07 23.3598 195.997 23.4559C195.924 23.552 195.829 23.6297 195.72 23.683H195.46H195.329Z" fill="#F5DC31"/>
</g>
</svg>
