<svg width="25" height="25" viewBox="0 0 25 25" fill="none" xmlns="http://www.w3.org/2000/svg">
<g clip-path="url(#clip0_11695_19926)">
<path d="M22.5 16.5V4.5C22.5 3.4 21.6 2.5 20.5 2.5H8.5C7.4 2.5 6.5 3.4 6.5 4.5V16.5C6.5 17.6 7.4 18.5 8.5 18.5H20.5C21.6 18.5 22.5 17.6 22.5 16.5ZM11.5 12.5L13.53 15.21L16.5 11.5L20.5 16.5H8.5L11.5 12.5ZM2.5 6.5V20.5C2.5 21.6 3.4 22.5 4.5 22.5H18.5V20.5H4.5V6.5H2.5Z" fill="#ADB5BD"/>
</g>
<defs>
<clipPath id="clip0_11695_19926">
<rect width="24" height="24" fill="white" transform="translate(0.5 0.5)"/>
</clipPath>
</defs>
</svg>
