<svg width="317" height="218" viewBox="0 0 317 218" fill="none" xmlns="http://www.w3.org/2000/svg">
<g filter="url(#filter0_ddd_11126_261923)">
<rect x="12" y="4" width="293" height="193.147" fill="#FBFBFB"/>
<rect x="12" y="4" width="293" height="19.4362" fill="#6061E5"/>
<circle cx="25.1164" cy="13.718" r="3.64428" fill="white"/>
<circle cx="39.6975" cy="13.718" r="3.64428" fill="white"/>
<circle cx="54.2722" cy="13.718" r="3.64428" fill="white"/>
<rect x="51.9722" y="43.9717" width="216.21" height="29.0703" rx="10.0509" fill="#565656"/>
<rect x="51.9722" y="81.9702" width="216.21" height="43.9177" rx="6.56923" fill="#F1F3F5"/>
<line x1="63.7959" y1="93.1906" x2="132.178" y2="93.1906" stroke="#CBCBCB" stroke-width="0.0583467"/>
<line x1="63.7959" y1="103.051" x2="132.178" y2="103.051" stroke="#CBCBCB" stroke-width="0.0583467"/>
<line x1="63.7959" y1="113.903" x2="132.178" y2="113.903" stroke="#CBCBCB" stroke-width="0.0583467"/>
<rect x="68.7021" y="116.325" width="21.5299" height="3.5008" rx="1.7504" transform="rotate(-90 68.7021 116.325)" fill="#6061E5"/>
<rect x="77.7422" y="109.907" width="16.6872" height="3.5008" rx="1.7504" transform="rotate(-90 77.7422 109.907)" fill="#F2D1E2"/>
<rect x="68.7021" y="116.325" width="10.5024" height="3.5008" rx="1.7504" transform="rotate(-90 68.7021 116.325)" fill="#565656"/>
<rect x="77.7422" y="109.907" width="7.93515" height="3.5008" rx="1.7504" transform="rotate(-90 77.7422 109.907)" fill="#565656"/>
<rect x="86.7852" y="109.907" width="21.1798" height="3.5008" rx="1.7504" transform="rotate(-90 86.7852 109.907)" fill="#6061E5"/>
<rect x="96.2393" y="115.45" width="26.7228" height="3.5008" rx="1.7504" transform="rotate(-90 96.2393 115.45)" fill="#F2D1E2"/>
<rect x="104.585" y="111.949" width="17.7374" height="3.5008" rx="1.7504" transform="rotate(-90 104.585 111.949)" fill="#6061E5"/>
<rect x="112.048" y="109.907" width="12.3695" height="3.5008" rx="1.7504" transform="rotate(-90 112.048 109.907)" fill="#F2D1E2"/>
<rect x="119.461" y="109.266" width="12.3695" height="3.5008" rx="1.7504" transform="rotate(-90 119.461 109.266)" fill="#6061E5"/>
<rect x="127.163" y="114.049" width="23.9221" height="3.5008" rx="1.7504" transform="rotate(-90 127.163 114.049)" fill="#F2D1E2"/>
<rect x="86.7852" y="109.907" width="7.93515" height="3.5008" rx="1.7504" transform="rotate(-90 86.7852 109.907)" fill="#565656"/>
<rect x="96.2393" y="115.45" width="12.3695" height="3.5008" rx="1.7504" transform="rotate(-90 96.2393 115.45)" fill="#565656"/>
<rect x="104.639" y="111.949" width="7.35168" height="3.5008" rx="1.7504" transform="rotate(-90 104.639 111.949)" fill="#565656"/>
<rect x="112.048" y="109.907" width="9.10208" height="3.5008" rx="1.7504" transform="rotate(-90 112.048 109.907)" fill="#565656"/>
<rect x="119.461" y="109.266" width="6.65152" height="3.5008" rx="1.7504" transform="rotate(-90 119.461 109.266)" fill="#565656"/>
<rect x="127.163" y="114.049" width="11.436" height="3.5008" rx="1.7504" transform="rotate(-90 127.163 114.049)" fill="#565656"/>
<rect x="68.6724" y="117.984" width="3.72882" height="1.14733" rx="0.573665" fill="#BCBEC2"/>
<rect x="77.7061" y="117.984" width="3.72882" height="1.14733" rx="0.573665" fill="#BCBEC2"/>
<rect x="86.6001" y="117.984" width="3.72882" height="1.14733" rx="0.573665" fill="#BCBEC2"/>
<rect x="96.0664" y="117.984" width="3.72882" height="1.14733" rx="0.573665" fill="#BCBEC2"/>
<rect x="104.525" y="117.984" width="3.72882" height="1.14733" rx="0.573665" fill="#BCBEC2"/>
<rect x="111.985" y="117.984" width="3.72882" height="1.14733" rx="0.573665" fill="#BCBEC2"/>
<rect x="119.294" y="117.984" width="3.72882" height="1.14733" rx="0.573665" fill="#BCBEC2"/>
<rect x="127.041" y="117.984" width="3.72882" height="1.14733" rx="0.573665" fill="#BCBEC2"/>
<line x1="131.362" y1="93.1906" x2="199.745" y2="93.1906" stroke="#CBCBCB" stroke-width="0.0583467"/>
<line x1="131.362" y1="103.051" x2="199.745" y2="103.051" stroke="#CBCBCB" stroke-width="0.0583467"/>
<line x1="131.362" y1="113.903" x2="199.745" y2="113.903" stroke="#CBCBCB" stroke-width="0.0583467"/>
<rect x="136.268" y="116.325" width="21.5299" height="3.5008" rx="1.7504" transform="rotate(-90 136.268 116.325)" fill="#6061E5"/>
<rect x="145.308" y="109.907" width="16.6872" height="3.5008" rx="1.7504" transform="rotate(-90 145.308 109.907)" fill="#F2D1E2"/>
<rect x="136.268" y="116.325" width="10.5024" height="3.5008" rx="1.7504" transform="rotate(-90 136.268 116.325)" fill="#565656"/>
<rect x="145.308" y="109.907" width="7.93515" height="3.5008" rx="1.7504" transform="rotate(-90 145.308 109.907)" fill="#565656"/>
<rect x="154.351" y="109.907" width="21.1798" height="3.5008" rx="1.7504" transform="rotate(-90 154.351 109.907)" fill="#6061E5"/>
<rect x="163.805" y="115.45" width="26.7228" height="3.5008" rx="1.7504" transform="rotate(-90 163.805 115.45)" fill="#F2D1E2"/>
<rect x="172.151" y="111.949" width="17.7374" height="3.5008" rx="1.7504" transform="rotate(-90 172.151 111.949)" fill="#6061E5"/>
<rect x="179.614" y="109.907" width="12.3695" height="3.5008" rx="1.7504" transform="rotate(-90 179.614 109.907)" fill="#F2D1E2"/>
<rect x="187.027" y="109.266" width="12.3695" height="3.5008" rx="1.7504" transform="rotate(-90 187.027 109.266)" fill="#6061E5"/>
<rect x="194.726" y="114.049" width="23.9221" height="3.5008" rx="1.7504" transform="rotate(-90 194.726 114.049)" fill="#F2D1E2"/>
<rect x="154.351" y="109.907" width="7.93515" height="3.5008" rx="1.7504" transform="rotate(-90 154.351 109.907)" fill="#565656"/>
<rect x="163.805" y="115.45" width="12.3695" height="3.5008" rx="1.7504" transform="rotate(-90 163.805 115.45)" fill="#565656"/>
<rect x="172.205" y="111.949" width="7.35168" height="3.5008" rx="1.7504" transform="rotate(-90 172.205 111.949)" fill="#565656"/>
<rect x="179.614" y="109.907" width="9.10208" height="3.5008" rx="1.7504" transform="rotate(-90 179.614 109.907)" fill="#565656"/>
<rect x="187.027" y="109.266" width="6.65152" height="3.5008" rx="1.7504" transform="rotate(-90 187.027 109.266)" fill="#565656"/>
<rect x="194.726" y="114.049" width="11.436" height="3.5008" rx="1.7504" transform="rotate(-90 194.726 114.049)" fill="#565656"/>
<rect x="136.235" y="117.984" width="3.72882" height="1.14733" rx="0.573665" fill="#BCBEC2"/>
<rect x="145.272" y="117.984" width="3.72882" height="1.14733" rx="0.573665" fill="#BCBEC2"/>
<rect x="154.167" y="117.984" width="3.72882" height="1.14733" rx="0.573665" fill="#BCBEC2"/>
<rect x="163.632" y="117.984" width="3.72882" height="1.14733" rx="0.573665" fill="#BCBEC2"/>
<rect x="172.091" y="117.984" width="3.72882" height="1.14733" rx="0.573665" fill="#BCBEC2"/>
<rect x="179.552" y="117.984" width="3.72882" height="1.14733" rx="0.573665" fill="#BCBEC2"/>
<rect x="186.86" y="117.984" width="3.72882" height="1.14733" rx="0.573665" fill="#BCBEC2"/>
<rect x="194.606" y="117.984" width="3.72882" height="1.14733" rx="0.573665" fill="#BCBEC2"/>
<line x1="198.928" y1="93.7653" x2="254.67" y2="93.7653" stroke="#CBCBCB" stroke-width="0.0583467"/>
<line x1="198.928" y1="102.211" x2="254.67" y2="102.211" stroke="#CBCBCB" stroke-width="0.0583467"/>
<line x1="198.928" y1="114.035" x2="254.67" y2="114.035" stroke="#CBCBCB" stroke-width="0.0583467"/>
<rect x="203.831" y="116.325" width="21.5299" height="3.5008" rx="1.7504" transform="rotate(-90 203.831 116.325)" fill="#6061E5"/>
<rect x="212.871" y="109.907" width="16.6872" height="3.5008" rx="1.7504" transform="rotate(-90 212.871 109.907)" fill="#F2D1E2"/>
<rect x="203.831" y="116.325" width="10.5024" height="3.5008" rx="1.7504" transform="rotate(-90 203.831 116.325)" fill="#565656"/>
<rect x="212.871" y="109.907" width="7.93515" height="3.5008" rx="1.7504" transform="rotate(-90 212.871 109.907)" fill="#565656"/>
<rect x="221.914" y="109.907" width="21.1798" height="3.5008" rx="1.7504" transform="rotate(-90 221.914 109.907)" fill="#6061E5"/>
<rect x="231.369" y="115.45" width="26.7228" height="3.5008" rx="1.7504" transform="rotate(-90 231.369 115.45)" fill="#F2D1E2"/>
<rect x="239.717" y="111.949" width="17.7374" height="3.5008" rx="1.7504" transform="rotate(-90 239.717 111.949)" fill="#6061E5"/>
<rect x="247.18" y="109.907" width="12.3695" height="3.5008" rx="1.7504" transform="rotate(-90 247.18 109.907)" fill="#F2D1E2"/>
<rect x="221.914" y="109.907" width="7.93515" height="3.5008" rx="1.7504" transform="rotate(-90 221.914 109.907)" fill="#565656"/>
<rect x="231.369" y="115.45" width="12.3695" height="3.5008" rx="1.7504" transform="rotate(-90 231.369 115.45)" fill="#565656"/>
<rect x="239.771" y="111.949" width="7.35168" height="3.5008" rx="1.7504" transform="rotate(-90 239.771 111.949)" fill="#565656"/>
<rect x="247.18" y="109.907" width="9.10208" height="3.5008" rx="1.7504" transform="rotate(-90 247.18 109.907)" fill="#565656"/>
<rect x="203.801" y="117.984" width="3.72882" height="1.14733" rx="0.573665" fill="#BCBEC2"/>
<rect x="212.838" y="117.984" width="3.72882" height="1.14733" rx="0.573665" fill="#BCBEC2"/>
<rect x="221.732" y="117.984" width="3.72882" height="1.14733" rx="0.573665" fill="#BCBEC2"/>
<rect x="231.199" y="117.984" width="3.72882" height="1.14733" rx="0.573665" fill="#BCBEC2"/>
<rect x="239.657" y="117.984" width="3.72882" height="1.14733" rx="0.573665" fill="#BCBEC2"/>
<rect x="247.118" y="117.984" width="3.72882" height="1.14733" rx="0.573665" fill="#BCBEC2"/>
<rect x="166.434" y="129.366" width="101.746" height="54.5068" rx="5.72394" fill="#F1F3F5"/>
<path d="M204.691 144.166H192.434V158.177H207.692L216.263 152.142V135.65L204.691 144.166Z" fill="#E4EBF8"/>
<path d="M223.803 135.876H217.748V143.47H223.591L240.274 139.886V131.183L223.803 135.876Z" fill="#E4EBF8"/>
<path d="M225.17 170.65H219.053V177.545H224.956L240.276 181.634V174.74L225.17 170.65Z" fill="#E4EBF8"/>
<path d="M229.591 143.47H218.311V151.103H230.44L240.279 151.103V143.47L229.591 143.47Z" fill="#E4EBF8"/>
<path d="M230.054 163.39H218.677V170.837H230.909L240.832 170.837V163.39L230.054 163.39Z" fill="#E4EBF8"/>
<path d="M207.089 158.177H194.478V169.971H207.089L217.935 177.725V163.446L207.089 158.177Z" fill="#E4EBF8"/>
<rect x="195.784" y="144.028" width="25.8777" height="3.90958" rx="1.8617" transform="rotate(90 195.784 144.028)" fill="#6061E5"/>
<path d="M217.746 163.39C218.774 163.39 219.607 164.224 219.607 165.252L219.607 175.864C219.607 176.892 218.774 177.725 217.746 177.725L217.56 177.725C216.531 177.725 215.698 176.892 215.698 175.864L215.698 165.252C215.698 164.224 216.531 163.39 217.56 163.39L217.746 163.39Z" fill="#6061E5"/>
<rect x="219.607" y="135.836" width="16.383" height="3.90958" rx="1.8617" transform="rotate(90 219.607 135.836)" fill="#6061E5"/>
<rect x="242.882" y="131.183" width="8.56383" height="3.90958" rx="1.8617" transform="rotate(90 242.882 131.183)" fill="#6061E5"/>
<rect x="242.882" y="143.657" width="7.44681" height="3.90958" rx="1.8617" transform="rotate(90 242.882 143.657)" fill="#6061E5"/>
<rect x="242.694" y="163.39" width="7.44681" height="4.09575" rx="1.8617" transform="rotate(90 242.694 163.39)" fill="#6061E5"/>
<rect x="242.694" y="174.561" width="7.07447" height="4.09575" rx="1.8617" transform="rotate(90 242.694 174.561)" fill="#6061E5"/>
<rect x="53.7905" y="129.366" width="103.563" height="54.5068" rx="5.09431" fill="#F1F3F5"/>
<path d="M82.7402 142.449C82.7402 140.399 83.6911 138.433 85.3836 136.983C87.0761 135.534 89.3716 134.719 91.7652 134.719H99.4017V177.533H91.7652C89.3716 177.533 87.0761 176.718 85.3836 175.269C83.6911 173.819 82.7402 171.853 82.7402 169.803V142.449Z" fill="#6061E5"/>
<path d="M100.666 177.322H117.849C119.892 177.322 121.852 176.376 123.296 174.694C124.741 173.011 125.552 170.729 125.552 168.349V162.137H100.666V177.322Z" fill="#73D3CD"/>
<path d="M125.552 161.082V142.508C125.552 140.443 124.741 138.461 123.296 137.001C121.852 135.54 119.892 134.719 117.849 134.719H100.666V161.082H125.552Z" fill="#F2D1E2"/>
</g>
<defs>
<filter id="filter0_ddd_11126_261923" x="0.0591402" y="0.0197134" width="316.882" height="217.029" filterUnits="userSpaceOnUse" color-interpolation-filters="sRGB">
<feFlood flood-opacity="0" result="BackgroundImageFix"/>
<feColorMatrix in="SourceAlpha" type="matrix" values="0 0 0 0 0 0 0 0 0 0 0 0 0 0 0 0 0 0 127 0" result="hardAlpha"/>
<feOffset dy="0.398029"/>
<feGaussianBlur stdDeviation="1.99014"/>
<feColorMatrix type="matrix" values="0 0 0 0 0 0 0 0 0 0 0 0 0 0 0 0 0 0 0.05 0"/>
<feBlend mode="normal" in2="BackgroundImageFix" result="effect1_dropShadow_11126_261923"/>
<feColorMatrix in="SourceAlpha" type="matrix" values="0 0 0 0 0 0 0 0 0 0 0 0 0 0 0 0 0 0 127 0" result="hardAlpha"/>
<feOffset dy="2.38817"/>
<feGaussianBlur stdDeviation="1.99014"/>
<feColorMatrix type="matrix" values="0 0 0 0 0 0 0 0 0 0 0 0 0 0 0 0 0 0 0.05 0"/>
<feBlend mode="normal" in2="effect1_dropShadow_11126_261923" result="effect2_dropShadow_11126_261923"/>
<feColorMatrix in="SourceAlpha" type="matrix" values="0 0 0 0 0 0 0 0 0 0 0 0 0 0 0 0 0 0 127 0" result="hardAlpha"/>
<feOffset dy="7.96057"/>
<feGaussianBlur stdDeviation="5.97043"/>
<feColorMatrix type="matrix" values="0 0 0 0 0 0 0 0 0 0 0 0 0 0 0 0 0 0 0.05 0"/>
<feBlend mode="normal" in2="effect2_dropShadow_11126_261923" result="effect3_dropShadow_11126_261923"/>
<feBlend mode="normal" in="SourceGraphic" in2="effect3_dropShadow_11126_261923" result="shape"/>
</filter>
</defs>
</svg>
