<svg width="7" height="5" viewBox="0 0 7 5" fill="none" xmlns="http://www.w3.org/2000/svg">
<path d="M3.946 4.62832C3.871 4.55332 3.835 4.46269 3.838 4.35644C3.841 4.25019 3.88012 4.15957 3.95537 4.08457L5.01475 3.0252H0.833497C0.727247 3.0252 0.638122 2.9892 0.566122 2.9172C0.494122 2.8452 0.458247 2.7562 0.458497 2.6502C0.458497 2.54395 0.494497 2.45482 0.566497 2.38282C0.638497 2.31082 0.727497 2.27495 0.833497 2.2752H5.01475L3.946 1.20645C3.871 1.13145 3.8335 1.04232 3.8335 0.93907C3.8335 0.83582 3.871 0.74682 3.946 0.67207C4.021 0.59707 4.11012 0.55957 4.21337 0.55957C4.31662 0.55957 4.40562 0.59707 4.48037 0.67207L6.196 2.3877C6.2335 2.4252 6.26012 2.46582 6.27587 2.50957C6.29162 2.55332 6.29937 2.6002 6.29912 2.6502C6.29912 2.7002 6.29125 2.74707 6.2755 2.79082C6.25975 2.83457 6.23325 2.8752 6.196 2.9127L4.471 4.63769C4.40225 4.70644 4.31637 4.74082 4.21337 4.74082C4.11037 4.74082 4.02125 4.70332 3.946 4.62832Z" fill="white"/>
</svg>
