<svg width="184" height="55" viewBox="0 0 184 55" fill="none" xmlns="http://www.w3.org/2000/svg">
<g opacity="0.5">
<rect x="0.5" y="0.5" width="183" height="54" fill="#F2F7FD" stroke="#6061E5"/>
<g clip-path="url(#clip0_9305_148401)">
<path d="M38.01 25H26V27H38.01V30L42 26L38.01 22V25Z" fill="#231D2C"/>
</g>
<path d="M69.176 30.5H70.226V26.692H72.452L74.916 30.5H76.176L73.544 26.482C74.902 26.146 75.868 25.208 75.868 23.654V23.626C75.868 22.8 75.588 22.1 75.098 21.61C74.538 21.036 73.642 20.7 72.522 20.7H69.176V30.5ZM70.226 25.74V21.666H72.452C73.922 21.666 74.818 22.38 74.818 23.668V23.696C74.818 24.942 73.936 25.74 72.34 25.74H70.226ZM80.9366 30.654C82.8126 30.654 84.1846 29.016 84.1846 26.888V26.804C84.1846 24.676 82.8266 23.066 80.9506 23.066C79.0746 23.066 77.7026 24.69 77.7026 26.818V26.916C77.7026 29.044 79.0606 30.654 80.9366 30.654ZM80.9506 29.744C79.7046 29.744 78.7386 28.526 78.7386 26.888V26.818C78.7386 25.194 79.6486 23.976 80.9366 23.976C82.1826 23.976 83.1626 25.194 83.1626 26.832V26.902C83.1626 28.512 82.2386 29.744 80.9506 29.744ZM87.7118 30.556H88.6218L90.2878 24.872L91.9398 30.556H92.8498L95.0338 23.206H94.0118L92.3878 29.016L90.7218 23.192H89.8678L88.2018 29.016L86.5918 23.206H85.5278L87.7118 30.556ZM101.56 30.5H102.582V24.102H104.472V23.22H102.568V22.604C102.568 21.68 102.946 21.232 103.674 21.232C103.954 21.232 104.206 21.288 104.5 21.372V20.476C104.22 20.392 103.926 20.336 103.534 20.336C102.932 20.336 102.456 20.518 102.12 20.854C101.77 21.218 101.56 21.792 101.56 22.548V23.22H100.664V24.102H101.56V30.5ZM106.181 30.5H107.189V27.028C107.189 25.152 108.281 24.2 109.639 24.2H109.695V23.108C108.505 23.052 107.623 23.794 107.189 24.816V23.206H106.181V30.5ZM113.136 30.654C114.214 30.654 114.928 30.122 115.362 29.436V30.5H116.356V25.81C116.356 24.956 116.104 24.284 115.656 23.836C115.18 23.36 114.494 23.108 113.612 23.108C112.716 23.108 112.002 23.36 111.316 23.696L111.638 24.522C112.142 24.256 112.772 24.032 113.5 24.032C114.676 24.032 115.362 24.662 115.362 25.838V26.272C114.816 26.104 114.256 25.978 113.486 25.978C111.876 25.978 110.798 26.832 110.798 28.33V28.386C110.798 29.828 111.918 30.654 113.136 30.654ZM113.36 29.814C112.492 29.814 111.806 29.24 111.806 28.33V28.288C111.806 27.364 112.45 26.762 113.612 26.762C114.326 26.762 114.914 26.888 115.376 27.056V27.966C115.376 29.03 114.48 29.828 113.36 29.814ZM118.815 30.5H119.823V26.062C119.823 24.83 120.565 23.976 121.545 23.976C122.539 23.976 123.127 24.69 123.127 25.992V30.5H124.135V26.048C124.135 24.732 124.905 23.976 125.857 23.976C126.851 23.976 127.439 24.676 127.439 26.006V30.5H128.447V25.74C128.447 24.046 127.537 23.066 126.123 23.066C125.003 23.066 124.331 23.682 123.883 24.396C123.533 23.598 122.847 23.066 121.867 23.066C120.817 23.066 120.229 23.682 119.823 24.368V23.206H118.815V30.5ZM133.792 30.654C134.884 30.654 135.64 30.234 136.298 29.562L135.724 28.918C135.22 29.422 134.632 29.758 133.834 29.758C132.686 29.758 131.692 28.862 131.58 27.252H136.48C136.494 27.126 136.494 26.93 136.494 26.832C136.494 24.634 135.402 23.066 133.568 23.066C131.86 23.066 130.558 24.62 130.558 26.846V26.916C130.558 29.226 132.014 30.654 133.792 30.654ZM131.58 26.468C131.678 24.942 132.49 23.948 133.568 23.948C134.758 23.948 135.416 25.082 135.486 26.468H131.58Z" fill="#231D2C"/>
</g>
<defs>
<clipPath id="clip0_9305_148401">
<rect width="24" height="24" fill="white" transform="translate(22 14)"/>
</clipPath>
</defs>
</svg>
