<svg width="32" height="32" viewBox="0 0 32 32" fill="none" xmlns="http://www.w3.org/2000/svg">
<circle cx="16" cy="16" r="16" fill="#DADAF8"/>
<path d="M19.2965 17.8847H18.553L18.2894 17.6306C19.2118 16.5576 19.7671 15.1647 19.7671 13.6494C19.7671 10.2706 17.0283 7.53174 13.6494 7.53174C10.2706 7.53174 7.5318 10.2706 7.5318 13.6494C7.5318 17.0282 10.2706 19.767 13.6494 19.767C15.1647 19.767 16.5577 19.2117 17.6306 18.2894L17.8847 18.5529V19.2964L22.5906 23.9929L23.993 22.5906L19.2965 17.8847ZM13.6494 17.8847C11.3059 17.8847 9.41415 15.9929 9.41415 13.6494C9.41415 11.3059 11.3059 9.41409 13.6494 9.41409C15.993 9.41409 17.8847 11.3059 17.8847 13.6494C17.8847 15.9929 15.993 17.8847 13.6494 17.8847Z" fill="#231D2C"/>
</svg>
