<svg width="774" height="565" viewBox="0 0 774 565" fill="none" xmlns="http://www.w3.org/2000/svg">
<g filter="url(#filter0_ddd_12008_283382)">
<rect x="30" y="10" width="714" height="506" fill="#FBFBFB"/>
<rect x="30" y="10" width="714" height="47.3632" fill="#6061E5"/>
<circle cx="61.963" cy="33.6817" r="8.8806" fill="white"/>
<circle cx="97.4945" cy="33.6817" r="8.8806" fill="white"/>
<circle cx="133.011" cy="33.6817" r="8.8806" fill="white"/>
<rect x="127.407" y="107.406" width="526.875" height="70.8403" rx="24.4926" fill="#565656"/>
<rect x="127.407" y="200.003" width="526.875" height="107.021" rx="16.0083" fill="#F1F3F5"/>
<line x1="156.22" y1="227.346" x2="322.858" y2="227.346" stroke="#CBCBCB" stroke-width="0.142183"/>
<line x1="156.22" y1="251.374" x2="322.858" y2="251.374" stroke="#CBCBCB" stroke-width="0.142183"/>
<line x1="156.22" y1="277.82" x2="322.858" y2="277.82" stroke="#CBCBCB" stroke-width="0.142183"/>
<rect x="168.175" y="283.722" width="52.4654" height="8.53096" rx="4.26548" transform="rotate(-90 168.175 283.722)" fill="#6061E5"/>
<rect x="190.204" y="268.082" width="40.6643" height="8.53096" rx="4.26548" transform="rotate(-90 190.204 268.082)" fill="#F2D1E2"/>
<rect x="168.175" y="283.722" width="25.5929" height="8.53096" rx="4.26548" transform="rotate(-90 168.175 283.722)" fill="#565656"/>
<rect x="190.204" y="268.082" width="19.3369" height="8.53096" rx="4.26548" transform="rotate(-90 190.204 268.082)" fill="#565656"/>
<rect x="212.241" y="268.082" width="51.6123" height="8.53096" rx="4.26548" transform="rotate(-90 212.241 268.082)" fill="#6061E5"/>
<rect x="235.279" y="281.589" width="65.1197" height="8.53096" rx="4.26548" transform="rotate(-90 235.279 281.589)" fill="#F2D1E2"/>
<rect x="255.616" y="273.056" width="43.2235" height="8.53096" rx="4.26548" transform="rotate(-90 255.616 273.056)" fill="#6061E5"/>
<rect x="273.803" y="268.082" width="30.1427" height="8.53096" rx="4.26548" transform="rotate(-90 273.803 268.082)" fill="#F2D1E2"/>
<rect x="291.867" y="266.518" width="30.1427" height="8.53096" rx="4.26548" transform="rotate(-90 291.867 266.518)" fill="#6061E5"/>
<rect x="310.635" y="278.175" width="58.2949" height="8.53096" rx="4.26548" transform="rotate(-90 310.635 278.175)" fill="#F2D1E2"/>
<rect x="212.241" y="268.082" width="19.3369" height="8.53096" rx="4.26548" transform="rotate(-90 212.241 268.082)" fill="#565656"/>
<rect x="235.279" y="281.589" width="30.1427" height="8.53096" rx="4.26548" transform="rotate(-90 235.279 281.589)" fill="#565656"/>
<rect x="255.747" y="273.056" width="17.915" height="8.53096" rx="4.26548" transform="rotate(-90 255.747 273.056)" fill="#565656"/>
<rect x="273.803" y="268.082" width="22.1805" height="8.53096" rx="4.26548" transform="rotate(-90 273.803 268.082)" fill="#565656"/>
<rect x="291.867" y="266.518" width="16.2088" height="8.53096" rx="4.26548" transform="rotate(-90 291.867 266.518)" fill="#565656"/>
<rect x="310.635" y="278.175" width="27.8678" height="8.53096" rx="4.26548" transform="rotate(-90 310.635 278.175)" fill="#565656"/>
<rect x="168.102" y="287.765" width="9.08661" height="2.79588" rx="1.39794" fill="#BCBEC2"/>
<rect x="190.117" y="287.765" width="9.08661" height="2.79588" rx="1.39794" fill="#BCBEC2"/>
<rect x="211.79" y="287.765" width="9.08661" height="2.79588" rx="1.39794" fill="#BCBEC2"/>
<rect x="234.858" y="287.765" width="9.08661" height="2.79588" rx="1.39794" fill="#BCBEC2"/>
<rect x="255.471" y="287.765" width="9.08661" height="2.79588" rx="1.39794" fill="#BCBEC2"/>
<rect x="273.651" y="287.765" width="9.08661" height="2.79588" rx="1.39794" fill="#BCBEC2"/>
<rect x="291.46" y="287.765" width="9.08661" height="2.79588" rx="1.39794" fill="#BCBEC2"/>
<rect x="310.337" y="287.765" width="9.08661" height="2.79588" rx="1.39794" fill="#BCBEC2"/>
<line x1="320.869" y1="227.346" x2="487.507" y2="227.346" stroke="#CBCBCB" stroke-width="0.142183"/>
<line x1="320.869" y1="251.374" x2="487.507" y2="251.374" stroke="#CBCBCB" stroke-width="0.142183"/>
<line x1="320.869" y1="277.82" x2="487.507" y2="277.82" stroke="#CBCBCB" stroke-width="0.142183"/>
<rect x="332.824" y="283.722" width="52.4654" height="8.53096" rx="4.26548" transform="rotate(-90 332.824 283.722)" fill="#6061E5"/>
<rect x="354.853" y="268.082" width="40.6643" height="8.53096" rx="4.26548" transform="rotate(-90 354.853 268.082)" fill="#F2D1E2"/>
<rect x="332.824" y="283.722" width="25.5929" height="8.53096" rx="4.26548" transform="rotate(-90 332.824 283.722)" fill="#565656"/>
<rect x="354.853" y="268.082" width="19.3369" height="8.53096" rx="4.26548" transform="rotate(-90 354.853 268.082)" fill="#565656"/>
<rect x="376.89" y="268.082" width="51.6123" height="8.53096" rx="4.26548" transform="rotate(-90 376.89 268.082)" fill="#6061E5"/>
<rect x="399.929" y="281.589" width="65.1197" height="8.53096" rx="4.26548" transform="rotate(-90 399.929 281.589)" fill="#F2D1E2"/>
<rect x="420.265" y="273.056" width="43.2235" height="8.53096" rx="4.26548" transform="rotate(-90 420.265 273.056)" fill="#6061E5"/>
<rect x="438.452" y="268.082" width="30.1427" height="8.53096" rx="4.26548" transform="rotate(-90 438.452 268.082)" fill="#F2D1E2"/>
<rect x="456.516" y="266.518" width="30.1427" height="8.53096" rx="4.26548" transform="rotate(-90 456.516 266.518)" fill="#6061E5"/>
<rect x="475.277" y="278.175" width="58.2949" height="8.53096" rx="4.26548" transform="rotate(-90 475.277 278.175)" fill="#F2D1E2"/>
<rect x="376.89" y="268.082" width="19.3369" height="8.53096" rx="4.26548" transform="rotate(-90 376.89 268.082)" fill="#565656"/>
<rect x="399.929" y="281.589" width="30.1427" height="8.53096" rx="4.26548" transform="rotate(-90 399.929 281.589)" fill="#565656"/>
<rect x="420.396" y="273.056" width="17.915" height="8.53096" rx="4.26548" transform="rotate(-90 420.396 273.056)" fill="#565656"/>
<rect x="438.452" y="268.082" width="22.1805" height="8.53096" rx="4.26548" transform="rotate(-90 438.452 268.082)" fill="#565656"/>
<rect x="456.516" y="266.518" width="16.2088" height="8.53096" rx="4.26548" transform="rotate(-90 456.516 266.518)" fill="#565656"/>
<rect x="475.277" y="278.175" width="27.8678" height="8.53096" rx="4.26548" transform="rotate(-90 475.277 278.175)" fill="#565656"/>
<rect x="332.744" y="287.765" width="9.08661" height="2.79588" rx="1.39794" fill="#BCBEC2"/>
<rect x="354.766" y="287.765" width="9.08661" height="2.79588" rx="1.39794" fill="#BCBEC2"/>
<rect x="376.439" y="287.765" width="9.08661" height="2.79588" rx="1.39794" fill="#BCBEC2"/>
<rect x="399.507" y="287.765" width="9.08661" height="2.79588" rx="1.39794" fill="#BCBEC2"/>
<rect x="420.12" y="287.765" width="9.08661" height="2.79588" rx="1.39794" fill="#BCBEC2"/>
<rect x="438.3" y="287.765" width="9.08661" height="2.79588" rx="1.39794" fill="#BCBEC2"/>
<rect x="456.109" y="287.765" width="9.08661" height="2.79588" rx="1.39794" fill="#BCBEC2"/>
<rect x="474.986" y="287.765" width="9.08661" height="2.79588" rx="1.39794" fill="#BCBEC2"/>
<line x1="485.518" y1="228.745" x2="621.353" y2="228.745" stroke="#CBCBCB" stroke-width="0.142183"/>
<line x1="485.518" y1="249.327" x2="621.353" y2="249.327" stroke="#CBCBCB" stroke-width="0.142183"/>
<line x1="485.518" y1="278.141" x2="621.353" y2="278.141" stroke="#CBCBCB" stroke-width="0.142183"/>
<rect x="497.466" y="283.722" width="52.4654" height="8.53096" rx="4.26548" transform="rotate(-90 497.466 283.722)" fill="#6061E5"/>
<rect x="519.495" y="268.082" width="40.6643" height="8.53096" rx="4.26548" transform="rotate(-90 519.495 268.082)" fill="#F2D1E2"/>
<rect x="497.466" y="283.722" width="25.5929" height="8.53096" rx="4.26548" transform="rotate(-90 497.466 283.722)" fill="#565656"/>
<rect x="519.495" y="268.082" width="19.3369" height="8.53096" rx="4.26548" transform="rotate(-90 519.495 268.082)" fill="#565656"/>
<rect x="541.531" y="268.082" width="51.6123" height="8.53096" rx="4.26548" transform="rotate(-90 541.531 268.082)" fill="#6061E5"/>
<rect x="564.57" y="281.589" width="65.1197" height="8.53096" rx="4.26548" transform="rotate(-90 564.57 281.589)" fill="#F2D1E2"/>
<rect x="584.915" y="273.056" width="43.2235" height="8.53096" rx="4.26548" transform="rotate(-90 584.915 273.056)" fill="#6061E5"/>
<rect x="603.101" y="268.082" width="30.1427" height="8.53096" rx="4.26548" transform="rotate(-90 603.101 268.082)" fill="#F2D1E2"/>
<rect x="541.531" y="268.082" width="19.3369" height="8.53096" rx="4.26548" transform="rotate(-90 541.531 268.082)" fill="#565656"/>
<rect x="564.57" y="281.589" width="30.1427" height="8.53096" rx="4.26548" transform="rotate(-90 564.57 281.589)" fill="#565656"/>
<rect x="585.045" y="273.058" width="17.915" height="8.53096" rx="4.26548" transform="rotate(-90 585.045 273.058)" fill="#565656"/>
<rect x="603.101" y="268.082" width="22.1805" height="8.53096" rx="4.26548" transform="rotate(-90 603.101 268.082)" fill="#565656"/>
<rect x="497.393" y="287.765" width="9.08661" height="2.79588" rx="1.39794" fill="#BCBEC2"/>
<rect x="519.415" y="287.765" width="9.08661" height="2.79588" rx="1.39794" fill="#BCBEC2"/>
<rect x="541.089" y="287.765" width="9.08661" height="2.79588" rx="1.39794" fill="#BCBEC2"/>
<rect x="564.156" y="287.765" width="9.08661" height="2.79588" rx="1.39794" fill="#BCBEC2"/>
<rect x="584.769" y="287.765" width="9.08661" height="2.79588" rx="1.39794" fill="#BCBEC2"/>
<rect x="602.949" y="287.765" width="9.08661" height="2.79588" rx="1.39794" fill="#BCBEC2"/>
<rect x="406.335" y="315.499" width="247.941" height="132.826" rx="13.9484" fill="#F1F3F5"/>
<path d="M499.562 351.565H469.692V385.707H506.873L527.762 371V330.813L499.562 351.565Z" fill="#E4EBF8"/>
<path d="M546.133 331.363H531.378V349.869H545.618L586.272 341.136V319.926L546.133 331.363Z" fill="#E4EBF8"/>
<path d="M549.467 416.104H534.559V432.906H548.945L586.278 442.87V426.069L549.467 416.104Z" fill="#E4EBF8"/>
<path d="M560.241 349.868H532.751V368.469H562.307L586.284 368.469V349.868L560.241 349.868Z" fill="#E4EBF8"/>
<path d="M561.367 398.412H533.644V416.559H563.452L587.631 416.559V398.412L561.367 398.412Z" fill="#E4EBF8"/>
<path d="M505.405 385.708H474.674V414.447H505.405L531.837 433.344V398.547L505.405 385.708Z" fill="#E4EBF8"/>
<rect x="477.856" y="351.23" width="63.0603" height="9.52709" rx="4.53671" transform="rotate(90 477.856 351.23)" fill="#6061E5"/>
<path d="M531.374 398.412C533.879 398.412 535.91 400.443 535.91 402.948L535.91 428.808C535.91 431.313 533.879 433.344 531.374 433.344L530.92 433.344C528.414 433.344 526.383 431.313 526.383 428.808L526.383 402.948C526.383 400.443 528.414 398.412 530.92 398.412L531.374 398.412Z" fill="#6061E5"/>
<rect x="535.91" y="331.267" width="39.923" height="9.52709" rx="4.53671" transform="rotate(90 535.91 331.267)" fill="#6061E5"/>
<rect x="592.628" y="319.926" width="20.8689" height="9.52709" rx="4.53671" transform="rotate(90 592.628 319.926)" fill="#6061E5"/>
<rect x="592.628" y="350.324" width="18.1468" height="9.52709" rx="4.53671" transform="rotate(90 592.628 350.324)" fill="#6061E5"/>
<rect x="592.171" y="398.412" width="18.1468" height="9.98076" rx="4.53671" transform="rotate(90 592.171 398.412)" fill="#6061E5"/>
<rect x="592.171" y="425.633" width="17.2395" height="9.98076" rx="4.53671" transform="rotate(90 592.171 425.633)" fill="#6061E5"/>
<rect x="131.837" y="315.499" width="252.368" height="132.826" rx="12.4141" fill="#F1F3F5"/>
<path d="M202.384 347.382C202.384 342.386 204.701 337.595 208.826 334.062C212.95 330.529 218.544 328.545 224.377 328.545H242.986V432.875H224.377C218.544 432.875 212.95 430.891 208.826 427.358C204.701 423.825 202.384 419.034 202.384 414.038V347.382Z" fill="#6061E5"/>
<path d="M246.066 432.361H287.94C292.918 432.361 297.693 430.058 301.213 425.957C304.733 421.856 306.711 416.295 306.711 410.495V395.357H246.066V432.361Z" fill="#73D3CD"/>
<path d="M306.711 392.787V347.525C306.711 342.491 304.733 337.663 301.213 334.103C297.693 330.544 292.918 328.544 287.94 328.544H246.066V392.787H306.711Z" fill="#F2D1E2"/>
<path d="M206.265 140.364C205.993 139.863 205.6 139.484 205.085 139.227C204.584 138.955 203.99 138.819 203.304 138.819C202.117 138.819 201.165 139.212 200.45 139.999C199.735 140.772 199.378 141.809 199.378 143.11C199.378 144.498 199.749 145.585 200.493 146.371C201.251 147.144 202.288 147.53 203.604 147.53C204.505 147.53 205.263 147.301 205.878 146.843C206.508 146.386 206.966 145.728 207.252 144.869H202.596V142.166H210.577V145.577C210.305 146.493 209.84 147.344 209.183 148.131C208.539 148.917 207.716 149.554 206.715 150.04C205.714 150.526 204.584 150.77 203.325 150.77C201.838 150.77 200.508 150.448 199.335 149.804C198.176 149.146 197.268 148.238 196.61 147.079C195.966 145.921 195.644 144.598 195.644 143.11C195.644 141.623 195.966 140.3 196.61 139.141C197.268 137.968 198.176 137.06 199.335 136.416C200.493 135.758 201.816 135.429 203.304 135.429C205.106 135.429 206.622 135.865 207.852 136.738C209.097 137.61 209.919 138.819 210.32 140.364H206.265ZM223.895 144.483C223.895 144.827 223.873 145.184 223.83 145.556H215.527C215.584 146.3 215.82 146.872 216.235 147.272C216.664 147.659 217.186 147.852 217.801 147.852C218.717 147.852 219.353 147.466 219.711 146.693H223.616C223.416 147.48 223.051 148.188 222.522 148.817C222.007 149.447 221.356 149.94 220.569 150.298C219.782 150.655 218.903 150.834 217.93 150.834C216.757 150.834 215.713 150.584 214.798 150.083C213.882 149.582 213.167 148.867 212.652 147.938C212.137 147.008 211.88 145.921 211.88 144.676C211.88 143.432 212.13 142.345 212.631 141.415C213.146 140.485 213.861 139.77 214.776 139.27C215.692 138.769 216.743 138.519 217.93 138.519C219.089 138.519 220.119 138.762 221.02 139.248C221.921 139.735 222.622 140.428 223.122 141.329C223.637 142.23 223.895 143.282 223.895 144.483ZM220.14 143.518C220.14 142.888 219.926 142.388 219.496 142.016C219.067 141.644 218.531 141.458 217.887 141.458C217.272 141.458 216.75 141.637 216.321 141.994C215.906 142.352 215.649 142.86 215.549 143.518H220.14ZM232.503 147.551V150.662H230.636C229.306 150.662 228.269 150.341 227.525 149.697C226.781 149.039 226.409 147.973 226.409 146.5V141.737H224.951V138.69H226.409V135.773H230.078V138.69H232.481V141.737H230.078V146.543C230.078 146.901 230.164 147.158 230.336 147.315C230.507 147.473 230.793 147.551 231.194 147.551H232.503ZM242.762 140.686C243.191 140.028 243.727 139.513 244.371 139.141C245.015 138.755 245.73 138.562 246.516 138.562V142.445H245.508C244.593 142.445 243.906 142.645 243.448 143.046C242.991 143.432 242.762 144.119 242.762 145.105V150.662H239.093V138.69H242.762V140.686ZM259.555 144.483C259.555 144.827 259.534 145.184 259.491 145.556H251.188C251.245 146.3 251.481 146.872 251.896 147.272C252.325 147.659 252.847 147.852 253.462 147.852C254.378 147.852 255.014 147.466 255.372 146.693H259.277C259.076 147.48 258.712 148.188 258.182 148.817C257.667 149.447 257.017 149.94 256.23 150.298C255.443 150.655 254.564 150.834 253.591 150.834C252.418 150.834 251.374 150.584 250.459 150.083C249.543 149.582 248.828 148.867 248.313 147.938C247.798 147.008 247.541 145.921 247.541 144.676C247.541 143.432 247.791 142.345 248.292 141.415C248.806 140.485 249.522 139.77 250.437 139.27C251.352 138.769 252.404 138.519 253.591 138.519C254.75 138.519 255.779 138.762 256.68 139.248C257.582 139.735 258.282 140.428 258.783 141.329C259.298 142.23 259.555 143.282 259.555 144.483ZM255.801 143.518C255.801 142.888 255.586 142.388 255.157 142.016C254.728 141.644 254.192 141.458 253.548 141.458C252.933 141.458 252.411 141.637 251.982 141.994C251.567 142.352 251.31 142.86 251.209 143.518H255.801ZM260.761 144.655C260.761 143.425 260.99 142.345 261.448 141.415C261.92 140.485 262.557 139.77 263.358 139.27C264.159 138.769 265.053 138.519 266.039 138.519C266.883 138.519 267.62 138.69 268.249 139.034C268.893 139.377 269.386 139.828 269.73 140.385V138.69H273.399V150.662H269.73V148.967C269.372 149.525 268.872 149.976 268.228 150.319C267.599 150.662 266.862 150.834 266.018 150.834C265.045 150.834 264.159 150.584 263.358 150.083C262.557 149.568 261.92 148.846 261.448 147.916C260.99 146.972 260.761 145.885 260.761 144.655ZM269.73 144.676C269.73 143.761 269.472 143.039 268.957 142.509C268.457 141.98 267.842 141.716 267.112 141.716C266.383 141.716 265.761 141.98 265.246 142.509C264.745 143.024 264.495 143.74 264.495 144.655C264.495 145.57 264.745 146.3 265.246 146.843C265.761 147.373 266.383 147.637 267.112 147.637C267.842 147.637 268.457 147.373 268.957 146.843C269.472 146.314 269.73 145.592 269.73 144.676ZM275.323 144.655C275.323 143.425 275.552 142.345 276.01 141.415C276.482 140.485 277.118 139.77 277.919 139.27C278.72 138.769 279.614 138.519 280.601 138.519C281.388 138.519 282.103 138.683 282.747 139.012C283.405 139.341 283.92 139.785 284.292 140.342V134.786H287.96V150.662H284.292V148.946C283.948 149.518 283.455 149.976 282.811 150.319C282.182 150.662 281.445 150.834 280.601 150.834C279.614 150.834 278.72 150.584 277.919 150.083C277.118 149.568 276.482 148.846 276.01 147.916C275.552 146.972 275.323 145.885 275.323 144.655ZM284.292 144.676C284.292 143.761 284.034 143.039 283.519 142.509C283.019 141.98 282.404 141.716 281.674 141.716C280.945 141.716 280.322 141.98 279.807 142.509C279.307 143.024 279.057 143.74 279.057 144.655C279.057 145.57 279.307 146.3 279.807 146.843C280.322 147.373 280.945 147.637 281.674 147.637C282.404 147.637 283.019 147.373 283.519 146.843C284.034 146.314 284.292 145.592 284.292 144.676ZM302.844 138.69L295.335 156.348H291.387L294.133 150.255L289.263 138.69H293.361L296.129 146.178L298.875 138.69H302.844ZM314.725 141.737H312.751V150.662H309.082V141.737H307.752V138.69H309.082V138.347C309.082 136.874 309.504 135.758 310.348 135C311.192 134.228 312.429 133.842 314.06 133.842C314.331 133.842 314.532 133.849 314.66 133.863V136.974C313.96 136.931 313.466 137.031 313.18 137.274C312.894 137.518 312.751 137.954 312.751 138.583V138.69H314.725V141.737ZM321.898 150.834C320.725 150.834 319.667 150.584 318.723 150.083C317.793 149.582 317.057 148.867 316.513 147.938C315.984 147.008 315.719 145.921 315.719 144.676C315.719 143.446 315.991 142.366 316.535 141.437C317.078 140.493 317.822 139.77 318.766 139.27C319.71 138.769 320.768 138.519 321.941 138.519C323.114 138.519 324.173 138.769 325.117 139.27C326.061 139.77 326.804 140.493 327.348 141.437C327.891 142.366 328.163 143.446 328.163 144.676C328.163 145.906 327.884 146.994 327.327 147.938C326.783 148.867 326.032 149.582 325.074 150.083C324.13 150.584 323.071 150.834 321.898 150.834ZM321.898 147.659C322.599 147.659 323.193 147.401 323.679 146.886C324.18 146.371 324.43 145.635 324.43 144.676C324.43 143.718 324.187 142.981 323.701 142.466C323.229 141.952 322.642 141.694 321.941 141.694C321.226 141.694 320.633 141.952 320.16 142.466C319.688 142.967 319.452 143.704 319.452 144.676C319.452 145.635 319.681 146.371 320.139 146.886C320.611 147.401 321.197 147.659 321.898 147.659ZM333.778 140.686C334.208 140.028 334.744 139.513 335.388 139.141C336.031 138.755 336.746 138.562 337.533 138.562V142.445H336.525C335.609 142.445 334.923 142.645 334.465 143.046C334.007 143.432 333.778 144.119 333.778 145.105V150.662H330.11V138.69H333.778V140.686ZM350.506 147.551V150.662H348.639C347.309 150.662 346.272 150.341 345.528 149.697C344.785 149.039 344.413 147.973 344.413 146.5V141.737H342.954V138.69H344.413V135.773H348.081V138.69H350.484V141.737H348.081V146.543C348.081 146.901 348.167 147.158 348.339 147.315C348.511 147.473 348.797 147.551 349.197 147.551H350.506ZM359.909 138.562C361.282 138.562 362.383 139.019 363.213 139.935C364.042 140.836 364.457 142.08 364.457 143.668V150.662H360.81V144.161C360.81 143.36 360.602 142.738 360.188 142.295C359.773 141.851 359.215 141.63 358.514 141.63C357.813 141.63 357.255 141.851 356.841 142.295C356.426 142.738 356.218 143.36 356.218 144.161V150.662H352.55V134.786H356.218V140.3C356.59 139.77 357.098 139.348 357.742 139.034C358.385 138.719 359.108 138.562 359.909 138.562ZM378.292 144.483C378.292 144.827 378.271 145.184 378.228 145.556H369.924C369.982 146.3 370.218 146.872 370.632 147.272C371.062 147.659 371.584 147.852 372.199 147.852C373.114 147.852 373.751 147.466 374.108 146.693H378.013C377.813 147.48 377.448 148.188 376.919 148.817C376.404 149.447 375.753 149.94 374.966 150.298C374.18 150.655 373.3 150.834 372.327 150.834C371.155 150.834 370.11 150.584 369.195 150.083C368.28 149.582 367.564 148.867 367.049 147.938C366.535 147.008 366.277 145.921 366.277 144.676C366.277 143.432 366.527 142.345 367.028 141.415C367.543 140.485 368.258 139.77 369.174 139.27C370.089 138.769 371.14 138.519 372.327 138.519C373.486 138.519 374.516 138.762 375.417 139.248C376.318 139.735 377.019 140.428 377.52 141.329C378.035 142.23 378.292 143.282 378.292 144.483ZM374.537 143.518C374.537 142.888 374.323 142.388 373.894 142.016C373.465 141.644 372.928 141.458 372.285 141.458C371.669 141.458 371.147 141.637 370.718 141.994C370.304 142.352 370.046 142.86 369.946 143.518H374.537ZM390.782 141.737H388.808V150.662H385.139V141.737H383.809V138.69H385.139V138.347C385.139 136.874 385.561 135.758 386.405 135C387.249 134.228 388.486 133.842 390.116 133.842C390.388 133.842 390.588 133.849 390.717 133.863V136.974C390.016 136.931 389.523 137.031 389.237 137.274C388.951 137.518 388.808 137.954 388.808 138.583V138.69H390.782V141.737ZM404.327 138.69V150.662H400.658V149.032C400.287 149.561 399.779 149.99 399.135 150.319C398.506 150.634 397.805 150.791 397.033 150.791C396.117 150.791 395.309 150.591 394.608 150.19C393.907 149.776 393.364 149.182 392.977 148.41C392.591 147.637 392.398 146.729 392.398 145.685V138.69H396.046V145.191C396.046 145.992 396.253 146.614 396.668 147.058C397.083 147.501 397.64 147.723 398.341 147.723C399.056 147.723 399.621 147.501 400.036 147.058C400.451 146.614 400.658 145.992 400.658 145.191V138.69H404.327ZM413.635 147.551V150.662H411.768C410.438 150.662 409.401 150.341 408.657 149.697C407.914 149.039 407.542 147.973 407.542 146.5V141.737H406.083V138.69H407.542V135.773H411.211V138.69H413.614V141.737H411.211V146.543C411.211 146.901 411.296 147.158 411.468 147.315C411.64 147.473 411.926 147.551 412.326 147.551H413.635ZM427.5 138.69V150.662H423.832V149.032C423.46 149.561 422.952 149.99 422.308 150.319C421.679 150.634 420.978 150.791 420.206 150.791C419.29 150.791 418.482 150.591 417.781 150.19C417.08 149.776 416.537 149.182 416.151 148.41C415.765 147.637 415.571 146.729 415.571 145.685V138.69H419.219V145.191C419.219 145.992 419.426 146.614 419.841 147.058C420.256 147.501 420.814 147.723 421.514 147.723C422.23 147.723 422.795 147.501 423.209 147.058C423.624 146.614 423.832 145.992 423.832 145.191V138.69H427.5ZM433.805 140.686C434.234 140.028 434.77 139.513 435.414 139.141C436.057 138.755 436.773 138.562 437.559 138.562V142.445H436.551C435.635 142.445 434.949 142.645 434.491 143.046C434.033 143.432 433.805 144.119 433.805 145.105V150.662H430.136V138.69H433.805V140.686ZM450.598 144.483C450.598 144.827 450.577 145.184 450.534 145.556H442.231C442.288 146.3 442.524 146.872 442.939 147.272C443.368 147.659 443.89 147.852 444.505 147.852C445.42 147.852 446.057 147.466 446.414 146.693H450.319C450.119 147.48 449.754 148.188 449.225 148.817C448.71 149.447 448.059 149.94 447.273 150.298C446.486 150.655 445.606 150.834 444.634 150.834C443.461 150.834 442.417 150.584 441.501 150.083C440.586 149.582 439.871 148.867 439.356 147.938C438.841 147.008 438.583 145.921 438.583 144.676C438.583 143.432 438.834 142.345 439.334 141.415C439.849 140.485 440.564 139.77 441.48 139.27C442.395 138.769 443.447 138.519 444.634 138.519C445.792 138.519 446.822 138.762 447.723 139.248C448.624 139.735 449.325 140.428 449.826 141.329C450.341 142.23 450.598 143.282 450.598 144.483ZM446.844 143.518C446.844 142.888 446.629 142.388 446.2 142.016C445.771 141.644 445.234 141.458 444.591 141.458C443.976 141.458 443.454 141.637 443.025 141.994C442.61 142.352 442.352 142.86 442.252 143.518H446.844ZM462.53 150.834C461.357 150.834 460.299 150.584 459.355 150.083C458.425 149.582 457.688 148.867 457.145 147.938C456.616 147.008 456.351 145.921 456.351 144.676C456.351 143.446 456.623 142.366 457.166 141.437C457.71 140.493 458.453 139.77 459.398 139.27C460.342 138.769 461.4 138.519 462.573 138.519C463.746 138.519 464.804 138.769 465.748 139.27C466.692 139.77 467.436 140.493 467.98 141.437C468.523 142.366 468.795 143.446 468.795 144.676C468.795 145.906 468.516 146.994 467.958 147.938C467.415 148.867 466.664 149.582 465.705 150.083C464.761 150.584 463.703 150.834 462.53 150.834ZM462.53 147.659C463.231 147.659 463.824 147.401 464.311 146.886C464.811 146.371 465.062 145.635 465.062 144.676C465.062 143.718 464.819 142.981 464.332 142.466C463.86 141.952 463.274 141.694 462.573 141.694C461.858 141.694 461.264 141.952 460.792 142.466C460.32 142.967 460.084 143.704 460.084 144.676C460.084 145.635 460.313 146.371 460.771 146.886C461.243 147.401 461.829 147.659 462.53 147.659ZM476.749 141.737H474.775V150.662H471.106V141.737H469.776V138.69H471.106V138.347C471.106 136.874 471.528 135.758 472.372 135C473.216 134.228 474.453 133.842 476.084 133.842C476.355 133.842 476.556 133.849 476.684 133.863V136.974C475.983 136.931 475.49 137.031 475.204 137.274C474.918 137.518 474.775 137.954 474.775 138.583V138.69H476.749V141.737ZM486.688 140.686C487.117 140.028 487.654 139.513 488.297 139.141C488.941 138.755 489.656 138.562 490.443 138.562V142.445H489.434C488.519 142.445 487.832 142.645 487.375 143.046C486.917 143.432 486.688 144.119 486.688 145.105V150.662H483.019V138.69H486.688V140.686ZM503.482 144.483C503.482 144.827 503.46 145.184 503.417 145.556H495.114C495.171 146.3 495.407 146.872 495.822 147.272C496.251 147.659 496.773 147.852 497.389 147.852C498.304 147.852 498.94 147.466 499.298 146.693H503.203C503.003 147.48 502.638 148.188 502.109 148.817C501.594 149.447 500.943 149.94 500.156 150.298C499.37 150.655 498.49 150.834 497.517 150.834C496.344 150.834 495.3 150.584 494.385 150.083C493.469 149.582 492.754 148.867 492.239 147.938C491.724 147.008 491.467 145.921 491.467 144.676C491.467 143.432 491.717 142.345 492.218 141.415C492.733 140.485 493.448 139.77 494.363 139.27C495.279 138.769 496.33 138.519 497.517 138.519C498.676 138.519 499.706 138.762 500.607 139.248C501.508 139.735 502.209 140.428 502.709 141.329C503.224 142.23 503.482 143.282 503.482 144.483ZM499.727 143.518C499.727 142.888 499.513 142.388 499.083 142.016C498.654 141.644 498.118 141.458 497.474 141.458C496.859 141.458 496.337 141.637 495.908 141.994C495.493 142.352 495.236 142.86 495.136 143.518H499.727ZM509.086 140.385C509.444 139.828 509.937 139.377 510.566 139.034C511.196 138.69 511.932 138.519 512.776 138.519C513.763 138.519 514.657 138.769 515.458 139.27C516.259 139.77 516.889 140.485 517.346 141.415C517.818 142.345 518.054 143.425 518.054 144.655C518.054 145.885 517.818 146.972 517.346 147.916C516.889 148.846 516.259 149.568 515.458 150.083C514.657 150.584 513.763 150.834 512.776 150.834C511.947 150.834 511.21 150.662 510.566 150.319C509.937 149.976 509.444 149.532 509.086 148.989V156.369H505.417V138.69H509.086V140.385ZM514.321 144.655C514.321 143.74 514.064 143.024 513.549 142.509C513.048 141.98 512.426 141.716 511.682 141.716C510.953 141.716 510.33 141.98 509.816 142.509C509.315 143.039 509.065 143.761 509.065 144.676C509.065 145.592 509.315 146.314 509.816 146.843C510.33 147.373 510.953 147.637 511.682 147.637C512.412 147.637 513.034 147.373 513.549 146.843C514.064 146.3 514.321 145.57 514.321 144.655ZM525.429 150.834C524.256 150.834 523.197 150.584 522.253 150.083C521.324 149.582 520.587 148.867 520.043 147.938C519.514 147.008 519.25 145.921 519.25 144.676C519.25 143.446 519.521 142.366 520.065 141.437C520.608 140.493 521.352 139.77 522.296 139.27C523.24 138.769 524.299 138.519 525.472 138.519C526.644 138.519 527.703 138.769 528.647 139.27C529.591 139.77 530.335 140.493 530.878 141.437C531.422 142.366 531.694 143.446 531.694 144.676C531.694 145.906 531.415 146.994 530.857 147.938C530.313 148.867 529.562 149.582 528.604 150.083C527.66 150.584 526.602 150.834 525.429 150.834ZM525.429 147.659C526.13 147.659 526.723 147.401 527.209 146.886C527.71 146.371 527.96 145.635 527.96 144.676C527.96 143.718 527.717 142.981 527.231 142.466C526.759 141.952 526.172 141.694 525.472 141.694C524.756 141.694 524.163 141.952 523.691 142.466C523.219 142.967 522.983 143.704 522.983 144.676C522.983 145.635 523.212 146.371 523.669 146.886C524.141 147.401 524.728 147.659 525.429 147.659ZM537.309 140.686C537.738 140.028 538.274 139.513 538.918 139.141C539.562 138.755 540.277 138.562 541.063 138.562V142.445H540.055C539.14 142.445 538.453 142.645 537.995 143.046C537.538 143.432 537.309 144.119 537.309 145.105V150.662H533.64V138.69H537.309V140.686ZM549.49 147.551V150.662H547.623C546.293 150.662 545.256 150.341 544.512 149.697C543.768 149.039 543.396 147.973 543.396 146.5V141.737H541.937V138.69H543.396V135.773H547.065V138.69H549.468V141.737H547.065V146.543C547.065 146.901 547.151 147.158 547.323 147.315C547.494 147.473 547.78 147.551 548.181 147.551H549.49ZM553.378 137.446C552.735 137.446 552.205 137.26 551.791 136.888C551.39 136.502 551.19 136.03 551.19 135.472C551.19 134.9 551.39 134.428 551.791 134.056C552.205 133.67 552.735 133.477 553.378 133.477C554.008 133.477 554.523 133.67 554.923 134.056C555.338 134.428 555.545 134.9 555.545 135.472C555.545 136.03 555.338 136.502 554.923 136.888C554.523 137.26 554.008 137.446 553.378 137.446ZM555.202 138.69V150.662H551.533V138.69H555.202ZM565.156 138.562C566.557 138.562 567.673 139.019 568.503 139.935C569.346 140.836 569.768 142.08 569.768 143.668V150.662H566.121V144.161C566.121 143.36 565.914 142.738 565.499 142.295C565.084 141.851 564.526 141.63 563.825 141.63C563.124 141.63 562.567 141.851 562.152 142.295C561.737 142.738 561.53 143.36 561.53 144.161V150.662H557.861V138.69H561.53V140.278C561.901 139.749 562.402 139.334 563.031 139.034C563.661 138.719 564.369 138.562 565.156 138.562ZM576.866 138.519C577.71 138.519 578.447 138.69 579.076 139.034C579.72 139.377 580.213 139.828 580.557 140.385V138.69H584.225V150.641C584.225 151.742 584.004 152.736 583.56 153.623C583.131 154.524 582.466 155.239 581.565 155.769C580.678 156.298 579.57 156.563 578.239 156.563C576.466 156.563 575.028 156.141 573.927 155.297C572.826 154.467 572.196 153.337 572.039 151.907H575.665C575.779 152.364 576.051 152.722 576.48 152.98C576.909 153.251 577.438 153.387 578.068 153.387C578.826 153.387 579.427 153.165 579.87 152.722C580.328 152.293 580.557 151.599 580.557 150.641V148.946C580.199 149.504 579.706 149.961 579.076 150.319C578.447 150.662 577.71 150.834 576.866 150.834C575.879 150.834 574.985 150.584 574.184 150.083C573.383 149.568 572.747 148.846 572.275 147.916C571.817 146.972 571.588 145.885 571.588 144.655C571.588 143.425 571.817 142.345 572.275 141.415C572.747 140.485 573.383 139.77 574.184 139.27C574.985 138.769 575.879 138.519 576.866 138.519ZM580.557 144.676C580.557 143.761 580.299 143.039 579.784 142.509C579.284 141.98 578.669 141.716 577.939 141.716C577.21 141.716 576.587 141.98 576.072 142.509C575.572 143.024 575.322 143.74 575.322 144.655C575.322 145.57 575.572 146.3 576.072 146.843C576.587 147.373 577.21 147.637 577.939 147.637C578.669 147.637 579.284 147.373 579.784 146.843C580.299 146.314 580.557 145.592 580.557 144.676Z" fill="white"/>
</g>
<defs>
<filter id="filter0_ddd_12008_283382" x="0.901793" y="0.300594" width="772.196" height="564.196" filterUnits="userSpaceOnUse" color-interpolation-filters="sRGB">
<feFlood flood-opacity="0" result="BackgroundImageFix"/>
<feColorMatrix in="SourceAlpha" type="matrix" values="0 0 0 0 0 0 0 0 0 0 0 0 0 0 0 0 0 0 127 0" result="hardAlpha"/>
<feOffset dy="0.96994"/>
<feGaussianBlur stdDeviation="4.8497"/>
<feColorMatrix type="matrix" values="0 0 0 0 0 0 0 0 0 0 0 0 0 0 0 0 0 0 0.05 0"/>
<feBlend mode="normal" in2="BackgroundImageFix" result="effect1_dropShadow_12008_283382"/>
<feColorMatrix in="SourceAlpha" type="matrix" values="0 0 0 0 0 0 0 0 0 0 0 0 0 0 0 0 0 0 127 0" result="hardAlpha"/>
<feOffset dy="5.81964"/>
<feGaussianBlur stdDeviation="4.8497"/>
<feColorMatrix type="matrix" values="0 0 0 0 0 0 0 0 0 0 0 0 0 0 0 0 0 0 0.05 0"/>
<feBlend mode="normal" in2="effect1_dropShadow_12008_283382" result="effect2_dropShadow_12008_283382"/>
<feColorMatrix in="SourceAlpha" type="matrix" values="0 0 0 0 0 0 0 0 0 0 0 0 0 0 0 0 0 0 127 0" result="hardAlpha"/>
<feOffset dy="19.3988"/>
<feGaussianBlur stdDeviation="14.5491"/>
<feColorMatrix type="matrix" values="0 0 0 0 0 0 0 0 0 0 0 0 0 0 0 0 0 0 0.05 0"/>
<feBlend mode="normal" in2="effect2_dropShadow_12008_283382" result="effect3_dropShadow_12008_283382"/>
<feBlend mode="normal" in="SourceGraphic" in2="effect3_dropShadow_12008_283382" result="shape"/>
</filter>
</defs>
</svg>
