<svg width="184" height="55" viewBox="0 0 184 55" fill="none" xmlns="http://www.w3.org/2000/svg">
<g opacity="0.5">
<rect x="0.5" y="0.5" width="183" height="54" fill="#F2F7FD" stroke="#6061E5"/>
<path d="M71.276 30.5H72.326V21.68H75.084V20.7H68.532V21.68H71.276V30.5ZM78.6534 30.654C79.7454 30.654 80.5014 30.234 81.1594 29.562L80.5854 28.918C80.0814 29.422 79.4934 29.758 78.6954 29.758C77.5474 29.758 76.5534 28.862 76.4414 27.252H81.3414C81.3554 27.126 81.3554 26.93 81.3554 26.832C81.3554 24.634 80.2634 23.066 78.4294 23.066C76.7214 23.066 75.4194 24.62 75.4194 26.846V26.916C75.4194 29.226 76.8754 30.654 78.6534 30.654ZM76.4414 26.468C76.5394 24.942 77.3514 23.948 78.4294 23.948C79.6194 23.948 80.2774 25.082 80.3474 26.468H76.4414ZM83.7783 23.206H82.6443L84.9543 26.776L82.5463 30.5H83.6523L85.5423 27.49L87.4323 30.5H88.5663L86.1303 26.748L88.4543 23.206H87.3623L85.5563 26.048L83.7783 23.206ZM92.68 30.612C93.1 30.612 93.45 30.514 93.772 30.36V29.492C93.478 29.618 93.198 29.688 92.918 29.688C92.288 29.688 91.868 29.408 91.868 28.638V24.102H93.772V23.206H91.868V21.078H90.86V23.206H89.978V24.102H90.86V28.806C90.86 30.108 91.644 30.612 92.68 30.612Z" fill="#231D2C"/>
<path d="M24.5 18V21H29.5V33H32.5V21H37.5V18H24.5ZM43.5 23H34.5V26H37.5V33H40.5V26H43.5V23Z" fill="#231D2C"/>
</g>
</svg>
