<svg width="18" height="18" viewBox="0 0 18 18" fill="none" xmlns="http://www.w3.org/2000/svg">
<path d="M12.5 11.1665H11.71L11.43 10.8965C12.41 9.7565 13 8.2765 13 6.6665C13 3.0765 10.09 0.166504 6.5 0.166504C2.91 0.166504 0 3.0765 0 6.6665C0 10.2565 2.91 13.1665 6.5 13.1665C8.11 13.1665 9.59 12.5765 10.73 11.5965L11 11.8765V12.6665L16 17.6565L17.49 16.1665L12.5 11.1665ZM6.5 11.1665C4.01 11.1665 2 9.1565 2 6.6665C2 4.1765 4.01 2.1665 6.5 2.1665C8.99 2.1665 11 4.1765 11 6.6665C11 9.1565 8.99 11.1665 6.5 11.1665Z" fill="#231D2C"/>
</svg>
