<svg
  width="16"
  height="16"
  viewBox="0 0 16 16"
  fill="none"
  xmlns="http://www.w3.org/2000/svg"
>
  <path
    d="M5.33337 3.6665C5.88566 3.6665 6.33337 3.21879 6.33337 2.6665C6.33337 2.11422 5.88566 1.6665 5.33337 1.6665C4.78109 1.6665 4.33337 2.11422 4.33337 2.6665C4.33337 3.21879 4.78109 3.6665 5.33337 3.6665Z"
    fill="#454545"
  />
  <path
    d="M10.6666 3.6665C11.2189 3.6665 11.6666 3.21879 11.6666 2.6665C11.6666 2.11422 11.2189 1.6665 10.6666 1.6665C10.1143 1.6665 9.66663 2.11422 9.66663 2.6665C9.66663 3.21879 10.1143 3.6665 10.6666 3.6665Z"
    fill="#454545"
  />
  <path
    d="M5.33337 9C5.88566 9 6.33337 8.55228 6.33337 8C6.33337 7.44772 5.88566 7 5.33337 7C4.78109 7 4.33337 7.44772 4.33337 8C4.33337 8.55228 4.78109 9 5.33337 9Z"
    fill="#454545"
  />
  <path
    d="M10.6666 9C11.2189 9 11.6666 8.55228 11.6666 8C11.6666 7.44772 11.2189 7 10.6666 7C10.1143 7 9.66663 7.44772 9.66663 8C9.66663 8.55228 10.1143 9 10.6666 9Z"
    fill="#454545"
  />
  <path
    d="M5.33337 14.333C5.88566 14.333 6.33337 13.8853 6.33337 13.333C6.33337 12.7807 5.88566 12.333 5.33337 12.333C4.78109 12.333 4.33337 12.7807 4.33337 13.333C4.33337 13.8853 4.78109 14.333 5.33337 14.333Z"
    fill="#454545"
  />
  <path
    d="M10.6666 14.333C11.2189 14.333 11.6666 13.8853 11.6666 13.333C11.6666 12.7807 11.2189 12.333 10.6666 12.333C10.1143 12.333 9.66663 12.7807 9.66663 13.333C9.66663 13.8853 10.1143 14.333 10.6666 14.333Z"
    fill="#454545"
  />
</svg>
