<svg width="13" height="14" viewBox="0 0 13 14" fill="none" xmlns="http://www.w3.org/2000/svg">
<path fill-rule="evenodd" clip-rule="evenodd" d="M6.05851 2.33301C5.69032 2.33301 5.39185 2.63148 5.39185 2.99967V6.33301H2.05851C1.69032 6.33301 1.39185 6.63148 1.39185 6.99967C1.39185 7.36786 1.69032 7.66634 2.05851 7.66634H5.39185V10.9997C5.39185 11.3679 5.69032 11.6663 6.05851 11.6663C6.4267 11.6663 6.72518 11.3679 6.72518 10.9997V7.66634H10.0585C10.4267 7.66634 10.7252 7.36786 10.7252 6.99967C10.7252 6.63148 10.4267 6.33301 10.0585 6.33301H6.72518V2.99967C6.72518 2.63148 6.4267 2.33301 6.05851 2.33301Z" fill="#373D43"/>
</svg>