<svg
  width="16"
  height="17"
  viewBox="0 0 16 17"
  fill="none"
  xmlns="http://www.w3.org/2000/svg"
>
  <path
    fill-rule="evenodd"
    clip-rule="evenodd"
    d="M3 5.72222C3 6.94778 3.99667 7.94444 5.22222 7.94444C6.25754 7.94444 7.12952 7.23317 7.37528 6.27351C7.39794 6.27633 7.42102 6.27778 7.44444 6.27778H12.4444C12.7517 6.27778 13 6.02889 13 5.72222C13 5.41556 12.7517 5.16667 12.4444 5.16667H7.44444C7.42102 5.16667 7.39794 5.16812 7.37528 5.17094C7.12952 4.21127 6.25754 3.5 5.22222 3.5C3.99667 3.5 3 4.49667 3 5.72222ZM4.11111 5.72222C4.11111 5.10944 4.60944 4.61111 5.22222 4.61111C5.835 4.61111 6.33333 5.10944 6.33333 5.72222C6.33333 6.335 5.835 6.83333 5.22222 6.83333C4.60944 6.83333 4.11111 6.335 4.11111 5.72222Z"
    fill="#252C34"
  />
  <path
    fill-rule="evenodd"
    clip-rule="evenodd"
    d="M4.11111 11.8333H8.62582C8.87307 12.7908 9.74399 13.5 10.7778 13.5C12.0033 13.5 13 12.5033 13 11.2778C13 10.0522 12.0033 9.05556 10.7778 9.05556C9.74399 9.05556 8.87307 9.76472 8.62582 10.7222H4.11111C3.80444 10.7222 3.55556 10.9706 3.55556 11.2778C3.55556 11.585 3.80444 11.8333 4.11111 11.8333ZM10.7778 12.3889C10.165 12.3889 9.66667 11.8906 9.66667 11.2778C9.66667 10.665 10.165 10.1667 10.7778 10.1667C11.3906 10.1667 11.8889 10.665 11.8889 11.2778C11.8889 11.8906 11.3906 12.3889 10.7778 12.3889Z"
    fill="#252C34"
  />
</svg>
