<svg width="16" height="17" viewBox="0 0 16 17" fill="none">
  <path
    d="M7.99967 6.49967L11.9997 10.4997M11.9997 6.49967L7.99967 10.4997M6.6663 3.83301C6.33502 3.83303 6.01562 3.95637 5.7703 4.17901L1.55164 8.00567C1.48278 8.06816 1.42776 8.14437 1.39011 8.22938C1.35246 8.3144 1.33301 8.40636 1.33301 8.49934C1.33301 8.59232 1.35246 8.68428 1.39011 8.7693C1.42776 8.85432 1.48278 8.93052 1.55164 8.99301L5.7703 12.8203C6.01562 13.043 6.33502 13.1663 6.6663 13.1663H13.333C13.6866 13.1663 14.0257 13.0259 14.2758 12.7758C14.5258 12.5258 14.6663 12.1866 14.6663 11.833V5.16634C14.6663 4.81272 14.5258 4.47358 14.2758 4.22353C14.0257 3.97348 13.6866 3.83301 13.333 3.83301H6.6663Z"
    stroke="#EA1541"
    stroke-linecap="round"
    stroke-linejoin="round"
  />
</svg>


  
