<svg width="12" height="12" viewBox="0 0 12 12" fill="none" xmlns="http://www.w3.org/2000/svg">
<path d="M8.16559 4.7063C8.23261 4.63597 8.31275 4.58 8.40131 4.54169C8.48987 4.50339 8.58506 4.48351 8.68127 4.48324C8.77748 4.48296 8.87277 4.50229 8.96154 4.54009C9.05031 4.5779 9.13076 4.6334 9.19817 4.70335C9.26557 4.7733 9.31856 4.85627 9.35403 4.9474C9.3895 5.03852 9.40672 5.13595 9.40468 5.23395C9.40265 5.33195 9.3814 5.42855 9.34218 5.51807C9.30297 5.60758 9.24657 5.6882 9.17633 5.75518L6.43516 8.50896C6.30006 8.64418 6.11825 8.71995 5.92886 8.71995C5.73947 8.71995 5.55766 8.64418 5.42255 8.50896L2.7207 5.79046C2.58418 5.65377 2.50655 5.46743 2.50488 5.27242C2.50322 5.07742 2.57765 4.88973 2.71181 4.75064C2.84596 4.61155 3.02885 4.53245 3.22025 4.53075C3.41164 4.52906 3.59586 4.60489 3.73237 4.74158L5.21947 6.24338L5.23444 0.954172C5.24257 0.763579 5.323 0.583644 5.45879 0.452289C5.59457 0.320934 5.77511 0.248419 5.96234 0.250026C6.14957 0.251633 6.32888 0.327238 6.46248 0.460905C6.59607 0.594572 6.67352 0.775862 6.67849 0.966567L6.66445 6.21096L8.16559 4.7063ZM0.25 11.0453L0.259359 8.1676C0.256861 8.06881 0.273913 7.97051 0.309499 7.87858C0.345084 7.78664 0.398475 7.70295 0.466488 7.63248C0.5345 7.56202 0.615742 7.50624 0.705369 7.46845C0.794996 7.43066 0.891173 7.41165 0.988166 7.41255C1.08516 7.41345 1.18098 7.43423 1.26992 7.47367C1.35886 7.51311 1.43909 7.57039 1.50584 7.64209C1.57259 7.7138 1.62448 7.79847 1.65842 7.89105C1.69236 7.98362 1.70766 8.08222 1.70341 8.18095L1.69685 10.2787C4.56686 10.2844 7.43405 10.2844 10.2984 10.2787L10.305 8.16951C10.3067 7.97428 10.3845 7.78774 10.5212 7.65095C10.658 7.51415 10.8424 7.43829 11.034 7.44006C11.2256 7.44183 11.4087 7.52108 11.543 7.66039C11.6773 7.79969 11.7517 7.98763 11.75 8.18286L11.7406 11.0434H11.7322C11.7238 11.2314 11.645 11.409 11.512 11.5395C11.379 11.6701 11.2019 11.7437 11.0172 11.7452C7.6649 11.7516 4.31511 11.7516 0.967812 11.7452C0.782874 11.7447 0.605214 11.6718 0.4716 11.5415C0.337986 11.4112 0.258646 11.2336 0.25 11.0453Z" fill="#373D43"/>
</svg>
