<svg width="32" height="32" viewBox="0 0 32 32" fill="none" xmlns="http://www.w3.org/2000/svg">
<rect width="32" height="32" rx="8" fill="#F1F3F4"/>
<path d="M19.3896 13.9751C19.4945 13.865 19.62 13.7774 19.7586 13.7174C19.8972 13.6575 20.0462 13.6264 20.1968 13.6259C20.3474 13.6255 20.4965 13.6558 20.6355 13.7149C20.7744 13.7741 20.9003 13.861 21.0058 13.9705C21.1113 14.0799 21.1943 14.2098 21.2498 14.3524C21.3053 14.4951 21.3323 14.6476 21.3291 14.801C21.3259 14.9544 21.2926 15.1056 21.2312 15.2457C21.1699 15.3858 21.0816 15.512 20.9716 15.6168L16.6811 19.9271C16.4697 20.1387 16.1851 20.2573 15.8886 20.2573C15.5922 20.2573 15.3076 20.1387 15.0962 19.9271L10.8672 15.672C10.6535 15.4581 10.532 15.1664 10.5294 14.8612C10.5268 14.556 10.6433 14.2622 10.8533 14.0445C11.0632 13.8268 11.3495 13.703 11.6491 13.7003C11.9487 13.6977 12.237 13.8164 12.4507 14.0303L14.7783 16.3809L14.8017 8.10218C14.8145 7.80386 14.9404 7.52223 15.1529 7.31663C15.3654 7.11103 15.648 6.99753 15.9411 7.00004C16.2341 7.00256 16.5148 7.12089 16.7239 7.33011C16.933 7.53933 17.0542 7.82309 17.062 8.12158L17.04 16.3302L19.3896 13.9751ZM7 23.8971L7.01465 19.3928C7.01074 19.2381 7.03743 19.0843 7.09313 18.9404C7.14883 18.7965 7.2324 18.6655 7.33885 18.5552C7.4453 18.4449 7.57247 18.3576 7.71275 18.2984C7.85304 18.2393 8.00357 18.2095 8.15539 18.2109C8.3072 18.2123 8.45719 18.2449 8.5964 18.3066C8.73561 18.3683 8.86119 18.458 8.96566 18.5702C9.07014 18.6825 9.15136 18.815 9.20449 18.9599C9.25761 19.1048 9.28156 19.2591 9.2749 19.4137L9.26464 22.6971C13.7568 22.7061 18.2446 22.7061 22.728 22.6971L22.7382 19.3958C22.741 19.0902 22.8627 18.7982 23.0767 18.5841C23.2907 18.37 23.5794 18.2512 23.8794 18.254C24.1793 18.2568 24.4658 18.3808 24.676 18.5989C24.8861 18.8169 25.0027 19.1111 25 19.4166L24.9853 23.8941H24.9721C24.959 24.1883 24.8356 24.4662 24.6274 24.6706C24.4193 24.8749 24.1421 24.9902 23.853 24.9925C18.6059 25.0025 13.3628 25.0025 8.12353 24.9925C7.83406 24.9917 7.55599 24.8775 7.34685 24.6736C7.13772 24.4697 7.01353 24.1917 7 23.8971Z" fill="black"/>
</svg>
