<svg width="16" height="17" viewBox="0 0 16 17" fill="none">
  <path
    d="M10.1656 7.2063C10.2326 7.13597 10.3128 7.08 10.4013 7.04169C10.4899 7.00339 10.5851 6.98351 10.6813 6.98324C10.7775 6.98296 10.8728 7.00229 10.9615 7.04009C11.0503 7.0779 11.1308 7.1334 11.1982 7.20335C11.2656 7.2733 11.3186 7.35627 11.354 7.4474C11.3895 7.53852 11.4067 7.63595 11.4047 7.73395C11.4026 7.83195 11.3814 7.92855 11.3422 8.01807C11.303 8.10758 11.2466 8.1882 11.1763 8.25518L8.43516 11.009C8.30006 11.1442 8.11825 11.22 7.92886 11.22C7.73947 11.22 7.55766 11.1442 7.42255 11.009L4.7207 8.29046C4.58418 8.15377 4.50655 7.96743 4.50488 7.77242C4.50322 7.57742 4.57765 7.38973 4.71181 7.25064C4.84596 7.11155 5.02885 7.03245 5.22025 7.03075C5.41164 7.02906 5.59586 7.10489 5.73237 7.24158L7.21947 8.74338L7.23444 3.45417C7.24257 3.26358 7.323 3.08364 7.45879 2.95229C7.59457 2.82093 7.77511 2.74842 7.96234 2.75003C8.14957 2.75163 8.32888 2.82724 8.46248 2.9609C8.59607 3.09457 8.67352 3.27586 8.67849 3.46657L8.66445 8.71096L10.1656 7.2063ZM2.25 13.5453L2.25936 10.6676C2.25686 10.5688 2.27391 10.4705 2.3095 10.3786C2.34508 10.2866 2.39848 10.2029 2.46649 10.1325C2.5345 10.062 2.61574 10.0062 2.70537 9.96845C2.795 9.93066 2.89117 9.91165 2.98817 9.91255C3.08516 9.91345 3.18098 9.93423 3.26992 9.97367C3.35886 10.0131 3.43909 10.0704 3.50584 10.1421C3.57259 10.2138 3.62448 10.2985 3.65842 10.391C3.69236 10.4836 3.70766 10.5822 3.70341 10.681L3.69685 12.7787C6.56686 12.7844 9.43405 12.7844 12.2984 12.7787L12.305 10.6695C12.3067 10.4743 12.3845 10.2877 12.5212 10.1509C12.658 10.0141 12.8424 9.93829 13.034 9.94006C13.2256 9.94183 13.4087 10.0211 13.543 10.1604C13.6773 10.2997 13.7517 10.4876 13.75 10.6829L13.7406 13.5434H13.7322C13.7238 13.7314 13.645 13.909 13.512 14.0395C13.379 14.1701 13.2019 14.2437 13.0172 14.2452C9.6649 14.2516 6.31511 14.2516 2.96781 14.2452C2.78287 14.2447 2.60521 14.1718 2.4716 14.0415C2.33799 13.9112 2.25865 13.7336 2.25 13.5453Z"
    fill="#373D43"
  />
</svg>
