<svg width="16" height="17" viewBox="0 0 16 17" fill="none">
  <path
    d="M9.33366 1.83301V4.49967C9.33366 4.8533 9.47413 5.19244 9.72418 5.44248C9.97423 5.69253 10.3134 5.83301 10.667 5.83301H13.3337M10.0003 1.83301H4.00033C3.6467 1.83301 3.30756 1.97348 3.05752 2.22353C2.80747 2.47358 2.66699 2.81272 2.66699 3.16634V13.833C2.66699 14.1866 2.80747 14.5258 3.05752 14.7758C3.30756 15.0259 3.6467 15.1663 4.00033 15.1663H12.0003C12.3539 15.1663 12.6931 15.0259 12.9431 14.7758C13.1932 14.5258 13.3337 14.1866 13.3337 13.833V5.16634L10.0003 1.83301Z"
    stroke="#495057"
    stroke-width="1.5"
    stroke-linecap="round"
    stroke-linejoin="round"
  />
</svg>
