<svg width="32" height="32" viewBox="0 0 32 32" fill="none" xmlns="http://www.w3.org/2000/svg">
<rect width="32" height="32" rx="8" fill="#F1F3F4"/>
<path d="M16.0004 8.55852C15.0171 7.55629 13.73 7.00005 12.3941 7C11.6871 7.00082 10.9872 7.15661 10.3347 7.45842C9.68215 7.76023 9.08992 8.2021 8.59206 8.75859C6.46856 11.1224 6.46946 14.8196 8.59387 17.1734L15.2107 24.5078C15.3642 24.8069 15.6602 25 16.0004 25C16.1401 24.9985 16.2775 24.9607 16.4017 24.8896C16.5258 24.8186 16.6332 24.7163 16.7151 24.5909L23.4069 17.1734C25.5313 14.8186 25.5313 11.1224 23.4051 8.75458C22.9075 8.19912 22.3158 7.75815 21.6639 7.45704C21.012 7.15592 20.3129 7.0006 19.6066 7C18.2708 7.00024 16.9838 7.55646 16.0004 8.55852ZM22.129 10.1691C23.5396 11.7406 23.5405 14.1954 22.1308 15.7589L16.0004 22.5542L9.86995 15.7589C8.4603 14.1954 8.4612 11.7406 9.86815 10.1731C10.554 9.41681 11.4511 9.00067 12.3941 9.00067C13.3372 9.00067 14.2307 9.41681 14.9111 10.1711L15.3624 10.6712C15.4461 10.7642 15.5455 10.838 15.655 10.8883C15.7645 10.9386 15.8819 10.9645 16.0004 10.9645C16.1189 10.9645 16.2363 10.9386 16.3458 10.8883C16.4552 10.838 16.5547 10.7642 16.6384 10.6712L17.0897 10.1711C18.4542 8.66155 20.7663 8.66556 22.129 10.1691Z" fill="black"/>
</svg>
