<svg
  width="12"
  height="12"
  viewBox="0 0 12 12"
  fill="none"
  xmlns="http://www.w3.org/2000/svg"
>
  <path
    d="M6.00025 1.24572C5.37202 0.605407 4.54971 0.25003 3.69626 0.25C3.24454 0.250521 2.79736 0.350057 2.38048 0.54288C1.96359 0.735703 1.58523 1.01801 1.26715 1.37354C-0.0895303 2.88374 -0.0889538 5.24586 1.2683 6.74967L5.49575 11.4356C5.59377 11.6267 5.78288 11.75 6.00025 11.75C6.08951 11.749 6.17731 11.7249 6.25662 11.6795C6.33592 11.6341 6.40452 11.5687 6.4569 11.4886L10.7322 6.74967C12.0895 5.24522 12.0895 2.88374 10.731 1.37098C10.4131 1.0161 10.0351 0.734373 9.61859 0.541995C9.20211 0.349617 8.75544 0.250383 8.30424 0.25C7.45081 0.250155 6.62855 0.605515 6.00025 1.24572ZM9.91577 2.27467C10.817 3.2787 10.8175 4.84706 9.91692 5.84598L6.00025 10.1874L2.08358 5.84598C1.18297 4.84706 1.18355 3.2787 2.08243 2.27723C2.52062 1.79407 3.09374 1.5282 3.69626 1.5282C4.29878 1.5282 4.86959 1.79407 5.30433 2.27595L5.59261 2.5955C5.64611 2.65491 5.70965 2.70203 5.7796 2.73419C5.84955 2.76634 5.92453 2.78289 6.00025 2.78289C6.07598 2.78289 6.15096 2.76634 6.2209 2.73419C6.29085 2.70203 6.35439 2.65491 6.40789 2.5955L6.69618 2.27595C7.56796 1.31155 9.04514 1.3141 9.91577 2.27467Z"
    fill="#000000"
  />
</svg>
