<svg width="18" height="19" viewBox="0 0 18 19" fill="none">
  <path
    d="M4.5 11.0001L5.625 8.82507C5.7473 8.58218 5.93334 8.3771 6.16321 8.23178C6.39307 8.08646 6.65812 8.00637 6.93 8.00007H15M15 8.00007C15.2291 7.99967 15.4553 8.05177 15.6612 8.15238C15.8671 8.25299 16.0472 8.39944 16.1877 8.58047C16.3282 8.76151 16.4253 8.97232 16.4716 9.19674C16.518 9.42115 16.5123 9.6532 16.455 9.87507L15.3 14.3751C15.2164 14.6987 15.0272 14.9852 14.7622 15.189C14.4972 15.3929 14.1718 15.5023 13.8375 15.5001H3C2.60218 15.5001 2.22064 15.342 1.93934 15.0607C1.65804 14.7794 1.5 14.3979 1.5 14.0001V4.25007C1.5 3.85225 1.65804 3.47072 1.93934 3.18941C2.22064 2.90811 2.60218 2.75007 3 2.75007H5.925C6.17586 2.74761 6.42334 2.80811 6.64477 2.92604C6.86621 3.04396 7.05453 3.21554 7.1925 3.42507L7.8 4.32507C7.93658 4.53247 8.12252 4.70271 8.34113 4.82052C8.55973 4.93834 8.80417 5.00003 9.0525 5.00007H13.5C13.8978 5.00007 14.2794 5.15811 14.5607 5.43941C14.842 5.72072 15 6.10225 15 6.50007V8.00007Z"
    stroke="#252C34"
    stroke-linecap="round"
    stroke-linejoin="round"
  />
</svg>
