<svg
  width="140"
  height="48"
  viewBox="0 0 140 48"
  fill="none"
  xmlns="http://www.w3.org/2000/svg"
>
  <path
    d="M61.4265 4.2569H57.3301V1.09375H69.3817V4.25687H65.2853V14.1852H61.4265V4.2569Z"
    fill="black"
  />
  <path
    d="M71.459 1.09375H75.3178V5.92085H79.7984V1.09375H83.6572V14.1852H79.7984V8.93764H75.3178V14.1852H71.459V1.09375Z"
    fill="black"
  />
  <path
    d="M86.0977 1.09375H96.1747V4.12875H89.8286V6.32283H95.8272V8.82803H89.8286V11.1499H96.3574V14.1852H86.0977V1.09375Z"
    fill="black"
  />
  <path
    d="M58.5156 34.0381H68.5375V37.329H62.3745V39.5231H67.6964V42.4121H62.3745V47.1295H58.5156V34.0381Z"
    fill="black"
  />
  <path
    d="M70.9863 41.7539V34.0381H74.8452V41.626C74.8452 43.2167 75.7411 44.2406 77.1309 44.2406C78.5025 44.2406 79.4169 43.1985 79.4169 41.626V34.0381H83.2758V41.7539C83.2758 45.2096 80.7885 47.4037 77.1309 47.4037C73.4732 47.4037 70.9863 45.2096 70.9863 41.7539Z"
    fill="black"
  />
  <path
    d="M85.9023 34.0381H90.0357L94.3333 42.1561H94.5163V34.0381H98.1191V47.1295H93.9857L89.6882 39.0296H89.5052V47.1295H85.9023V34.0381Z"
    fill="black"
  />
  <path
    d="M100.787 34.0381H106.127C110.626 34.0381 113.626 36.6526 113.626 40.5836C113.626 44.5147 110.626 47.1295 106.127 47.1295H100.787V34.0381ZM106.127 44.2224C108.322 44.2224 109.767 42.7962 109.767 40.5836C109.767 38.3711 108.322 36.9452 106.127 36.9452H104.518V44.2224L106.127 44.2224Z"
    fill="black"
  />
  <path
    d="M57.0234 24.1121C57.0234 20.0532 60.1142 17.3105 64.3754 17.3105C67.4662 17.3105 70.0994 19.0475 70.703 21.4609L67.1554 22.1376C66.826 21.1683 65.6555 20.4552 64.3573 20.4552C62.3454 20.4552 60.8823 21.9547 60.8823 24.1121C60.8823 26.2694 62.4003 27.8238 64.5033 27.8238C66.1676 27.8238 67.5392 26.7999 67.6489 25.4104L63.205 25.3922V23.1248H71.3433C71.8186 27.7689 68.8742 30.9869 64.3755 30.9869C60.1142 30.9869 57.0234 28.1713 57.0234 24.1121Z"
    fill="black"
  />
  <path
    d="M73.5684 17.5664H77.4272V27.3666H83.0782V30.6579H73.5684V17.5664Z"
    fill="black"
  />
  <path
    d="M84.498 24.1121C84.498 19.9432 87.461 17.3105 91.85 17.3105C96.2209 17.3105 99.1835 19.9432 99.1835 24.1121C99.1835 28.2809 96.2209 30.9321 91.85 30.9321C87.461 30.9321 84.498 28.2809 84.498 24.1121ZM95.3247 24.1121C95.3247 21.918 93.9167 20.4552 91.85 20.4552C89.7834 20.4552 88.3569 21.918 88.3569 24.1121C88.3569 26.3246 89.7834 27.769 91.85 27.769C93.9167 27.769 95.3247 26.3246 95.3247 24.1121Z"
    fill="black"
  />
  <path
    d="M101.262 17.5664H107.973C111.064 17.5664 112.893 18.9926 112.893 21.1867C112.893 22.5395 112.052 23.5271 110.991 23.8927V24.0756C112.29 24.4228 113.259 25.5748 113.259 27.1291C113.259 29.378 111.375 30.6579 108.321 30.6579H101.262V17.5664ZM107.224 22.814C108.211 22.814 108.906 22.302 108.906 21.5705C108.906 20.8389 108.211 20.3455 107.224 20.3455H105.121V22.814H107.224ZM107.48 27.8786C108.504 27.8786 109.272 27.3118 109.272 26.5257C109.272 25.7578 108.504 25.191 107.48 25.191H105.121V27.8786H107.48Z"
    fill="black"
  />
  <path
    d="M118.536 17.5664H124.206L128.302 30.6579H124.334L123.712 28.6649H119.012L118.39 30.6579H114.422L118.536 17.5664ZM122.962 25.9223L121.463 20.8392H121.28L119.78 25.9223H122.962Z"
    fill="black"
  />
  <path
    d="M130.49 17.5664H134.349V27.3666H140V30.6579H130.49V17.5664Z"
    fill="black"
  />
  <path
    d="M48.3363 20.4639C48.3309 20.5345 48.337 20.6073 48.3501 20.6768C48.3635 20.7478 48.386 20.817 48.4164 20.8826C48.4459 20.9463 48.4866 21.0022 48.5271 21.0602C48.6771 21.2421 48.8973 21.3557 49.129 21.3718C49.2465 21.3809 49.363 21.3659 49.4746 21.3276C49.754 21.2317 49.9626 20.9898 50.0282 20.6936C50.0301 20.6856 50.0343 20.6788 50.0358 20.6707C50.0358 20.6707 50.0603 20.5289 50.0688 20.4833C50.1055 20.2864 50.1771 19.8445 50.1804 19.821C50.4671 17.8554 50.4029 15.8657 50.0056 13.9396C49.9952 13.8894 49.9272 13.5864 49.9033 13.4851C49.5361 11.9548 48.9491 10.4504 48.1219 9.01805C44.8949 3.42997 38.9296 0.412006 32.8974 0.670627C27.7578 0.804817 22.8318 3.30717 19.7282 7.62421C19.301 8.24754 18.9419 8.87292 18.803 9.62473C18.6114 10.6582 18.7908 11.7131 19.3241 12.6366C19.9022 13.6376 20.833 14.364 21.9447 14.682C23.7448 15.1964 25.7041 14.5326 26.718 13.066C26.718 13.066 27.0844 12.5487 27.1317 12.4863C29.1132 9.8588 32.0823 8.22087 35.2462 7.82362C39.7629 7.32172 44.3631 9.46909 46.7847 13.6626C48.0217 15.8047 48.5109 18.1722 48.3363 20.4639Z"
    fill="black"
  />
  <path
    d="M12.0497 1.6217C12.1136 1.59105 12.1736 1.54936 12.2272 1.50327C12.282 1.45614 12.3307 1.40208 12.3724 1.343C12.4128 1.28555 12.4408 1.22242 12.4708 1.15835C12.5534 0.937525 12.5417 0.690035 12.4398 0.481421C12.3889 0.375107 12.3177 0.281719 12.2288 0.20426C12.006 0.0102372 11.6921 -0.0493994 11.4027 0.0418671C11.3949 0.0442826 11.3869 0.0440867 11.3791 0.0467307C11.3791 0.0467307 11.244 0.0964115 11.2003 0.111851C11.0114 0.178571 10.5928 0.337536 10.5708 0.346382C8.72476 1.08102 7.0334 2.1314 5.56366 3.43847C5.52539 3.47255 5.29695 3.68293 5.22114 3.75425C4.07913 4.83737 3.0696 6.0979 2.24245 7.53025C-0.984497 13.1183 -0.615993 19.7924 2.62415 24.886C5.31021 29.2691 9.94072 32.283 15.232 32.8117C15.9855 32.87 16.7068 32.8682 17.4274 32.6125C18.4184 32.2617 19.2425 31.579 19.7758 30.6554C20.3539 29.6544 20.5176 28.4853 20.2372 27.3637C19.7828 25.5479 18.2282 24.1834 16.4508 24.0388C16.4508 24.0388 15.8195 23.9801 15.7418 23.9704C12.4751 23.5685 9.57176 21.8167 7.64572 19.2758C4.95264 15.6161 4.5126 10.5593 6.93421 6.36582C8.1712 4.22374 9.97729 2.61629 12.0497 1.6217Z"
    fill="black"
  />
  <path
    d="M13.8754 42.4623C13.8169 42.4224 13.7508 42.3912 13.6841 42.3678C13.6158 42.344 13.5447 42.3288 13.4727 42.3223C13.4027 42.316 13.334 42.3233 13.2635 42.3294C13.0309 42.3683 12.8224 42.5022 12.6926 42.6947C12.626 42.792 12.5807 42.9003 12.5581 43.016C12.5014 43.306 12.6067 43.6075 12.8304 43.8125C12.8364 43.8181 12.8403 43.8251 12.8465 43.8305C12.8465 43.8305 12.9571 43.9226 12.9922 43.9527C13.1445 44.0829 13.4915 44.3659 13.5101 44.3805C15.0695 45.6116 16.825 46.5508 18.6921 47.1699C18.7407 47.186 19.0372 47.2786 19.1369 47.3085C20.6461 47.7558 22.2427 47.9996 23.897 47.9996C30.3509 47.9996 35.9477 44.3435 38.7398 38.9913C41.1934 34.474 41.4888 28.9577 39.3012 24.112C38.9748 23.4304 38.6127 22.8067 38.0309 22.3106C37.2315 21.628 36.2281 21.2559 35.1614 21.2559C34.0053 21.2559 32.9108 21.6986 32.0794 22.5023C30.7339 23.8036 30.3292 25.8319 31.0926 27.4431C31.0926 27.4431 31.3574 28.0191 31.3879 28.0912C32.6731 31.1206 32.6073 34.5104 31.3694 37.4485C29.5459 41.6101 25.3857 44.5195 20.5425 44.5195C18.0685 44.5195 15.7732 43.7594 13.8754 42.4623Z"
    fill="black"
  />
</svg>
