<svg
  width="396"
  height="22"
  viewBox="0 0 396 22"
  fill="none"
  xmlns="http://www.w3.org/2000/svg"
>
  <g clip-path="url(#clip0_508_23422)">
    <path
      d="M10.2194 21.0397C8.52794 21.0404 6.89356 20.4281 5.61898 19.3161C5.5816 19.2876 5.55263 19.2495 5.53516 19.2058C5.5177 19.1622 5.51238 19.1146 5.51978 19.0681C5.51033 19.04 5.51033 19.0095 5.51978 18.9813C5.53766 18.9528 5.56117 18.9281 5.58889 18.9089C5.6166 18.8897 5.64794 18.8764 5.68098 18.8697C5.72481 18.8525 5.77356 18.8525 5.81738 18.8697C6.6433 19.4097 7.60821 19.6984 8.59499 19.7005C9.89093 19.705 11.1371 19.2021 12.067 18.2993C12.7886 17.5948 13.282 16.6897 13.4832 15.7014C13.6844 14.7131 13.5841 13.6872 13.1954 12.7565L13.0714 12.4961C12.8911 12.0933 12.8589 11.6397 12.9805 11.2154C13.1021 10.7911 13.3697 10.4234 13.736 10.1772C14.1023 9.93105 14.5439 9.82218 14.9826 9.86984C15.4214 9.9175 15.8293 10.1186 16.1342 10.4377C16.3046 10.6291 16.4428 10.8469 16.5434 11.0825C17.0291 12.1522 17.2385 13.3267 17.1524 14.4983C17.0664 15.6699 16.6876 16.8011 16.0508 17.7883C15.4141 18.7756 14.5397 19.5871 13.5079 20.1487C12.476 20.7103 11.3197 21.0039 10.145 21.0025L10.2194 21.0397Z"
      fill="white"
    />
    <path
      d="M6.80946 14.84H6.52426C4.92986 14.6805 3.43778 13.9811 2.29514 12.8578C1.1525 11.7344 0.427858 10.2545 0.241225 8.66303C0.0545912 7.07158 0.417167 5.46412 1.2689 4.10689C2.12064 2.74965 3.41043 1.72407 4.92466 1.2H5.03626C5.07666 1.18757 5.11986 1.18757 5.16026 1.2C5.16026 1.2 5.16026 1.2 5.22226 1.2744C5.24716 1.33819 5.24716 1.40901 5.22226 1.4728C5.21247 1.50159 5.1962 1.52774 5.1747 1.54924C5.1532 1.57074 5.12705 1.58701 5.09826 1.5968C4.06499 2.03211 3.20969 2.80467 2.67186 3.78848C2.13403 4.77228 1.94539 5.90929 2.13671 7.01407C2.32803 8.11885 2.88803 9.12622 3.72537 9.87188C4.5627 10.6175 5.62798 11.0575 6.74746 11.12H7.03266C7.4828 11.1568 7.90474 11.3541 8.22168 11.6759C8.53862 11.9976 8.72948 12.4225 8.75952 12.8731C8.78956 13.3238 8.65679 13.7702 8.38537 14.1312C8.11394 14.4922 7.72192 14.7437 7.28066 14.84C7.1239 14.854 6.96621 14.854 6.80946 14.84Z"
      fill="white"
    />
    <path
      d="M20.7222 9.87994C20.6553 9.87446 20.5931 9.84337 20.5486 9.79314C20.537 9.76567 20.531 9.73616 20.531 9.70634C20.531 9.67653 20.537 9.64701 20.5486 9.61954C20.6489 8.53386 20.3886 7.44539 19.8081 6.52248C19.2276 5.59957 18.3591 4.89366 17.3371 4.51393C16.3151 4.13419 15.1964 4.10179 14.1541 4.42175C13.1118 4.7417 12.2039 5.39618 11.571 6.28394L11.3602 6.53194C11.1912 6.77219 10.9663 6.96771 10.7049 7.10165C10.4435 7.23559 10.1535 7.30392 9.85978 7.30074C9.67943 7.30125 9.49991 7.2762 9.32658 7.22634C8.85853 7.07758 8.46702 6.75199 8.23542 6.3189C8.00382 5.88581 7.95042 5.37942 8.08658 4.90754C8.1675 4.66794 8.28459 4.44213 8.43378 4.23794C9.08521 3.33366 9.94193 2.59687 10.9335 2.08814C11.9251 1.5794 13.0233 1.31325 14.1378 1.31154C14.7923 1.31003 15.4436 1.40189 16.0722 1.58434C17.7558 2.07464 19.1964 3.17429 20.1134 4.66894C21.0304 6.16359 21.3579 7.94614 21.0322 9.66914C21.0235 9.71435 21.0044 9.75693 20.9764 9.7935C20.9484 9.83008 20.9123 9.85967 20.871 9.87994H20.7718H20.7222Z"
      fill="white"
    />
    <path
      d="M33.4811 7.77188H29.4883V4.67188H41.2559V7.77188H37.2507V17.4687H33.4811V7.77188Z"
      fill="white"
    />
    <path
      d="M43.29 4.67188H47.0596V9.39628H51.4368V4.67188H55.2064V17.4687H51.4368V12.3351H47.0596V17.4687H43.29V4.67188Z"
      fill="white"
    />
    <path
      d="M57.5879 4.67188H67.4335V7.64787H61.2335V9.78068H67.0863V12.2359H61.2335V14.5051H67.6071V17.4687H57.5879V4.67188Z"
      fill="white"
    />
    <path
      d="M74.1045 11.1198C74.1045 7.16424 77.1301 4.48584 81.2965 4.48584C84.3097 4.48584 86.8765 6.17224 87.4965 8.54064L84.0369 9.19784C83.7959 8.68158 83.4065 8.24891 82.9183 7.95514C82.4302 7.66136 81.8655 7.51983 81.2965 7.54864C80.8317 7.53914 80.37 7.62619 79.9406 7.80427C79.5111 7.98236 79.1233 8.24761 78.8017 8.58326C78.48 8.91891 78.2315 9.31764 78.0718 9.75426C77.9122 10.1909 77.8448 10.6559 77.8741 11.1198C77.8519 11.5955 77.9277 12.0707 78.0969 12.5157C78.2662 12.9608 78.5251 13.3664 78.8577 13.7071C79.1903 14.0479 79.5895 14.3166 80.0304 14.4965C80.4713 14.6764 80.9444 14.7638 81.4205 14.753C82.1451 14.8253 82.8698 14.6176 83.4462 14.1726C84.0226 13.7277 84.4069 13.0791 84.5205 12.3598H80.1805V10.1154H88.1289C88.6001 14.6538 85.7233 17.791 81.3337 17.791C77.1673 17.791 74.1417 15.0382 74.1417 11.0702L74.1045 11.1198Z"
      fill="white"
    />
    <path
      d="M90.2744 4.68408H94.044V14.2569H99.562V17.4685H90.2744V4.68408Z"
      fill="white"
    />
    <path
      d="M111.527 11.1198C111.555 10.6556 111.488 10.1905 111.33 9.75314C111.171 9.31582 110.925 8.91552 110.606 8.57687C110.288 8.23821 109.903 7.96836 109.476 7.78391C109.049 7.59945 108.589 7.5043 108.124 7.5043C107.658 7.5043 107.198 7.59945 106.771 7.78391C106.344 7.96836 105.96 8.23821 105.641 8.57687C105.322 8.91552 105.076 9.31582 104.917 9.75314C104.759 10.1905 104.692 10.6556 104.72 11.1198C104.692 11.5841 104.759 12.0492 104.917 12.4865C105.076 12.9239 105.322 13.3242 105.641 13.6628C105.96 14.0015 106.344 14.2713 106.771 14.4558C107.198 14.6402 107.658 14.7354 108.124 14.7354C108.589 14.7354 109.049 14.6402 109.476 14.4558C109.903 14.2713 110.288 14.0015 110.606 13.6628C110.925 13.3242 111.171 12.9239 111.33 12.4865C111.488 12.0492 111.555 11.5841 111.527 11.1198ZM100.95 11.1198C100.95 7.05264 103.839 4.48584 108.13 4.48584C112.42 4.48584 115.297 7.00304 115.297 11.1198C115.297 15.2366 112.395 17.7414 108.08 17.7414C103.765 17.7414 100.95 15.1498 100.95 11.1198Z"
      fill="white"
    />
    <path
      d="M123.394 14.7531C124.399 14.7531 125.143 14.2075 125.143 13.4387C125.143 12.6699 124.399 12.1243 123.394 12.1243H121.088V14.7531H123.394ZM123.146 9.79308C124.114 9.79308 124.783 9.29708 124.783 8.55308C124.783 7.80908 124.114 7.31308 123.146 7.31308H121.088V9.71867L123.146 9.79308ZM117.318 4.67188H123.878C126.891 4.67188 128.677 6.06067 128.677 8.20587C128.687 8.78486 128.514 9.35233 128.182 9.82684C127.85 10.3013 127.377 10.6585 126.829 10.8471V11.0331C127.478 11.2085 128.049 11.5977 128.45 12.1377C128.85 12.6777 129.057 13.3371 129.036 14.0091C129.036 16.2039 127.201 17.4563 124.213 17.4563H117.318V4.68427V4.67188Z"
      fill="white"
    />
    <path
      d="M138.521 12.8433L137.058 7.88328H136.872L135.409 12.8433H138.521ZM134.194 4.68408H139.737L143.729 17.4685H139.861L139.253 15.5217H134.665L134.119 17.4685H130.238L134.256 4.68408H134.194Z"
      fill="white"
    />
    <path
      d="M145.875 4.68408H149.645V14.2569H155.163V17.4685H145.875V4.68408Z"
      fill="white"
    />
    <path
      d="M162.256 4.67188H172.039V7.89587H166.025V10.0411H171.221V12.8559H166.025V17.4687H162.256V4.67188Z"
      fill="white"
    />
    <path
      d="M174.433 12.2109V4.68408H178.153V12.1241C178.105 12.4451 178.127 12.7727 178.217 13.0845C178.307 13.3963 178.464 13.685 178.675 13.9309C178.887 14.1767 179.15 14.374 179.445 14.5093C179.74 14.6445 180.061 14.7145 180.385 14.7145C180.71 14.7145 181.031 14.6445 181.326 14.5093C181.621 14.374 181.883 14.1767 182.095 13.9309C182.307 13.685 182.463 13.3963 182.553 13.0845C182.643 12.7727 182.665 12.4451 182.617 12.1241V4.68408H186.337V12.2109C186.337 15.5961 183.857 17.7413 180.336 17.7413C176.814 17.7413 174.334 15.5961 174.334 12.2109H174.433Z"
      fill="white"
    />
    <path
      d="M189.003 4.67188H193.045L197.237 12.6079H197.423V4.67188H200.932V17.4687H196.902L192.698 9.55748H192.525V17.4687H189.003V4.67188Z"
      fill="white"
    />
    <path
      d="M208.756 14.6289C209.227 14.6612 209.7 14.593 210.143 14.4287C210.586 14.2645 210.99 14.008 211.326 13.6762C211.662 13.3444 211.925 12.9449 212.095 12.5042C212.266 12.0635 212.34 11.5915 212.315 11.1197C212.346 10.6448 212.275 10.1688 212.107 9.72351C211.939 9.27826 211.678 8.8741 211.341 8.53818C211.004 8.20226 210.599 7.94236 210.153 7.77594C209.707 7.60951 209.231 7.54041 208.756 7.57328H207.193V14.6785L208.756 14.6289ZM203.548 4.70888H208.756C213.158 4.70888 216.084 7.26328 216.084 11.0949C216.084 14.9265 213.158 17.4933 208.756 17.4933H203.56V4.68408L203.548 4.70888Z"
      fill="white"
    />
    <path
      d="M229.203 4.2998V17.8778"
      stroke="white"
      stroke-width="1.24"
      stroke-miterlimit="10"
    />
    <path
      d="M248.61 18H244.75V4.82444H248.842C250.098 4.82444 251.173 5.08606 252.065 5.60931C252.961 6.13256 253.647 6.88312 254.123 7.86099C254.599 8.83887 254.837 10.0119 254.837 11.3801C254.837 12.7611 254.593 13.947 254.104 14.9377C253.619 15.9242 252.912 16.6812 251.981 17.2087C251.055 17.7362 249.931 18 248.61 18ZM245.953 16.9192H248.539C249.671 16.9192 250.619 16.6962 251.383 16.2501C252.146 15.8041 252.719 15.1672 253.1 14.3394C253.482 13.5116 253.673 12.5252 253.673 11.3801C253.669 10.2435 253.48 9.26561 253.107 8.44643C252.738 7.62725 252.189 6.99892 251.46 6.56145C250.735 6.12398 249.839 5.90524 248.771 5.90524H245.953V16.9192ZM260.275 18.2252C259.679 18.2252 259.134 18.1094 258.641 17.8778C258.148 17.6419 257.755 17.3031 257.464 16.8613C257.172 16.4152 257.026 15.8748 257.026 15.2401C257.026 14.7511 257.119 14.3394 257.303 14.0049C257.487 13.6703 257.749 13.3958 258.088 13.1814C258.427 12.967 258.828 12.7975 259.291 12.6732C259.754 12.5488 260.265 12.4523 260.822 12.3837C261.375 12.315 261.843 12.255 262.225 12.2035C262.611 12.1521 262.904 12.0706 263.106 11.9591C263.308 11.8475 263.408 11.6674 263.408 11.4187V11.187C263.408 10.5137 263.207 9.98401 262.804 9.598C262.405 9.20771 261.83 9.01257 261.079 9.01257C260.367 9.01257 259.786 9.16911 259.336 9.4822C258.89 9.79529 258.577 10.1641 258.397 10.5887L257.309 10.1963C257.532 9.65591 257.841 9.22487 258.236 8.9032C258.63 8.57724 259.072 8.3435 259.561 8.20196C260.05 8.05614 260.545 7.98323 261.047 7.98323C261.425 7.98323 261.817 8.03255 262.225 8.13119C262.636 8.22984 263.018 8.4014 263.37 8.64586C263.721 8.88604 264.007 9.22272 264.225 9.65591C264.444 10.0848 264.553 10.6295 264.553 11.29V18H263.408V16.4367H263.338C263.2 16.7283 262.997 17.0114 262.726 17.2859C262.456 17.5604 262.117 17.7856 261.71 17.9614C261.302 18.1372 260.824 18.2252 260.275 18.2252ZM260.43 17.1765C261.039 17.1765 261.566 17.0414 262.012 16.7712C262.458 16.501 262.801 16.1429 263.042 15.6968C263.286 15.2465 263.408 14.7511 263.408 14.2107V12.7825C263.323 12.864 263.179 12.9369 262.977 13.0013C262.78 13.0656 262.551 13.1235 262.289 13.175C262.032 13.2221 261.774 13.2629 261.517 13.2972C261.26 13.3315 261.028 13.3615 260.822 13.3873C260.265 13.4559 259.788 13.5631 259.394 13.7089C258.999 13.8548 258.697 14.0563 258.487 14.3137C258.277 14.5667 258.172 14.8927 258.172 15.2915C258.172 15.892 258.386 16.3573 258.815 16.6876C259.244 17.0135 259.782 17.1765 260.43 17.1765ZM271.492 8.11833V9.1155H266.776V8.11833H271.492ZM268.249 5.75084H269.401V15.4202C269.401 15.832 269.472 16.1558 269.613 16.3917C269.755 16.6233 269.939 16.7884 270.167 16.887C270.394 16.9814 270.636 17.0286 270.894 17.0286C271.044 17.0286 271.172 17.02 271.28 17.0028C271.387 16.9814 271.481 16.9599 271.563 16.9385L271.807 17.9743C271.696 18.0172 271.558 18.0558 271.395 18.0901C271.232 18.1287 271.031 18.148 270.791 18.148C270.37 18.148 269.965 18.0558 269.575 17.8713C269.189 17.6869 268.871 17.4124 268.623 17.0479C268.374 16.6833 268.249 16.2308 268.249 15.6904V5.75084ZM276.852 18.2252C276.256 18.2252 275.712 18.1094 275.218 17.8778C274.725 17.6419 274.333 17.3031 274.041 16.8613C273.749 16.4152 273.604 15.8748 273.604 15.2401C273.604 14.7511 273.696 14.3394 273.88 14.0049C274.065 13.6703 274.326 13.3958 274.665 13.1814C275.004 12.967 275.405 12.7975 275.868 12.6732C276.331 12.5488 276.842 12.4523 277.399 12.3837C277.953 12.315 278.42 12.255 278.802 12.2035C279.188 12.1521 279.482 12.0706 279.683 11.9591C279.885 11.8475 279.986 11.6674 279.986 11.4187V11.187C279.986 10.5137 279.784 9.98401 279.381 9.598C278.982 9.20771 278.407 9.01257 277.657 9.01257C276.945 9.01257 276.364 9.16911 275.913 9.4822C275.467 9.79529 275.154 10.1641 274.974 10.5887L273.887 10.1963C274.11 9.65591 274.418 9.22487 274.813 8.9032C275.208 8.57724 275.649 8.3435 276.138 8.20196C276.627 8.05614 277.123 7.98323 277.624 7.98323C278.002 7.98323 278.394 8.03255 278.802 8.13119C279.214 8.22984 279.595 8.4014 279.947 8.64586C280.299 8.88604 280.584 9.22272 280.803 9.65591C281.021 10.0848 281.131 10.6295 281.131 11.29V18H279.986V16.4367H279.915C279.777 16.7283 279.574 17.0114 279.304 17.2859C279.033 17.5604 278.695 17.7856 278.287 17.9614C277.88 18.1372 277.401 18.2252 276.852 18.2252ZM277.007 17.1765C277.616 17.1765 278.143 17.0414 278.589 16.7712C279.036 16.501 279.379 16.1429 279.619 15.6968C279.863 15.2465 279.986 14.7511 279.986 14.2107V12.7825C279.9 12.864 279.756 12.9369 279.554 13.0013C279.357 13.0656 279.128 13.1235 278.866 13.175C278.609 13.2221 278.351 13.2629 278.094 13.2972C277.837 13.3315 277.605 13.3615 277.399 13.3873C276.842 13.4559 276.366 13.5631 275.971 13.7089C275.576 13.8548 275.274 14.0563 275.064 14.3137C274.854 14.5667 274.749 14.8927 274.749 15.2915C274.749 15.892 274.963 16.3573 275.392 16.6876C275.821 17.0135 276.359 17.1765 277.007 17.1765ZM289.51 18V4.82444H297.153V5.90524H290.713V10.8654H296.748V11.9462H290.713V16.9192H297.282V18H289.51ZM300.736 8.11833L303.284 12.3322L305.832 8.11833H307.163L303.985 13.0592L307.163 18H305.832L303.284 13.9212L300.736 18H299.411L302.551 13.0592L299.411 8.11833H300.736ZM309.565 21.7056V8.11833H310.678V10.0033H310.813C310.95 9.70737 311.139 9.405 311.379 9.0962C311.619 8.78311 311.936 8.51934 312.331 8.3049C312.73 8.09045 313.232 7.98323 313.836 7.98323C314.651 7.98323 315.363 8.19767 315.972 8.62656C316.586 9.05117 317.062 9.64733 317.4 10.415C317.744 11.1785 317.915 12.0684 317.915 13.0849C317.915 14.1057 317.744 14.9999 317.4 15.7676C317.062 16.5353 316.586 17.1336 315.972 17.5625C315.363 17.9914 314.656 18.2059 313.849 18.2059C313.253 18.2059 312.753 18.0986 312.35 17.8842C311.951 17.6698 311.628 17.406 311.379 17.0929C311.134 16.7755 310.946 16.4667 310.813 16.1665H310.71V21.7056H309.565ZM310.697 13.0656C310.697 13.8633 310.815 14.571 311.051 15.1886C311.291 15.8019 311.634 16.2844 312.08 16.6361C312.53 16.9835 313.075 17.1572 313.714 17.1572C314.37 17.1572 314.924 16.9771 315.374 16.6168C315.829 16.2523 316.174 15.7612 316.41 15.1436C316.65 14.526 316.77 13.8333 316.77 13.0656C316.77 12.3065 316.652 11.6224 316.416 11.0133C316.185 10.4043 315.841 9.92182 315.387 9.56584C314.932 9.20557 314.375 9.02543 313.714 9.02543C313.071 9.02543 312.524 9.19914 312.074 9.54654C311.623 9.88965 311.28 10.3657 311.044 10.9747C310.813 11.5795 310.697 12.2764 310.697 13.0656ZM321.572 4.82444V18H320.427V4.82444H321.572ZM328.443 18.2059C327.59 18.2059 326.835 17.9893 326.179 17.5561C325.527 17.1229 325.016 16.5246 324.648 15.7612C324.279 14.9935 324.094 14.1078 324.094 13.1042C324.094 12.092 324.279 11.2021 324.648 10.4343C325.016 9.66234 325.527 9.06189 326.179 8.633C326.835 8.19982 327.59 7.98323 328.443 7.98323C329.297 7.98323 330.05 8.19982 330.701 8.633C331.353 9.06618 331.864 9.66663 332.233 10.4343C332.606 11.2021 332.792 12.092 332.792 13.1042C332.792 14.1078 332.608 14.9935 332.239 15.7612C331.87 16.5246 331.358 17.1229 330.701 17.5561C330.05 17.9893 329.297 18.2059 328.443 18.2059ZM328.443 17.1572C329.13 17.1572 329.711 16.9728 330.187 16.604C330.663 16.2351 331.023 15.744 331.268 15.1307C331.516 14.5174 331.641 13.8419 331.641 13.1042C331.641 12.3665 331.516 11.6889 331.268 11.0712C331.023 10.4536 330.663 9.95827 330.187 9.58514C329.711 9.212 329.13 9.02543 328.443 9.02543C327.761 9.02543 327.18 9.212 326.7 9.58514C326.224 9.95827 325.861 10.4536 325.613 11.0712C325.368 11.6889 325.246 12.3665 325.246 13.1042C325.246 13.8419 325.368 14.5174 325.613 15.1307C325.861 15.744 326.224 16.2351 326.7 16.604C327.176 16.9728 327.757 17.1572 328.443 17.1572ZM335.306 18V8.11833H336.419V9.6366H336.503C336.7 9.13909 337.043 8.73808 337.532 8.43356C338.025 8.12476 338.583 7.97036 339.205 7.97036C339.299 7.97036 339.404 7.9725 339.52 7.97679C339.636 7.98108 339.732 7.98537 339.81 7.98966V9.1541C339.758 9.14552 339.668 9.13266 339.539 9.1155C339.411 9.09835 339.271 9.08977 339.121 9.08977C338.606 9.08977 338.148 9.19914 337.744 9.41787C337.346 9.63232 337.03 9.9304 336.799 10.3121C336.567 10.6938 336.451 11.1291 336.451 11.6181V18H335.306ZM345.458 18.2059C344.536 18.2059 343.738 17.9914 343.065 17.5625C342.391 17.1293 341.87 16.531 341.501 15.7676C341.137 14.9999 340.955 14.1164 340.955 13.1171C340.955 12.122 341.137 11.2385 341.501 10.4665C341.87 9.69022 342.379 9.08333 343.026 8.64586C343.678 8.20411 344.431 7.98323 345.284 7.98323C345.82 7.98323 346.337 8.08187 346.835 8.27916C347.332 8.47216 347.778 8.77024 348.173 9.1734C348.572 9.57227 348.887 10.0762 349.119 10.6852C349.35 11.29 349.466 12.0062 349.466 12.834V13.4001H341.746V12.3901H348.295C348.295 11.7553 348.166 11.1849 347.909 10.6788C347.656 10.1684 347.302 9.76527 346.848 9.46934C346.397 9.1734 345.876 9.02543 345.284 9.02543C344.658 9.02543 344.107 9.1927 343.631 9.52724C343.155 9.86177 342.782 10.3035 342.512 10.8525C342.246 11.4015 342.111 12.0019 342.106 12.6539V13.2586C342.106 14.0435 342.241 14.7297 342.512 15.3173C342.786 15.9006 343.174 16.3531 343.676 16.6747C344.178 16.9964 344.772 17.1572 345.458 17.1572C345.926 17.1572 346.335 17.0843 346.687 16.9385C347.043 16.7927 347.341 16.5975 347.581 16.3531C347.826 16.1043 348.01 15.832 348.134 15.536L349.222 15.8899C349.071 16.3059 348.825 16.6897 348.482 17.0414C348.143 17.3931 347.718 17.6762 347.208 17.8906C346.702 18.1008 346.119 18.2059 345.458 18.2059ZM351.99 18V8.11833H353.102V9.6366H353.186C353.383 9.13909 353.727 8.73808 354.215 8.43356C354.709 8.12476 355.266 7.97036 355.888 7.97036C355.982 7.97036 356.088 7.9725 356.203 7.97679C356.319 7.98108 356.416 7.98537 356.493 7.98966V9.1541C356.441 9.14552 356.351 9.13266 356.223 9.1155C356.094 9.09835 355.955 9.08977 355.805 9.08977C355.29 9.08977 354.831 9.19914 354.428 9.41787C354.029 9.63232 353.714 9.9304 353.482 10.3121C353.25 10.6938 353.135 11.1291 353.135 11.6181V18H351.99Z"
      fill="white"
    />
  </g>
  <defs>
    <clipPath id="clip0_508_23422">
      <rect width="396" height="22" fill="white" />
    </clipPath>
  </defs>
</svg>
