<svg width="15" height="15" viewBox="0 0 15 15" fill="none" xmlns="http://www.w3.org/2000/svg">
<path d="M8.31909 0.75H1.41643C1.2875 0.750047 1.16135 0.787477 1.05326 0.857758C0.94517 0.928038 0.859779 1.02815 0.807429 1.14598C0.75508 1.2638 0.738017 1.39427 0.758309 1.52159C0.778602 1.64892 0.835377 1.76762 0.92176 1.86333L5.73843 7.18933C5.96012 7.43433 6.08294 7.75292 6.08309 8.08333V12.0833C6.08304 12.2072 6.1175 12.3287 6.18262 12.4341C6.24774 12.5395 6.34094 12.6246 6.45176 12.68L7.78509 13.3467C7.88676 13.3975 7.99972 13.4214 8.11326 13.4163C8.22679 13.4112 8.33712 13.3771 8.43378 13.3173C8.53044 13.2575 8.6102 13.174 8.66551 13.0747C8.72081 12.9754 8.74981 12.8637 8.74976 12.75V8.08333C8.74991 7.75292 8.87274 7.43433 9.09443 7.18933L9.90643 6.29067M10.0832 2.75H14.0832M12.0832 0.75V4.75" stroke="#70777E" stroke-width="1.5" stroke-linecap="round" stroke-linejoin="round"/>
</svg>
