<svg
  width="104"
  height="36"
  viewBox="0 0 104 36"
  fill="none"
  xmlns="http://www.w3.org/2000/svg"
>
  <path
    d="M45.6309 3.20583H42.5879V0.835449H51.5405V3.20581H48.4975V10.6458H45.6309V3.20583Z"
    fill="black"
  />
  <path
    d="M53.084 0.835449H55.9505V4.45275H59.279V0.835449H62.1455V10.6458H59.279V6.71345H55.9505V10.6458H53.084V0.835449Z"
    fill="black"
  />
  <path
    d="M63.959 0.835449H71.4448V3.1098H66.7306V4.75399H71.1866V6.63131H66.7306V8.37128H71.5805V10.6459H63.959V0.835449Z"
    fill="black"
  />
  <path
    d="M43.4688 25.5234H50.9136V27.9896H46.3353V29.6338H50.2888V31.7987H46.3353V35.3338H43.4688V25.5234Z"
    fill="black"
  />
  <path
    d="M52.7324 31.3054V25.5234H55.599V31.2096C55.599 32.4016 56.2645 33.1689 57.2969 33.1689C58.3159 33.1689 58.9952 32.388 58.9952 31.2096V25.5234H61.8617V31.3054C61.8617 33.8951 60.0141 35.5393 57.2969 35.5393C54.5798 35.5393 52.7324 33.8951 52.7324 31.3054Z"
    fill="black"
  />
  <path
    d="M63.8125 25.5234H66.883L70.0755 31.6069H70.2114V25.5234H72.8878V35.3338H69.8173L66.6248 29.264H66.4889V35.3338H63.8125V25.5234Z"
    fill="black"
  />
  <path
    d="M74.8711 25.5234H78.838C82.1802 25.5234 84.4082 27.4827 84.4082 30.4285C84.4082 33.3743 82.1802 35.3338 78.838 35.3338H74.8711V25.5234ZM78.8381 33.1553C80.4685 33.1553 81.5417 32.0866 81.5417 30.4285C81.5417 28.7704 80.4685 27.702 78.8381 27.702H77.6427V33.1553L78.8381 33.1553Z"
    fill="black"
  />
  <path
    d="M42.3594 18.0847C42.3594 15.0431 44.6554 12.9878 47.8209 12.9878C50.1169 12.9878 52.073 14.2894 52.5213 16.0979L49.8859 16.6051C49.6413 15.8787 48.7718 15.3443 47.8074 15.3443C46.3129 15.3443 45.226 16.468 45.226 18.0847C45.226 19.7014 46.3536 20.8661 47.9158 20.8661C49.1522 20.8661 50.1711 20.0989 50.2526 19.0576L46.9514 19.044V17.3448H52.997C53.3501 20.825 51.1628 23.2365 47.8209 23.2365C44.6554 23.2365 42.3594 21.1265 42.3594 18.0847Z"
    fill="black"
  />
  <path
    d="M54.6504 13.1787H57.517V20.5227H61.7148V22.9891H54.6504V13.1787Z"
    fill="black"
  />
  <path
    d="M62.7695 18.0847C62.7695 14.9607 64.9706 12.9878 68.231 12.9878C71.478 12.9878 73.6787 14.9607 73.6787 18.0847C73.6787 21.2087 71.478 23.1954 68.231 23.1954C64.9706 23.1954 62.7695 21.2087 62.7695 18.0847ZM70.8122 18.0847C70.8122 16.4405 69.7663 15.3443 68.231 15.3443C66.6958 15.3443 65.6361 16.4405 65.6361 18.0847C65.6361 19.7427 66.6958 20.8251 68.231 20.8251C69.7663 20.8251 70.8122 19.7427 70.8122 18.0847Z"
    fill="black"
  />
  <path
    d="M75.2227 13.1787H80.2085C82.5045 13.1787 83.8631 14.2475 83.8631 15.8916C83.8631 16.9054 83.2383 17.6455 82.4503 17.9195V18.0566C83.4148 18.3167 84.1348 19.18 84.1348 20.3447C84.1348 22.03 82.7355 22.9891 80.4667 22.9891H75.2227V13.1787ZM79.6517 17.1111C80.3852 17.1111 80.9015 16.7275 80.9015 16.1793C80.9015 15.631 80.3852 15.2613 79.6517 15.2613H78.0892V17.1111H79.6517ZM79.8419 20.9064C80.6026 20.9064 81.1732 20.4817 81.1732 19.8926C81.1732 19.3171 80.6027 18.8924 79.8419 18.8924H78.0892V20.9064H79.8419Z"
    fill="black"
  />
  <path
    d="M88.0565 13.1787H92.2682L95.3112 22.9891H92.3631L91.9013 21.4956H88.4099L87.9481 22.9891H85L88.0565 13.1787ZM91.3442 19.4404L90.2303 15.6313H90.0944L88.9805 19.4404H91.3442Z"
    fill="black"
  />
  <path
    d="M96.9355 13.1787H99.8021V20.5227H104V22.9891H96.9355V13.1787Z"
    fill="black"
  />
  <path
    d="M35.9084 15.3509C35.9044 15.4038 35.9089 15.4584 35.9186 15.5104C35.9286 15.5637 35.9453 15.6155 35.9679 15.6646C35.9898 15.7124 36.02 15.7543 36.0502 15.7977C36.1616 15.9341 36.3252 16.0192 36.4973 16.0312C36.5846 16.038 36.6711 16.0268 36.754 15.9981C36.9616 15.9263 37.1165 15.745 37.1653 15.523C37.1666 15.517 37.1698 15.5119 37.1709 15.5059C37.1709 15.5059 37.1891 15.3996 37.1954 15.3655C37.2227 15.2179 37.2758 14.8868 37.2783 14.8692C37.4913 13.3961 37.4436 11.9051 37.1485 10.4617C37.1408 10.4241 37.0903 10.1971 37.0725 10.1212C36.7997 8.97437 36.3636 7.84707 35.7491 6.77367C33.352 2.58612 28.9206 0.324538 24.4395 0.518341C20.6215 0.6189 16.9622 2.4941 14.6567 5.72917C14.3393 6.19628 14.0726 6.66492 13.9694 7.22831C13.8271 8.00276 13.9603 8.79326 14.3565 9.48536C14.7859 10.2355 15.4774 10.7798 16.3033 11.0181C17.6404 11.4035 19.0959 10.9061 19.8491 9.80709C19.8491 9.80709 20.1213 9.41946 20.1564 9.37269C21.6284 7.40371 23.834 6.17629 26.1844 5.8786C29.5396 5.50249 32.9569 7.11168 34.7558 10.2542C35.6747 11.8594 36.0381 13.6336 35.9084 15.3509Z"
    fill="#F6DE00"
  />
  <path
    d="M8.95119 1.23039C8.99866 1.20742 9.04326 1.17619 9.08308 1.14165C9.12378 1.10633 9.15997 1.06582 9.19089 1.02155C9.22094 0.978495 9.24177 0.931188 9.26401 0.883171C9.32537 0.717693 9.31669 0.532231 9.241 0.375901C9.20319 0.296232 9.15026 0.226249 9.08422 0.168204C8.91872 0.0228082 8.68557 -0.0218819 8.47057 0.0465108C8.46475 0.0483209 8.45881 0.0481741 8.45303 0.0501555C8.45303 0.0501555 8.35267 0.0873849 8.32022 0.0989549C8.17987 0.148953 7.86897 0.268077 7.8526 0.274706C6.48125 0.825223 5.22481 1.61235 4.133 2.59184C4.10458 2.61737 3.93488 2.77502 3.87856 2.82847C3.03021 3.64013 2.28028 4.58474 1.66582 5.65811C-0.731341 9.84566 -0.457595 14.847 1.94937 18.6641C3.94473 21.9486 7.38453 24.2072 11.3152 24.6034C11.875 24.647 12.4108 24.6457 12.9461 24.4541C13.6822 24.1912 14.2944 23.6796 14.6906 22.9875C15.12 22.2374 15.2417 21.3613 15.0334 20.5207C14.6958 19.1601 13.5409 18.1375 12.2206 18.0292C12.2206 18.0292 11.7516 17.9852 11.6939 17.9779C9.26724 17.6767 7.11045 16.364 5.67968 14.4599C3.67911 11.7174 3.35222 7.928 5.15113 4.78551C6.07003 3.18029 7.4117 1.97572 8.95119 1.23039Z"
    fill="#EE0C3D"
  />
  <path
    d="M10.3082 31.8359C10.2647 31.806 10.2156 31.7826 10.166 31.7651C10.1153 31.7472 10.0625 31.7358 10.009 31.731C9.957 31.7263 9.90597 31.7317 9.8536 31.7363C9.68082 31.7654 9.52592 31.8658 9.42954 32.0101C9.38004 32.0829 9.3464 32.1641 9.32959 32.2508C9.28749 32.4681 9.3657 32.6941 9.53191 32.8477C9.53637 32.8518 9.53921 32.8571 9.54382 32.8612C9.54382 32.8612 9.62596 32.9302 9.65211 32.9528C9.76522 33.0503 10.023 33.2624 10.0368 33.2733C11.1952 34.1959 12.4993 34.8997 13.8863 35.3636C13.9224 35.3757 14.1426 35.4451 14.2167 35.4675C15.3378 35.8027 16.5239 35.9854 17.7528 35.9854C22.5471 35.9854 26.7048 33.2456 28.7789 29.2348C30.6015 25.8497 30.821 21.7159 29.1959 18.0846C28.9535 17.5739 28.6844 17.1065 28.2523 16.7348C27.6584 16.2232 26.913 15.9443 26.1206 15.9443C25.2618 15.9443 24.4487 16.2761 23.8312 16.8784C22.8316 17.8536 22.531 19.3735 23.0981 20.5809C23.0981 20.5809 23.2948 21.0125 23.3174 21.0666C24.2722 23.3367 24.2233 25.8769 23.3037 28.0786C21.9491 31.1973 18.8587 33.3775 15.2608 33.3775C13.423 33.3775 11.7179 32.8079 10.3082 31.8359Z"
    fill="#2E4DF9"
  />
</svg>
