<svg width="33" height="32" viewBox="0 0 33 32">
  <path
    d="M31.6251 13.6679C31.6216 13.7145 31.6255 13.7626 31.6341 13.8085C31.6429 13.8553 31.6576 13.901 31.6775 13.9443C31.6968 13.9863 31.7234 14.0232 31.75 14.0615C31.8481 14.1815 31.9922 14.2565 32.1437 14.2671C32.2206 14.2731 32.2969 14.2632 32.3698 14.238C32.5527 14.1747 32.6891 14.015 32.7321 13.8195C32.7333 13.8142 32.736 13.8098 32.7371 13.8044C32.7371 13.8044 32.7531 13.7108 32.7586 13.6808C32.7826 13.5508 32.8295 13.2592 32.8317 13.2436C33.0192 11.9463 32.9772 10.6331 32.7173 9.36188C32.7105 9.32877 32.666 9.12878 32.6504 9.06195C32.4101 8.0519 32.026 7.05904 31.4848 6.11367C29.3736 2.42554 25.4707 0.433682 21.5241 0.604372C18.1614 0.692937 14.9386 2.34449 12.908 5.19374C12.6285 5.60513 12.3935 6.01789 12.3027 6.51408C12.1773 7.19617 12.2946 7.89239 12.6436 8.50195C13.0218 9.1626 13.6308 9.64199 14.3582 9.85187C15.5359 10.1913 16.8177 9.75326 17.4811 8.78531C17.4811 8.78531 17.7209 8.44391 17.7518 8.40272C19.0482 6.66857 20.9908 5.58753 23.0608 5.32535C26.0159 4.99409 29.0256 6.41136 30.61 9.17906C31.4193 10.5928 31.7394 12.1554 31.6251 13.6679Z"
    fill="#F6DE00"
  />
  <path
    d="M7.88364 1.23096C7.92544 1.21074 7.96472 1.18322 7.9998 1.1528C8.03564 1.1217 8.06751 1.08602 8.09475 1.04703C8.12121 1.00911 8.13956 0.967443 8.15915 0.925153C8.21319 0.779411 8.20554 0.616068 8.13888 0.478383C8.10558 0.408215 8.05897 0.346579 8.0008 0.295456C7.85504 0.167401 7.6497 0.128041 7.46033 0.188277C7.45521 0.189871 7.44997 0.189742 7.44489 0.191487C7.44489 0.191487 7.3565 0.224276 7.32792 0.234466C7.2043 0.278501 6.93048 0.383419 6.91606 0.389257C5.70827 0.874117 4.60168 1.56737 3.64008 2.43004C3.61505 2.45253 3.46559 2.59138 3.41599 2.63845C2.66881 3.35331 2.00832 4.18526 1.46715 5.13061C-0.644118 8.81874 -0.40302 13.2236 1.71688 16.5854C3.47426 19.4782 6.50382 21.4674 9.96568 21.8164C10.4587 21.8548 10.9306 21.8537 11.4021 21.6849C12.0504 21.4534 12.5896 21.0028 12.9386 20.3932C13.3167 19.7325 13.4239 18.9609 13.2404 18.2207C12.9431 17.0223 11.926 16.1217 10.7631 16.0262C10.7631 16.0262 10.3501 15.9875 10.2993 15.9811C8.16199 15.7159 6.26243 14.5597 5.0023 12.8827C3.24032 10.4673 2.95242 7.12979 4.53678 4.36209C5.3461 2.94831 6.52775 1.8874 7.88364 1.23096Z"
    fill="#EE0C3D"
  />
  <path
    d="M9.07807 28.1877C9.03979 28.1613 8.99654 28.1407 8.95288 28.1253C8.90823 28.1095 8.86167 28.0996 8.81457 28.0953C8.76877 28.0911 8.72383 28.0959 8.67771 28.1C8.52553 28.1256 8.3891 28.214 8.30422 28.3411C8.26062 28.4052 8.23099 28.4768 8.21619 28.5531C8.17911 28.7445 8.248 28.9435 8.39438 29.0788C8.39831 29.0825 8.40081 29.0871 8.40487 29.0907C8.40487 29.0907 8.47722 29.1515 8.50024 29.1713C8.59987 29.2573 8.82687 29.444 8.83907 29.4537C9.85929 30.2662 11.0079 30.8861 12.2294 31.2947C12.2612 31.3053 12.4552 31.3664 12.5204 31.3862C13.5078 31.6813 14.5524 31.8423 15.6348 31.8423C19.8573 31.8423 23.5191 29.4293 25.3459 25.8968C26.9512 22.9154 27.1444 19.2746 25.7131 16.0764C25.4996 15.6266 25.2627 15.215 24.8821 14.8876C24.3591 14.437 23.7025 14.1914 23.0047 14.1914C22.2483 14.1914 21.5322 14.4836 20.9882 15.014C20.1079 15.8729 19.8431 17.2116 20.3426 18.275C20.3426 18.275 20.5159 18.6551 20.5358 18.7027C21.3766 20.7022 21.3336 22.9394 20.5237 24.8785C19.3306 27.6252 16.6088 29.5454 13.44 29.5454C11.8214 29.5454 10.3197 29.0437 9.07807 28.1877Z"
    fill="#2E4DF9"
  />
</svg>
