<svg width="133" height="46" viewBox="0 0 133 46" fill="none" xmlns="http://www.w3.org/2000/svg">
    <path d="M58.3545 4.07969H54.4629V1.04834H65.9119V4.07966H62.0203V13.5943H58.3545V4.07969Z" fill="black"/>
    <path d="M67.8867 1.04834H71.5526V5.67431H75.8091V1.04834H79.475V13.5943H75.8091V8.5654H71.5526V13.5943H67.8867V1.04834Z" fill="black"/>
    <path d="M81.793 1.04834H91.3662V3.95688H85.3374V6.05954H91.036V8.46035H85.3374V10.6855H91.5397V13.5943H81.793V1.04834Z" fill="black"/>
    <path d="M55.5898 32.6201H65.1106V35.7739H59.2557V37.8766H64.3116V40.6452H59.2557V45.1661H55.5898V32.6201Z" fill="black"/>
    <path d="M67.4375 40.0144V32.6201H71.1034V39.8919C71.1034 41.4163 71.9545 42.3975 73.2748 42.3975C74.5779 42.3975 75.4466 41.3989 75.4466 39.8919V32.6201H79.1125V40.0144C79.1125 43.3262 76.7496 45.4288 73.2748 45.4288C69.8001 45.4288 67.4375 43.3262 67.4375 40.0144Z" fill="black"/>
    <path d="M81.6074 32.6201H85.5341L89.6168 40.3999H89.7907V32.6201H93.2133V45.1661H89.2866L85.204 37.4037H85.0301V45.1661H81.6074V32.6201Z" fill="black"/>
    <path d="M95.748 32.6201H100.821C105.095 32.6201 107.945 35.1257 107.945 38.8929C107.945 42.6602 105.095 45.1661 100.821 45.1661H95.748V32.6201ZM100.821 42.3801C102.906 42.3801 104.279 41.0133 104.279 38.8929C104.279 36.7725 102.906 35.4061 100.821 35.4061H99.2925V42.38L100.821 42.3801Z" fill="black"/>
    <path d="M54.1719 23.1072C54.1719 19.2175 57.1081 16.5891 61.1563 16.5891C64.0925 16.5891 66.5941 18.2537 67.1675 20.5665L63.7972 21.2151C63.4843 20.2861 62.3724 19.6027 61.139 19.6027C59.2278 19.6027 57.8378 21.0397 57.8378 23.1072C57.8378 25.1747 59.2799 26.6643 61.2777 26.6643C62.8588 26.6643 64.1619 25.6831 64.2661 24.3514L60.0444 24.334V22.1611H67.7757C68.2273 26.6117 65.4301 29.6956 61.1563 29.6956C57.1081 29.6956 54.1719 26.9973 54.1719 23.1072Z" fill="black"/>
    <path d="M69.8906 16.8345H73.5565V26.2263H78.925V29.3804H69.8906V16.8345Z" fill="black"/>
    <path d="M80.2734 23.1072C80.2734 19.1121 83.0882 16.5891 87.2578 16.5891C91.4102 16.5891 94.2246 19.1121 94.2246 23.1072C94.2246 27.1024 91.4102 29.6431 87.2578 29.6431C83.0882 29.6431 80.2734 27.1024 80.2734 23.1072ZM90.5588 23.1072C90.5588 21.0046 89.2212 19.6027 87.2578 19.6027C85.2945 19.6027 83.9394 21.0046 83.9394 23.1072C83.9394 25.2276 85.2945 26.6118 87.2578 26.6118C89.2212 26.6118 90.5588 25.2276 90.5588 23.1072Z" fill="black"/>
    <path d="M96.1992 16.8345H102.575C105.512 16.8345 107.249 18.2012 107.249 20.3039C107.249 21.6004 106.45 22.5468 105.442 22.8972V23.0725C106.676 23.4052 107.596 24.5092 107.596 25.9987C107.596 28.1539 105.807 29.3804 102.906 29.3804H96.1992V16.8345ZM101.863 21.8634C102.801 21.8634 103.462 21.3728 103.462 20.6717C103.462 19.9706 102.801 19.4977 101.863 19.4977H99.8651V21.8634H101.863ZM102.107 26.717C103.079 26.717 103.809 26.1738 103.809 25.4205C103.809 24.6846 103.079 24.1414 102.107 24.1414H99.8651V26.717H102.107Z" fill="black"/>
    <path d="M112.61 16.8345H117.996L121.888 29.3804H118.117L117.527 27.4705H113.062L112.471 29.3804H108.701L112.61 16.8345ZM116.814 24.8422L115.39 19.9709H115.216L113.792 24.8422H116.814Z" fill="black"/>
    <path d="M123.965 16.8345H127.631V26.2263H132.999V29.3804H123.965V16.8345Z" fill="black"/>
    <path d="M45.9203 19.6119C45.9152 19.6796 45.921 19.7494 45.9335 19.816C45.9462 19.884 45.9675 19.9504 45.9964 20.0132C46.0245 20.0743 46.0631 20.1278 46.1016 20.1833C46.2441 20.3577 46.4533 20.4666 46.6734 20.482C46.7851 20.4907 46.8958 20.4763 47.0017 20.4397C47.2672 20.3478 47.4653 20.1159 47.5277 19.832C47.5294 19.8244 47.5334 19.8179 47.5349 19.8101C47.5349 19.8101 47.5582 19.6742 47.5663 19.6306C47.6011 19.4418 47.6691 19.0184 47.6723 18.9959C47.9446 17.1121 47.8837 15.2053 47.5062 13.3595C47.4964 13.3114 47.4317 13.021 47.409 12.9239C47.0602 11.4573 46.5025 10.0157 45.7167 8.64298C42.6511 3.28774 36.984 0.395531 31.2534 0.643376C26.3707 0.771975 21.6911 3.17006 18.7427 7.30722C18.3368 7.90458 17.9957 8.50391 17.8638 9.22439C17.6817 10.2148 17.8521 11.2257 18.3588 12.1108C18.9079 13.0701 19.7922 13.7662 20.8484 14.0709C22.5584 14.5639 24.4197 13.9277 25.383 12.5223C25.383 12.5223 25.7311 12.0265 25.776 11.9667C27.6584 9.44871 30.4791 7.87902 33.4848 7.49832C37.7756 7.01734 42.1458 9.07524 44.4463 13.094C45.6215 15.1468 46.0863 17.4157 45.9203 19.6119Z" fill="#F6DE00"/>
    <path d="M11.4472 1.55413C11.5079 1.52475 11.5649 1.48481 11.6159 1.44064C11.6679 1.39547 11.7142 1.34366 11.7537 1.28704C11.7922 1.23199 11.8188 1.17149 11.8472 1.11008C11.9257 0.898461 11.9146 0.661283 11.8178 0.461362C11.7695 0.359478 11.7018 0.269981 11.6173 0.195749C11.4057 0.00981064 11.1075 -0.0473411 10.8326 0.0401226C10.8251 0.0424374 10.8175 0.0422498 10.8101 0.0447836C10.8101 0.0447836 10.6818 0.0923943 10.6403 0.107191C10.4608 0.17113 10.0632 0.323472 10.0423 0.33195C8.28852 1.03598 6.68173 2.04259 5.28548 3.2952C5.24912 3.32786 5.0321 3.52947 4.96009 3.59782C3.87517 4.63581 2.91612 5.84382 2.13033 7.21649C-0.935272 12.5717 -0.585194 18.9677 2.49294 23.8491C5.0447 28.0495 9.44368 30.9379 14.4704 31.4445C15.1863 31.5004 15.8715 31.4987 16.5561 31.2537C17.4975 30.9175 18.2804 30.2632 18.787 29.3781C19.3362 28.4188 19.4918 27.2984 19.2254 26.2235C18.7936 24.4834 17.3168 23.1757 15.6283 23.0372C15.6283 23.0372 15.0285 22.9809 14.9547 22.9716C11.8514 22.5865 9.09317 20.9076 7.26344 18.4727C4.70501 14.9654 4.28697 10.1193 6.5875 6.10058C7.76264 4.04775 9.47842 2.50728 11.4472 1.55413Z" fill="#EE0C3D"/>
    <path d="M13.1818 40.6935C13.1263 40.6552 13.0635 40.6253 13.0001 40.6029C12.9352 40.58 12.8676 40.5655 12.7992 40.5593C12.7327 40.5533 12.6675 40.5603 12.6005 40.5661C12.3796 40.6034 12.1815 40.7317 12.0582 40.9162C11.9949 41.0094 11.9519 41.1132 11.9304 41.2241C11.8765 41.502 11.9766 41.7909 12.1891 41.9874C12.1948 41.9927 12.1984 41.9994 12.2043 42.0046C12.2043 42.0046 12.3094 42.0929 12.3428 42.1218C12.4875 42.2466 12.8171 42.5177 12.8348 42.5317C14.3162 43.7115 15.984 44.6116 17.7577 45.2049C17.8039 45.2203 18.0855 45.309 18.1802 45.3378C19.614 45.7663 21.1307 46.0001 22.7023 46.0001C28.8335 46.0001 34.1505 42.4963 36.803 37.367C39.1339 33.038 39.4146 27.7516 37.3363 23.1077C37.0263 22.4545 36.6823 21.8569 36.1296 21.3814C35.3702 20.7272 34.4169 20.3706 33.4035 20.3706C32.3053 20.3706 31.2654 20.7949 30.4757 21.5651C29.1974 22.8122 28.8129 24.756 29.5382 26.3001C29.5382 26.3001 29.7897 26.852 29.8187 26.9212C31.0396 29.8243 30.9771 33.0729 29.8012 35.8885C28.0688 39.8768 24.1166 42.665 19.5155 42.665C17.1652 42.665 14.9847 41.9365 13.1818 40.6935Z" fill="#2E4DF9"/>
</svg>
