<svg width="104" height="37" viewBox="0 0 104 37">
  <path
    d="M45.6307 3.70534H42.5876V1.33496H51.5403V3.70532H48.4972V11.1453H45.6307V3.70534Z"
    fill="black"
  />
  <path
    d="M53.0845 1.33496H55.951V4.95226H59.2794V1.33496H62.146V11.1453H59.2794V7.21296H55.951V11.1453H53.0845V1.33496Z"
    fill="black"
  />
  <path
    d="M63.9585 1.33496H71.4443V3.60931H66.7301V5.2535H71.1861V7.13082H66.7301V8.8708H71.58V11.1454H63.9585V1.33496Z"
    fill="black"
  />
  <path
    d="M43.4688 26.0227H50.9136V28.4889H46.3353V30.133H50.2888V32.298H46.3353V35.8331H43.4688V26.0227Z"
    fill="black"
  />
  <path
    d="M52.7332 31.8047V26.0227H55.5997V31.7089C55.5997 32.9009 56.2652 33.6682 57.2977 33.6682C58.3166 33.6682 58.9959 32.8873 58.9959 31.7089V26.0227H61.8624V31.8047C61.8624 34.3943 60.0148 36.0385 57.2977 36.0385C54.5806 36.0385 52.7332 34.3943 52.7332 31.8047Z"
    fill="black"
  />
  <path
    d="M63.8132 26.0227H66.8837L70.0762 32.1062H70.2122V26.0227H72.8885V35.8331H69.818L66.6256 29.7632H66.4896V35.8331H63.8132V26.0227Z"
    fill="black"
  />
  <path
    d="M74.8706 26.0227H78.8376C82.1797 26.0227 84.4077 27.982 84.4077 30.9278C84.4077 33.8736 82.1797 35.8331 78.8376 35.8331H74.8706V26.0227ZM78.8376 33.6545C80.4681 33.6545 81.5412 32.5858 81.5412 30.9278C81.5412 29.2697 80.4681 28.2012 78.8376 28.2012H77.6422V33.6545L78.8376 33.6545Z"
    fill="black"
  />
  <path
    d="M42.3599 18.5842C42.3599 15.5426 44.6559 13.4873 47.8213 13.4873C50.1173 13.4873 52.0735 14.7889 52.5218 16.5975L49.8864 17.1046C49.6418 16.3782 48.7723 15.8438 47.8079 15.8438C46.3134 15.8438 45.2264 16.9675 45.2264 18.5842C45.2264 20.2009 46.3541 21.3656 47.9163 21.3656C49.1527 21.3656 50.1716 20.5984 50.2531 19.5571L46.9519 19.5435V17.8444H52.9974C53.3506 21.3245 51.1633 23.736 47.8214 23.736C44.6559 23.736 42.3599 21.626 42.3599 18.5842Z"
    fill="black"
  />
  <path
    d="M54.6514 13.679H57.5179V21.0229H61.7158V23.4893H54.6514V13.679Z"
    fill="black"
  />
  <path
    d="M62.7703 18.5842C62.7703 15.4602 64.9713 13.4873 68.2318 13.4873C71.4787 13.4873 73.6795 15.4602 73.6795 18.5842C73.6795 21.7082 71.4787 23.695 68.2318 23.695C64.9713 23.695 62.7703 21.7082 62.7703 18.5842ZM70.8129 18.5842C70.8129 16.94 69.767 15.8438 68.2318 15.8438C66.6965 15.8438 65.6368 16.94 65.6368 18.5842C65.6368 20.2422 66.6965 21.3246 68.2318 21.3246C69.767 21.3246 70.8129 20.2422 70.8129 18.5842Z"
    fill="black"
  />
  <path
    d="M75.2234 13.679H80.2093C82.5053 13.679 83.8638 14.7477 83.8638 16.3919C83.8638 17.4057 83.239 18.1457 82.451 18.4197V18.5568C83.4155 18.8169 84.1355 19.6802 84.1355 20.845C84.1355 22.5302 82.7362 23.4893 80.4674 23.4893H75.2234V13.679ZM79.6524 17.6114C80.386 17.6114 80.9023 17.2277 80.9023 16.6795C80.9023 16.1313 80.386 15.7615 79.6524 15.7615H78.0899V17.6114H79.6524ZM79.8426 21.4066C80.6034 21.4066 81.174 20.9819 81.174 20.3928C81.174 19.8174 80.6034 19.3927 79.8426 19.3927H78.0899V21.4066H79.8426Z"
    fill="black"
  />
  <path
    d="M88.056 13.679H92.2677L95.3107 23.4893H92.3626L91.9008 21.9959H88.4094L87.9476 23.4893H84.9995L88.056 13.679ZM91.3437 19.9406L90.2298 16.1315H90.0939L88.98 19.9406H91.3437Z"
    fill="black"
  />
  <path
    d="M96.9348 13.679H99.8014V21.0229H103.999V23.4893H96.9348V13.679Z"
    fill="black"
  />
  <path
    d="M35.9077 15.8506C35.9037 15.9036 35.9082 15.9581 35.9179 16.0102C35.9279 16.0634 35.9446 16.1153 35.9672 16.1644C35.9891 16.2122 36.0193 16.254 36.0494 16.2975C36.1608 16.4338 36.3244 16.5189 36.4965 16.531C36.5838 16.5378 36.6704 16.5266 36.7532 16.4979C36.9609 16.426 37.1158 16.2448 37.1646 16.0228C37.1659 16.0168 37.169 16.0117 37.1702 16.0056C37.1702 16.0056 37.1884 15.8993 37.1947 15.8652C37.2219 15.7176 37.2751 15.3865 37.2776 15.3689C37.4906 13.8959 37.4429 12.4049 37.1478 10.9615C37.14 10.9239 37.0895 10.6968 37.0718 10.621C36.799 9.47413 36.3629 8.34682 35.7484 7.27343C33.3512 3.08587 28.9199 0.824294 24.4388 1.0181C20.6208 1.11866 16.9615 2.99385 14.656 6.22893C14.3386 6.69603 14.0718 7.16468 13.9687 7.72806C13.8264 8.50252 13.9596 9.29302 14.3558 9.98512C14.7852 10.7352 15.4766 11.2795 16.3025 11.5178C17.6397 11.9033 19.0952 11.4059 19.8484 10.3069C19.8484 10.3069 20.1206 9.91922 20.1557 9.87245C21.6277 7.90347 23.8333 6.67605 26.1836 6.37836C29.5388 6.00225 32.9561 7.61143 34.7551 10.7539C35.674 12.3591 36.0374 14.1333 35.9077 15.8506Z"
    fill="#F6DE00"
  />
  <path
    d="M8.95119 1.73039C8.99866 1.70742 9.04326 1.67619 9.08308 1.64165C9.12378 1.60633 9.15997 1.56582 9.19089 1.52155C9.22094 1.4785 9.24177 1.43119 9.26401 1.38317C9.32537 1.21769 9.31669 1.03223 9.241 0.875901C9.20319 0.796232 9.15026 0.726249 9.08422 0.668204C8.91872 0.522808 8.68557 0.478118 8.47057 0.546511C8.46475 0.548321 8.45881 0.548174 8.45303 0.550155C8.45303 0.550155 8.35267 0.587385 8.32022 0.598955C8.17987 0.648953 7.86897 0.768077 7.8526 0.774706C6.48125 1.32522 5.22481 2.11235 4.133 3.09184C4.10458 3.11737 3.93488 3.27502 3.87856 3.32847C3.03021 4.14013 2.28028 5.08474 1.66582 6.15811C-0.731341 10.3457 -0.457595 15.347 1.94937 19.1641C3.94473 22.4486 7.38453 24.7072 11.3152 25.1034C11.875 25.147 12.4108 25.1457 12.9461 24.9541C13.6822 24.6912 14.2944 24.1796 14.6906 23.4875C15.12 22.7374 15.2417 21.8613 15.0334 21.0207C14.6958 19.6601 13.5409 18.6375 12.2206 18.5292C12.2206 18.5292 11.7516 18.4852 11.6939 18.4779C9.26724 18.1767 7.11045 16.864 5.67968 14.9599C3.67911 12.2174 3.35222 8.428 5.15113 5.28551C6.07003 3.68029 7.4117 2.47572 8.95119 1.73039Z"
    fill="#EE0C3D"
  />
  <path
    d="M10.3077 32.3357C10.2642 32.3057 10.2151 32.2823 10.1655 32.2649C10.1149 32.247 10.062 32.2356 10.0085 32.2308C9.95651 32.226 9.90548 32.2315 9.85312 32.2361C9.68034 32.2652 9.52543 32.3655 9.42905 32.5098C9.37955 32.5827 9.34591 32.6639 9.3291 32.7506C9.287 32.9679 9.36521 33.1938 9.53142 33.3474C9.53588 33.3516 9.53872 33.3569 9.54333 33.3609C9.54333 33.3609 9.62547 33.43 9.65162 33.4525C9.76474 33.5501 10.0225 33.7621 10.0363 33.7731C11.1947 34.6956 12.4988 35.3995 13.8858 35.8634C13.9219 35.8754 14.1421 35.9448 14.2162 35.9673C15.3373 36.3024 16.5234 36.4852 17.7523 36.4852C22.5466 36.4852 26.7043 33.7454 28.7784 29.7345C30.6011 26.3494 30.8205 22.2157 29.1954 18.5844C28.953 18.0736 28.684 17.6063 28.2518 17.2345C27.658 16.723 26.9125 16.4441 26.1202 16.4441C25.2613 16.4441 24.4482 16.7759 23.8307 17.3781C22.8311 18.3533 22.5305 19.8733 23.0976 21.0807C23.0976 21.0807 23.2943 21.5123 23.3169 21.5663C24.2717 23.8365 24.2228 26.3767 23.3032 28.5784C21.9486 31.697 18.8582 33.8773 15.2603 33.8773C13.4225 33.8773 11.7174 33.3076 10.3077 32.3357Z"
    fill="#2E4DF9"
  />
</svg>
