<svg width="16" height="16" viewBox="0 0 16 16" fill="none" xmlns="http://www.w3.org/2000/svg">
<path fill-rule="evenodd" clip-rule="evenodd" d="M7.5002 8.4998L3.30019 8.4998V12.6998H7.5002L7.5002 8.4998ZM7.5002 7.4998L3.30019 7.4998L3.30019 3.2998L7.5002 3.2998L7.5002 7.4998ZM8.5002 8.4998L8.5002 12.6998L12.7002 12.6998V8.4998H8.5002ZM12.7002 7.4998L8.5002 7.4998V3.2998L12.7002 3.2998V7.4998ZM13.7002 12.9998C13.7002 13.3864 13.3868 13.6998 13.0002 13.6998L3.0002 13.6998C2.6136 13.6998 2.30019 13.3864 2.30019 12.9998L2.30019 2.99981C2.30019 2.61321 2.6136 2.2998 3.00019 2.2998L13.0002 2.2998C13.3868 2.2998 13.7002 2.61321 13.7002 2.9998L13.7002 12.9998Z" fill="#373D43"/>
</svg>
