<svg width="21" height="20" viewBox="0 0 21 20" fill="none">
  <path
    d="M8.48127 10.2005L14.9379 5.70872L15.9207 6.78865L10.8424 12.7949L8.48127 10.2005ZM6.53951 10.5432L10.319 14.6959C10.3972 14.7734 10.491 14.8334 10.5942 14.872C10.6973 14.9106 10.8075 14.9268 10.9174 14.9196C11.0273 14.9125 11.1344 14.8821 11.2317 14.8305C11.329 14.7788 11.4142 14.7072 11.4817 14.6202L17.6912 7.27601C17.8149 7.14008 17.8849 6.96379 17.8882 6.78003C17.8915 6.59626 17.8278 6.41759 17.709 6.27735L15.6148 3.97638C15.4863 3.84494 15.3144 3.76474 15.1312 3.75074C14.9479 3.73673 14.7658 3.78989 14.6189 3.90028L6.72417 9.39264C6.6312 9.45169 6.55183 9.5298 6.49128 9.6218C6.43074 9.71381 6.39041 9.81761 6.37296 9.92636C6.3555 10.0351 6.36132 10.1463 6.39004 10.2526C6.41875 10.359 6.4697 10.458 6.53951 10.5432ZM2.54492 15.4396L7.22605 16.2498L8.45866 15.128L5.93459 12.3547L2.54492 15.4396Z"
    fill="#495057"
  />
</svg>
