<svg
  width="44"
  height="44"
  viewBox="0 0 44 44"
  fill="none"
  xmlns="http://www.w3.org/2000/svg"
>
  <circle cx="22" cy="22" r="22" fill="white" />
  <path
    d="M26.0152 26.7061C26.0181 26.7033 26.0208 26.7006 26.0236 26.6977L28.5273 24.1397L28.7695 23.8815C30.4201 22.1362 31.3347 19.8384 31.3447 17.4116C31.3659 12.3635 27.3677 8.14315 22.4322 8.00361C19.9312 7.93396 17.5678 8.87391 15.7773 10.6531C13.9864 12.433 13 14.8187 13 17.3708C13 19.5489 13.6409 21.5334 14.8543 23.1109C14.9645 23.2533 15.0841 23.3906 15.2098 23.519L18.3296 26.7063L13.8701 31.2623C12.8105 32.3446 12.8105 34.1058 13.8701 35.1882C14.3998 35.7295 15.0955 36.0001 15.7914 36C16.4872 35.9999 17.1832 35.7293 17.7129 35.1882L22.1724 30.6322L26.632 35.1883C27.1618 35.7294 27.8576 36 28.5534 36C29.2493 36 29.9451 35.7294 30.4748 35.1882C31.5343 34.1058 31.5343 32.3446 30.4748 31.2623L26.0152 26.7061ZM17.0641 34.5254C16.3623 35.2422 15.2206 35.2423 14.5189 34.5254C14.1789 34.1781 13.9917 33.7164 13.9917 33.2252C13.9917 32.7341 14.1789 32.2724 14.5189 31.9251L18.9784 27.3691L21.5237 29.9694L17.0641 34.5254ZM29.826 34.5254C29.1242 35.2422 27.9826 35.2422 27.2808 34.5254L15.8586 22.8562C15.758 22.7533 15.6623 22.6435 15.5749 22.5306C14.4752 21.1008 13.9176 19.3648 13.9176 17.3708C13.9176 15.074 14.8053 12.927 16.4171 11.3251C17.972 9.78 20.0071 8.93739 22.1706 8.93739C22.2492 8.93739 22.3279 8.93845 22.4068 8.94075C26.8483 9.06624 30.4462 12.8645 30.4271 17.4076C30.418 19.5916 29.595 21.6594 28.1081 23.2316L27.8716 23.4841L25.3748 26.0349C25.3719 26.0377 25.3693 26.0405 25.3665 26.0434L22.7329 23.3529L25.5337 20.7039L25.5464 20.6913C26.4476 19.7707 26.944 18.5465 26.944 17.2444C26.944 14.5564 24.8035 12.3695 22.1724 12.3695C19.5514 12.3695 17.419 14.548 17.419 17.2258C17.419 18.2266 17.7147 19.1878 18.2796 20.013C18.4828 20.2976 18.7096 20.5683 18.9535 20.8173L29.826 31.925C30.5277 32.642 30.5277 33.8085 29.826 34.5254ZM22.1724 13.307C24.2975 13.307 26.0264 15.0733 26.0264 17.2444C26.0264 18.2931 25.6277 19.2794 24.9037 20.0223L22.0835 22.6895L19.6022 20.1546C19.3918 19.9395 19.1962 19.706 19.0262 19.4682C18.575 18.8089 18.3366 18.0335 18.3366 17.2258C18.3366 15.065 20.0574 13.307 22.1724 13.307Z"
    fill="#868E96"
  />
</svg>
