<svg width="68" height="68" viewBox="0 0 68 68">
  <path
    d="M40.1144 40.9095C40.1188 40.9051 40.1231 40.9009 40.1273 40.8964L43.9967 36.9432L44.371 36.5441C46.9219 33.8468 48.3354 30.2957 48.351 26.5452C48.3836 18.7436 42.2046 12.2212 34.577 12.0056C30.7118 11.8979 27.0593 13.3506 24.2923 16.1003C21.5244 18.851 20 22.538 20 26.4821C20 29.8483 20.9905 32.9153 22.8657 35.3532C23.0361 35.5733 23.2209 35.7855 23.4152 35.9839L28.2367 40.9097L21.3447 47.9508C19.7072 49.6235 19.7072 52.3454 21.3447 54.0181C22.1634 54.8547 23.2385 55.2728 24.314 55.2727C25.3893 55.2726 26.465 54.8544 27.2835 54.0181L34.1756 46.977L41.0677 54.0183C41.8863 54.8545 42.9617 55.2727 44.0371 55.2727C45.1126 55.2727 46.1879 54.8545 47.0065 54.0181C48.644 52.3454 48.644 49.6235 47.0065 47.9508L40.1144 40.9095ZM26.2809 52.9937C25.1963 54.1016 23.4319 54.1018 22.3473 52.9939C21.822 52.4571 21.5327 51.7435 21.5327 50.9845C21.5327 50.2254 21.822 49.5119 22.3473 48.9751L29.2393 41.934L33.1729 45.9527L26.2809 52.9937ZM46.0038 52.9939C44.9193 54.1016 43.1549 54.1016 42.0703 52.9939L24.4178 34.9595C24.2624 34.8006 24.1144 34.6308 23.9794 34.4563C22.2798 32.2467 21.4181 29.5638 21.4181 26.4821C21.4181 22.9326 22.79 19.6144 25.281 17.1389C27.684 14.7509 30.8292 13.4487 34.1728 13.4487C34.2942 13.4487 34.4159 13.4503 34.5377 13.4539C41.4019 13.6478 46.9623 19.5179 46.9328 26.5391C46.9187 29.9143 45.6468 33.11 43.3489 35.5397L42.9833 35.93L39.1247 39.8721C39.1203 39.8765 39.1161 39.8808 39.1119 39.8853L35.0417 35.7272L39.3703 31.6333L39.3899 31.6139C40.7827 30.1911 41.5498 28.2991 41.5498 26.2868C41.5498 22.1326 38.2417 18.7529 34.1756 18.7529C30.1249 18.7529 26.8294 22.1197 26.8294 26.258C26.8294 27.8047 27.2864 29.2902 28.1593 30.5656C28.4734 31.0054 28.8239 31.4237 29.2008 31.8086L46.0038 48.9751C47.0883 50.0831 47.0883 51.8858 46.0038 52.9939ZM34.1756 20.2017C37.4598 20.2017 40.1317 22.9314 40.1317 26.2868C40.1317 27.9076 39.5156 29.4318 38.3966 30.5799L34.0382 34.702L30.2035 30.7843C29.8782 30.452 29.5759 30.0911 29.3132 29.7236C28.616 28.7047 28.2475 27.5063 28.2475 26.258C28.2475 22.9186 30.9069 20.2017 34.1756 20.2017Z"
    fill="#868E96"
  />
</svg>
