<svg xmlns="http://www.w3.org/2000/svg" width="14" height="14" viewBox="0 0 14 14" fill="none">
  <path d="M12.0833 0.75H1.41667C1.04848 0.75 0.75 1.04848 0.75 1.41667V4.75C0.75 5.11819 1.04848 5.41667 1.41667 5.41667H12.0833C12.4515 5.41667 12.75 5.11819 12.75 4.75V1.41667C12.75 1.04848 12.4515 0.75 12.0833 0.75Z" stroke="#373D43" stroke-width="1.5" stroke-linecap="round" stroke-linejoin="round"/>
  <path d="M6.08333 8.08333H1.41667C1.04848 8.08333 0.75 8.38181 0.75 8.75V12.0833C0.75 12.4515 1.04848 12.75 1.41667 12.75H6.08333C6.45152 12.75 6.75 12.4515 6.75 12.0833V8.75C6.75 8.38181 6.45152 8.08333 6.08333 8.08333Z" stroke="#373D43" stroke-width="1.5" stroke-linecap="round" stroke-linejoin="round"/>
  <path d="M12.0833 8.08333H10.0833C9.71514 8.08333 9.41667 8.38181 9.41667 8.75V12.0833C9.41667 12.4515 9.71514 12.75 10.0833 12.75H12.0833C12.4515 12.75 12.75 12.4515 12.75 12.0833V8.75C12.75 8.38181 12.4515 8.08333 12.0833 8.08333Z" stroke="#373D43" stroke-width="1.5" stroke-linecap="round" stroke-linejoin="round"/>
</svg>
