<svg
  width="44"
  height="44"
  viewBox="0 0 44 44"
  fill="none"
  xmlns="http://www.w3.org/2000/svg"
>
  <rect width="44" height="44" rx="22" fill="white" />
  <path
    d="M35.79 20.447C35.2112 18.701 33.5391 17.5279 31.6291 17.5279H27.998V16.3898C27.998 15.9403 28.1839 15.5037 28.5082 15.1921L33.6562 10.2445C33.8426 10.0653 33.8484 9.76898 33.6689 9.58274C33.4896 9.39651 33.1931 9.39064 33.0065 9.57003L27.8585 14.5176C27.3516 15.0048 27.0609 15.6872 27.0609 16.3898V17.5279H24.146C24.0166 16.6406 23.3392 15.9295 22.4685 15.7496V8.46801C22.4685 8.20956 22.2587 8 22 8C21.7412 8 21.5314 8.20956 21.5314 8.46801V15.7496C20.6608 15.9295 19.9834 16.6406 19.854 17.5279H16.9391V16.3898C16.9391 15.6872 16.6484 15.0048 16.1415 14.5176L10.9935 9.57001C10.807 9.39078 10.5105 9.39665 10.331 9.58273C10.1516 9.76896 10.1573 10.0653 10.3438 10.2444L15.4918 15.192C15.8161 15.5037 16.0021 15.9404 16.0021 16.3898V17.5279H12.3709C10.4608 17.5279 8.7887 18.7009 8.21004 20.447C8.05371 20.9187 7.98577 21.387 8.00247 21.8784C8.04434 23.1173 8.65479 24.239 9.67725 24.9557C10.3387 25.4193 11.1163 25.6499 11.9033 25.6499C12.7477 25.6499 13.6028 25.3842 14.3353 24.856L16.0021 23.6539V24.6615C16.0021 25.091 15.8272 25.5109 15.5223 25.8138L10.0293 31.2717C9.84586 31.454 9.8451 31.7503 10.0276 31.9336C10.1192 32.0256 10.2394 32.0716 10.3598 32.0716C10.4793 32.0716 10.5988 32.0262 10.6902 31.9354L16.1831 26.4775C16.6636 26.0003 16.9391 25.3383 16.9391 24.6615V22.9781L19.8291 20.8938V27.208L11.8654 35.1349C11.6822 35.3173 11.6816 35.6136 11.8643 35.7968C11.9558 35.8885 12.076 35.9344 12.1962 35.9344C12.3158 35.9344 12.4355 35.8889 12.5269 35.7979L19.8291 28.5294V29.7184C19.8291 30.8938 20.7865 31.8501 21.9632 31.8501H22.0368C23.2136 31.8501 24.1709 30.8938 24.1709 29.7184V28.5951L31.4731 35.8635C31.5645 35.9545 31.6842 36 31.8038 36C31.924 36 32.0442 35.9541 32.1357 35.8624C32.3183 35.6792 32.3178 35.3829 32.1346 35.2005L24.171 27.2737V20.8938L27.0609 22.9781V24.6615C27.0609 25.3384 27.3365 26.0003 27.8168 26.4774L33.3098 31.9354C33.4012 32.0262 33.5207 32.0716 33.6402 32.0716C33.7606 32.0716 33.8808 32.0256 33.9724 31.9336C34.1549 31.7503 34.1541 31.454 33.9707 31.2717L28.4776 25.8137C28.1728 25.511 27.998 25.091 27.998 24.6615V23.6539L29.6648 24.856C30.3972 25.3843 31.2522 25.6499 32.0966 25.6499C32.8836 25.6499 33.6615 25.4192 34.3227 24.9557C35.3452 24.239 35.9557 23.1173 35.9975 21.8785C36.0142 21.3868 35.9463 20.9187 35.79 20.447ZM19.8291 19.7393L13.7868 24.0972C12.6951 24.8844 11.2599 24.9216 10.2155 24.1896C9.43613 23.6432 8.97088 22.7893 8.939 21.8468C8.92612 21.4678 8.97866 21.1061 9.09968 20.7412C9.55105 19.3791 10.8657 18.4639 12.3709 18.4639H19.8291V19.7393ZM23.2338 29.7184C23.2338 30.3777 22.6968 30.9141 22.0368 30.9141H21.9631C21.3031 30.9141 20.7662 30.3777 20.7662 29.7184V17.8358C20.7662 17.1765 21.3031 16.6402 21.9631 16.6402H22.0368C22.6968 16.6402 23.2338 17.1765 23.2338 17.8358V29.7184ZM33.7845 24.1895C32.74 24.9216 31.3048 24.8844 30.2133 24.0971L24.1709 19.7393V18.4639H31.6291C33.1343 18.4639 34.4489 19.3791 34.9004 20.7412C35.0213 21.106 35.0738 21.4677 35.061 21.8468C35.0291 22.7893 34.5638 23.6431 33.7845 24.1895Z"
    fill="#868E96"
  />
</svg>
