<svg width="69" height="68" viewBox="0 0 69 68">
  <path
    d="M55.9784 31.5998C55.0839 28.9014 52.4997 27.0885 49.548 27.0885H43.9362V25.3296C43.9362 24.6349 44.2236 23.9602 44.7248 23.4785L52.6808 15.8322C52.9689 15.5554 52.9778 15.0974 52.7004 14.8096C52.4232 14.5218 51.9651 14.5127 51.6766 14.7899L43.7206 22.4362C42.9373 23.1891 42.488 24.2437 42.488 25.3296V27.0885H37.9833C37.7832 25.7171 36.7363 24.6182 35.3907 24.3401V13.0868C35.3907 12.6874 35.0665 12.3635 34.6666 12.3635C34.2667 12.3635 33.9425 12.6874 33.9425 13.0868V24.3401C32.597 24.6182 31.5501 25.7171 31.3501 27.0885H26.8453V25.3296C26.8453 24.2437 26.3959 23.1892 25.6126 22.4362L17.6566 14.7899C17.3683 14.5129 16.9101 14.522 16.6328 14.8096C16.3555 15.0974 16.3643 15.5553 16.6524 15.8322L24.6084 23.4785C25.1097 23.9602 25.3971 24.635 25.3971 25.3296V27.0884H19.7853C16.8333 27.0884 14.2492 28.9014 13.3549 31.5998C13.1133 32.3288 13.0083 33.0525 13.0341 33.812C13.0988 35.7267 14.0422 37.4601 15.6224 38.5678C16.6446 39.2842 17.8464 39.6406 19.0627 39.6406C20.3677 39.6406 21.6892 39.2301 22.8212 38.4137L25.3971 36.5559V38.1131C25.3971 38.7768 25.1269 39.4258 24.6557 39.8939L16.1665 48.3289C15.883 48.6106 15.8818 49.0686 16.1638 49.3518C16.3054 49.4939 16.4912 49.565 16.6772 49.565C16.8619 49.565 17.0466 49.4949 17.1879 49.3545L25.6769 40.9196C26.4195 40.1821 26.8453 39.1591 26.8453 38.1131V35.5115L31.3116 32.2903V42.0486L19.0041 54.2993C18.7209 54.5812 18.7201 55.0392 19.0024 55.3222C19.1438 55.4639 19.3295 55.5349 19.5153 55.5349C19.7002 55.5349 19.8851 55.4646 20.0264 55.3239L31.3117 44.0908V45.9284C31.3117 47.7449 32.7912 49.2227 34.6097 49.2227H34.7236C36.5422 49.2227 38.0217 47.7449 38.0217 45.9284V44.1923L49.3069 55.4253C49.4482 55.566 49.6331 55.6363 49.818 55.6363C50.0037 55.6363 50.1895 55.5653 50.3309 55.4235C50.6132 55.1405 50.6124 54.6826 50.3292 54.4006L38.0218 42.1501V32.2904L42.4881 35.5115V38.1132C42.4881 39.1593 42.9139 40.1821 43.6562 40.9195L52.1454 49.3546C52.2867 49.4949 52.4714 49.565 52.6561 49.565C52.842 49.565 53.0279 49.4939 53.1694 49.3518C53.4515 49.0686 53.4503 48.6107 53.1667 48.3289L44.6775 39.8938C44.2064 39.426 43.9363 38.7769 43.9363 38.1131V36.5559L46.5122 38.4137C47.6442 39.2302 48.9655 39.6406 50.2705 39.6406C51.4867 39.6406 52.689 39.2841 53.7109 38.5678C55.2911 37.4602 56.2345 35.7267 56.2992 33.8121C56.325 33.0523 56.22 32.3288 55.9784 31.5998ZM31.3116 30.5061L21.9734 37.241C20.2864 38.4576 18.0683 38.5151 16.4542 37.3838C15.2497 36.5393 14.5307 35.2197 14.4815 33.7631C14.4615 33.1774 14.5427 32.6185 14.7298 32.0545C15.4273 29.9494 17.459 28.535 19.7853 28.535H31.3116V30.5061ZM36.5735 45.9284C36.5735 46.9473 35.7435 47.7762 34.7235 47.7762H34.6097C33.5896 47.7762 32.7598 46.9473 32.7598 45.9284V27.5643C32.7598 26.5454 33.5896 25.7165 34.6097 25.7165H34.7235C35.7435 25.7165 36.5735 26.5454 36.5735 27.5643V45.9284ZM52.879 37.3837C51.2649 38.515 49.0468 38.4576 47.3599 37.2409L38.0217 30.5061V28.535H49.548C51.8742 28.535 53.9059 29.9493 54.6035 32.0545C54.7905 32.6182 54.8717 33.1772 54.8517 33.7631C54.8025 35.2197 54.0835 36.5393 52.879 37.3837Z"
    fill="#868E96"
  />
</svg>
