<svg width="13" height="13" viewBox="0 0 13 13" fill="none" xmlns="http://www.w3.org/2000/svg">
<path d="M3.83333 0.5H1.83333C1.47971 0.5 1.14057 0.640476 0.890524 0.890524C0.640476 1.14057 0.5 1.47971 0.5 1.83333V3.83333M12.5 3.83333V1.83333C12.5 1.47971 12.3595 1.14057 12.1095 0.890524C11.8594 0.640476 11.5203 0.5 11.1667 0.5H9.16667M0.5 9.16667V11.1667C0.5 11.5203 0.640476 11.8594 0.890524 12.1095C1.14057 12.3595 1.47971 12.5 1.83333 12.5H3.83333M9.16667 12.5H11.1667C11.5203 12.5 11.8594 12.3595 12.1095 12.1095C12.3595 11.8594 12.5 11.5203 12.5 11.1667V9.16667" stroke="#252C34" stroke-linecap="round" stroke-linejoin="round"/>
</svg>
