<svg width="18" height="19" viewBox="0 0 18 19" fill="none">
  <path
    d="M10.5 2V5C10.5 5.39782 10.658 5.77936 10.9393 6.06066C11.2206 6.34196 11.6022 6.5 12 6.5H15M11.25 2H4.5C4.10218 2 3.72064 2.15804 3.43934 2.43934C3.15804 2.72064 3 3.10218 3 3.5V15.5C3 15.8978 3.15804 16.2794 3.43934 16.5607C3.72064 16.842 4.10218 17 4.5 17H13.5C13.8978 17 14.2794 16.842 14.5607 16.5607C14.842 16.2794 15 15.8978 15 15.5V5.75L11.25 2Z"
    stroke="#252C34"
    stroke-linecap="round"
    stroke-linejoin="round"
  />
</svg>
