<svg xmlns="http://www.w3.org/2000/svg" width="15" height="15" viewBox="0 0 15 15" fill="none">
  <path d="M2.86442 0.75L6.19775 4.08333M0.864421 8.08333H10.8644M12.1978 6.75L6.86448 1.41667L1.13114 7.15C0.88684 7.39924 0.75 7.73433 0.75 8.08333C0.75 8.43234 0.88684 8.76743 1.13114 9.01667L4.59781 12.4833C5.13114 13.0167 5.93114 13.0167 6.46448 12.4833L12.1978 6.75ZM14.1978 12.75C14.1978 13.1036 14.0573 13.4428 13.8072 13.6928C13.5572 13.9429 13.218 14.0833 12.8644 14.0833C12.5108 14.0833 12.1717 13.9429 11.9216 13.6928C11.6716 13.4428 11.5311 13.1036 11.5311 12.75C11.5311 11.6833 12.6644 11.15 12.8644 10.0833C13.0644 11.15 14.1978 11.6833 14.1978 12.75Z" stroke="#373D43" stroke-width="1.5" stroke-linecap="round" stroke-linejoin="round"/>
</svg>