<svg width="16" height="16" viewBox="0 0 16 16" fill="none">
  <rect
    width="16"
    height="16"
    fill="white"
    fill-opacity="0.01"
    style="mix-blend-mode: multiply"
  />
  <path
    d="M9.33366 1.3335V4.00016C9.33366 4.35378 9.47413 4.69292 9.72418 4.94297C9.97423 5.19302 10.3134 5.3335 10.667 5.3335H13.3337M10.0003 1.3335H4.00033C3.6467 1.3335 3.30756 1.47397 3.05752 1.72402C2.80747 1.97407 2.66699 2.31321 2.66699 2.66683V13.3335C2.66699 13.6871 2.80747 14.0263 3.05752 14.2763C3.30756 14.5264 3.6467 14.6668 4.00033 14.6668H12.0003C12.3539 14.6668 12.6931 14.5264 12.9431 14.2763C13.1932 14.0263 13.3337 13.6871 13.3337 13.3335V4.66683L10.0003 1.3335Z"
    stroke="black"
    stroke-width="1.5"
    stroke-linecap="round"
    stroke-linejoin="round"
  />
</svg>
