<svg width="26" height="26" viewBox="0 0 26 26" fill="none" xmlns="http://www.w3.org/2000/svg">
<path d="M9.64244 12.0537H4.9094C5.05875 11.0591 5.41388 10.1067 5.95211 9.25711C6.49034 8.40756 7.19984 7.67961 8.0353 7.11975L9.47369 6.15546L8.58976 4.82153L7.15137 5.78582C5.94061 6.59267 4.94774 7.68591 4.26087 8.96854C3.57399 10.2512 3.21436 11.6835 3.21387 13.1385V18.4822C3.21387 18.9085 3.38319 19.3173 3.68459 19.6187C3.98599 19.9201 4.39477 20.0894 4.82101 20.0894H9.64244C10.0687 20.0894 10.4775 19.9201 10.7789 19.6187C11.0803 19.3173 11.2496 18.9085 11.2496 18.4822V13.6608C11.2496 13.2346 11.0803 12.8258 10.7789 12.5244C10.4775 12.223 10.0687 12.0537 9.64244 12.0537ZM20.8924 12.0537H16.1594C16.3087 11.0591 16.6639 10.1067 17.2021 9.25711C17.7403 8.40756 18.4498 7.67961 19.2853 7.11975L20.7237 6.15546L19.8478 4.82153L18.4014 5.78582C17.1906 6.59267 16.1977 7.68591 15.5109 8.96854C14.824 10.2512 14.4644 11.6835 14.4639 13.1385V18.4822C14.4639 18.9085 14.6332 19.3173 14.9346 19.6187C15.236 19.9201 15.6448 20.0894 16.071 20.0894H20.8924C21.3187 20.0894 21.7275 19.9201 22.0289 19.6187C22.3303 19.3173 22.4996 18.9085 22.4996 18.4822V13.6608C22.4996 13.2346 22.3303 12.8258 22.0289 12.5244C21.7275 12.223 21.3187 12.0537 20.8924 12.0537Z" fill="#373D43"/>
</svg>
