<svg width="30" height="30" viewBox="0 0 30 30" fill="none" xmlns="http://www.w3.org/2000/svg">
<path d="M26.25 6.25C26.25 8.32107 21.2132 10 15 10C8.7868 10 3.75 8.32107 3.75 6.25M26.25 6.25C26.25 4.17893 21.2132 2.5 15 2.5C8.7868 2.5 3.75 4.17893 3.75 6.25M26.25 6.25V23.75C26.25 24.7446 25.0647 25.6984 22.955 26.4017C20.8452 27.1049 17.9837 27.5 15 27.5C12.0163 27.5 9.15483 27.1049 7.04505 26.4017C4.93526 25.6984 3.75 24.7446 3.75 23.75V6.25M3.75 15C3.75 15.9946 4.93526 16.9484 7.04505 17.6517C9.15483 18.3549 12.0163 18.75 15 18.75C17.9837 18.75 20.8452 18.3549 22.955 17.6517C25.0647 16.9484 26.25 15.9946 26.25 15" stroke="#373D43" stroke-width="1.875" stroke-linecap="round" stroke-linejoin="round"/>
</svg>
