<svg width="14" height="15" viewBox="0 0 14 15" fill="none" xmlns="http://www.w3.org/2000/svg">
<path d="M12.75 2.75C12.75 3.85457 10.0637 4.75 6.75 4.75C3.43629 4.75 0.75 3.85457 0.75 2.75M12.75 2.75C12.75 1.64543 10.0637 0.75 6.75 0.75C3.43629 0.75 0.75 1.64543 0.75 2.75M12.75 2.75V12.0833C12.75 12.6138 12.1179 13.1225 10.9926 13.4975C9.86742 13.8726 8.3413 14.0833 6.75 14.0833C5.1587 14.0833 3.63258 13.8726 2.50736 13.4975C1.38214 13.1225 0.75 12.6138 0.75 12.0833V2.75M0.75 7.41667C0.75 7.9471 1.38214 8.45581 2.50736 8.83088C3.63258 9.20595 5.1587 9.41667 6.75 9.41667C8.3413 9.41667 9.86742 9.20595 10.9926 8.83088C12.1179 8.45581 12.75 7.9471 12.75 7.41667" stroke="#373D43" stroke-width="1.5" stroke-linecap="round" stroke-linejoin="round"/>
</svg>
