<svg width="36" height="36" viewBox="0 0 36 36" fill="none" xmlns="http://www.w3.org/2000/svg">
<mask id="path-1-inside-1_10712_2701" fill="white">
<path d="M0 3.6C0 1.61177 1.61178 0 3.6 0H32.4C34.3882 0 36 1.61178 36 3.6V32.4C36 34.3882 34.3882 36 32.4 36H3.6C1.61177 36 0 34.3882 0 32.4V3.6Z"/>
</mask>
<path d="M0 3.6C0 1.61177 1.61178 0 3.6 0H32.4C34.3882 0 36 1.61178 36 3.6V32.4C36 34.3882 34.3882 36 32.4 36H3.6C1.61177 36 0 34.3882 0 32.4V3.6Z" fill="white"/>
<path d="M3.6 0V0.5H32.4V0V-0.5H3.6V0ZM36 3.6H35.5V32.4H36H36.5V3.6H36ZM32.4 36V35.5H3.6V36V36.5H32.4V36ZM0 32.4H0.5V3.6H0H-0.5V32.4H0ZM3.6 36V35.5C1.88792 35.5 0.5 34.1121 0.5 32.4H0H-0.5C-0.5 34.6644 1.33563 36.5 3.6 36.5V36ZM36 32.4H35.5C35.5 34.1121 34.1121 35.5 32.4 35.5V36V36.5C34.6644 36.5 36.5 34.6644 36.5 32.4H36ZM32.4 0V0.5C34.1121 0.5 35.5 1.88792 35.5 3.6H36H36.5C36.5 1.33563 34.6644 -0.5 32.4 -0.5V0ZM3.6 0V-0.5C1.33563 -0.5 -0.5 1.33563 -0.5 3.6H0H0.5C0.5 1.88792 1.88792 0.5 3.6 0.5V0Z" fill="#98A1AA" mask="url(#path-1-inside-1_10712_2701)"/>
<path d="M10.7676 21.9644C11.6846 21.9646 12.4277 22.7084 12.4277 23.6255C12.4275 24.5423 11.6844 25.2854 10.7676 25.2856C9.85053 25.2856 9.10667 24.5425 9.10645 23.6255C9.10645 22.7083 9.85039 21.9644 10.7676 21.9644ZM28.499 23.5718V23.6782H18.749V23.5718H28.499ZM10.7676 10.7144C11.6846 10.7146 12.4277 11.4584 12.4277 12.3755C12.4275 13.2923 11.6844 14.0354 10.7676 14.0356C9.85053 14.0356 9.10667 13.2925 9.10645 12.3755C9.10645 11.4583 9.85039 10.7144 10.7676 10.7144ZM28.499 12.3218V12.4282H18.749V12.3218H28.499Z" stroke="#373D43" stroke-width="1.5"/>
</svg>
