<svg width="25" height="19" viewBox="0 0 25 19" fill="none" xmlns="http://www.w3.org/2000/svg">
<path d="M11.2695 3.18652C12.3531 3.18652 13.393 3.61664 14.1592 4.38281C14.9254 5.14899 15.3555 6.18893 15.3555 7.27246C15.3554 8.35581 14.9252 9.39505 14.1592 10.1611L12.9854 11.334L12.9014 11.25L14.0781 10.0557L14.0791 10.0566C14.4495 9.68586 14.7424 9.24459 14.9414 8.75977C15.1155 8.33558 15.2144 7.88484 15.2344 7.42773L15.2383 7.23145C15.2459 6.7141 15.1511 6.20026 14.959 5.71973C14.7644 5.23315 14.4733 4.7903 14.1045 4.41797L14.1035 4.41699L13.9619 4.28125C13.6249 3.97457 13.2371 3.728 12.8154 3.55273C12.3333 3.35236 11.8161 3.24902 11.2939 3.24902C10.7718 3.24903 10.2546 3.35236 9.77246 3.55273C9.29097 3.75287 8.85337 4.04566 8.48535 4.41504L2.05664 10.8438C1.68725 11.2118 1.39448 11.6494 1.19434 12.1309C0.993972 12.613 0.890641 13.1302 0.890625 13.6523C0.890625 14.1745 0.993957 14.6917 1.19434 15.1738C1.3942 15.6547 1.68697 16.0913 2.05566 16.459V16.46C2.42396 16.8299 2.86168 17.1239 3.34375 17.3242C3.82586 17.5246 4.34315 17.6269 4.86523 17.627C5.38732 17.627 5.9046 17.5245 6.38672 17.3242C6.6353 17.2209 6.8712 17.091 7.09277 16.9404L7.17188 17.0195C6.49069 17.4832 5.68124 17.7371 4.8457 17.7363H4.83594C3.82496 17.749 2.84769 17.3851 2.09277 16.7197L1.94531 16.582C1.56757 16.205 1.26755 15.7575 1.0625 15.2646C0.856403 14.7691 0.75 14.2369 0.75 13.7002C0.750063 13.1637 0.856465 12.6321 1.0625 12.1367C1.26859 11.6414 1.5707 11.1917 1.95117 10.8135L1.95215 10.8115L8.38086 4.38281C9.14694 3.6168 10.1862 3.18662 11.2695 3.18652ZM19.3096 0.75C19.8454 0.75 20.3762 0.85603 20.8711 1.06152C21.3658 1.26698 21.8152 1.56785 22.1934 1.94727L22.1953 1.94922C22.9595 2.71071 23.3899 3.74446 23.3926 4.82324C23.3951 5.90137 22.9705 6.93713 22.2109 7.70215L15.7822 14.1309H15.7812C15.4012 14.5114 14.9494 14.8126 14.4521 15.0176C13.9548 15.2226 13.4217 15.3274 12.8838 15.3252H12.877C11.8654 15.3311 10.8902 14.9601 10.1396 14.2891L9.99316 14.1514C9.61467 13.7736 9.31446 13.325 9.10938 12.8311C8.90389 12.3362 8.79785 11.8054 8.79785 11.2695C8.7979 10.7339 8.904 10.2037 9.10938 9.70898C9.31487 9.2141 9.61555 8.76399 9.99512 8.38574L9.99609 8.38477L10.6045 7.77539L10.6826 7.85449L10.0762 8.46582C9.33251 9.21079 8.91509 10.2208 8.91602 11.2734C8.91696 12.326 9.3361 13.3355 10.0811 14.0791C10.826 14.8227 11.8361 15.2402 12.8887 15.2393C13.9412 15.2383 14.9497 14.8182 15.6934 14.0732L22.1221 7.64551C22.4908 7.27673 22.7838 6.83923 22.9834 6.35742C23.183 5.87555 23.2852 5.35849 23.2852 4.83691C23.2851 4.31551 23.1829 3.79911 22.9834 3.31738C22.7838 2.8356 22.4908 2.39806 22.1221 2.0293C21.7534 1.66059 21.3157 1.36756 20.834 1.16797C20.3521 0.968369 19.8351 0.865234 19.3135 0.865234C18.792 0.865256 18.2757 0.968433 17.7939 1.16797C17.545 1.27108 17.3079 1.39938 17.0859 1.5498L17.0029 1.4668C17.236 1.30654 17.4856 1.17053 17.748 1.06152C18.2429 0.856037 18.7737 0.750007 19.3096 0.75Z" stroke="#373D43" stroke-width="1.5"/>
</svg>
