<svg width="26" height="26" viewBox="0 0 26 26" fill="none" xmlns="http://www.w3.org/2000/svg">
<path d="M4.07129 21.6431H7.28516V21.7505H3.96387V19.2856C3.96389 19.1391 4.00155 18.9965 4.07129 18.8706V21.6431ZM4.82129 18.4282H6.84375C6.71768 18.4981 6.57445 18.5356 6.42773 18.5356H4.40723C4.5329 18.4663 4.6752 18.4282 4.82129 18.4282ZM23.3564 18.4282V18.5356H13.6064V18.4282H23.3564ZM7.17773 15.6558C7.24766 15.7819 7.28516 15.925 7.28516 16.0718V17.6782C7.28516 17.8247 7.24736 17.9674 7.17773 18.0933V15.6558ZM6.42773 15.2144C6.57443 15.2144 6.7177 15.2519 6.84375 15.3218H3.96387V15.2144H6.42773ZM5.67773 3.96436V10.3931H7.28516V10.5005H3.96387V10.3931H5.57129V4.87549H3.96387V4.76807H5.57129V3.96436H5.67773ZM23.3564 7.17822V7.28564H13.6064V7.17822H23.3564Z" stroke="#373D43" stroke-width="1.5"/>
</svg>
