<svg width="30" height="30" viewBox="0 0 30 30" fill="none" xmlns="http://www.w3.org/2000/svg">
<path d="M4 0.375H26C28.002 0.375 29.625 1.99797 29.625 4V26C29.625 28.002 28.002 29.625 26 29.625H4C1.99797 29.625 0.375 28.002 0.375 26V4C0.375 1.99797 1.99797 0.375 4 0.375Z" fill="white"/>
<path d="M4 0.375H26C28.002 0.375 29.625 1.99797 29.625 4V26C29.625 28.002 28.002 29.625 26 29.625H4C1.99797 29.625 0.375 28.002 0.375 26V4C0.375 1.99797 1.99797 0.375 4 0.375Z" stroke="#252C34" stroke-width="0.75"/>
<path d="M28.4992 1.50317L1.50015 28.5016" stroke="#252C34" stroke-width="0.75"/>
</svg>
