<svg width="26" height="26" viewBox="0 0 26 26" fill="none" xmlns="http://www.w3.org/2000/svg">
<path d="M22.4996 12.0535H14.4285C14.0717 11.9576 13.7133 11.8678 13.3533 11.7843C11.0969 11.2507 9.82083 10.8602 9.82083 9.03368C9.80251 8.71838 9.84919 8.40267 9.95798 8.10616C10.0668 7.80965 10.2353 7.53866 10.4532 7.31002C11.1358 6.74873 11.9907 6.43944 12.8744 6.43413C15.1485 6.37788 16.1972 7.14931 17.0546 8.32252L18.3524 7.37431C17.7449 6.50191 16.9167 5.80642 15.9524 5.35888C14.9882 4.91133 13.9224 4.72779 12.864 4.82699C11.5638 4.83529 10.3096 5.30876 9.32824 6.16172C8.95631 6.53899 8.6656 6.98846 8.47405 7.4824C8.2825 7.97634 8.19416 8.50429 8.21449 9.03368C8.17925 9.61297 8.28807 10.192 8.53122 10.7189C8.77437 11.2459 9.14427 11.7044 9.60789 12.0535H3.21387V13.6606H14.1842C15.7649 14.1187 16.7099 14.7149 16.734 16.359C16.7601 16.7102 16.7119 17.063 16.5925 17.3943C16.4732 17.7257 16.2854 18.0281 16.0413 18.282C15.191 18.9523 14.1345 19.307 13.052 19.2856C12.244 19.2622 11.4519 19.0554 10.7357 18.6808C10.0194 18.3061 9.39771 17.7735 8.91762 17.1232L7.68574 18.155C8.3099 18.9868 9.11521 19.6656 10.0407 20.1399C10.9661 20.6143 11.9874 20.8717 13.0271 20.8928H13.1074C14.5915 20.9098 16.0318 20.3908 17.1639 19.4311C17.5656 19.026 17.878 18.5411 18.0808 18.0078C18.2836 17.4745 18.3722 16.9046 18.3411 16.3349C18.3711 15.3604 18.0423 14.4088 17.417 13.6606H22.4996V12.0535Z" fill="#373D43"/>
</svg>
