<svg width="20" height="19" viewBox="0 0 20 19" fill="none" xmlns="http://www.w3.org/2000/svg">
<path d="M18.5361 17.625V17.7324H0.75V17.625H18.5361ZM4.875 0.75V8.83887C4.875 10.1034 5.37734 11.3168 6.27148 12.2109C7.16555 13.1049 8.37823 13.6073 9.64258 13.6074C10.9071 13.6074 12.1205 13.1051 13.0146 12.2109C13.9088 11.3168 14.4111 10.1033 14.4111 8.83887V0.75H14.5176V8.83887C14.5176 10.1318 14.004 11.3719 13.0898 12.2861C12.1756 13.2004 10.9355 13.7139 9.64258 13.7139C8.34975 13.7138 7.10949 13.2003 6.19531 12.2861C5.28129 11.3719 4.76758 10.1316 4.76758 8.83887V0.75H4.875Z" stroke="#373D43" stroke-width="1.5"/>
</svg>
