<svg width="18" height="19" viewBox="0 0 18 19" fill="none">
  <path
    d="M6.75 6.125H13.6041L11.5864 4.10787L12.375 3.3125L15.75 6.6875L12.375 10.0625L11.5864 9.26656L13.6024 7.25H6.75C5.85489 7.25 4.99645 7.60558 4.36351 8.23851C3.73058 8.87145 3.375 9.72989 3.375 10.625C3.375 11.5201 3.73058 12.3786 4.36351 13.0115C4.99645 13.6444 5.85489 14 6.75 14H11.25V15.125H6.75C5.55653 15.125 4.41193 14.6509 3.56802 13.807C2.72411 12.9631 2.25 11.8185 2.25 10.625C2.25 9.43153 2.72411 8.28693 3.56802 7.44302C4.41193 6.59911 5.55653 6.125 6.75 6.125Z"
    fill="black"
  />
</svg>
