<svg width="12" height="12" viewBox="0 0 12 12" fill="none">
  <path
    d="M11.8626 11.8683C11.7766 11.953 11.6608 12.0006 11.5401 12.0008C11.4178 12.0003 11.3003 11.9529 11.2119 11.8683L8.72417 9.37488C7.67645 10.2549 6.32945 10.6965 4.96408 10.6075C3.59872 10.5185 2.32041 9.90585 1.39578 8.89729C0.471145 7.88873 -0.0284287 6.56214 0.00125056 5.1942C0.0309298 3.82626 0.58757 2.52259 1.55508 1.55508C2.52259 0.58757 3.82626 0.0309298 5.1942 0.00125056C6.56214 -0.0284287 7.88873 0.471145 8.89729 1.39578C9.90585 2.32041 10.5185 3.59872 10.6075 4.96408C10.6965 6.32945 10.2549 7.67646 9.37488 8.72417L11.8626 11.2119C11.9061 11.2547 11.9407 11.3058 11.9643 11.3622C11.9879 11.4185 12 11.479 12 11.5401C12 11.6012 11.9879 11.6617 11.9643 11.718C11.9407 11.7744 11.9061 11.8255 11.8626 11.8683ZM5.32088 9.69736C6.18647 9.69736 7.03261 9.44068 7.75232 8.95979C8.47203 8.4789 9.03297 7.79538 9.36422 6.99569C9.69547 6.19599 9.78213 5.31602 9.61327 4.46707C9.4444 3.61812 9.02758 2.8383 8.41552 2.22624C7.80346 1.61418 7.02364 1.19736 6.17469 1.02849C5.32573 0.859623 4.44577 0.946292 3.64607 1.27754C2.84637 1.60878 2.16286 2.16973 1.68197 2.88944C1.20107 3.60915 0.944398 4.45529 0.944398 5.32088C0.945921 6.48113 1.4075 7.59342 2.22792 8.41384C3.04834 9.23426 4.16063 9.69584 5.32088 9.69736Z"
    fill="#373D43"
  />
</svg>
