<svg width="16" height="17" viewBox="0 0 16 17" fill="none">
  <path
    d="M13.4048 13.9099C13.3294 13.9842 13.2279 14.0259 13.122 14.0261C13.0147 14.0256 12.9117 13.984 12.8341 13.9099L10.6521 11.7229C9.73314 12.4947 8.55166 12.882 7.35407 12.804C6.15649 12.7259 5.03527 12.1886 4.22426 11.304C3.41325 10.4193 2.97506 9.25576 3.0011 8.05591C3.02713 6.85607 3.51537 5.7126 4.36398 4.86398C5.2126 4.01537 6.35607 3.52713 7.55591 3.5011C8.75576 3.47506 9.91933 3.91325 10.804 4.72426C11.6886 5.53527 12.2259 6.65649 12.304 7.85408C12.382 9.05166 11.9947 10.2331 11.2229 11.1521L13.4048 13.3341C13.443 13.3717 13.4733 13.4165 13.494 13.4659C13.5147 13.5154 13.5254 13.5684 13.5254 13.622C13.5254 13.6756 13.5147 13.7286 13.494 13.7781C13.4733 13.8275 13.443 13.8723 13.4048 13.9099ZM7.66703 12.0057C8.42625 12.0057 9.16842 11.7806 9.79968 11.3588C10.431 10.937 10.923 10.3375 11.2135 9.63603C11.504 8.9346 11.5801 8.16277 11.4319 7.41814C11.2838 6.67351 10.9182 5.98952 10.3814 5.45267C9.84454 4.91582 9.16055 4.55022 8.41592 4.40211C7.67129 4.25399 6.89946 4.33001 6.19803 4.62055C5.4966 4.91109 4.89708 5.4031 4.47528 6.03437C4.05348 6.66564 3.82835 7.40781 3.82835 8.16703C3.82968 9.1847 4.23454 10.1603 4.95415 10.8799C5.67375 11.5995 6.64936 12.0044 7.66703 12.0057Z"
    fill="#373D43"
  />
</svg>
