<svg width="14" height="15" viewBox="0 0 14 15" fill="none">
  <path
    d="M12.625 14.25H1.375C1.07673 14.2497 0.790761 14.1311 0.57985 13.9201C0.36894 13.7092 0.250313 13.4233 0.25 13.125V4.6875C0.250313 4.38923 0.36894 4.10326 0.57985 3.89235C0.790761 3.68144 1.07673 3.56281 1.375 3.5625H4.56241C4.80588 3.56289 5.04273 3.6418 5.2378 3.7875L7.18759 5.25H12.625C12.9233 5.25031 13.2092 5.36894 13.4201 5.57985C13.6311 5.79076 13.7497 6.07673 13.75 6.375V13.125C13.7497 13.4233 13.6311 13.7092 13.4201 13.9201C13.2092 14.1311 12.9233 14.2497 12.625 14.25ZM4.56241 4.6875H1.37416L1.375 13.125H12.625V6.375H6.81241L4.56241 4.6875Z"
    fill="black"
  />
  <path
    d="M13.75 3.5625H7.93741L5.68741 1.875H1.375V0.75H5.68741C5.93088 0.750395 6.16773 0.8293 6.3628 0.975L8.31259 2.4375H13.75V3.5625Z"
    fill="black"
  />
</svg>
