<svg width="16" height="17" viewBox="0 0 16 17" fill="none">
  <path
    d="M13 14.5H3C2.73487 14.4997 2.48068 14.3943 2.2932 14.2068C2.10572 14.0193 2.00028 13.7651 2 13.5V6C2.00028 5.73487 2.10572 5.48068 2.2932 5.2932C2.48068 5.10572 2.73487 5.00028 3 5H5.83325C6.04967 5.00035 6.26021 5.07049 6.4336 5.2L8.16675 6.5H13C13.2651 6.50028 13.5193 6.60572 13.7068 6.7932C13.8943 6.98068 13.9997 7.23487 14 7.5V13.5C13.9997 13.7651 13.8943 14.0193 13.7068 14.2068C13.5193 14.3943 13.2651 14.4997 13 14.5ZM5.83325 6H2.99925L3 13.5H13V7.5H7.83325L5.83325 6Z"
    fill="black"
  />
  <path
    d="M14 5H8.83325L6.83325 3.5H3V2.5H6.83325C7.04967 2.50035 7.26021 2.57049 7.4336 2.7L9.16675 4H14V5Z"
    fill="black"
  />
</svg>
