<svg width="11" height="11" viewBox="0 0 11 11" fill="none" xmlns="http://www.w3.org/2000/svg">
<path d="M10.4048 10.4099C10.3294 10.4842 10.2279 10.5259 10.122 10.5261C10.0147 10.5256 9.91166 10.484 9.83409 10.4099L7.65211 8.22286C6.73314 8.99474 5.55166 9.38204 4.35407 9.304C3.15649 9.22595 2.03527 8.68858 1.22426 7.80395C0.413249 6.91933 -0.0249353 5.75576 0.00109689 4.55591C0.027129 3.35607 0.515367 2.2126 1.36398 1.36398C2.2126 0.515367 3.35607 0.027129 4.55591 0.00109689C5.75576 -0.0249353 6.91933 0.413249 7.80395 1.22426C8.68857 2.03527 9.22595 3.15649 9.304 4.35408C9.38204 5.55166 8.99474 6.73314 8.22286 7.65211L10.4048 9.8341C10.443 9.87169 10.4733 9.91651 10.494 9.96594C10.5147 10.0154 10.5254 10.0684 10.5254 10.122C10.5254 10.1756 10.5147 10.2286 10.494 10.2781C10.4733 10.3275 10.443 10.3723 10.4048 10.4099ZM4.66703 8.50571C5.42625 8.50571 6.16842 8.28057 6.79968 7.85878C7.43095 7.43698 7.92297 6.83746 8.21351 6.13603C8.50405 5.4346 8.58007 4.66277 8.43195 3.91814C8.28383 3.17351 7.91823 2.48952 7.38138 1.95267C6.84454 1.41582 6.16055 1.05022 5.41592 0.902106C4.67129 0.753989 3.89946 0.830008 3.19803 1.12055C2.4966 1.41109 1.89708 1.9031 1.47528 2.53437C1.05348 3.16564 0.828346 3.90781 0.828346 4.66703C0.829683 5.6847 1.23454 6.66031 1.95415 7.37991C2.67375 8.09951 3.64936 8.50437 4.66703 8.50571Z" fill="#373D43"/>
</svg>
