<svg
  width="16"
  height="17"
  viewBox="0 0 16 17"
  fill="none"
  xmlns="http://www.w3.org/2000/svg"
>
  <path
    fill-rule="evenodd"
    clip-rule="evenodd"
    d="M7.58256 2.49976C6.24492 2.59409 5.02808 3.12634 4.07436 3.9541L4.9274 4.80766C5.65947 4.19484 6.57652 3.79592 7.58256 3.70698V2.49976ZM9.39293 3.88965C9.08704 3.798 8.76836 3.736 8.4402 3.70699V2.49976C8.92534 2.53397 9.39458 2.62579 9.84115 2.76841L9.39293 3.88965ZM11.0957 4.80803C10.8183 4.57577 10.5144 4.37422 10.1891 4.20861L10.6373 3.08739C11.1129 3.31887 11.5535 3.61126 11.9488 3.95444L11.0957 4.80803ZM12.8017 8.07208C12.713 7.06523 12.3144 6.14742 11.7019 5.41473L12.555 4.56116C13.3821 5.51568 13.9138 6.73346 14.0078 8.07208H12.8017ZM12.6191 9.88248C12.7106 9.57658 12.7725 9.25788 12.8015 8.92972H14.0076C13.9734 9.4149 13.8816 9.88418 13.7391 10.3308L12.6191 9.88248ZM10.1888 12.7919C11.0969 12.3297 11.8386 11.5874 12.3005 10.6788L13.4205 11.1271C12.8316 12.3389 11.8478 13.3231 10.6367 13.9124L10.1888 12.7919ZM8.44019 13.2933C8.76825 13.2643 9.08685 13.2024 9.39266 13.1108L9.84059 14.2313C9.39419 14.3738 8.92513 14.4656 8.44019 14.4998V13.2933ZM4.9274 12.1927C5.65947 12.8055 6.57652 13.2044 7.58255 13.2934V14.4998C6.24512 14.4054 5.02846 13.8733 4.0748 13.0458L4.9274 12.1927ZM3.7222 10.6788C3.88766 11.0043 4.08905 11.3085 4.32113 11.586L3.46851 12.4392C3.12564 12.0437 2.8335 11.6029 2.60223 11.1271L3.7222 10.6788ZM3.40362 7.11783C3.27262 7.55566 3.20224 8.01969 3.20224 8.50017C3.20224 8.98065 3.27262 9.44468 3.40362 9.8825L2.28359 10.3308C2.09941 9.75345 2 9.13822 2 8.49975C2 7.86156 2.09933 7.24658 2.28336 6.66945L3.40362 7.11783ZM4.32113 5.41429C4.08905 5.69187 3.88766 5.99603 3.7222 6.32155L2.60189 5.87315C2.83313 5.39722 3.12525 4.95637 3.46812 4.56076L4.32113 5.41429Z"
    fill="#000000"
  />
  <path
    fill-rule="evenodd"
    clip-rule="evenodd"
    d="M5.51367 5.39601C6.07143 4.94918 6.75537 4.6535 7.50348 4.57104V5.68759C7.05945 5.75674 6.65038 5.93157 6.30274 6.18556L5.51367 5.39601ZM5.69653 6.79225L4.90742 6.00265C4.37686 6.66577 4.05957 7.50714 4.05957 8.42266C4.05957 9.33823 4.3769 10.1796 4.90751 10.8428L5.69678 10.053C5.36306 9.59569 5.16609 9.03209 5.16609 8.42246C5.16609 7.81298 5.36296 7.24951 5.69653 6.79225ZM6.30309 10.6596L5.51379 11.4494C6.07152 11.8962 6.75542 12.1918 7.50348 12.2743V11.1573C7.0596 11.0882 6.65065 10.9135 6.30309 10.6596ZM8.36113 11.1573V12.2743C10.1574 12.0763 11.5838 10.649 11.7816 8.85158H10.6655C10.4812 10.0367 9.54548 10.9729 8.36113 11.1573ZM10.6656 7.99394H11.7816C11.6992 7.24528 11.4037 6.56083 10.9572 6.00267L10.1681 6.79223C10.4219 7.14015 10.5966 7.54956 10.6656 7.99394ZM9.56188 6.18555L10.3509 5.39602C9.79317 4.94919 9.10923 4.65351 8.36113 4.57105V5.68759C8.80516 5.75673 9.21424 5.93156 9.56188 6.18555Z"
    fill="#000000"
  />
  <path
    fill-rule="evenodd"
    clip-rule="evenodd"
    d="M7.41635 6.67236C6.67054 6.86316 6.11914 7.54002 6.11914 8.34574C6.11914 9.2996 6.89191 10.0728 7.84518 10.0728C8.65035 10.0728 9.32675 9.52119 9.51749 8.77501H7.84518H7.41635V8.34619V6.67236ZM9.51771 7.91736C9.36228 7.30795 8.88294 6.82814 8.274 6.67236V7.91736H9.51771Z"
    fill="#000000"
  />
</svg>
