<svg width="16" height="16" viewBox="0 0 16 16" fill="none">
  <g clip-path="url(#clip0_2872_17825)">
    <path
      d="M1.30078 3L3.40078 3V3.53333L3.40078 4.56667L3.40078 5.1L1.30078 5.1V4.56667L1.30078 3.53333L1.30078 3Z"
      stroke="#373D43"
    />
    <path
      d="M1.30078 10.9004H3.40078V11.4337L3.40078 12.4671L3.40078 13.0004H1.30078V12.4671L1.30078 11.4337L1.30078 10.9004Z"
      stroke="#373D43"
    />
    <path
      d="M6.90039 3L9.00039 3V3.53333V4.56667L9.00039 5.1H6.90039V4.56667V3.53333V3Z"
      stroke="#373D43"
    />
    <path
      d="M6.90039 10.9004H9.00039V11.4337V12.4671L9.00039 13.0004H6.90039V12.4671V11.4337V10.9004Z"
      stroke="#373D43"
    />
    <path
      d="M14.5996 6.90039L14.5996 9.00039L14.0663 9.00039L13.0329 9.00039L12.4996 9.00039L12.4996 6.90039L13.0329 6.90039L14.0663 6.90039L14.5996 6.90039Z"
      stroke="#373D43"
    />
    <path
      d="M9.79693 8.02119L7.88215 10.6004M9.79693 8.02119L7.88215 5.40039M9.79693 8.02119H4.21557M9.79693 8.02119H12.0008M4.21557 8.02119L2.30078 10.6004M4.21557 8.02119L2.30078 5.40039"
      stroke="#373D43"
      stroke-linecap="round"
    />
  </g>
  <defs>
    <clipPath id="clip0_2872_17825">
      <rect width="16" height="16" fill="white" />
    </clipPath>
  </defs>
</svg>
