<svg width="16" height="17" viewBox="0 0 16 17" fill="none">
  <path
    d="M2.80005 3.49981C2.80005 3.38935 2.88959 3.2998 3.00005 3.2998H8.00005H13C13.1105 3.2998 13.2 3.38935 13.2 3.4998V8.4998V13.4998C13.2 13.6103 13.1105 13.6998 13 13.6998H8.00005H3.00005C2.88959 13.6998 2.80005 13.6103 2.80005 13.4998V8.4998V3.49981Z"
    stroke="#000000"
  />
  <path d="M4.3999 2.7998V8.4998" stroke="#000000" />
  <path d="M9.80005 8.5V14.2" stroke="#000000" />
  <path d="M13.7 5L7.99995 5" stroke="#000000" />
  <path d="M8 10.2998L2.3 10.2998" stroke="#000000" />
  <path d="M6.19995 2.7998V8.4998" stroke="#000000" />
  <path d="M11.6001 8.5V14.2" stroke="#000000" />
  <path d="M13.7 6.7998L7.99995 6.7998" stroke="#000000" />
  <path d="M8 12.1001L2.3 12.1001" stroke="#000000" />
</svg>
