<svg width="18" height="18" viewBox="0 0 18 18">
  <path
    fill-rule="evenodd"
    clip-rule="evenodd"
    d="M11.218 11.281C11.6067 10.8773 12.1271 10.6263 12.685 10.5734C13.2429 10.5205 13.8012 10.6692 14.2589 10.9926C14.7165 11.316 15.0431 11.7927 15.1795 12.3362C15.3159 12.8797 15.253 13.4541 15.0023 13.9553C14.7516 14.4564 14.3296 14.8512 13.8128 15.0679C13.296 15.2847 12.7187 15.3091 12.1855 15.1367C11.6523 14.9644 11.1985 14.6067 10.9063 14.1285C10.6141 13.6503 10.503 13.0833 10.593 12.5302L6.78601 10.6216C6.46237 10.9594 6.04504 11.1926 5.58774 11.2912C5.13044 11.3898 4.65409 11.3493 4.22001 11.1749C3.78592 11.0005 3.41395 10.7002 3.15197 10.3127C2.89 9.92508 2.75 9.46798 2.75 9.00017C2.75 8.53236 2.89 8.07525 3.15197 7.68767C3.41395 7.3001 3.78592 6.99979 4.22001 6.82539C4.65409 6.651 5.13044 6.6105 5.58774 6.70911C6.04504 6.80772 6.46237 7.04092 6.78601 7.37871L10.593 5.47014C10.503 4.91704 10.6141 4.34999 10.9063 3.8718C11.1985 3.39361 11.6523 3.03592 12.1855 2.86359C12.7187 2.69125 13.296 2.71567 13.8128 2.93242C14.3296 3.14917 14.7516 3.5439 15.0023 4.04505C15.253 4.54621 15.3159 5.12061 15.1795 5.66414C15.0431 6.20767 14.7165 6.68434 14.2589 7.00774C13.8012 7.33114 13.2429 7.47987 12.685 7.42696C12.1271 7.37405 11.6067 7.12301 11.218 6.71934L7.40788 8.624C7.44801 8.87291 7.44801 9.12664 7.40788 9.37555L11.218 11.2802V11.281ZM12.9062 5.87482C13.1134 5.87482 13.3121 5.79251 13.4587 5.646C13.6052 5.49949 13.6875 5.30078 13.6875 5.09358C13.6875 4.88638 13.6052 4.68767 13.4587 4.54116C13.3121 4.39465 13.1134 4.31234 12.9062 4.31234C12.699 4.31234 12.5003 4.39465 12.3538 4.54116C12.2073 4.68767 12.125 4.88638 12.125 5.09358C12.125 5.30078 12.2073 5.49949 12.3538 5.646C12.5003 5.79251 12.699 5.87482 12.9062 5.87482ZM12.9062 13.6872C13.1134 13.6872 13.3121 13.6049 13.4587 13.4584C13.6052 13.3119 13.6875 13.1132 13.6875 12.906C13.6875 12.6988 13.6052 12.5001 13.4587 12.3535C13.3121 12.207 13.1134 12.1247 12.9062 12.1247C12.699 12.1247 12.5003 12.207 12.3538 12.3535C12.2073 12.5001 12.125 12.6988 12.125 12.906C12.125 13.1132 12.2073 13.3119 12.3538 13.4584C12.5003 13.6049 12.699 13.6872 12.9062 13.6872ZM5.09385 9.78101C5.30105 9.78101 5.49976 9.69871 5.64627 9.5522C5.79278 9.40568 5.87509 9.20697 5.87509 8.99978C5.87509 8.79258 5.79278 8.59387 5.64627 8.44736C5.49976 8.30085 5.30105 8.21854 5.09385 8.21854C4.88665 8.21854 4.68794 8.30085 4.54143 8.44736C4.39492 8.59387 4.31261 8.79258 4.31261 8.99978C4.31261 9.20697 4.39492 9.40568 4.54143 9.5522C4.68794 9.69871 4.88665 9.78101 5.09385 9.78101Z"
    fill="#252C34"
  />
</svg>
