<svg width="32" height="32" viewBox="0 0 32 32" fill="none" xmlns="http://www.w3.org/2000/svg">
<rect width="32" height="32" rx="8" fill="#F1F3F4"/>
<path fill-rule="evenodd" clip-rule="evenodd" d="M19.1939 19.2846C19.7536 18.7033 20.503 18.3418 21.3064 18.2657C22.1097 18.1895 22.9138 18.4036 23.5728 18.8693C24.2318 19.335 24.7021 20.0214 24.8985 20.8041C25.0949 21.5868 25.0044 22.4139 24.6433 23.1356C24.2823 23.8573 23.6746 24.4257 22.9304 24.7378C22.1863 25.0499 21.355 25.0851 20.5871 24.8369C19.8193 24.5888 19.1658 24.0737 18.7451 23.3851C18.3244 22.6965 18.1643 21.8799 18.2939 21.0835L12.8119 18.3351C12.3458 18.8216 11.7449 19.1574 11.0863 19.2994C10.4278 19.4414 9.7419 19.383 9.11681 19.1319C8.49172 18.8808 7.95609 18.4483 7.57884 17.8902C7.2016 17.3321 7 16.6739 7 16.0002C7 15.3266 7.2016 14.6684 7.57884 14.1102C7.95609 13.5521 8.49172 13.1197 9.11681 12.8686C9.7419 12.6174 10.4278 12.5591 11.0863 12.7011C11.7449 12.8431 12.3458 13.1789 12.8119 13.6653L18.2939 10.917C18.1643 10.1205 18.3244 9.30399 18.7451 8.61539C19.1658 7.9268 19.8193 7.41173 20.5871 7.16356C21.355 6.9154 22.1863 6.95056 22.9304 7.26268C23.6746 7.5748 24.2823 8.14321 24.6433 8.86487C25.0044 9.58654 25.0949 10.4137 24.8985 11.1964C24.7021 11.979 24.2318 12.6654 23.5728 13.1311C22.9138 13.5968 22.1097 13.811 21.3064 13.7348C20.503 13.6586 19.7536 13.2971 19.1939 12.7158L13.7073 15.4586C13.7651 15.817 13.7651 16.1824 13.7073 16.5408L19.1939 19.2835V19.2846ZM21.625 11.4997C21.9233 11.4997 22.2095 11.3812 22.4205 11.1702C22.6314 10.9593 22.75 10.6731 22.75 10.3748C22.75 10.0764 22.6314 9.79025 22.4205 9.57928C22.2095 9.3683 21.9233 9.24977 21.625 9.24977C21.3266 9.24977 21.0405 9.3683 20.8295 9.57928C20.6185 9.79025 20.5 10.0764 20.5 10.3748C20.5 10.6731 20.6185 10.9593 20.8295 11.1702C21.0405 11.3812 21.3266 11.4997 21.625 11.4997ZM21.625 22.7496C21.9233 22.7496 22.2095 22.6311 22.4205 22.4201C22.6314 22.2091 22.75 21.923 22.75 21.6246C22.75 21.3262 22.6314 21.0401 22.4205 20.8291C22.2095 20.6181 21.9233 20.4996 21.625 20.4996C21.3266 20.4996 21.0405 20.6181 20.8295 20.8291C20.6185 21.0401 20.5 21.3262 20.5 21.6246C20.5 21.923 20.6185 22.2091 20.8295 22.4201C21.0405 22.6311 21.3266 22.7496 21.625 22.7496ZM10.3751 17.1247C10.6735 17.1247 10.9597 17.0061 11.1706 16.7952C11.3816 16.5842 11.5001 16.298 11.5001 15.9997C11.5001 15.7013 11.3816 15.4152 11.1706 15.2042C10.9597 14.9932 10.6735 14.8747 10.3751 14.8747C10.0768 14.8747 9.79064 14.9932 9.57966 15.2042C9.36869 15.4152 9.25016 15.7013 9.25016 15.9997C9.25016 16.298 9.36869 16.5842 9.57966 16.7952C9.79064 17.0061 10.0768 17.1247 10.3751 17.1247Z" fill="black"/>
</svg>
