<svg width="14" height="14" viewBox="0 0 14 14" fill="none" xmlns="http://www.w3.org/2000/svg">
<path fill-rule="evenodd" clip-rule="evenodd" d="M9.21798 9.28075C9.60666 8.87708 10.1271 8.62604 10.685 8.57313C11.2429 8.52022 11.8012 8.66895 12.2589 8.99235C12.7165 9.31575 13.0431 9.79242 13.1795 10.336C13.3159 10.8795 13.253 11.4539 13.0023 11.955C12.7516 12.4562 12.3296 12.8509 11.8128 13.0677C11.296 13.2844 10.7187 13.3088 10.1855 13.1365C9.65228 12.9642 9.19846 12.6065 8.9063 12.1283C8.61414 11.6501 8.50299 11.0831 8.59299 10.5299L4.78601 8.62138C4.46237 8.95917 4.04504 9.19237 3.58774 9.29098C3.13044 9.38959 2.65409 9.34909 2.22001 9.1747C1.78592 9.0003 1.41395 8.69999 1.15197 8.31242C0.889997 7.92484 0.75 7.46773 0.75 6.99992C0.75 6.53211 0.889997 6.07501 1.15197 5.68743C1.41395 5.29985 1.78592 4.99954 2.22001 4.82515C2.65409 4.65076 3.13044 4.61026 3.58774 4.70886C4.04504 4.80747 4.46237 5.04068 4.78601 5.37846L8.59299 3.4699C8.50299 2.91679 8.61414 2.34975 8.9063 1.87156C9.19846 1.39336 9.65228 1.03568 10.1855 0.863341C10.7187 0.691005 11.296 0.715424 11.8128 0.932173C12.3296 1.14892 12.7516 1.54365 13.0023 2.04481C13.253 2.54596 13.3159 3.12037 13.1795 3.6639C13.0431 4.20742 12.7165 4.68409 12.2589 5.0075C11.8012 5.3309 11.2429 5.47963 10.685 5.42672C10.1271 5.37381 9.60666 5.12277 9.21798 4.7191L5.40788 6.62376C5.44801 6.87267 5.44801 7.1264 5.40788 7.37531L9.21798 9.27997V9.28075ZM10.9062 3.87458C11.1134 3.87458 11.3121 3.79227 11.4587 3.64576C11.6052 3.49925 11.6875 3.30054 11.6875 3.09334C11.6875 2.88614 11.6052 2.68743 11.4587 2.54092C11.3121 2.39441 11.1134 2.3121 10.9062 2.3121C10.699 2.3121 10.5003 2.39441 10.3538 2.54092C10.2073 2.68743 10.125 2.88614 10.125 3.09334C10.125 3.30054 10.2073 3.49925 10.3538 3.64576C10.5003 3.79227 10.699 3.87458 10.9062 3.87458ZM10.9062 11.687C11.1134 11.687 11.3121 11.6047 11.4587 11.4581C11.6052 11.3116 11.6875 11.1129 11.6875 10.9057C11.6875 10.6985 11.6052 10.4998 11.4587 10.3533C11.3121 10.2068 11.1134 10.1245 10.9062 10.1245C10.699 10.1245 10.5003 10.2068 10.3538 10.3533C10.2073 10.4998 10.125 10.6985 10.125 10.9057C10.125 11.1129 10.2073 11.3116 10.3538 11.4581C10.5003 11.6047 10.699 11.687 10.9062 11.687ZM3.09385 7.78077C3.30105 7.78077 3.49976 7.69846 3.64627 7.55195C3.79278 7.40544 3.87509 7.20673 3.87509 6.99953C3.87509 6.79233 3.79278 6.59362 3.64627 6.44711C3.49976 6.3006 3.30105 6.21829 3.09385 6.21829C2.88665 6.21829 2.68794 6.3006 2.54143 6.44711C2.39492 6.59362 2.31261 6.79233 2.31261 6.99953C2.31261 7.20673 2.39492 7.40544 2.54143 7.55195C2.68794 7.69846 2.88665 7.78077 3.09385 7.78077Z" fill="#373D43"/>
</svg>
