<svg
  width="24"
  height="24"
  viewBox="0 0 24 24"
  fill="none"
  xmlns="http://www.w3.org/2000/svg"
>
  <rect width="24.0002" height="24.0002" rx="12.0001" fill="black" />
  <g clip-path="url(#clip0_5807_81776)">
    <path
      d="M12 7.08139C13.6031 7.08139 13.7912 7.08853 14.4248 7.11712C15.0108 7.14332 15.3276 7.24098 15.5396 7.32434C15.8206 7.43391 16.0207 7.56253 16.2303 7.77214C16.4399 7.98175 16.5709 8.18183 16.6781 8.4629C16.7591 8.67489 16.8591 8.99168 16.8854 9.57763C16.9139 10.2112 16.9211 10.3994 16.9211 12.0024C16.9211 13.6054 16.9139 13.7936 16.8854 14.4272C16.8591 15.0132 16.7615 15.33 16.6781 15.5419C16.5686 15.823 16.4399 16.0231 16.2303 16.2327C16.0207 16.4423 15.8206 16.5733 15.5396 16.6805C15.3276 16.7615 15.0108 16.8615 14.4248 16.8877C13.7912 16.9163 13.6031 16.9235 12 16.9235C10.397 16.9235 10.2088 16.9163 9.57525 16.8877C8.9893 16.8615 8.67251 16.7639 8.46052 16.6805C8.17945 16.5709 7.97937 16.4423 7.76976 16.2327C7.56015 16.0231 7.42915 15.823 7.32196 15.5419C7.24098 15.33 7.14094 15.0132 7.11474 14.4272C7.08615 13.7936 7.07901 13.6054 7.07901 12.0024C7.07901 10.3994 7.08615 10.2112 7.11474 9.57763C7.14094 8.99168 7.2386 8.67489 7.32196 8.4629C7.43153 8.18183 7.56015 7.98175 7.76976 7.77214C7.97937 7.56253 8.17945 7.43153 8.46052 7.32434C8.67251 7.24336 8.9893 7.14332 9.57525 7.11712C10.2088 7.08615 10.3994 7.08139 12 7.08139ZM12 6C10.3708 6 10.166 6.00715 9.52523 6.03573C8.88688 6.06431 8.45099 6.16673 8.06988 6.31441C7.67449 6.46685 7.34102 6.67408 7.00755 7.00755C6.67408 7.34102 6.46924 7.67687 6.31441 8.06988C6.16673 8.45099 6.06431 8.88688 6.03573 9.52761C6.00715 10.166 6 10.3708 6 12C6 13.6293 6.00715 13.8341 6.03573 14.4748C6.06431 15.1132 6.16673 15.5491 6.31441 15.9326C6.46686 16.328 6.67408 16.6614 7.00755 16.9949C7.34102 17.3284 7.67687 17.5332 8.06988 17.688C8.45099 17.8357 8.88688 17.9381 9.52762 17.9667C10.1684 17.9953 10.3708 18.0025 12.0024 18.0025C13.634 18.0025 13.8365 17.9953 14.4772 17.9667C15.1156 17.9381 15.5515 17.8357 15.935 17.688C16.3304 17.5356 16.6638 17.3284 16.9973 16.9949C17.3308 16.6614 17.5356 16.3256 17.6904 15.9326C17.8381 15.5515 17.9405 15.1156 17.9691 14.4748C17.9977 13.8341 18.0048 13.6316 18.0048 12C18.0048 10.3684 17.9977 10.166 17.9691 9.52523C17.9405 8.88688 17.8381 8.45099 17.6904 8.0675C17.538 7.6721 17.3308 7.33863 16.9973 7.00517C16.6638 6.6717 16.328 6.46685 15.935 6.31203C15.5539 6.16435 15.118 6.06193 14.4772 6.03335C13.8341 6.00715 13.6293 6 12 6Z"
      fill="white"
    />
    <path
      d="M12 7.08139C13.6031 7.08139 13.7912 7.08853 14.4248 7.11712C15.0108 7.14332 15.3276 7.24098 15.5396 7.32434C15.8206 7.43391 16.0207 7.56253 16.2303 7.77214C16.4399 7.98175 16.5709 8.18183 16.6781 8.4629C16.7591 8.67489 16.8591 8.99168 16.8854 9.57763C16.9139 10.2112 16.9211 10.3994 16.9211 12.0024C16.9211 13.6054 16.9139 13.7936 16.8854 14.4272C16.8591 15.0132 16.7615 15.33 16.6781 15.5419C16.5686 15.823 16.4399 16.0231 16.2303 16.2327C16.0207 16.4423 15.8206 16.5733 15.5396 16.6805C15.3276 16.7615 15.0108 16.8615 14.4248 16.8877C13.7912 16.9163 13.6031 16.9235 12 16.9235C10.397 16.9235 10.2088 16.9163 9.57525 16.8877C8.9893 16.8615 8.67251 16.7639 8.46052 16.6805C8.17945 16.5709 7.97937 16.4423 7.76976 16.2327C7.56015 16.0231 7.42915 15.823 7.32196 15.5419C7.24098 15.33 7.14094 15.0132 7.11474 14.4272C7.08615 13.7936 7.07901 13.6054 7.07901 12.0024C7.07901 10.3994 7.08615 10.2112 7.11474 9.57763C7.14094 8.99168 7.2386 8.67489 7.32196 8.4629C7.43153 8.18183 7.56015 7.98175 7.76976 7.77214C7.97937 7.56253 8.17945 7.43153 8.46052 7.32434C8.67251 7.24336 8.9893 7.14332 9.57525 7.11712C10.2088 7.08615 10.3994 7.08139 12 7.08139Z"
      fill="white"
    />
    <path
      d="M12.0002 8.9209C10.2995 8.9209 8.91797 10.3 8.91797 12.0031C8.91797 13.7062 10.2971 15.0853 12.0002 15.0853C13.7032 15.0853 15.0824 13.7062 15.0824 12.0031C15.0824 10.3 13.7032 8.9209 12.0002 8.9209ZM12.0002 14.0015C10.895 14.0015 9.99936 13.1059 9.99936 12.0007C9.99936 10.8955 10.895 9.9999 12.0002 9.9999C13.1054 9.9999 14.001 10.8955 14.001 12.0007C14.001 13.1059 13.1054 14.0015 12.0002 14.0015Z"
      fill="black"
    />
    <path
      d="M15.2057 9.51582C15.6029 9.51582 15.925 9.19377 15.925 8.79649C15.925 8.39921 15.6029 8.07715 15.2057 8.07715C14.8084 8.07715 14.4863 8.39921 14.4863 8.79649C14.4863 9.19377 14.8084 9.51582 15.2057 9.51582Z"
      fill="black"
    />
  </g>
  <defs>
    <clipPath id="clip0_5807_81776">
      <rect
        width="12.0001"
        height="12.0001"
        fill="white"
        transform="translate(6 6)"
      />
    </clipPath>
  </defs>
</svg>
