<svg width="32" height="32" viewBox="0 0 32 32" fill="none" xmlns="http://www.w3.org/2000/svg">
    <rect x="0.25" y="0.25" width="31.5" height="31.5" rx="7.75" stroke="#868E96" stroke-width="0.5"/>
    <path fill-rule="evenodd" clip-rule="evenodd" d="M19.708 18.9992H20.502L25.49 23.9992L23.999 25.4902L19.001 20.4992V19.7072L18.725 19.4332C17.588 20.4072 16.115 20.9992 14.5 20.9992C10.91 20.9992 8 18.0892 8 14.4992C8 10.9092 10.91 7.99924 14.5 7.99924C18.09 7.99924 21 10.9092 21 14.4992C21 16.1142 20.407 17.5882 19.432 18.7252L19.708 18.9992ZM10 14.4992C10 16.9852 12.014 18.9992 14.5 18.9992C16.985 18.9992 19 16.9852 19 14.4992C19 12.0142 16.985 9.99923 14.5 9.99923C12.014 9.99923 10 12.0142 10 14.4992Z" fill="black"/>
    <mask id="mask0_4032_10246" style="mask-type:luminance" maskUnits="userSpaceOnUse" x="8" y="8" width="18" height="18">
    <path fill-rule="evenodd" clip-rule="evenodd" d="M19.708 18.9992H20.502L25.49 23.9992L23.999 25.4902L19.001 20.4992V19.7072L18.725 19.4332C17.588 20.4072 16.115 20.9992 14.5 20.9992C10.91 20.9992 8 18.0892 8 14.4992C8 10.9092 10.91 7.99924 14.5 7.99924C18.09 7.99924 21 10.9092 21 14.4992C21 16.1142 20.407 17.5882 19.432 18.7252L19.708 18.9992ZM10 14.4992C10 16.9852 12.014 18.9992 14.5 18.9992C16.985 18.9992 19 16.9852 19 14.4992C19 12.0142 16.985 9.99923 14.5 9.99923C12.014 9.99923 10 12.0142 10 14.4992Z" fill="white"/>
    </mask>
    <g mask="url(#mask0_4032_10246)">
    </g>
</svg>
