<svg width="32" height="32" viewBox="0 0 32 32" fill="none" xmlns="http://www.w3.org/2000/svg">
<rect x="0.25" y="0.25" width="31.5" height="31.5" rx="7.75" stroke="#868E96" stroke-width="0.5"/>
<g clip-path="url(#clip0_4032_10238)">
<path d="M23.35 14.04C22.67 10.59 19.64 8 16 8C13.11 8 10.6 9.64 9.35 12.04C6.34 12.36 4 14.91 4 18C4 21.31 6.69 24 10 24H23C25.76 24 28 21.76 28 19C28 16.36 25.95 14.22 23.35 14.04ZM21 17L16 22L11 17H14V13H18V17H21Z" fill="black"/>
</g>
<defs>
<clipPath id="clip0_4032_10238">
<rect width="24" height="24" fill="white" transform="translate(4 4)"/>
</clipPath>
</defs>
</svg>
