<svg
  width="16"
  height="16"
  viewBox="0 0 16 16"
  fill="none"
  xmlns="http://www.w3.org/2000/svg"
>
  <path
    d="M13.4048 13.4099C13.3294 13.4842 13.2279 13.5259 13.122 13.5261C13.0147 13.5256 12.9117 13.484 12.8341 13.4099L10.6521 11.2229C9.73314 11.9947 8.55166 12.382 7.35407 12.304C6.15649 12.2259 5.03527 11.6886 4.22426 10.804C3.41325 9.91933 2.97506 8.75576 3.0011 7.55591C3.02713 6.35607 3.51537 5.2126 4.36398 4.36398C5.2126 3.51537 6.35607 3.02713 7.55591 3.0011C8.75576 2.97506 9.91933 3.41325 10.804 4.22426C11.6886 5.03527 12.2259 6.15649 12.304 7.35408C12.382 8.55166 11.9947 9.73314 11.2229 10.6521L13.4048 12.8341C13.443 12.8717 13.4733 12.9165 13.494 12.9659C13.5147 13.0154 13.5254 13.0684 13.5254 13.122C13.5254 13.1756 13.5147 13.2286 13.494 13.2781C13.4733 13.3275 13.443 13.3723 13.4048 13.4099ZM7.66703 11.5057C8.42625 11.5057 9.16842 11.2806 9.79968 10.8588C10.431 10.437 10.923 9.83746 11.2135 9.13603C11.504 8.4346 11.5801 7.66277 11.4319 6.91814C11.2838 6.17351 10.9182 5.48952 10.3814 4.95267C9.84454 4.41582 9.16055 4.05022 8.41592 3.90211C7.67129 3.75399 6.89946 3.83001 6.19803 4.12055C5.4966 4.41109 4.89708 4.9031 4.47528 5.53437C4.05348 6.16564 3.82835 6.90781 3.82835 7.66703C3.82968 8.6847 4.23454 9.66031 4.95415 10.3799C5.67375 11.0995 6.64936 11.5044 7.66703 11.5057Z"
    fill="#000000"
  />
</svg>
