<svg width="69" height="68" viewBox="0 0 69 68">
  <path
    d="M47.609 24.4006C46.5931 22.8857 44.8987 21.9812 43.0763 21.9812C40.0658 21.9812 37.6165 24.4341 37.6165 27.4489V30.3509C36.84 29.5518 35.805 29.0095 34.6479 28.8547V12.7236C34.6479 12.324 34.3244 12 33.9254 12C33.5264 12 33.2029 12.324 33.2029 12.7236V28.869C32.0814 29.0405 31.0793 29.5757 30.3233 30.3557V27.4489C30.3233 24.4341 27.874 21.9812 24.8635 21.9812C23.041 21.9812 21.3467 22.8857 20.3308 24.4006C15.0989 32.2023 12.3335 41.2936 12.3335 50.6914V50.8993C12.3335 53.3108 14.2926 55.2727 16.7006 55.2727C24.2122 55.2727 30.3233 49.1527 30.3233 41.6304V33.9434C30.3241 33.9292 30.3275 33.9157 30.3275 33.9013C30.3275 31.8888 31.9625 30.2515 33.9721 30.2515C35.9817 30.2515 37.6152 31.8876 37.6165 33.899V41.6304C37.6165 49.1527 43.7275 55.2727 51.2391 55.2727C53.6472 55.2727 55.6062 53.3108 55.6062 50.8993V50.6914C55.6062 41.2936 52.8408 32.2023 47.609 24.4006ZM28.8782 41.6304C28.8782 48.3549 23.4153 53.8256 16.7006 53.8256C15.0894 53.8256 13.7785 52.5129 13.7785 50.8993V50.6914C13.7785 41.582 16.4591 32.7697 21.5305 25.2073C22.2775 24.0934 23.5234 23.4283 24.8634 23.4283C27.0772 23.4283 28.8782 25.2319 28.8782 27.4489V41.6304ZM54.1612 50.8993C54.1612 52.5129 52.8503 53.8256 51.2391 53.8256C44.5244 53.8256 39.0615 48.3549 39.0615 41.6304V33.9025L39.0616 33.9013L39.0615 33.899V27.4489C39.0615 25.2319 40.8625 23.4283 43.0763 23.4283C44.4163 23.4283 45.6623 24.0934 46.4092 25.2073C51.4807 32.7697 54.1612 41.582 54.1612 50.6914V50.8993Z"
    fill="#868E96"
  />
</svg>
