<svg
  width="44"
  height="44"
  viewBox="0 0 44 44"
  fill="none"
  xmlns="http://www.w3.org/2000/svg"
>
  <rect width="44" height="44" rx="22" fill="#ffffff" />
  <mask
    id="mask0_1824_49107"
    style="mask-type: alpha"
    maskUnits="userSpaceOnUse"
    x="0"
    y="0"
    width="44"
    height="44"
  >
    <circle cx="22" cy="22" r="21.5" fill="#D9D9D9" stroke="black" />
  </mask>
  <g mask="url(#mask0_1824_49107)">
    <path
      d="M30.8253 14.0239C30.168 13.0437 29.0716 12.4584 27.8924 12.4584C25.9444 12.4584 24.3596 14.0456 24.3596 15.9963V17.8741C23.8572 17.357 23.1875 17.0061 22.4388 16.906V6.46819C22.4388 6.20964 22.2294 6 21.9712 6C21.7131 6 21.5037 6.20964 21.5037 6.46819V16.9152C20.778 17.0262 20.1296 17.3725 19.6405 17.8772V15.9963C19.6405 14.0456 18.0556 12.4584 16.1076 12.4584C14.9284 12.4584 13.8321 13.0437 13.1747 14.0239C9.78939 19.0721 8 24.9547 8 31.0356V31.1702C8 32.7305 9.26763 34 10.8258 34C15.6862 34 19.6404 30.04 19.6404 25.1726V20.1987C19.641 20.1895 19.6432 20.1808 19.6432 20.1714C19.6432 18.8692 20.7011 17.8098 22.0014 17.8098C23.3018 17.8098 24.3587 18.8684 24.3596 20.1699V25.1726C24.3596 30.04 28.3138 34 33.1742 34C34.7324 34 36 32.7305 36 31.1702V31.0356C36 24.9547 34.2106 19.0721 30.8253 14.0239ZM18.7054 25.1726C18.7054 29.5237 15.1706 33.0636 10.8258 33.0636C9.78324 33.0636 8.93503 32.2142 8.93503 31.1702V31.0356C8.93503 25.1413 10.6695 19.4392 13.951 14.5459C14.4343 13.8251 15.2405 13.3948 16.1076 13.3948C17.5401 13.3948 18.7054 14.5618 18.7054 15.9963V25.1726ZM35.065 31.1702C35.065 32.2142 34.2168 33.0636 33.1742 33.0636C28.8294 33.0636 25.2946 29.5237 25.2946 25.1726V20.1722L25.2947 20.1714L25.2946 20.1699V15.9963C25.2946 14.5618 26.4599 13.3948 27.8924 13.3948C28.7595 13.3948 29.5657 13.8251 30.049 14.5459C33.3305 19.4392 35.065 25.1413 35.065 31.0356V31.1702Z"
      fill="#868E96"
    />
  </g>
</svg>
