<svg width="18" height="19" viewBox="0 0 18 19" fill="none">
  <path
    d="M11.25 6.125H4.39594L6.41363 4.10787L5.625 3.3125L2.25 6.6875L5.625 10.0625L6.41363 9.26656L4.39762 7.25H11.25C12.1451 7.25 13.0036 7.60558 13.6365 8.23851C14.2694 8.87145 14.625 9.72989 14.625 10.625C14.625 11.5201 14.2694 12.3786 13.6365 13.0115C13.0036 13.6444 12.1451 14 11.25 14H6.75V15.125H11.25C12.4435 15.125 13.5881 14.6509 14.432 13.807C15.2759 12.9631 15.75 11.8185 15.75 10.625C15.75 9.43153 15.2759 8.28693 14.432 7.44302C13.5881 6.59911 12.4435 6.125 11.25 6.125Z"
    fill="black"
  />
</svg>
