<svg width="816" height="406" viewBox="0 0 816 406" fill="none" xmlns="http://www.w3.org/2000/svg">
<g clip-path="url(#clip0_12779_32472)">
<path d="M-3.4082 406H13.0855V387.244H-3.4082V406Z" fill="#E8EEF5"/>
<path d="M18.584 406H35.0777V387.63H18.584V406Z" fill="#E8EEF5"/>
<path d="M55.6934 406H72.187V388.393H55.6934V406Z" fill="#E8EEF5"/>
<path d="M77.6855 406H94.1792V386.017H77.6855V406Z" fill="#E8EEF5"/>
<path d="M114.797 406H131.291V388.393H114.797V406Z" fill="#E8EEF5"/>
<path d="M136.789 406H153.283V381.599H136.789V406Z" fill="#E8EEF5"/>
<path d="M173.898 406H190.392V381.107H173.898V406Z" fill="#E8EEF5"/>
<path d="M195.891 406H212.384V380.105H195.891V406Z" fill="#E8EEF5"/>
<path d="M233 406H249.494V365.409H233V406Z" fill="#E8EEF5"/>
<path d="M254.992 406H271.486V375.881H254.992V406Z" fill="#E8EEF5"/>
<path d="M292.104 406H308.597V378.951H292.104V406Z" fill="#E8EEF5"/>
<path d="M314.096 406H330.589V375.35H314.096V406Z" fill="#E8EEF5"/>
<path d="M351.205 406H367.699V374.456H351.205V406Z" fill="#E8EEF5"/>
<path d="M373.197 406H389.691V367.747H373.197V406Z" fill="#E8EEF5"/>
<path d="M410.307 406H426.8V356.146H410.307V406Z" fill="#E8EEF5"/>
<path d="M432.299 406H448.792V358.997H432.299V406Z" fill="#E8EEF5"/>
<path d="M469.41 406H485.904V356.146H469.41V406Z" fill="#E8EEF5"/>
<path d="M491.402 406H507.896V357.416H491.402V406Z" fill="#E8EEF5"/>
<path d="M528.512 406H545.005V356.146H528.512V406Z" fill="#E8EEF5"/>
<path d="M550.504 406H566.998V351.547H550.504V406Z" fill="#E8EEF5"/>
<path d="M587.615 406H604.109V298.513H587.615V406Z" fill="#E8EEF5"/>
<path d="M609.607 406H626.101V297.756H609.607V406Z" fill="#E8EEF5"/>
<path d="M646.717 406H663.21V254.052H646.717V406Z" fill="#E8EEF5"/>
<path d="M668.709 406H685.203V181.356H668.709V406Z" fill="#E8EEF5"/>
<path d="M705.818 406H722.312V132.607H705.818V406Z" fill="#E8EEF5"/>
<path d="M727.811 405.999H744.304V109.398H727.811V405.999Z" fill="#E8EEF5"/>
<path d="M764.922 406H781.416V12.579H764.922V406Z" fill="#E8EEF5"/>
<path d="M786.914 406H803.408V0.314453H786.914V406Z" fill="#E8EEF5"/>
</g>
<defs>
<clipPath id="clip0_12779_32472">
<rect width="816" height="406" fill="white"/>
</clipPath>
</defs>
</svg>
