<svg width="302" height="150" viewBox="0 0 302 150" fill="none" xmlns="http://www.w3.org/2000/svg">
<path d="M0.777344 150H302" stroke="#E0E6F1" stroke-width="0.217437"/>
<path d="M5 128.625H296" stroke="#E0E6F1" stroke-width="0.217437"/>
<path d="M5 107.154H296" stroke="#E0E6F1" stroke-width="0.217437"/>
<path d="M5 85.6829H296" stroke="#E0E6F1" stroke-width="0.217437"/>
<path d="M5 64.212H296" stroke="#E0E6F1" stroke-width="0.217437"/>
<path d="M5 42.9418H296" stroke="#E0E6F1" stroke-width="0.217437"/>
<path d="M5 21.4708H296" stroke="#E0E6F1" stroke-width="0.217437"/>
<path d="M5 0H296" stroke="#E0E6F1" stroke-width="0.217437"/>
<path d="M5 150H296" stroke="#6E7079" stroke-width="0.217437" stroke-linecap="round"/>
<path d="M5.28711 149.995H10.5056V144.061H5.28711V149.995Z" fill="#787F88"/>
<path d="M12.2441 149.995H17.4626V144.183H12.2441V149.995Z" fill="#787F88"/>
<path d="M26.7324 149.995H31.9509V144.425H26.7324V149.995Z" fill="#787F88"/>
<path d="M33.6895 149.995H38.9079V143.673H33.6895V149.995Z" fill="#787F88"/>
<path d="M48.1777 149.995H53.3962V144.425H48.1777V149.995Z" fill="#787F88"/>
<path d="M55.1348 149.995H60.3533V142.275H55.1348V149.995Z" fill="#787F88"/>
<path d="M69.623 149.995H74.8415V142.119H69.623V149.995Z" fill="#787F88"/>
<path d="M76.5801 149.995H81.7986V141.802H76.5801V149.995Z" fill="#787F88"/>
<path d="M91.0684 149.995H96.2868V137.152H91.0684V149.995Z" fill="#787F88"/>
<path d="M98.0254 149.995H103.244V140.466H98.0254V149.995Z" fill="#787F88"/>
<path d="M112.514 149.995H117.732V141.437H112.514V149.995Z" fill="#787F88"/>
<path d="M119.471 149.995H124.689V140.297H119.471V149.995Z" fill="#787F88"/>
<path d="M133.959 149.995H139.177V140.015H133.959V149.995Z" fill="#787F88"/>
<path d="M140.916 149.995H146.135V137.892H140.916V149.995Z" fill="#787F88"/>
<path d="M155.404 149.995H160.623V134.222H155.404V149.995Z" fill="#787F88"/>
<path d="M162.361 149.995H167.58V135.124H162.361V149.995Z" fill="#787F88"/>
<path d="M176.85 149.995H182.068V134.222H176.85V149.995Z" fill="#787F88"/>
<path d="M183.807 149.995H189.025V134.624H183.807V149.995Z" fill="#787F88"/>
<path d="M198.295 149.995H203.513V134.222H198.295V149.995Z" fill="#787F88"/>
<path d="M205.252 149.995H210.47V132.766H205.252V149.995Z" fill="#787F88"/>
<path d="M219.74 149.995H224.959V115.987H219.74V149.995Z" fill="#787F88"/>
<path d="M226.697 149.995H231.916V115.748H226.697V149.995Z" fill="#787F88"/>
<path d="M241.186 149.995H246.404V101.92H241.186V149.995Z" fill="#787F88"/>
<path d="M248.143 149.995H253.361V78.9193H248.143V149.995Z" fill="#787F88"/>
<path d="M262.631 149.995H267.849V63.4955H262.631V149.995Z" fill="#787F88"/>
<path d="M269.588 149.995H274.806V56.1522H269.588V149.995Z" fill="#787F88"/>
<path d="M284.076 149.995H289.295V25.5194H284.076V149.995Z" fill="#787F88"/>
<path d="M291.033 149.995H296.252V21.639H291.033V149.995Z" fill="#787F88"/>
</svg>
