<svg width="299" height="141" viewBox="0 0 299 141" fill="none" xmlns="http://www.w3.org/2000/svg">
<g opacity="0.75">
<path d="M20.6429 87V78.8159H3.53586L2.51284 72.8483L21.2113 46.9888H28.4292V71.9389H33.2601V78.8159H28.4292V87H20.6429ZM11.5495 71.9389H20.6429V59.0944L11.5495 71.9389ZM53.3519 87.682C43.9174 87.682 37.893 79.6684 37.893 67.5059V66.767C37.893 54.6045 44.0311 46.5341 53.4656 46.5341C62.7864 46.5341 68.9244 54.5477 68.9244 66.7102V67.449C68.9244 79.6116 62.7864 87.682 53.3519 87.682ZM53.4656 80.1799C57.6713 80.1799 60.513 75.7468 60.513 67.3922V66.8807C60.513 58.5261 57.5576 54.0362 53.3519 54.0362C49.1462 54.0362 46.3044 58.4124 46.3044 66.8239V67.3354C46.3044 75.69 49.203 80.1799 53.4656 80.1799ZM79.7163 87V55.4002L73.635 57.0484L72.3278 49.8873L82.1601 46.9319H87.8436V87H79.7163ZM95.7395 87V78.2475H104.549V87H95.7395ZM122.26 87.682C117.145 87.682 112.939 85.8065 109.529 82.6238L114.132 76.4857C116.69 78.7022 119.077 80.0662 122.089 80.0662C125.783 80.0662 128.171 77.8497 128.171 74.2123V74.1555C128.171 70.6318 125.442 68.5289 121.748 68.5289C119.702 68.5289 117.827 69.0972 116.292 69.7793L111.689 66.767L112.825 47.2161H134.593V54.6045H119.645L119.191 61.8225C120.498 61.4815 121.748 61.2541 123.624 61.2541C130.387 61.2541 136.241 64.8915 136.241 73.8145V73.985C136.241 82.4533 130.501 87.682 122.26 87.682ZM154.874 87.5683C146.86 87.5683 140.95 83.1353 140.95 76.1447V75.9742C140.95 70.9728 143.28 68.1879 146.917 66.3692C144.076 64.5505 142.143 61.8225 142.143 57.6736V57.4462C142.143 51.3081 147.258 46.6477 154.874 46.6477C162.433 46.6477 167.605 51.2513 167.605 57.4462V57.6736C167.605 61.8225 165.616 64.5505 162.774 66.3692C166.298 68.3016 168.742 70.9159 168.742 75.8037V76.031C168.742 83.2489 162.831 87.5683 154.874 87.5683ZM154.874 63.4138C157.773 63.4138 159.819 61.3678 159.819 58.2988V58.2419C159.819 55.3434 157.773 53.3542 154.874 53.3542C151.919 53.3542 149.873 55.3434 149.873 58.2419V58.2988C149.873 61.3678 151.919 63.4138 154.874 63.4138ZM154.874 80.8051C158.398 80.8051 160.785 78.7022 160.785 75.4627V75.349C160.785 72.0526 158.227 70.0634 154.874 70.0634C151.464 70.0634 148.963 72.0526 148.963 75.349V75.4627C148.963 78.6454 151.294 80.8051 154.874 80.8051Z" fill="#636A73"/>
<line x1="1.03516" y1="22.0957" x2="299.001" y2="22.0957" stroke="#787F88" stroke-width="0.592022"/>
<line x1="1.03125" y1="110.295" x2="298.997" y2="110.295" stroke="#787F88" stroke-width="0.592022"/>
<rect width="162.524" height="11" rx="5.5" fill="#787F88"/>
<rect y="123" width="262.136" height="6" rx="3" fill="#787F88"/>
<rect y="136" width="213.204" height="6" rx="3" fill="#787F88"/>
</g>
</svg>
