<svg width="816" height="406" viewBox="0 0 816 406" fill="none" xmlns="http://www.w3.org/2000/svg">
<g opacity="0.75">
<path d="M194.895 230.381C185.669 230.381 178.885 226.763 174 221.517L181.87 212.29C185.126 215.728 189.016 218.441 194.624 218.441C199.689 218.441 203.398 215.275 203.398 210.21V210.029C203.398 204.602 198.875 201.436 190.734 201.436H186.935L185.398 193.114L199.327 177.646H177.347V165.978H215.428V176.38L200.594 191.938C208.735 193.566 216.333 198.632 216.333 209.577V209.848C216.333 221.969 207.74 230.381 194.895 230.381ZM251.704 229.296V216.27H224.477L222.849 206.773L252.609 165.616H264.096V205.325H271.785V216.27H264.096V229.296H251.704ZM237.231 205.325H251.704V184.883L237.231 205.325ZM298.156 230.381C290.015 230.381 283.321 227.396 277.894 222.331L285.221 212.562C289.291 216.089 293.09 218.26 297.885 218.26C303.764 218.26 307.563 214.733 307.563 208.944V208.853C307.563 203.245 303.221 199.898 297.342 199.898C294.085 199.898 291.1 200.803 288.658 201.888L281.331 197.094L283.141 165.978H317.785V177.737H293.995L293.271 189.224C295.352 188.682 297.342 188.32 300.327 188.32C311.091 188.32 320.408 194.109 320.408 208.31V208.582C320.408 222.059 311.272 230.381 298.156 230.381ZM329.53 229.296V215.366H343.551V229.296H329.53ZM371.738 230.381C363.598 230.381 356.904 227.396 351.477 222.331L358.803 212.562C362.874 216.089 366.673 218.26 371.467 218.26C377.347 218.26 381.146 214.733 381.146 208.944V208.853C381.146 203.245 376.804 199.898 370.924 199.898C367.668 199.898 364.683 200.803 362.241 201.888L354.914 197.094L356.723 165.978H391.367V177.737H367.578L366.854 189.224C368.934 188.682 370.924 188.32 373.909 188.32C384.673 188.32 393.99 194.109 393.99 208.31V208.582C393.99 222.059 384.854 230.381 371.738 230.381ZM423.646 230.2C410.892 230.2 401.484 223.145 401.484 212.019V211.748C401.484 203.788 405.193 199.355 410.982 196.461C406.459 193.566 403.384 189.224 403.384 182.621V182.26C403.384 172.49 411.525 165.073 423.646 165.073C435.676 165.073 443.908 172.4 443.908 182.26V182.621C443.908 189.224 440.742 193.566 436.219 196.461C441.827 199.536 445.717 203.697 445.717 211.476V211.838C445.717 223.326 436.309 230.2 423.646 230.2ZM423.646 191.757C428.259 191.757 431.515 188.501 431.515 183.616V183.526C431.515 178.913 428.259 175.747 423.646 175.747C418.942 175.747 415.686 178.913 415.686 183.526V183.616C415.686 188.501 418.942 191.757 423.646 191.757ZM423.646 219.436C429.254 219.436 433.053 216.089 433.053 210.934V210.753C433.053 205.506 428.983 202.34 423.646 202.34C418.219 202.34 414.239 205.506 414.239 210.753V210.934C414.239 215.999 417.947 219.436 423.646 219.436Z" fill="#E8EEF5"/>
<line x1="171.648" y1="125.166" x2="645.876" y2="125.166" stroke="#E8EEF5" stroke-width="0.942233"/>
<line x1="171.641" y1="265.54" x2="645.868" y2="265.54" stroke="#E8EEF5" stroke-width="0.942233"/>
<rect x="170" y="90" width="258.666" height="17.507" rx="8.75352" fill="#E8EEF5"/>
<rect x="170" y="285.76" width="417.203" height="9.5493" rx="4.77465" fill="#E8EEF5"/>
<rect x="170" y="306.451" width="339.325" height="9.5493" rx="4.77465" fill="#E8EEF5"/>
</g>
</svg>
