<svg width="302" height="150" viewBox="0 0 302 150" fill="none" xmlns="http://www.w3.org/2000/svg">
<path d="M4 131.39H301" stroke="#E0E6F1" stroke-opacity="0.25" stroke-width="0.228918"/>
<path d="M4 109.856H301" stroke="#E0E6F1" stroke-opacity="0.25" stroke-width="0.228918"/>
<path d="M4 87.246H301" stroke="#E0E6F1" stroke-opacity="0.25" stroke-width="0.228918"/>
<path d="M4 65.7125H301" stroke="#E0E6F1" stroke-opacity="0.25" stroke-width="0.228918"/>
<path d="M4 44.179H301" stroke="#E0E6F1" stroke-opacity="0.25" stroke-width="0.228918"/>
<path d="M4 21.5688H301" stroke="#E0E6F1" stroke-opacity="0.25" stroke-width="0.228918"/>
<mask id="mask0_12700_233814" style="mask-type:luminance" maskUnits="userSpaceOnUse" x="0" y="0" width="301" height="154">
<path d="M0 0H300.999V153.256H0V0Z" fill="white"/>
</mask>
<g mask="url(#mask0_12700_233814)">
<path d="M2.54883 137.349L7.10108 136.17L11.6533 135.785L16.2056 135.866L20.7579 134.571L25.3101 133.846L29.8624 133.477L34.4146 132.754L38.9669 132.811L43.5191 131.773L48.0714 130.006L52.6237 128.421L57.1759 127.822L61.7282 127.171L66.2805 126.012L70.8327 124.664L75.385 124.09L79.9372 123.635L84.4895 123.092L89.0417 120.182L93.594 117.59L98.1462 116.893L102.698 114.364L107.251 112.001L111.803 110.977L116.355 110.68L120.908 110.988L125.46 111.003L130.012 110.245L134.564 107.384L139.117 105.097L143.669 104.411L148.221 103.114L152.773 102.07L157.326 100.814L161.878 99.2767L166.43 98.1781L170.982 96.0967L175.535 93.4845L180.087 90.3111L184.639 90.6081L189.191 94.6224L193.744 96.8829L198.296 97.5644L202.848 95.6271L207.4 93.4387L211.953 91.4577L216.505 87.8016L221.057 84.4404L225.609 81.5574L230.162 77.6829L234.714 75.9138L239.266 74.8065L243.818 73.4371L248.371 70.5497L252.923 68.547L257.475 65.4565L262.028 61.3046L266.58 61.0731L271.132 69.0821L275.684 66.9635L280.237 65.1595L284.789 66.8237L289.341 68.3548L293.893 68.8331L298.446 68.0599" stroke="#787F88" stroke-width="0.457835" stroke-linejoin="bevel"/>
</g>
<mask id="mask1_12700_233814" style="mask-type:luminance" maskUnits="userSpaceOnUse" x="0" y="0" width="301" height="154">
<path d="M0 0H300.999V153.256H0V0Z" fill="white"/>
</mask>
<g mask="url(#mask1_12700_233814)">
<path d="M2.54883 135.785L7.10108 134.94L11.6533 134.624L16.2056 134.239L20.7579 133.4L25.3101 132.424L29.8624 131.433L34.4146 130.264L38.9669 129.742L43.5191 129.24L48.0714 127.643L52.6237 126.494L57.1759 125.186L61.7282 124.164L66.2805 122.561L70.8327 121.371L75.385 119.964L79.9372 118.651L84.4895 117.424L89.0417 115.201L93.594 113.353L98.1462 111.811L102.698 110.328L107.251 108.327L111.803 107.211L116.355 107.53L120.908 105.761L125.46 104.431L130.012 102.994L134.564 101.424L139.117 100.736L143.669 100.246L148.221 99.0081L152.773 98.058L157.326 97.3831L161.878 96.4658L166.43 95.2952L170.982 94.1813L175.535 91.6958L180.087 89.859L184.639 88.6928L189.191 88.1883L193.744 87.4762L198.296 88.162L202.848 86.8865L207.4 85.7508L211.953 85.0563L216.505 83.7131L221.057 81.5116L225.609 79.452L230.162 77.1216L234.714 76.1978L239.266 75.9007L243.818 75.8177L248.371 74.2474L252.923 73.5813L257.475 72.2577L262.028 70.8599L266.58 71.157L271.132 73.9744L275.684 72.8168L280.237 71.5435L284.789 71.7641L289.341 71.585L293.893 71.7838L298.446 70.9517" stroke="#787F88" stroke-width="0.457835" stroke-linejoin="bevel"/>
</g>
<mask id="mask2_12700_233814" style="mask-type:luminance" maskUnits="userSpaceOnUse" x="0" y="0" width="301" height="154">
<path d="M0 0H300.999V153.256H0V0Z" fill="white"/>
</mask>
<g mask="url(#mask2_12700_233814)">
<path d="M2.54883 137.233L7.10108 135.851L11.6533 134.372L16.2056 132.863L20.7579 131.391L25.3101 129.05L29.8624 127.405L34.4146 126.021L38.9669 124.931L43.5191 123.02L48.0714 120.729L52.6237 119.617L57.1759 118.405L61.7282 117.642L66.2805 115.723L70.8327 114.111L75.385 113.185L79.9372 113.078L84.4895 111.018L89.0417 108.496L93.594 106.729L98.1462 105.687L102.698 103.935L107.251 101.83L111.803 101.391L116.355 101.461L120.908 98.6783L125.46 96.9878L130.012 95.3149L134.564 92.9757L139.117 92.4297L143.669 92.2528L148.221 92.6918L152.773 91.4207L157.326 89.4376L161.878 87.8738L166.43 86.4258L170.982 85.3949L175.535 83.3855L180.087 81.6383L184.639 84.3247L189.191 81.3369L193.744 80.5135L198.296 81.6754L202.848 80.1772L207.4 79.155L211.953 78.7946L216.505 77.5497L221.057 76.0733L225.609 74.5947L230.162 72.3626L234.714 71.1308L239.266 71.2596L243.818 71.8952L248.371 70.9189L252.923 70.2921L257.475 67.123L262.028 64.1942L266.58 63.0891L271.132 67.9464L275.684 64.3274L280.237 61.1649L284.789 59.2451L289.341 59.4024L293.893 58.1859L298.446 56.8558" stroke="#787F88" stroke-width="0.457835" stroke-linejoin="bevel"/>
</g>
<mask id="mask3_12700_233814" style="mask-type:luminance" maskUnits="userSpaceOnUse" x="0" y="0" width="301" height="154">
<path d="M0 0H300.999V153.256H0V0Z" fill="white"/>
</mask>
<g mask="url(#mask3_12700_233814)">
<path d="M2.54883 134.134L7.10108 134.833L11.6533 135.335L16.2056 133.044L20.7579 131.62L25.3101 130.033L29.8624 129.974L34.4146 130.585L38.9669 129.273L43.5191 129.34L48.0714 129.061L52.6237 129.48L57.1759 127.977L61.7282 125.885L66.2805 123.694L70.8327 122.115L75.385 119.947L79.9372 120.89L84.4895 123.035L89.0417 122.53L93.594 120.447L98.1462 116.625L102.698 115.039L107.251 112.971L111.803 111.304L116.355 111.523L120.908 109.437L125.46 105.931L130.012 103.581L134.564 101.694L139.117 99.3859L143.669 97.7871L148.221 97.4748L152.773 99.3553L157.326 97.691L161.878 96.291L166.43 93.2727L170.982 89.0007L175.535 90.2128L180.087 90.5426L184.639 90.4618L189.191 91.3223L193.744 94.1507L198.296 93.9803L202.848 92.3772L207.4 92.6349L211.953 90.084L216.505 87.5286L221.057 84.0516L225.609 82.0423L230.162 79.6879L234.714 77.9319L239.266 78.2617L243.818 76.7634L248.371 71.2071L252.923 67.6559L257.475 66.1052L262.028 60.0335L266.58 60.6975L271.132 65.7535L275.684 68.3089L280.237 66.5398L284.789 65.8715L289.341 63.6154L293.893 63.006L298.446 60.9421" stroke="#E9EEF4" stroke-width="0.457835" stroke-linejoin="bevel"/>
</g>
<mask id="mask4_12700_233814" style="mask-type:luminance" maskUnits="userSpaceOnUse" x="0" y="0" width="301" height="154">
<path d="M0 0H300.999V153.256H0V0Z" fill="white"/>
</mask>
<g mask="url(#mask4_12700_233814)">
<path d="M2.54883 128.058L7.10108 126.892L11.6533 126.171L16.2056 125.317L20.7579 124.138L25.3101 123.721L29.8624 122.375L34.4146 121.665L38.9669 121.871L43.5191 120.753L48.0714 119.125L52.6237 117.197L57.1759 116.393L61.7282 115.183L66.2805 113.499L70.8327 111.617L75.385 110.289L79.9372 107.891L84.4895 107.157L89.0417 105.359L93.594 104.615L98.1462 102.315L102.698 99.98L107.251 97.8614L111.803 95.7341L116.355 92.8927L120.908 89.4768L125.46 86.8516L130.012 84.6042L134.564 81.5705L139.117 78.0564L143.669 77.3728L148.221 77.2745L152.773 74.5925L157.326 69.9513L161.878 65.64L166.43 62.5408L170.982 60.8482L175.535 61.119L180.087 60.359L184.639 58.5091L189.191 56.0564L193.744 53.1668L198.296 50.9326L202.848 46.3788L207.4 42.5218L211.953 37.5508L216.505 32.1038L221.057 29.6664L225.609 28.0415L230.162 24.868L234.714 22.8565L239.266 21.6946L243.818 21.2599L248.371 16.8503L252.923 14.2229L257.475 12.0389L262.028 9.40051L266.58 10.6345L271.132 14.7012L275.684 15.5923L280.237 16.0488L284.789 14.1203L289.341 14.7711L293.893 13.2466L298.446 12.6264" stroke="#787F88" stroke-width="0.457835" stroke-linejoin="bevel"/>
</g>
<mask id="mask5_12700_233814" style="mask-type:luminance" maskUnits="userSpaceOnUse" x="0" y="0" width="301" height="154">
<path d="M0 0H300.999V153.256H0V0Z" fill="white"/>
</mask>
<g mask="url(#mask5_12700_233814)">
<path d="M2.54883 142.87L7.10108 142.584L11.6533 142.517L16.2056 142.091L20.7579 141.66L25.3101 141.307L29.8624 140.992L34.4146 140.555L38.9669 140.134L43.5191 139.946L48.0714 139.424L52.6237 138.504L57.1759 138.85L61.7282 138.14L66.2805 137.611L70.8327 136.888L75.385 135.995L79.9372 135.501L84.4895 134.564L89.0417 134.875L93.594 134.058L98.1462 132.854L102.698 131.548L107.251 130.129L111.803 129.002L116.355 128.106L120.908 127.724L125.46 127.488L130.012 126.789L134.564 127.51L139.117 128.375L143.669 129.897L148.221 130.312L152.773 129.406L157.326 128.744L161.878 128.698L166.43 128.108L170.982 128.593L175.535 128.132L180.087 128.582L184.639 131.037L189.191 132.656L193.744 132.206L198.296 131.483L202.848 130.386L207.4 128.842L211.953 127.35L216.505 125.546L221.057 124.186L225.609 122.878L230.162 121.259L234.714 120.868L239.266 120.388L243.818 119.2L248.371 117.439L252.923 116.159L257.475 113.846L262.028 111.018L266.58 109.398L271.132 108.281L275.684 106.488L280.237 104.293L284.789 103.404L289.341 102.522L293.893 100.757L298.446 98.9337" stroke="#787F88" stroke-width="0.457835" stroke-linejoin="bevel"/>
</g>
<mask id="mask6_12700_233814" style="mask-type:luminance" maskUnits="userSpaceOnUse" x="0" y="0" width="301" height="154">
<path d="M0 0H300.999V153.256H0V0Z" fill="white"/>
</mask>
<g mask="url(#mask6_12700_233814)">
<path d="M2.54883 136.659L7.10108 136.856L11.6533 136.089L16.2056 135.639L20.7579 135.086L25.3101 133.879L29.8624 132.398L34.4146 132.33L38.9669 131.149L43.5191 131.765L48.0714 130.146L52.6237 129.246L57.1759 128.986L61.7282 129.875L66.2805 127.219L70.8327 126.068L75.385 125.064L79.9372 124.118L84.4895 122.707L89.0417 122.554L93.594 120.495L98.1462 119.938L102.698 120.062L107.251 117.61L111.803 116.828L116.355 116.968L120.908 115.522L125.46 114.877L130.012 114.154L134.564 114.561L139.117 114.724L143.669 114.589L148.221 113.864L152.773 112.846L157.326 112.606L161.878 112.499L166.43 111.09L170.982 110.798L175.535 110.131L180.087 109.594L184.639 110.811L189.191 113.032L193.744 118.865L198.296 121.794L202.848 125.693L207.4 126.833L211.953 127.741L216.505 127.344L221.057 128.668L225.609 127.025L230.162 124.299L234.714 122.707L239.266 121.119L243.818 118.632L248.371 116.013L252.923 113.499L257.475 110.131L262.028 106.388L266.58 103.916L271.132 107.775L275.684 105.755L280.237 103.776L284.789 102.184L289.341 101.611L293.893 102.197L298.446 102.754" stroke="#E9EEF4" stroke-width="0.457835" stroke-linejoin="bevel"/>
</g>
<path d="M2.54883 128.75L7.10108 128.137L11.6533 128.244L16.2056 127.405L20.7579 126.483L25.3101 125.702L29.8624 125.612L34.4146 125.328L38.9669 125.394L43.5191 124.411L48.0714 123.155L52.6237 122.74L57.1759 122.718L61.7282 121.635L66.2805 120.163L70.8327 119.671L75.385 119.23L79.9372 118.612L84.4895 117.345L89.0417 116.78L93.594 116.087L98.1462 115.489L102.698 114.209L107.251 111.479L111.803 112.007L116.355 112.23L120.908 111.121L125.46 110.079L130.012 108.653L134.564 107.487L139.117 108.478L143.669 109.063L148.221 108.063L152.773 106.425L157.326 105.23L161.878 103.605L166.43 101.71L170.982 99.4492L175.535 96.8305L180.087 95.6751L184.639 95.3584L189.191 96.2473L193.744 96.149L198.296 94.7818L202.848 92.5912L207.4 91.224L211.953 89.7367L216.505 88.2864L221.057 86.2072L225.609 84.3289L230.162 81.9942L234.714 80.3801L239.266 78.9125L243.818 76.0819L248.371 74.6404L252.923 72.9915L257.475 71.1591L262.028 69.7176L266.58 70.6458L271.132 74.7933L275.684 73.9197L280.237 73.2448L284.789 73.2754L289.341 72.4607L293.893 70.9188L298.446 69.5844" stroke="#787F88" stroke-width="0.457835" stroke-linejoin="bevel"/>
</svg>
