<svg width="817" height="406" viewBox="0 0 817 406" fill="none" xmlns="http://www.w3.org/2000/svg">
<mask id="mask0_12779_37956" style="mask-type:luminance" maskUnits="userSpaceOnUse" x="0" y="0" width="817" height="406">
<path d="M0.689453 0H816.686V406H0.689453V0Z" fill="white"/>
</mask>
<g mask="url(#mask0_12779_37956)">
<path d="M7.59961 363.86L19.9406 360.736L32.2816 359.717L44.6226 359.931L56.9636 356.5L69.3046 354.579L81.6456 353.602L93.9867 351.687L106.328 351.837L118.669 349.089L131.01 344.408L143.351 340.207L155.692 338.622L168.033 336.898L180.374 333.825L192.715 330.255L205.056 328.734L217.397 327.53L229.738 326.09L242.079 318.383L254.42 311.515L266.761 309.669L279.102 302.969L291.443 296.709L303.784 293.995L316.125 293.208L328.466 294.024L340.807 294.065L353.148 292.057L365.489 284.477L377.83 278.419L390.171 276.603L402.512 273.166L414.853 270.4L427.194 267.073L439.535 263L451.876 260.09L464.217 254.576L476.558 247.656L488.899 239.249L501.24 240.036L513.581 250.67L525.922 256.659L538.263 258.464L550.604 253.332L562.945 247.534L575.286 242.286L587.627 232.601L599.968 223.696L612.309 216.059L624.65 205.795L636.991 201.108L649.332 198.174L661.673 194.547L674.014 186.898L686.355 181.592L698.696 173.405L711.037 162.406L723.378 161.793L735.719 183.01L748.06 177.397L760.401 172.618L772.742 177.027L785.083 181.083L797.424 182.35L809.765 180.302" stroke="#CECECE" stroke-linejoin="bevel"/>
</g>
<mask id="mask1_12779_37956" style="mask-type:luminance" maskUnits="userSpaceOnUse" x="0" y="0" width="817" height="406">
<path d="M0.689453 0H816.686V406H0.689453V0Z" fill="white"/>
</mask>
<g mask="url(#mask1_12779_37956)">
<path d="M7.59961 359.717L19.9406 357.478L32.2816 356.639L44.6226 355.621L56.9636 353.399L69.3046 350.813L81.6456 348.186L93.9867 345.091L106.328 343.708L118.669 342.377L131.01 338.148L143.351 335.104L155.692 331.638L168.033 328.931L180.374 324.684L192.715 321.53L205.056 317.804L217.397 314.327L229.738 311.075L242.079 305.185L254.42 300.29L266.761 296.205L279.102 292.277L291.443 286.977L303.784 284.02L316.125 284.865L328.466 280.178L340.807 276.655L353.148 272.848L365.489 268.688L377.83 266.865L390.171 265.569L402.512 262.288L414.853 259.771L427.194 257.984L439.535 255.554L451.876 252.452L464.217 249.501L476.558 242.917L488.899 238.051L501.24 234.961L513.581 233.625L525.922 231.739L538.263 233.555L550.604 230.176L562.945 227.168L575.286 225.328L587.627 221.77L599.968 215.937L612.309 210.481L624.65 204.308L636.991 201.86L649.332 201.073L661.673 200.853L674.014 196.693L686.355 194.929L698.696 191.422L711.037 187.719L723.378 188.506L735.719 195.97L748.06 192.904L760.401 189.53L772.742 190.115L785.083 189.64L797.424 190.167L809.765 187.962" stroke="#CECECE" stroke-linejoin="bevel"/>
</g>
<mask id="mask2_12779_37956" style="mask-type:luminance" maskUnits="userSpaceOnUse" x="0" y="0" width="817" height="406">
<path d="M0.689453 0H816.686V406H0.689453V0Z" fill="white"/>
</mask>
<g mask="url(#mask2_12779_37956)">
<path d="M7.59961 363.554L19.9406 359.891L32.2816 355.974L44.6226 351.976L56.9636 348.076L69.3046 341.874L81.6456 337.517L93.9867 333.849L106.328 330.962L118.669 325.899L131.01 319.829L143.351 316.884L155.692 313.673L168.033 311.654L180.374 306.568L192.715 302.298L205.056 299.845L217.397 299.561L229.738 294.105L242.079 287.422L254.42 282.742L266.761 279.982L279.102 275.341L291.443 269.764L303.784 268.601L316.125 268.786L328.466 261.415L340.807 256.936L353.148 252.504L365.489 246.308L377.83 244.861L390.171 244.393L402.512 245.556L414.853 242.188L427.194 236.935L439.535 232.792L451.876 228.956L464.217 226.225L476.558 220.902L488.899 216.273L501.24 223.39L513.581 215.475L525.922 213.293L538.263 216.371L550.604 212.402L562.945 209.694L575.286 208.74L587.627 205.442L599.968 201.53L612.309 197.613L624.65 191.7L636.991 188.437L649.332 188.778L661.673 190.462L674.014 187.876L686.355 186.215L698.696 177.82L711.037 170.061L723.378 167.133L735.719 180.001L748.06 170.414L760.401 162.036L772.742 156.95L785.083 157.367L797.424 154.144L809.765 150.62" stroke="#CECECE" stroke-linejoin="bevel"/>
</g>
<mask id="mask3_12779_37956" style="mask-type:luminance" maskUnits="userSpaceOnUse" x="0" y="0" width="817" height="406">
<path d="M0.689453 0H816.686V406H0.689453V0Z" fill="white"/>
</mask>
<g mask="url(#mask3_12779_37956)">
<path d="M7.59961 355.343L19.9406 357.195L32.2816 358.525L44.6226 352.456L56.9636 348.684L69.3046 344.477L81.6456 344.321L93.9867 345.941L106.328 342.464L118.669 342.643L131.01 341.903L143.351 343.013L155.692 339.033L168.033 333.49L180.374 327.687L192.715 323.503L205.056 317.758L217.397 320.257L229.738 325.939L242.079 324.603L254.42 319.083L266.761 308.957L279.102 304.757L291.443 299.278L303.784 294.863L316.125 295.442L328.466 289.916L340.807 280.63L353.148 274.404L365.489 269.405L377.83 263.289L390.171 259.054L402.512 258.227L414.853 263.208L427.194 258.799L439.535 255.091L451.876 247.094L464.217 235.777L476.558 238.988L488.899 239.862L501.24 239.648L513.581 241.928L525.922 249.42L538.263 248.969L550.604 244.722L562.945 245.405L575.286 238.647L587.627 231.877L599.968 222.666L612.309 217.343L624.65 211.106L636.991 206.454L649.332 207.328L661.673 203.359L674.014 188.639L686.355 179.231L698.696 175.123L711.037 159.038L723.378 160.797L735.719 174.192L748.06 180.961L760.401 176.275L772.742 174.504L785.083 168.527L797.424 166.913L809.765 161.445" stroke="#E9EEF4" stroke-linejoin="bevel"/>
</g>
<mask id="mask4_12779_37956" style="mask-type:luminance" maskUnits="userSpaceOnUse" x="0" y="0" width="817" height="406">
<path d="M0.689453 0H816.686V406H0.689453V0Z" fill="white"/>
</mask>
<g mask="url(#mask4_12779_37956)">
<path d="M7.59961 339.247L19.9406 336.157L32.2816 334.248L44.6226 331.985L56.9636 328.861L69.3046 327.756L81.6456 324.192L93.9867 322.311L106.328 322.855L118.669 319.893L131.01 315.582L143.351 310.473L155.692 308.344L168.033 305.139L180.374 300.678L192.715 295.69L205.056 292.173L217.397 285.82L229.738 283.876L242.079 279.114L254.42 277.141L266.761 271.048L279.102 264.863L291.443 259.251L303.784 253.615L316.125 246.088L328.466 237.039L340.807 230.084L353.148 224.13L365.489 216.093L377.83 206.784L390.171 204.973L402.512 204.713L414.853 197.607L427.194 185.312L439.535 173.891L451.876 165.681L464.217 161.197L476.558 161.914L488.899 159.901L501.24 155L513.581 148.502L525.922 140.848L538.263 134.929L550.604 122.865L562.945 112.647L575.286 99.4782L587.627 85.0481L599.968 78.591L612.309 74.2863L624.65 65.8793L636.991 60.5505L649.332 57.4724L661.673 56.321L674.014 44.6392L686.355 37.6787L698.696 31.8929L711.037 24.9034L723.378 28.1725L735.719 38.9459L748.06 41.3065L760.401 42.5158L772.742 37.4068L785.083 39.131L797.424 35.0925L809.765 33.4492" stroke="#CECECE" stroke-linejoin="bevel"/>
</g>
<mask id="mask5_12779_37956" style="mask-type:luminance" maskUnits="userSpaceOnUse" x="0" y="0" width="817" height="406">
<path d="M0.689453 0H816.686V406H0.689453V0Z" fill="white"/>
</mask>
<g mask="url(#mask5_12779_37956)">
<path d="M7.59961 378.487L19.9406 377.729L32.2816 377.549L44.6226 376.421L56.9636 375.281L69.3046 374.344L81.6456 373.511L93.9867 372.354L106.328 371.237L118.669 370.739L131.01 369.356L143.351 366.921L155.692 367.835L168.033 365.954L180.374 364.554L192.715 362.639L205.056 360.273L217.397 358.965L229.738 356.483L242.079 357.304L254.42 355.14L266.761 351.952L279.102 348.492L291.443 344.732L303.784 341.746L316.125 339.374L328.466 338.361L340.807 337.736L353.148 335.885L365.489 337.794L377.83 340.086L390.171 344.118L402.512 345.218L414.853 342.816L427.194 341.063L439.535 340.942L451.876 339.38L464.217 340.664L476.558 339.443L488.899 340.635L501.24 347.139L513.581 351.426L525.922 350.234L538.263 348.319L550.604 345.414L562.945 341.324L575.286 337.372L587.627 332.593L599.968 328.988L612.309 325.522L624.65 321.235L636.991 320.199L649.332 318.926L661.673 315.779L674.014 311.115L686.355 307.725L698.696 301.598L711.037 294.105L723.378 289.812L735.719 286.855L748.06 282.105L760.401 276.29L772.742 273.935L785.083 271.598L797.424 266.923L809.765 262.091" stroke="#CECECE" stroke-linejoin="bevel"/>
</g>
<mask id="mask6_12779_37956" style="mask-type:luminance" maskUnits="userSpaceOnUse" x="0" y="0" width="817" height="406">
<path d="M0.689453 0H816.686V406H0.689453V0Z" fill="white"/>
</mask>
<g mask="url(#mask6_12779_37956)">
<path d="M7.59961 362.032L19.9406 362.552L32.2816 360.522L44.6226 359.33L56.9636 357.866L69.3046 354.666L81.6456 350.743L93.9867 350.564L106.328 347.434L118.669 349.065L131.01 344.778L143.351 342.394L155.692 341.706L168.033 344.061L180.374 337.025L192.715 333.976L205.056 331.314L217.397 328.809L229.738 325.071L242.079 324.666L254.42 319.21L266.761 317.735L279.102 318.064L291.443 311.567L303.784 309.495L316.125 309.866L328.466 306.036L340.807 304.329L353.148 302.413L365.489 303.49L377.83 303.924L390.171 303.565L402.512 301.644L414.853 298.948L427.194 298.311L439.535 298.028L451.876 294.296L464.217 293.521L476.558 291.756L488.899 290.333L501.24 293.555L513.581 299.44L525.922 314.894L538.263 322.653L550.604 332.981L562.945 336.001L575.286 338.408L587.627 337.355L599.968 340.861L612.309 336.51L624.65 329.289L636.991 325.071L649.332 320.865L661.673 314.275L674.014 307.337L686.355 300.678L698.696 291.756L711.037 281.839L723.378 275.289L735.719 285.513L748.06 280.161L760.401 274.919L772.742 270.701L785.083 269.185L797.424 270.736L809.765 272.211" stroke="#E9EEF4" stroke-linejoin="bevel"/>
</g>
<path d="M7.59961 341.081L19.9406 339.455L32.2816 339.738L44.6226 337.517L56.9636 335.075L69.3046 333.004L81.6456 332.766L93.9867 332.014L106.328 332.188L118.669 329.584L131.01 326.257L143.351 325.158L155.692 325.1L168.033 322.23L180.374 318.331L192.715 317.029L205.056 315.86L217.397 314.223L229.738 310.867L242.079 309.368L254.42 307.534L266.761 305.949L279.102 302.558L291.443 295.326L303.784 296.726L316.125 297.316L328.466 294.377L340.807 291.617L353.148 287.839L365.489 284.749L377.83 287.376L390.171 288.927L402.512 286.277L414.853 281.937L427.194 278.772L439.535 274.468L451.876 269.445L464.217 263.457L476.558 256.52L488.899 253.459L501.24 252.62L513.581 254.975L525.922 254.714L538.263 251.092L550.604 245.289L562.945 241.667L575.286 237.727L587.627 233.885L599.968 228.377L612.309 223.401L624.65 217.216L636.991 212.94L649.332 209.052L661.673 201.553L674.014 197.735L686.355 193.366L698.696 188.512L711.037 184.693L723.378 187.152L735.719 198.14L748.06 195.825L760.401 194.037L772.742 194.118L785.083 191.96L797.424 187.875L809.765 184.34" stroke="#CECECE" stroke-linejoin="bevel"/>
</svg>
