<svg width="306" height="150" viewBox="0 0 306 150" fill="none" xmlns="http://www.w3.org/2000/svg">
<g clip-path="url(#clip0_12699_95476)">
<path d="M160.223 75.8969C230.741 75.8969 230.741 38.4462 301.26 38.4462V38.6449C230.741 38.6449 230.741 76.0956 160.223 76.0956V75.8969Z" fill="#787F88" fill-opacity="0.75"/>
<path d="M158.727 96.8127C229.245 96.8127 229.245 102.387 299.764 102.387V102.59C229.245 102.59 229.245 97.0152 158.727 97.0152V96.8127Z" fill="#787F88" fill-opacity="0.75"/>
<path d="M158.727 105.777C229.245 105.777 229.245 122.396 299.764 122.396V123.705C229.245 123.705 229.245 107.086 158.727 107.086V105.777Z" fill="#787F88" fill-opacity="0.75"/>
<path d="M158.727 89.8164C229.245 89.8164 229.245 69.7211 299.764 69.7211V70.1437C229.245 70.1437 229.245 90.239 158.727 90.239V89.8164Z" fill="#787F88" fill-opacity="0.75"/>
<path d="M158.727 92.2648C229.245 92.2648 229.245 78.4861 299.764 78.4861V79.05C229.245 79.05 229.245 92.8287 158.727 92.8287V92.2648Z" fill="#787F88" fill-opacity="0.75"/>
<path d="M160.223 71.8117C230.741 71.8117 230.741 0.796875 301.26 0.796875V1.0968C230.741 1.0968 230.741 72.1116 160.223 72.1116V71.8117Z" fill="#787F88" fill-opacity="0.75"/>
<path d="M160.223 88.6153C230.741 88.6153 230.741 62.1514 301.26 62.1514V63.1775C230.741 63.1775 230.741 89.6414 160.223 89.6414V88.6153Z" fill="#787F88" fill-opacity="0.75"/>
<path d="M158.727 111.155C229.245 111.155 229.245 135.743 299.764 135.743V136.454C229.245 136.454 229.245 111.867 158.727 111.867V111.155Z" fill="#787F88" fill-opacity="0.75"/>
<path d="M160.223 72.7088C230.741 72.7088 230.741 9.76099 301.26 9.76099V9.96061C230.741 9.96061 230.741 72.9084 160.223 72.9084V72.7088Z" fill="#787F88" fill-opacity="0.75"/>
<path d="M160.223 74.7008C230.741 74.7008 230.741 25.8965 301.26 25.8965V26.0961C230.741 26.0961 230.741 74.9005 160.223 74.9005V74.7008Z" fill="#787F88" fill-opacity="0.75"/>
<path d="M158.727 93.9159C229.245 93.9159 229.245 85.0597 299.764 85.0597V85.3668C229.245 85.3668 229.245 94.223 158.727 94.223V93.9159Z" fill="#787F88" fill-opacity="0.75"/>
<path d="M158.727 108.964C229.245 108.964 229.245 130.293 299.764 130.293V131.275C229.245 131.275 229.245 109.946 158.727 109.946V108.964Z" fill="#787F88" fill-opacity="0.75"/>
<path d="M158.727 107.171C229.245 107.171 229.245 125.439 299.764 125.439V126.295C229.245 126.295 229.245 108.027 158.727 108.027V107.171Z" fill="#787F88" fill-opacity="0.75"/>
<path d="M160.223 72.908C230.741 72.908 230.741 11.5538 301.26 11.5538V11.7535C230.741 11.7535 230.741 73.1076 160.223 73.1076V72.908Z" fill="#787F88" fill-opacity="0.75"/>
<path d="M160.223 77.6463C230.741 77.6463 230.741 40.0398 301.26 40.0398V44.8635C230.741 44.8635 230.741 82.4701 160.223 82.4701V77.6463Z" fill="#787F88" fill-opacity="0.75"/>
<path d="M158.727 107.968C229.245 107.968 229.245 127.81 299.764 127.81V128.685C229.245 128.685 229.245 108.843 158.727 108.843V107.968Z" fill="#787F88" fill-opacity="0.75"/>
<path d="M160.223 74.5016C230.741 74.5016 230.741 22.51 301.26 22.51V22.7096C230.741 22.7096 230.741 74.7012 160.223 74.7012V74.5016Z" fill="#787F88" fill-opacity="0.75"/>
<path d="M160.223 72.1112C230.741 72.1112 230.741 4.38257 301.26 4.38257V4.58223C230.741 4.58223 230.741 72.3109 160.223 72.3109V72.1112Z" fill="#787F88" fill-opacity="0.75"/>
<path d="M158.727 113.147C229.245 113.147 229.245 142.584 299.764 142.584V143.227C229.245 143.227 229.245 113.791 158.727 113.791V113.147Z" fill="#787F88" fill-opacity="0.75"/>
<path d="M160.223 73.206C230.741 73.206 230.741 13.3466 301.26 13.3466V13.6465C230.741 13.6465 230.741 73.5059 160.223 73.5059V73.206Z" fill="#787F88" fill-opacity="0.75"/>
<path d="M160.223 85.4937C230.741 85.4937 230.741 52.5896 301.26 52.5896V53.3509C230.741 53.3509 230.741 86.2549 160.223 86.2549V85.4937Z" fill="#787F88" fill-opacity="0.75"/>
<path d="M158.727 97.012C229.245 97.012 229.245 104.181 299.764 104.181V104.382C229.245 104.382 229.245 97.2137 158.727 97.2137V97.012Z" fill="#787F88" fill-opacity="0.75"/>
<path d="M5.7168 104.782C78.4801 104.782 78.4801 74.5021 151.243 74.5021V75.2981C78.4801 75.2981 78.4801 105.578 5.7168 105.578V104.782Z" fill="#787F88" fill-opacity="0.5"/>
<path d="M5.7168 87.251C78.4801 87.251 78.4801 102.547 151.243 102.547V105.578C78.4801 105.578 78.4801 90.2813 5.7168 90.2813V87.251Z" fill="#787F88" fill-opacity="0.5"/>
<path d="M158.727 93.5439C229.245 93.5439 229.245 83.0677 299.764 83.0677V83.5478C229.245 83.5478 229.245 94.0239 158.727 94.0239V93.5439Z" fill="#787F88" fill-opacity="0.75"/>
<path d="M158.727 90.7995C229.245 90.7995 229.245 73.9044 299.764 73.9044V74.5393C229.245 74.5393 229.245 91.4343 158.727 91.4343V90.7995Z" fill="#787F88" fill-opacity="0.75"/>
<path d="M5.7168 67.3307C78.4801 67.3307 78.4801 70.9336 151.243 70.9336V72.3108C78.4801 72.3108 78.4801 68.7079 5.7168 68.7079V67.3307Z" fill="#787F88" fill-opacity="0.5"/>
<path d="M158.727 100.199C229.245 100.199 229.245 108.853 299.764 108.853V110.159C229.245 110.159 229.245 101.506 158.727 101.506V100.199Z" fill="#787F88" fill-opacity="0.75"/>
<path d="M160.223 75.5964C230.741 75.5964 230.741 36.4541 301.26 36.4541V36.754C230.741 36.754 230.741 75.8963 160.223 75.8963V75.5964Z" fill="#787F88" fill-opacity="0.75"/>
<path d="M158.727 96.8127C229.245 96.8127 229.245 100.603 299.764 100.603V100.797C229.245 100.797 229.245 97.0068 158.727 97.0068V96.8127Z" fill="#787F88" fill-opacity="0.75"/>
<path d="M158.727 111.753C229.245 111.753 229.245 137.891 299.764 137.891V138.845C229.245 138.845 229.245 112.707 158.727 112.707V111.753Z" fill="#787F88" fill-opacity="0.75"/>
<path d="M160.223 72.7088C230.741 72.7088 230.741 7.96814 301.26 7.96814V8.16767C230.741 8.16767 230.741 72.9084 160.223 72.9084V72.7088Z" fill="#787F88" fill-opacity="0.75"/>
<path d="M158.727 95.8073C229.245 95.8073 229.245 95.0199 299.764 95.0199V95.2285C229.245 95.2285 229.245 96.0159 158.727 96.0159V95.8073Z" fill="#787F88" fill-opacity="0.75"/>
<path d="M5.7168 68.7251C78.4801 68.7251 78.4801 76.8721 151.243 76.8721V82.6693C78.4801 82.6693 78.4801 74.5223 5.7168 74.5223V68.7251Z" fill="#787F88" fill-opacity="0.5"/>
<path d="M158.727 94.2918C229.245 94.2918 229.245 87.0518 299.764 87.0518V87.3815C229.245 87.3815 229.245 94.6215 158.727 94.6215V94.2918Z" fill="#787F88" fill-opacity="0.75"/>
<path d="M158.727 98.6056C229.245 98.6056 229.245 105.735 299.764 105.735V107.371C229.245 107.371 229.245 100.241 158.727 100.241V98.6056Z" fill="#787F88" fill-opacity="0.75"/>
<path d="M160.223 86.8378C230.741 86.8378 230.741 57.1714 301.26 57.1714V57.983C230.741 57.983 230.741 87.6495 160.223 87.6495V86.8378Z" fill="#787F88" fill-opacity="0.75"/>
<path d="M160.223 86.2251C230.741 86.2251 230.741 54.9801 301.26 54.9801V55.6077C230.741 55.6077 230.741 86.8526 160.223 86.8526V86.2251Z" fill="#787F88" fill-opacity="0.75"/>
<path d="M160.223 89.8948C230.741 89.8948 230.741 66.5339 301.26 66.5339V66.8783C230.741 66.8783 230.741 90.2391 160.223 90.2391V89.8948Z" fill="#787F88" fill-opacity="0.75"/>
<path d="M160.223 74.5023C230.741 74.5023 230.741 24.3027 301.26 24.3027V24.5016C230.741 24.5016 230.741 74.7011 160.223 74.7011V74.5023Z" fill="#787F88" fill-opacity="0.75"/>
<path d="M158.727 94.5514C229.245 94.5514 229.245 88.8446 299.764 88.8446V89.3131C229.245 89.3131 229.245 95.0199 158.727 95.0199V94.5514Z" fill="#787F88" fill-opacity="0.75"/>
<path d="M5.7168 74.5021C78.4801 74.5021 78.4801 98.6982 151.243 98.6982V102.59C78.4801 102.59 78.4801 78.3936 5.7168 78.3936V74.5021Z" fill="#787F88" fill-opacity="0.5"/>
<path d="M160.223 73.5038C230.741 73.5038 230.741 15.1394 301.26 15.1394V15.54C230.741 15.54 230.741 73.9043 160.223 73.9043V73.5038Z" fill="#787F88" fill-opacity="0.75"/>
<path d="M158.727 113.944C229.245 113.944 229.245 146.613 299.764 146.613V146.813C229.245 146.813 229.245 114.144 158.727 114.144V113.944Z" fill="#787F88" fill-opacity="0.75"/>
<path d="M160.223 75.0991C230.741 75.0991 230.741 31.0757 301.26 31.0757V31.2754C230.741 31.2754 230.741 75.2988 160.223 75.2988V75.0991Z" fill="#787F88" fill-opacity="0.75"/>
<path d="M158.727 96.4143C229.245 96.4143 229.245 98.6871 299.764 98.6871V99.0039C229.245 99.0039 229.245 96.7312 158.727 96.7312V96.4143Z" fill="#787F88" fill-opacity="0.75"/>
<path d="M5.7168 105.586C78.4801 105.586 78.4801 92.4303 151.243 92.4303V97.0032C78.4801 97.0032 78.4801 110.159 5.7168 110.159V105.586Z" fill="#787F88" fill-opacity="0.5"/>
<path d="M158.727 102.59C229.245 102.59 229.245 114.446 299.764 114.446V115.737C229.245 115.737 229.245 103.88 158.727 103.88V102.59Z" fill="#787F88" fill-opacity="0.75"/>
<path d="M158.727 113.944C229.245 113.944 229.245 148.207 299.764 148.207V148.406C229.245 148.406 229.245 114.144 158.727 114.144V113.944Z" fill="#787F88" fill-opacity="0.75"/>
<path d="M160.223 74.7016C230.741 74.7016 230.741 27.6892 301.26 27.6892V27.888C230.741 27.888 230.741 74.9004 160.223 74.9004V74.7016Z" fill="#787F88" fill-opacity="0.75"/>
<path d="M160.223 74.8992C230.741 74.8992 230.741 29.2828 301.26 29.2828V29.4832C230.741 29.4832 230.741 75.0996 160.223 75.0996V74.8992Z" fill="#787F88" fill-opacity="0.75"/>
<path d="M158.727 109.96C229.245 109.96 229.245 132.879 299.764 132.879V134.064C229.245 134.064 229.245 111.145 158.727 111.145V109.96Z" fill="#787F88" fill-opacity="0.75"/>
<path d="M158.727 90.3275C229.245 90.3275 229.245 71.9124 299.764 71.9124V72.4214C229.245 72.4214 229.245 90.8367 158.727 90.8367V90.3275Z" fill="#787F88" fill-opacity="0.75"/>
<path d="M5.7168 110.286C78.4801 110.286 78.4801 109.96 151.243 109.96V114.017C78.4801 114.017 78.4801 114.343 5.7168 114.343V110.286Z" fill="#787F88" fill-opacity="0.5"/>
<path d="M158.727 95.1127C229.245 95.1127 229.245 91.0359 299.764 91.0359V91.5408C229.245 91.5408 229.245 95.6176 158.727 95.6176V95.1127Z" fill="#787F88" fill-opacity="0.75"/>
<path d="M158.727 92.6873C229.245 92.6873 229.245 80.6772 299.764 80.6772V81.4162C229.245 81.4162 229.245 93.4263 158.727 93.4263V92.6873Z" fill="#787F88" fill-opacity="0.75"/>
<path d="M158.727 112.749C229.245 112.749 229.245 140.573 299.764 140.573V141.036C229.245 141.036 229.245 113.212 158.727 113.212V112.749Z" fill="#787F88" fill-opacity="0.75"/>
<path d="M160.223 74.3024C230.741 74.3024 230.741 19.1235 301.26 19.1235V19.3231C230.741 19.3231 230.741 74.502 160.223 74.502V74.3024Z" fill="#787F88" fill-opacity="0.75"/>
<path d="M158.727 96.016C229.245 96.016 229.245 96.7896 299.764 96.7896V97.2112C229.245 97.2112 229.245 96.4376 158.727 96.4376V96.016Z" fill="#787F88" fill-opacity="0.75"/>
<path d="M158.727 101.594C229.245 101.594 229.245 111.763 299.764 111.763V112.749C229.245 112.749 229.245 102.58 158.727 102.58V101.594Z" fill="#787F88" fill-opacity="0.75"/>
<path d="M158.727 95.538C229.245 95.538 229.245 93.0278 299.764 93.0278V93.3065C229.245 93.3065 229.245 95.8167 158.727 95.8167V95.538Z" fill="#787F88" fill-opacity="0.75"/>
<path d="M158.727 113.745C229.245 113.745 229.245 144.817 299.764 144.817V145.02C229.245 145.02 229.245 113.947 158.727 113.947V113.745Z" fill="#787F88" fill-opacity="0.75"/>
<path d="M160.223 73.9022C230.741 73.9022 230.741 17.1315 301.26 17.1315V17.5321C230.741 17.5321 230.741 74.3028 160.223 74.3028V73.9022Z" fill="#787F88" fill-opacity="0.75"/>
<path d="M160.223 75.3973C230.741 75.3973 230.741 34.6614 301.26 34.6614V34.9613C230.741 34.9613 230.741 75.6972 160.223 75.6972V75.3973Z" fill="#787F88" fill-opacity="0.75"/>
<path d="M160.223 75.0993C230.741 75.0993 230.741 32.8685 301.26 32.8685V33.068C230.741 33.068 230.741 75.2988 160.223 75.2988V75.0993Z" fill="#787F88" fill-opacity="0.75"/>
<path d="M160.223 82.4842C230.741 82.4842 230.741 46.4143 301.26 46.4143V48.193C230.741 48.193 230.741 84.2629 160.223 84.2629V82.4842Z" fill="#787F88" fill-opacity="0.75"/>
<path d="M158.727 103.785C229.245 103.785 229.245 117.341 299.764 117.341V118.327C229.245 118.327 229.245 104.771 158.727 104.771V103.785Z" fill="#787F88" fill-opacity="0.75"/>
<path d="M160.223 72.4092C230.741 72.4092 230.741 6.17529 301.26 6.17529V6.4752C230.741 6.4752 230.741 72.7092 160.223 72.7092V72.4092Z" fill="#787F88" fill-opacity="0.75"/>
<path d="M158.727 113.944C229.245 113.944 229.245 149.8 299.764 149.8V150C229.245 150 229.245 114.144 158.727 114.144V113.944Z" fill="#787F88" fill-opacity="0.75"/>
<path d="M158.727 89.3855C229.245 89.3855 229.245 67.729 299.764 67.729V68.1841C229.245 68.1841 229.245 89.8406 158.727 89.8406V89.3855Z" fill="#787F88" fill-opacity="0.75"/>
<path d="M160.223 89.5609C230.741 89.5609 230.741 64.7411 301.26 64.7411V65.0209C230.741 65.0209 230.741 89.8407 160.223 89.8407V89.5609Z" fill="#787F88" fill-opacity="0.75"/>
<path d="M5.7168 93.8491C78.4801 93.8491 78.4801 87.8486 151.243 87.8486V92.4059C78.4801 92.4059 78.4801 98.4064 5.7168 98.4064V93.8491Z" fill="#787F88" fill-opacity="0.5"/>
<path d="M160.223 87.5259C230.741 87.5259 230.741 59.5618 301.26 59.5618V60.4821C230.741 60.4821 230.741 88.4462 160.223 88.4462V87.5259Z" fill="#787F88" fill-opacity="0.75"/>
<path d="M160.223 84.2466C230.741 84.2466 230.741 49.8008 301.26 49.8008V51.0123C230.741 51.0123 230.741 85.4582 160.223 85.4582V84.2466Z" fill="#787F88" fill-opacity="0.75"/>
<path d="M158.727 104.781C229.245 104.781 229.245 119.873 299.764 119.873V120.916C229.245 120.916 229.245 105.825 158.727 105.825V104.781Z" fill="#787F88" fill-opacity="0.75"/>
<path d="M160.223 74.3031C230.741 74.3031 230.741 20.9163 301.26 20.9163V21.1151C230.741 21.1151 230.741 74.5019 160.223 74.5019V74.3031Z" fill="#787F88" fill-opacity="0.75"/>
<path d="M5.7168 82.0718C78.4801 82.0718 78.4801 82.6392 151.243 82.6392V87.8487C78.4801 87.8487 78.4801 87.2812 5.7168 87.2812V82.0718Z" fill="#787F88" fill-opacity="0.5"/>
<path d="M160.223 72.1113C230.741 72.1113 230.741 2.58972 301.26 2.58972V2.78923C230.741 2.78923 230.741 72.3108 160.223 72.3108V72.1113Z" fill="#787F88" fill-opacity="0.75"/>
<path d="M5.7168 92.8299C78.4801 92.8299 78.4801 73.506 151.243 73.506V74.5008C78.4801 74.5008 78.4801 93.8247 5.7168 93.8247V92.8299Z" fill="#787F88" fill-opacity="0.5"/>
<path d="M5.7168 98.4064C78.4801 98.4064 78.4801 105.551 151.243 105.551V109.96C78.4801 109.96 78.4801 102.815 5.7168 102.815V98.4064Z" fill="#787F88" fill-opacity="0.5"/>
<path d="M158.727 91.4292C229.245 91.4292 229.245 76.0956 299.764 76.0956V76.8974C229.245 76.8974 229.245 92.231 158.727 92.231V91.4292Z" fill="#787F88" fill-opacity="0.75"/>
<path d="M5.7168 80.9671C78.4801 80.9671 78.4801 72.3108 151.243 72.3108V73.4154C78.4801 73.4154 78.4801 82.0717 5.7168 82.0717V80.9671Z" fill="#787F88" fill-opacity="0.5"/>
<path d="M299.762 1.79285H304.999V1.99205H299.762V1.79285Z" fill="#E9EEF4"/>
<path d="M299.762 7.17126H304.999V7.37047H299.762V7.17126Z" fill="#E9EEF4"/>
<path d="M299.762 63.9442H304.999V64.1434H299.762V63.9442Z" fill="#E9EEF4"/>
<path d="M299.762 65.7371H304.999V66.1355H299.762V65.7371Z" fill="#E9EEF4"/>
<path d="M299.762 0H304.999V0.199203H299.762V0Z" fill="#E9EEF4"/>
<path d="M299.762 3.58569H304.999V3.7849H299.762V3.58569Z" fill="#E9EEF4"/>
<path d="M299.762 105.777H304.999V107.37H299.762V105.777Z" fill="#E9EEF4"/>
<path d="M299.762 51.7928H304.999V52.5897H299.762V51.7928Z" fill="#E9EEF4"/>
<path d="M299.762 140.438H304.999V141.036H299.762V140.438Z" fill="#E9EEF4"/>
<path d="M299.762 5.37842H304.999V5.57762H299.762V5.37842Z" fill="#E9EEF4"/>
<path d="M299.762 67.729H304.999V68.1274H299.762V67.729Z" fill="#E9EEF4"/>
<path d="M299.762 54.1832H304.999V54.7808H299.762V54.1832Z" fill="#E9EEF4"/>
<path d="M299.762 111.753H304.999V112.749H299.762V111.753Z" fill="#E9EEF4"/>
<path d="M299.762 117.331H304.999V118.327H299.762V117.331Z" fill="#E9EEF4"/>
<path d="M299.762 69.7211H304.999V70.3187H299.762V69.7211Z" fill="#E9EEF4"/>
<path d="M299.762 39.243H304.999V44.0239H299.762V39.243Z" fill="#E9EEF4"/>
<path d="M299.762 8.96411H304.999V9.16331H299.762V8.96411Z" fill="#E9EEF4"/>
<path d="M299.762 49.004H304.999V50.1992H299.762V49.004Z" fill="#E9EEF4"/>
<path d="M299.762 125.299H304.999V126.295H299.762V125.299Z" fill="#E9EEF4"/>
<path d="M0.480469 104.382H5.71793V114.343H0.480469V104.382Z" fill="#E9EEF4"/>
<path d="M299.762 10.757H304.999V10.9562H299.762V10.757Z" fill="#E9EEF4"/>
<path d="M299.762 135.657H304.999V136.454H299.762V135.657Z" fill="#E9EEF4"/>
<path d="M299.762 18.3267H304.999V18.5259H299.762V18.3267Z" fill="#E9EEF4"/>
<path d="M299.762 119.92H304.999V120.916H299.762V119.92Z" fill="#E9EEF4"/>
<path d="M299.762 71.9124H304.999V72.3108H299.762V71.9124Z" fill="#E9EEF4"/>
<path d="M299.762 12.5498H304.999V12.749H299.762V12.5498Z" fill="#E9EEF4"/>
<path d="M299.762 108.964H304.999V110.159H299.762V108.964Z" fill="#E9EEF4"/>
<path d="M299.762 149.801H304.999H299.762Z" fill="#E9EEF4" stroke="#4F82BE" stroke-width="0.351926"/>
<path d="M299.762 85.0597H304.999V85.4581H299.762V85.0597Z" fill="#E9EEF4"/>
<path d="M299.762 73.9044H304.999V74.502H299.762V73.9044Z" fill="#E9EEF4"/>
<path d="M299.762 78.4861H304.999V79.0837H299.762V78.4861Z" fill="#E9EEF4"/>
<path d="M299.762 21.7131H304.999V21.9123H299.762V21.7131Z" fill="#E9EEF4"/>
<path d="M0.480469 79.8805H5.71793V90.4383H0.480469V79.8805Z" fill="#E9EEF4"/>
<path d="M299.762 142.63H304.999V143.227H299.762V142.63Z" fill="#E9EEF4"/>
<path d="M299.762 56.3745H304.999V57.1713H299.762V56.3745Z" fill="#E9EEF4"/>
<path d="M299.762 93.0278H304.999V93.4262H299.762V93.0278Z" fill="#E9EEF4"/>
<path d="M299.762 87.0518H304.999V87.251H299.762V87.0518Z" fill="#E9EEF4"/>
<path d="M299.762 127.888H304.999V128.685H299.762V127.888Z" fill="#E9EEF4"/>
<path d="M299.762 58.765H304.999V59.761H299.762V58.765Z" fill="#E9EEF4"/>
<path d="M299.762 25.0996H304.999V25.2988H299.762V25.0996Z" fill="#E9EEF4"/>
<path d="M0.480469 92.0319H5.71793V102.789H0.480469V92.0319Z" fill="#E9EEF4"/>
<path d="M299.762 83.0677H304.999V83.4662H299.762V83.0677Z" fill="#E9EEF4"/>
<path d="M299.762 144.821H304.999V145.02H299.762V144.821Z" fill="#E9EEF4"/>
<path d="M151.244 98.6089H158.726V114.038H151.244V98.6089Z" fill="#E9EEF4"/>
<path d="M299.762 95.0199H304.999V95.2191H299.762V95.0199Z" fill="#E9EEF4"/>
<path d="M299.762 76.0956H304.999V76.8924H299.762V76.0956Z" fill="#E9EEF4"/>
<path d="M299.762 88.8446H304.999V89.4422H299.762V88.8446Z" fill="#E9EEF4"/>
<path d="M299.762 14.3427H304.999V14.7411H299.762V14.3427Z" fill="#E9EEF4"/>
<path d="M299.762 16.3347H304.999V16.7331H299.762V16.3347Z" fill="#E9EEF4"/>
<path d="M299.762 45.6176H304.999V47.4104H299.762V45.6176Z" fill="#E9EEF4"/>
<path d="M299.762 100.598H304.999V100.797H299.762V100.598Z" fill="#E9EEF4"/>
<path d="M299.762 28.4861H304.999V28.6853H299.762V28.4861Z" fill="#E9EEF4"/>
<path d="M299.762 130.279H304.999V131.275H299.762V130.279Z" fill="#E9EEF4"/>
<path d="M299.762 30.2789H304.999V30.4781H299.762V30.2789Z" fill="#E9EEF4"/>
<path d="M299.762 114.343H304.999V115.737H299.762V114.343Z" fill="#E9EEF4"/>
<path d="M299.762 138.048H304.999V138.845H299.762V138.048Z" fill="#E9EEF4"/>
<path d="M299.762 80.6772H304.999V81.4741H299.762V80.6772Z" fill="#E9EEF4"/>
<path d="M151.244 76.8169H158.726V97.0153H151.244V76.8169Z" fill="#E9EEF4"/>
<path d="M299.762 32.0718H304.999V32.271H299.762V32.0718Z" fill="#E9EEF4"/>
<path d="M299.762 61.3546H304.999V62.3506H299.762V61.3546Z" fill="#E9EEF4"/>
<path d="M299.762 91.0359H304.999V91.4343H299.762V91.0359Z" fill="#E9EEF4"/>
<path d="M299.762 132.869H304.999V134.064H299.762V132.869Z" fill="#E9EEF4"/>
<path d="M299.762 122.51H304.999V123.705H299.762V122.51Z" fill="#E9EEF4"/>
<path d="M299.762 96.8127H304.999V97.2112H299.762V96.8127Z" fill="#E9EEF4"/>
<path d="M151.244 70.9248H158.726V75.2233H151.244V70.9248Z" fill="#E9EEF4"/>
<path d="M299.762 33.8645H304.999V34.0637H299.762V33.8645Z" fill="#E9EEF4"/>
<path d="M0.480469 65.7371H5.71793V78.2869H0.480469V65.7371Z" fill="#E9EEF4"/>
<path d="M299.762 98.8047H304.999V99.0039H299.762V98.8047Z" fill="#E9EEF4"/>
<path d="M299.762 102.39H304.999V102.59H299.762V102.39Z" fill="#E9EEF4"/>
<path d="M299.762 35.6573H304.999V36.0558H299.762V35.6573Z" fill="#E9EEF4"/>
</g>
<defs>
<clipPath id="clip0_12699_95476">
<rect width="305" height="150" fill="white" transform="translate(0.5)"/>
</clipPath>
</defs>
</svg>
