<svg width="800" height="406" viewBox="0 0 800 406" fill="none" xmlns="http://www.w3.org/2000/svg">
<path d="M9.24609 0.194214C136.214 0.194214 136.214 0.194214 263.182 0.194214V185.183C136.214 185.183 136.214 185.183 9.24609 185.183V0.194214Z" fill="#EFF4FA"/>
<path d="M272.832 0.194214C399.8 0.194214 399.8 0.194214 526.768 0.194214V174.885C399.8 174.885 399.8 174.885 272.832 174.885V0.194214Z" fill="#EFF4FA"/>
<path d="M536.283 0.194214C663.251 0.194214 663.251 0.194214 790.22 0.194214V96.2236C663.251 96.2236 663.251 96.2236 536.283 96.2236V0.194214Z" fill="#EFF4FA"/>
<path d="M536.283 96.2238C663.251 96.2238 663.251 140.747 790.22 140.747V214.919C663.251 214.919 663.251 170.397 536.283 170.397V96.2238Z" fill="#EFF4FA"/>
<path d="M536.283 170.396C663.251 170.396 663.251 263.801 790.22 263.801V266.142C663.251 266.142 663.251 172.737 536.283 172.737V170.396Z" fill="#EFF4FA"/>
<path d="M536.283 172.737C663.251 172.737 663.251 315.137 790.22 315.137V316.742C663.251 316.742 663.251 174.342 536.283 174.342V172.737Z" fill="#EFF4FA"/>
<path d="M536.283 174.342C663.251 174.342 663.251 336.43 790.22 336.43V336.973C663.251 336.973 663.251 174.885 536.283 174.885V174.342Z" fill="#EFF4FA"/>
<path d="M272.832 174.885C399.8 174.885 399.8 178.77 526.768 178.77V184.871C399.8 184.871 399.8 180.986 272.832 180.986V174.885Z" fill="#EFF4FA"/>
<path d="M536.283 178.77C663.251 178.77 663.251 96.2238 790.22 96.2238V99.8819C663.251 99.8819 663.251 182.428 536.283 182.428V178.77Z" fill="#EFF4FA"/>
<path d="M536.283 182.428C663.251 182.428 663.251 214.919 790.22 214.919V217.052C663.251 217.052 663.251 184.561 536.283 184.561V182.428Z" fill="#EFF4FA"/>
<path d="M536.283 184.679C663.251 184.679 663.251 316.742 790.22 316.742V317.228C663.251 317.228 663.251 185.165 536.283 185.165V184.679Z" fill="#EFF4FA"/>
<path d="M536.283 184.561C663.251 184.561 663.251 266.142 790.22 266.142V266.628C663.251 266.628 663.251 185.047 536.283 185.047V184.561Z" fill="#EFF4FA"/>
<path d="M536.283 184.85C663.251 184.85 663.251 336.973 790.22 336.973V337.458C663.251 337.458 663.251 185.336 536.283 185.336V184.85Z" fill="#EFF4FA"/>
<path d="M272.832 180.986C399.8 180.986 399.8 188.756 526.768 188.756V192.022C399.8 192.022 399.8 184.252 272.832 184.252V180.986Z" fill="#EFF4FA"/>
<path d="M536.283 188.935C663.251 188.935 663.251 217.052 790.22 217.052V220.032C663.251 220.032 663.251 191.914 536.283 191.914V188.935Z" fill="#EFF4FA"/>
<path d="M536.283 188.756C663.251 188.756 663.251 99.8818 790.22 99.8818V100.367C663.251 100.367 663.251 189.242 536.283 189.242V188.756Z" fill="#EFF4FA"/>
<path d="M536.283 191.914C663.251 191.914 663.251 316.913 790.22 316.913V317.398C663.251 317.398 663.251 192.399 536.283 192.399V191.914Z" fill="#EFF4FA"/>
<path d="M536.283 191.914C663.251 191.914 663.251 266.26 790.22 266.26V266.746C663.251 266.746 663.251 192.399 536.283 192.399V191.914Z" fill="#EFF4FA"/>
<path d="M536.283 192.022C663.251 192.022 663.251 336.993 790.22 336.993V337.479C663.251 337.479 663.251 192.508 536.283 192.508V192.022Z" fill="#EFF4FA"/>
<path d="M272.832 184.252C399.8 184.252 399.8 195.907 526.768 195.907V196.709C399.8 196.709 399.8 185.053 272.832 185.053V184.252Z" fill="#EFF4FA"/>
<path d="M536.283 195.907C663.251 195.907 663.251 100.06 790.22 100.06V100.791C663.251 100.791 663.251 196.638 536.283 196.638V195.907Z" fill="#EFF4FA"/>
<path d="M536.283 196.638C663.251 196.638 663.251 220.032 790.22 220.032V220.517C663.251 220.517 663.251 197.124 536.283 197.124V196.638Z" fill="#EFF4FA"/>
<path d="M536.283 196.696C663.251 196.696 663.251 266.26 790.22 266.26V266.746C663.251 266.746 663.251 197.181 536.283 197.181V196.696Z" fill="#EFF4FA"/>
<path d="M536.283 196.703C663.251 196.703 663.251 317.021 790.22 317.021V317.507C663.251 317.507 663.251 197.188 536.283 197.188V196.703Z" fill="#EFF4FA"/>
<path d="M536.283 196.707C663.251 196.707 663.251 336.993 790.22 336.993V337.479C663.251 337.479 663.251 197.193 536.283 197.193V196.707Z" fill="#EFF4FA"/>
<path d="M272.832 185.053C399.8 185.053 399.8 200.594 526.768 200.594V201.08C399.8 201.08 399.8 185.539 272.832 185.539V185.053Z" fill="#EFF4FA"/>
<path d="M536.283 200.594C663.251 200.594 663.251 317.026 790.22 317.026V317.511C663.251 317.511 663.251 201.08 536.283 201.08V200.594Z" fill="#EFF4FA"/>
<path d="M536.283 200.716C663.251 200.716 663.251 336.995 790.22 336.995V337.481C663.251 337.481 663.251 201.202 536.283 201.202V200.716Z" fill="#EFF4FA"/>
<path d="M536.283 200.594C663.251 200.594 663.251 266.267 790.22 266.267V266.753C663.251 266.753 663.251 201.08 536.283 201.08V200.594Z" fill="#EFF4FA"/>
<path d="M536.283 200.594C663.251 200.594 663.251 220.089 790.22 220.089V220.574C663.251 220.574 663.251 201.08 536.283 201.08V200.594Z" fill="#EFF4FA"/>
<path d="M536.283 200.594C663.251 200.594 663.251 100.791 790.22 100.791V101.277C663.251 101.277 663.251 201.08 536.283 201.08V200.594Z" fill="#EFF4FA"/>
<path d="M272.832 185.183C534.809 185.183 534.809 355.481 796.785 355.481V355.967C534.809 355.967 534.809 185.669 272.832 185.669V185.183Z" fill="white"/>
<path d="M272.832 185.183C534.809 185.183 534.809 359.366 796.785 359.366V359.852C534.809 359.852 534.809 185.669 272.832 185.669V185.183Z" fill="white"/>
<path d="M9.24609 185.183C136.214 185.183 136.214 189.069 263.182 189.069V355.299C136.214 355.299 136.214 351.413 9.24609 351.413V185.183Z" fill="#EFF4FA"/>
<path d="M272.832 189.068C399.8 189.068 399.8 204.609 526.768 204.609V226.802C399.8 226.802 399.8 211.262 272.832 211.262V189.068Z" fill="#EFF4FA"/>
<path d="M536.283 215.002C663.251 215.002 663.251 266.267 790.22 266.267V271.961C663.251 271.961 663.251 220.695 536.283 220.695V215.002Z" fill="#EFF4FA"/>
<path d="M536.283 209.327C663.251 209.327 663.251 220.089 790.22 220.089V225.764C663.251 225.764 663.251 215.002 536.283 215.002V209.327Z" fill="#EFF4FA"/>
<path d="M536.283 204.609C663.251 204.609 663.251 100.791 790.22 100.791V105.509C663.251 105.509 663.251 209.327 536.283 209.327V204.609Z" fill="#EFF4FA"/>
<path d="M536.283 224.239C663.251 224.239 663.251 363.252 790.22 363.252V365.816C663.251 365.816 663.251 226.803 536.283 226.803V224.239Z" fill="#EFF4FA"/>
<path d="M536.283 220.695C663.251 220.695 663.251 317.148 790.22 317.148V319.246C663.251 319.246 663.251 222.793 536.283 222.793V220.695Z" fill="#EFF4FA"/>
<path d="M536.283 222.793C663.251 222.793 663.251 337.003 790.22 337.003V338.448C663.251 338.448 663.251 224.239 536.283 224.239V222.793Z" fill="#EFF4FA"/>
<path d="M272.832 211.262C399.8 211.262 399.8 230.688 526.768 230.688V250.439C399.8 250.439 399.8 231.013 272.832 231.013V211.262Z" fill="#EFF4FA"/>
<path d="M536.283 239.208C663.251 239.208 663.251 271.96 790.22 271.96V278.171C663.251 278.171 663.251 245.419 536.283 245.419V239.208Z" fill="#EFF4FA"/>
<path d="M536.283 230.688C663.251 230.688 663.251 105.509 790.22 105.509V109.894C663.251 109.894 663.251 235.073 536.283 235.073V230.688Z" fill="#EFF4FA"/>
<path d="M536.283 235.073C663.251 235.073 663.251 225.764 790.22 225.764V229.899C663.251 229.899 663.251 239.209 536.283 239.209V235.073Z" fill="#EFF4FA"/>
<path d="M536.283 245.419C663.251 245.419 663.251 319.246 790.22 319.246V321.408C663.251 321.408 663.251 247.581 536.283 247.581V245.419Z" fill="#EFF4FA"/>
<path d="M536.283 247.581C663.251 247.581 663.251 338.448 790.22 338.448V340.051C663.251 340.051 663.251 249.184 536.283 249.184V247.581Z" fill="#EFF4FA"/>
<path d="M536.283 249.184C663.251 249.184 663.251 365.816 790.22 365.816V367.071C663.251 367.071 663.251 250.439 536.283 250.439V249.184Z" fill="#EFF4FA"/>
<path d="M272.832 231.013C399.8 231.013 399.8 254.324 526.768 254.324V272.994C399.8 272.994 399.8 249.683 272.832 249.683V231.013Z" fill="#EFF4FA"/>
<path d="M536.283 261.508C663.251 261.508 663.251 278.171 790.22 278.171V284.733C663.251 284.733 663.251 268.07 536.283 268.07V261.508Z" fill="#EFF4FA"/>
<path d="M536.283 257.364C663.251 257.364 663.251 229.899 790.22 229.899V234.043C663.251 234.043 663.251 261.508 536.283 261.508V257.364Z" fill="#EFF4FA"/>
<path d="M536.283 254.324C663.251 254.324 663.251 109.894 790.22 109.894V112.934C663.251 112.934 663.251 257.364 536.283 257.364V254.324Z" fill="#EFF4FA"/>
<path d="M536.283 271.039C663.251 271.039 663.251 367.071 790.22 367.071V369.025C663.251 369.025 663.251 272.994 536.283 272.994V271.039Z" fill="#EFF4FA"/>
<path d="M536.283 268.07C663.251 268.07 663.251 321.408 790.22 321.408V322.907C663.251 322.907 663.251 269.569 536.283 269.569V268.07Z" fill="#EFF4FA"/>
<path d="M536.283 269.57C663.251 269.57 663.251 340.051 790.22 340.051V341.521C663.251 341.521 663.251 271.039 536.283 271.039V269.57Z" fill="#EFF4FA"/>
<path d="M272.832 249.682C399.8 249.682 399.8 276.879 526.768 276.879V295.265C399.8 295.265 399.8 268.069 272.832 268.069V249.682Z" fill="#EFF4FA"/>
<path d="M536.283 281.704C663.251 281.704 663.251 234.043 790.22 234.043V239.718C663.251 239.718 663.251 287.378 536.283 287.378V281.704Z" fill="#EFF4FA"/>
<path d="M536.283 276.879C663.251 276.879 663.251 112.934 790.22 112.934V117.759C663.251 117.759 663.251 281.703 536.283 281.703V276.879Z" fill="#EFF4FA"/>
<path d="M536.283 287.378C663.251 287.378 663.251 284.733 790.22 284.733V287.66C663.251 287.66 663.251 290.305 536.283 290.305V287.378Z" fill="#EFF4FA"/>
<path d="M536.283 290.305C663.251 290.305 663.251 322.907 790.22 322.907V324.712C663.251 324.712 663.251 292.11 536.283 292.11V290.305Z" fill="#EFF4FA"/>
<path d="M536.283 292.11C663.251 292.11 663.251 341.521 790.22 341.521V343.222C663.251 343.222 663.251 293.81 536.283 293.81V292.11Z" fill="#EFF4FA"/>
<path d="M536.283 293.81C663.251 293.81 663.251 369.025 790.22 369.025V370.48C663.251 370.48 663.251 295.265 536.283 295.265V293.81Z" fill="#EFF4FA"/>
<path d="M272.832 268.069C399.8 268.069 399.8 299.151 526.768 299.151V316.476C399.8 316.476 399.8 285.395 272.832 285.395V268.069Z" fill="#EFF4FA"/>
<path d="M536.283 306.109C663.251 306.109 663.251 287.66 790.22 287.66V294.811C663.251 294.811 663.251 313.26 536.283 313.26V306.109Z" fill="#EFF4FA"/>
<path d="M536.283 299.15C663.251 299.15 663.251 117.759 790.22 117.759V121.958C663.251 121.958 663.251 303.35 536.283 303.35V299.15Z" fill="#EFF4FA"/>
<path d="M536.283 303.35C663.251 303.35 663.251 239.718 790.22 239.718V242.478C663.251 242.478 663.251 306.109 536.283 306.109V303.35Z" fill="#EFF4FA"/>
<path d="M536.283 314.561C663.251 314.561 663.251 343.222 790.22 343.222V345.137C663.251 345.137 663.251 316.476 536.283 316.476V314.561Z" fill="#EFF4FA"/>
<path d="M536.283 313.26C663.251 313.26 663.251 324.712 790.22 324.712V326.013C663.251 326.013 663.251 314.561 536.283 314.561V313.26Z" fill="#EFF4FA"/>
<path d="M536.283 316.476C663.251 316.476 663.251 370.48 790.22 370.48V370.966C663.251 370.966 663.251 316.962 536.283 316.962V316.476Z" fill="#EFF4FA"/>
<path d="M272.832 285.395C399.8 285.395 399.8 320.361 526.768 320.361V337.387C399.8 337.387 399.8 302.42 272.832 302.42V285.395Z" fill="#EFF4FA"/>
<path d="M536.283 328.682C663.251 328.682 663.251 294.811 790.22 294.811V300.026C663.251 300.026 663.251 333.897 536.283 333.897V328.682Z" fill="#EFF4FA"/>
<path d="M536.283 323.61C663.251 323.61 663.251 242.478 790.22 242.478V247.55C663.251 247.55 663.251 328.682 536.283 328.682V323.61Z" fill="#EFF4FA"/>
<path d="M536.283 320.361C663.251 320.361 663.251 121.958 790.22 121.958V125.207C663.251 125.207 663.251 323.61 536.283 323.61V320.361Z" fill="#EFF4FA"/>
<path d="M536.283 333.897C663.251 333.897 663.251 326.013 790.22 326.013V328.071C663.251 328.071 663.251 335.955 536.283 335.955V333.897Z" fill="#EFF4FA"/>
<path d="M536.283 335.956C663.251 335.956 663.251 345.137 790.22 345.137V346.568C663.251 346.568 663.251 337.387 536.283 337.387V335.956Z" fill="#EFF4FA"/>
<path d="M536.283 337.387C663.251 337.387 663.251 370.48 790.22 370.48V370.966C663.251 370.966 663.251 337.872 536.283 337.872V337.387Z" fill="#EFF4FA"/>
<path d="M272.832 302.42C399.8 302.42 399.8 341.272 526.768 341.272V356.825C399.8 356.825 399.8 317.973 272.832 317.973V302.42Z" fill="#EFF4FA"/>
<path d="M536.283 345.506C663.251 345.506 663.251 247.55 790.22 247.55V252.325C663.251 252.325 663.251 350.281 536.283 350.281V345.506Z" fill="#EFF4FA"/>
<path d="M536.283 341.272C663.251 341.272 663.251 125.207 790.22 125.207V129.441C663.251 129.441 663.251 345.506 536.283 345.506V341.272Z" fill="#EFF4FA"/>
<path d="M536.283 354.945C663.251 354.945 663.251 370.48 790.22 370.48V372.36C663.251 372.36 663.251 356.825 536.283 356.825V354.945Z" fill="#EFF4FA"/>
<path d="M536.283 350.281C663.251 350.281 663.251 300.026 790.22 300.026V301.735C663.251 301.735 663.251 351.99 536.283 351.99V350.281Z" fill="#EFF4FA"/>
<path d="M536.283 353.426C663.251 353.426 663.251 346.568 790.22 346.568V348.086C663.251 348.086 663.251 354.945 536.283 354.945V353.426Z" fill="#EFF4FA"/>
<path d="M536.283 351.99C663.251 351.99 663.251 328.071 790.22 328.071V329.507C663.251 329.507 663.251 353.426 536.283 353.426V351.99Z" fill="#EFF4FA"/>
<path d="M272.832 317.973C399.8 317.973 399.8 360.71 526.768 360.71V375.364C399.8 375.364 399.8 332.627 272.832 332.627V317.973Z" fill="#EFF4FA"/>
<path d="M536.283 360.71C663.251 360.71 663.251 129.441 790.22 129.441V133.28C663.251 133.28 663.251 364.549 536.283 364.549V360.71Z" fill="#EFF4FA"/>
<path d="M536.283 364.55C663.251 364.55 663.251 252.325 790.22 252.325V255.766C663.251 255.766 663.251 367.99 536.283 367.99V364.55Z" fill="#EFF4FA"/>
<path d="M536.283 367.99C663.251 367.99 663.251 301.735 790.22 301.735V304.986C663.251 304.986 663.251 371.241 536.283 371.241V367.99Z" fill="#EFF4FA"/>
<path d="M536.283 373.045C663.251 373.045 663.251 372.36 790.22 372.36V374.68C663.251 374.68 663.251 375.364 536.283 375.364V373.045Z" fill="#EFF4FA"/>
<path d="M536.283 371.241C663.251 371.241 663.251 329.507 790.22 329.507V330.494C663.251 330.494 663.251 372.228 536.283 372.228V371.241Z" fill="#EFF4FA"/>
<path d="M536.283 372.228C663.251 372.228 663.251 348.087 790.22 348.087V348.903C663.251 348.903 663.251 373.045 536.283 373.045V372.228Z" fill="#EFF4FA"/>
<path d="M272.832 332.627C399.8 332.627 399.8 379.249 526.768 379.249V390.665C399.8 390.665 399.8 344.043 272.832 344.043V332.627Z" fill="#EFF4FA"/>
<path d="M536.283 381.83C663.251 381.83 663.251 255.766 790.22 255.766V259.061C663.251 259.061 663.251 385.125 536.283 385.125V381.83Z" fill="#EFF4FA"/>
<path d="M536.283 379.249C663.251 379.249 663.251 133.28 790.22 133.28V135.86C663.251 135.86 663.251 381.829 536.283 381.829V379.249Z" fill="#EFF4FA"/>
<path d="M536.283 388.675C663.251 388.675 663.251 374.68 790.22 374.68V376.669C663.251 376.669 663.251 390.665 536.283 390.665V388.675Z" fill="#EFF4FA"/>
<path d="M536.283 387.129C663.251 387.129 663.251 348.903 790.22 348.903V350.449C663.251 350.449 663.251 388.675 536.283 388.675V387.129Z" fill="#EFF4FA"/>
<path d="M536.283 385.596C663.251 385.596 663.251 330.494 790.22 330.494V332.027C663.251 332.027 663.251 387.129 536.283 387.129V385.596Z" fill="#EFF4FA"/>
<path d="M536.283 385.124C663.251 385.124 663.251 304.986 790.22 304.986V305.471C663.251 305.471 663.251 385.61 536.283 385.61V385.124Z" fill="#EFF4FA"/>
<path d="M272.832 344.043C399.8 344.043 399.8 394.55 526.768 394.55V405.806C399.8 405.806 399.8 355.298 272.832 355.298V344.043Z" fill="#EFF4FA"/>
<path d="M536.283 396.406C663.251 396.406 663.251 305.458 790.22 305.458V311.252C663.251 311.252 663.251 402.201 536.283 402.201V396.406Z" fill="#EFF4FA"/>
<path d="M536.283 403.865C663.251 403.865 663.251 376.669 790.22 376.669V378.609C663.251 378.609 663.251 405.806 536.283 405.806V403.865Z" fill="#EFF4FA"/>
<path d="M536.283 402.718C663.251 402.718 663.251 350.449 790.22 350.449V351.596C663.251 351.596 663.251 403.865 536.283 403.865V402.718Z" fill="#EFF4FA"/>
<path d="M536.283 394.55C663.251 394.55 663.251 135.86 790.22 135.86V136.861C663.251 136.861 663.251 395.551 536.283 395.551V394.55Z" fill="#EFF4FA"/>
<path d="M536.283 395.551C663.251 395.551 663.251 259.061 790.22 259.061V259.916C663.251 259.916 663.251 396.406 536.283 396.406V395.551Z" fill="#EFF4FA"/>
<path d="M536.283 402.2C663.251 402.2 663.251 332.027 790.22 332.027V332.545C663.251 332.545 663.251 402.718 536.283 402.718V402.2Z" fill="#EFF4FA"/>
<path d="M0 0H9.64824V109.756H0V0Z" fill="#EFF4FA"/>
<path d="M0 109.756H9.64824V219.512H0V109.756Z" fill="#EFF4FA"/>
<path d="M0 219.512H9.64824V266.134H0V219.512Z" fill="#EFF4FA"/>
<path d="M0 266.134H9.64824V351.608H0V266.134Z" fill="#EFF4FA"/>
<path d="M262.914 0H272.562V21.3684H262.914V0Z" fill="white"/>
<path d="M262.914 21.3684H272.562V42.7368H262.914V21.3684Z" fill="white"/>
<path d="M262.914 41.2799H272.562V117.526H262.914V41.2799Z" fill="white"/>
<path d="M262.914 152.978H272.562V185.031H262.914V152.978Z" fill="white"/>
<path d="M262.914 117.526H272.562V152.978H262.914V117.526Z" fill="white"/>
<path d="M526.633 0H536.281V174.833H526.633V0Z" fill="white"/>
<path d="M790.352 0H800V94.2153H790.352V0Z" fill="#EFF4FA"/>
<path d="M790.352 135.981H800V94.2153H790.352V135.981Z" fill="#EFF4FA"/>
<path d="M790.352 140.837H800V259.821H790.352V140.837Z" fill="#EFF4FA"/>
<path d="M790.352 263.706H800V311.299H790.352V263.706Z" fill="#EFF4FA"/>
<path d="M790.352 315.184H800V332.667H790.352V315.184Z" fill="#EFF4FA"/>
<path d="M790.352 336.553H800V351.608H790.352V336.553Z" fill="#EFF4FA"/>
<path d="M526.633 178.718H536.281V185.031H526.633V178.718Z" fill="white"/>
<path d="M526.633 188.916H536.281V191.83H526.633V188.916Z" fill="white"/>
<path d="M526.633 195.715H536.281V196.687H526.633V195.715Z" fill="white"/>
<path d="M262.914 188.916H272.562V355.493H262.914V188.916Z" fill="white"/>
<path d="M526.633 204.457H536.281V226.797H526.633V204.457Z" fill="white"/>
<path d="M790.352 363.263H800V378.804H790.352V363.263Z" fill="#EFF4FA"/>
<path d="M526.633 230.682H536.281V250.593H526.633V230.682Z" fill="white"/>
<path d="M526.633 254.478H536.281V272.933H526.633V254.478Z" fill="white"/>
<path d="M526.633 276.818H536.281V295.273H526.633V276.818Z" fill="white"/>
<path d="M526.633 299.158H536.281V316.641H526.633V299.158Z" fill="white"/>
<path d="M526.633 320.526H536.281V337.524H526.633V320.526Z" fill="white"/>
<path d="M526.633 341.409H536.281V356.95H526.633V341.409Z" fill="white"/>
<path d="M526.633 360.835H536.281V375.404H526.633V360.835Z" fill="white"/>
<path d="M526.633 379.289H536.281V390.459H526.633V379.289Z" fill="white"/>
<path d="M526.633 394.344H536.281V406H526.633V394.344Z" fill="white"/>
<path d="M549.612 202.48L547.208 193.753H547.498L549.782 202.054H549.816L552.032 193.753H552.407L554.623 202.054H554.657L556.941 193.753H557.231L554.827 202.48H554.452L552.237 194.179H552.202L549.987 202.48H549.612ZM560.252 202.617C559.895 202.617 559.564 202.543 559.26 202.395C558.958 202.247 558.716 202.031 558.531 201.747C558.349 201.463 558.258 201.117 558.258 200.708C558.258 200.486 558.294 200.279 558.365 200.085C558.436 199.889 558.561 199.712 558.74 199.553C558.919 199.394 559.169 199.257 559.49 199.144C559.814 199.03 560.227 198.943 560.73 198.884C561.031 198.85 561.315 198.81 561.582 198.764C561.849 198.719 562.066 198.651 562.234 198.56C562.402 198.469 562.485 198.338 562.485 198.168V197.776C562.485 197.273 562.316 196.87 561.978 196.566C561.64 196.259 561.19 196.105 560.627 196.105C560.167 196.105 559.765 196.208 559.422 196.412C559.078 196.614 558.838 196.898 558.701 197.264L558.446 197.162C558.548 196.889 558.706 196.654 558.919 196.455C559.132 196.256 559.385 196.103 559.677 195.995C559.97 195.887 560.287 195.833 560.627 195.833C560.96 195.833 561.257 195.882 561.518 195.982C561.782 196.078 562.007 196.215 562.191 196.391C562.376 196.564 562.517 196.769 562.613 197.004C562.71 197.24 562.758 197.497 562.758 197.776V202.48H562.485V201.151H562.451C562.315 201.446 562.137 201.705 561.919 201.926C561.703 202.145 561.453 202.316 561.169 202.438C560.887 202.557 560.582 202.617 560.252 202.617ZM560.252 202.344C560.667 202.344 561.044 202.233 561.382 202.012C561.72 201.787 561.988 201.476 562.187 201.078C562.386 200.678 562.485 200.213 562.485 199.685V198.696C562.406 198.756 562.309 198.808 562.196 198.854C562.085 198.899 561.958 198.941 561.816 198.978C561.677 199.012 561.525 199.041 561.36 199.067C561.196 199.093 561.02 199.117 560.832 199.139C560.247 199.208 559.787 199.311 559.451 199.451C559.116 199.59 558.879 199.764 558.74 199.975C558.6 200.185 558.531 200.429 558.531 200.708C558.531 201.202 558.696 201.598 559.025 201.897C559.358 202.195 559.767 202.344 560.252 202.344ZM567.654 195.935V196.208H565.063V195.935H567.654ZM566.017 194.367H566.29V201.1C566.29 201.355 566.347 201.576 566.461 201.76C566.574 201.942 566.725 202.083 566.912 202.182C567.1 202.279 567.301 202.327 567.517 202.327C567.6 202.327 567.675 202.32 567.743 202.306C567.814 202.291 567.887 202.27 567.961 202.242L568.046 202.497C567.961 202.529 567.877 202.553 567.794 202.57C567.712 202.59 567.62 202.6 567.517 202.6C567.25 202.6 567.002 202.539 566.772 202.416C566.544 202.294 566.361 202.121 566.222 201.897C566.086 201.672 566.017 201.406 566.017 201.1V194.367ZM572.664 202.617C572.093 202.617 571.593 202.468 571.164 202.169C570.738 201.871 570.407 201.466 570.172 200.955C569.936 200.443 569.818 199.867 569.818 199.225C569.818 198.583 569.936 198.006 570.172 197.495C570.41 196.983 570.734 196.578 571.143 196.28C571.552 195.982 572.014 195.833 572.528 195.833C572.909 195.833 573.261 195.914 573.585 196.076C573.912 196.237 574.196 196.462 574.437 196.749C574.679 197.036 574.866 197.367 575 197.742C575.136 198.114 575.204 198.512 575.204 198.935V199.208H569.954V198.935H574.931C574.931 198.409 574.824 197.933 574.608 197.507C574.392 197.078 574.102 196.737 573.738 196.485C573.375 196.232 572.971 196.105 572.528 196.105C572.079 196.105 571.673 196.239 571.309 196.506C570.946 196.773 570.654 197.137 570.436 197.597C570.217 198.057 570.102 198.577 570.091 199.156V199.191C570.091 199.762 570.19 200.287 570.389 200.767C570.591 201.245 570.883 201.627 571.267 201.914C571.65 202.201 572.116 202.344 572.664 202.344C573.068 202.344 573.406 202.273 573.679 202.131C573.954 201.989 574.174 201.826 574.339 201.641C574.507 201.456 574.63 201.299 574.71 201.168L574.931 201.321C574.835 201.486 574.69 201.669 574.497 201.871C574.304 202.073 574.056 202.247 573.755 202.395C573.454 202.543 573.091 202.617 572.664 202.617ZM577.636 202.48V195.935H577.908V196.975H577.942C578.096 196.634 578.347 196.361 578.697 196.156C579.049 195.952 579.451 195.85 579.903 195.85C579.937 195.85 579.96 195.85 579.971 195.85C579.982 195.85 580.005 195.85 580.039 195.85V196.122C580.005 196.122 579.982 196.122 579.971 196.122C579.96 196.122 579.937 196.122 579.903 196.122C579.516 196.122 579.173 196.206 578.871 196.374C578.573 196.541 578.337 196.773 578.164 197.068C577.994 197.364 577.908 197.702 577.908 198.083V202.48H577.636ZM552.254 215.333V210.935H552.526V217.48H552.254V216.441H552.219C552.066 216.781 551.813 217.054 551.461 217.259C551.112 217.463 550.711 217.566 550.259 217.566C549.822 217.566 549.435 217.47 549.1 217.28C548.765 217.09 548.502 216.827 548.312 216.492C548.121 216.156 548.026 215.77 548.026 215.333V210.935H548.299V215.333C548.299 215.912 548.481 216.384 548.844 216.747C549.208 217.111 549.68 217.293 550.259 217.293C550.646 217.293 550.988 217.209 551.286 217.041C551.587 216.874 551.823 216.642 551.994 216.347C552.167 216.051 552.254 215.713 552.254 215.333ZM559.267 212.316L558.994 212.384C558.906 212.1 558.783 211.864 558.624 211.676C558.467 211.486 558.276 211.344 558.048 211.25C557.821 211.154 557.557 211.105 557.256 211.105C556.733 211.105 556.31 211.239 555.986 211.506C555.662 211.77 555.5 212.12 555.5 212.554C555.5 212.898 555.609 213.186 555.828 213.419C556.05 213.652 556.384 213.824 556.83 213.935L557.852 214.191C558.332 214.31 558.696 214.512 558.943 214.796C559.193 215.08 559.318 215.424 559.318 215.827C559.318 216.182 559.224 216.495 559.037 216.764C558.852 217.034 558.597 217.245 558.27 217.395C557.943 217.543 557.565 217.617 557.136 217.617C556.554 217.617 556.078 217.475 555.709 217.191C555.339 216.906 555.099 216.503 554.989 215.98L555.261 215.912C555.358 216.375 555.564 216.73 555.879 216.978C556.197 217.222 556.616 217.344 557.136 217.344C557.705 217.344 558.165 217.205 558.517 216.926C558.869 216.648 559.045 216.281 559.045 215.827C559.045 215.489 558.94 215.203 558.73 214.97C558.52 214.737 558.205 214.568 557.784 214.463L556.761 214.208C556.259 214.083 555.876 213.878 555.615 213.594C555.357 213.31 555.227 212.963 555.227 212.554C555.227 212.21 555.312 211.911 555.483 211.655C555.656 211.397 555.895 211.195 556.199 211.05C556.506 210.905 556.858 210.833 557.256 210.833C557.761 210.833 558.183 210.958 558.521 211.208C558.859 211.455 559.108 211.824 559.267 212.316ZM564.219 217.617C563.648 217.617 563.148 217.468 562.719 217.169C562.293 216.871 561.962 216.466 561.726 215.955C561.49 215.443 561.373 214.867 561.373 214.225C561.373 213.583 561.49 213.006 561.726 212.495C561.965 211.983 562.289 211.578 562.698 211.28C563.107 210.982 563.569 210.833 564.083 210.833C564.463 210.833 564.816 210.914 565.14 211.076C565.466 211.237 565.75 211.462 565.992 211.749C566.233 212.036 566.421 212.367 566.554 212.742C566.691 213.114 566.759 213.512 566.759 213.935V214.208H561.509V213.935H566.486C566.486 213.409 566.378 212.933 566.162 212.507C565.946 212.078 565.657 211.737 565.293 211.485C564.929 211.232 564.526 211.105 564.083 211.105C563.634 211.105 563.228 211.239 562.864 211.506C562.5 211.773 562.209 212.137 561.99 212.597C561.772 213.057 561.657 213.577 561.645 214.156V214.191C561.645 214.762 561.745 215.287 561.944 215.767C562.145 216.245 562.438 216.627 562.821 216.914C563.205 217.201 563.671 217.344 564.219 217.344C564.623 217.344 564.961 217.273 565.233 217.131C565.509 216.989 565.729 216.826 565.894 216.641C566.061 216.456 566.185 216.299 566.265 216.168L566.486 216.321C566.39 216.486 566.245 216.669 566.051 216.871C565.858 217.073 565.611 217.247 565.31 217.395C565.009 217.543 564.645 217.617 564.219 217.617Z" fill="#EFF4FA"/>
</svg>
