<svg width="816" height="416" viewBox="0 0 816 416" fill="none" xmlns="http://www.w3.org/2000/svg">
<path d="M0 3.99999C0 1.79085 1.79086 0 4 0H812C814.209 0 816 1.79086 816 4V412C816 414.209 814.209 416 812 416H3.99999C1.79085 416 0 414.209 0 412V3.99999Z" fill="#EEF2F7"/>
<path d="M17.5469 48.8321C17.5469 46.6229 19.3377 44.8321 21.5469 44.8321H391.568C393.778 44.8321 395.568 46.6229 395.568 48.8321V399.489C395.568 401.698 393.778 403.489 391.568 403.489H21.5469C19.3377 403.489 17.5469 401.698 17.5469 399.489V48.8321Z" fill="white"/>
<path d="M401.42 48.8321C401.42 46.6229 403.211 44.8321 405.42 44.8321H794.452C796.661 44.8321 798.452 46.6229 798.452 48.8321V204C798.452 206.209 796.661 208 794.452 208H405.42C403.211 208 401.42 206.209 401.42 204V48.8321Z" fill="white"/>
<path d="M401.42 216.17C401.42 213.961 403.211 212.17 405.42 212.17H613.85C616.059 212.17 617.85 213.961 617.85 216.17V399.489C617.85 401.698 616.059 403.489 613.85 403.489H405.42C403.211 403.489 401.42 401.698 401.42 399.489V216.17Z" fill="white"/>
<path d="M623.699 216.17C623.699 213.961 625.49 212.17 627.699 212.17H794.452C796.661 212.17 798.452 213.961 798.452 216.17V318.687C798.452 320.896 796.661 322.687 794.452 322.687H627.699C625.49 322.687 623.699 320.896 623.699 318.687V216.17Z" fill="white"/>
<path d="M623.699 330.857C623.699 328.648 625.49 326.857 627.699 326.857H712.559C714.769 326.857 716.559 328.648 716.559 330.857V399.489C716.559 401.698 714.769 403.489 712.559 403.489H627.699C625.49 403.489 623.699 401.698 623.699 399.489V330.857Z" fill="white"/>
<path d="M722.408 330.857C722.408 328.648 724.199 326.857 726.408 326.857H794.451C796.66 326.857 798.451 328.648 798.451 330.857V399.489C798.451 401.698 796.66 403.489 794.451 403.489H726.408C724.199 403.489 722.408 401.698 722.408 399.489V330.857Z" fill="white"/>
</svg>
