<svg width="304" height="150" viewBox="0 0 304 150" fill="none" xmlns="http://www.w3.org/2000/svg">
<path opacity="0.75" d="M0 4C0 1.79086 1.79086 0 4 0H143.134C145.343 0 147.134 1.79086 147.134 4V146C147.134 148.209 145.343 150 143.134 150H3.99999C1.79086 150 0 148.209 0 146V4Z" fill="#C2C9CD"/>
<path opacity="0.75" d="M149.451 4C149.451 1.79086 151.242 0 153.451 0H300C302.209 0 304 1.79086 304 4V58.1429C304 60.352 302.209 62.1429 300 62.1429H153.451C151.242 62.1429 149.451 60.352 149.451 58.1429V4Z" fill="#C2C9CD"/>
<path opacity="0.75" d="M149.441 68.6855C149.441 66.4764 151.232 64.6855 153.441 64.6855H229.637C231.846 64.6855 233.637 66.4764 233.637 68.6855V145.91C233.637 148.12 231.846 149.91 229.637 149.91H153.441C151.232 149.91 149.441 148.12 149.441 145.91V68.6855Z" fill="#C2C9CD"/>
<path opacity="0.75" d="M235.91 68.6855C235.91 66.4764 237.701 64.6855 239.91 64.6855H299.892C302.101 64.6855 303.892 66.4764 303.892 68.6855V109.916C303.892 112.125 302.101 113.916 299.892 113.916H239.91C237.701 113.916 235.91 112.125 235.91 109.916V68.6855Z" fill="#C2C9CD"/>
<path opacity="0.75" d="M235.91 119.774C235.91 117.565 237.701 115.774 239.91 115.774H268.035C270.244 115.774 272.034 117.565 272.034 119.774V145.91C272.034 148.12 270.244 149.91 268.034 149.91H239.91C237.701 149.91 235.91 148.12 235.91 145.91V119.774Z" fill="#C2C9CD"/>
<path opacity="0.75" d="M274.311 119.774C274.311 117.565 276.101 115.774 278.311 115.774H299.893C302.102 115.774 303.893 117.565 303.893 119.774V145.91C303.893 148.12 302.102 149.91 299.893 149.91H278.311C276.101 149.91 274.311 148.12 274.311 145.91V119.774Z" fill="#C2C9CD"/>
<path d="M239.814 71.9285C239.814 69.7193 241.605 67.9285 243.814 67.9285H264.546C266.755 67.9285 268.546 69.7193 268.546 71.9285V106.571C268.546 108.78 266.755 110.571 264.546 110.571H243.814C241.605 110.571 239.814 108.78 239.814 106.571V71.9285Z" fill="#252C34"/>
<path d="M269.703 71.9285C269.703 69.7193 271.494 67.9285 273.703 67.9285H295.825C298.034 67.9285 299.825 69.7193 299.825 71.9285V91.5713C299.825 93.7805 298.034 95.5713 295.825 95.5713H273.703C271.494 95.5713 269.703 93.7805 269.703 91.5713V71.9285Z" fill="#252C34"/>
<path d="M269.758 100.5C269.758 98.2906 271.549 96.4998 273.758 96.4998H295.909C298.118 96.4998 299.909 98.2906 299.909 100.5V106.665C299.909 108.874 298.118 110.665 295.909 110.665H273.758C271.549 110.665 269.758 108.874 269.758 106.665V100.5Z" fill="#252C34"/>
<path d="M239.818 123.786C239.818 121.577 241.609 119.786 243.818 119.786H264.087C266.296 119.786 268.087 121.577 268.087 123.786V142.571C268.087 144.781 266.296 146.571 264.087 146.571H243.818C241.609 146.571 239.818 144.781 239.818 142.571V123.786Z" fill="#252C34"/>
<path d="M278.281 123.786C278.281 121.577 280.072 119.786 282.281 119.786H295.83C298.039 119.786 299.83 121.577 299.83 123.786V142.571C299.83 144.781 298.039 146.571 295.83 146.571H282.281C280.072 146.571 278.281 144.781 278.281 142.571V123.786Z" fill="#252C34"/>
<path d="M153.391 71.9286C153.391 69.7194 155.181 67.9286 157.391 67.9286H225.854C228.063 67.9286 229.854 69.7194 229.854 71.9286V107.214C229.854 109.423 228.063 111.214 225.854 111.214H157.391C155.181 111.214 153.391 109.423 153.391 107.214V71.9286Z" fill="#252C34"/>
<path d="M153.424 116.059C153.424 113.849 155.215 112.059 157.424 112.059H199.486C201.695 112.059 203.486 113.849 203.486 116.059V142.659C203.486 144.869 201.695 146.659 199.486 146.659H157.424C155.215 146.659 153.424 144.869 153.424 142.659V116.059Z" fill="#252C34"/>
<path d="M204.621 116.059C204.621 113.849 206.412 112.059 208.621 112.059H225.652C227.861 112.059 229.652 113.849 229.652 116.059V127.565C229.652 129.774 227.861 131.565 225.652 131.565H208.621C206.412 131.565 204.621 129.774 204.621 127.565V116.059Z" fill="#252C34"/>
<path d="M204.621 136.494C204.621 134.285 206.412 132.494 208.621 132.494H225.652C227.861 132.494 229.652 134.285 229.652 136.494V142.659C229.652 144.869 227.861 146.659 225.652 146.659H208.621C206.412 146.659 204.621 144.869 204.621 142.659V136.494Z" fill="#252C34"/>
<path d="M49.8848 116.171C49.8848 113.962 51.6756 112.171 53.8848 112.171H83.1469C85.356 112.171 87.1469 113.962 87.1469 116.171V142.659C87.1469 144.868 85.356 146.659 83.1469 146.659H53.8848C51.6756 146.659 49.8848 144.868 49.8848 142.659V116.171Z" fill="#252C34"/>
<path d="M4.08789 8.30835C4.08789 6.09921 5.87875 4.30835 8.08789 4.30835H67.501C69.7102 4.30835 71.501 6.09921 71.501 8.30835V77.8699C71.501 80.0791 69.7102 81.8699 67.501 81.8699H8.08789C5.87875 81.8699 4.08789 80.0791 4.08789 77.8699V8.30835Z" fill="#252C34"/>
<path d="M4.08789 86.7747C4.08789 84.5655 5.87875 82.7747 8.08789 82.7747H87.9809C90.1901 82.7747 91.9809 84.5655 91.9809 86.7747V107.245C91.9809 109.454 90.1901 111.245 87.9809 111.245H8.08789C5.87875 111.245 4.08789 109.454 4.08789 107.245V86.7747Z" fill="#252C34"/>
<path d="M4.08789 116.171C4.08789 113.962 5.87875 112.171 8.08789 112.171H44.7455C46.9547 112.171 48.7455 113.962 48.7455 116.171V142.659C48.7455 144.868 46.9547 146.659 44.7455 146.659H8.0879C5.87876 146.659 4.08789 144.868 4.08789 142.659V116.171Z" fill="#252C34"/>
<path d="M93.1191 86.7747C93.1191 84.5655 94.91 82.7747 97.1191 82.7747H139.181C141.39 82.7747 143.181 84.5655 143.181 86.7747V107.245C143.181 109.454 141.39 111.245 139.181 111.245H97.1191C94.91 111.245 93.1191 109.454 93.1191 107.245V86.7747Z" fill="#252C34"/>
<path d="M88.2832 116.171C88.2832 113.962 90.0741 112.171 92.2832 112.171H113.012C115.221 112.171 117.012 113.962 117.012 116.171V142.659C117.012 144.868 115.221 146.659 113.012 146.659H92.2832C90.0741 146.659 88.2832 144.868 88.2832 142.659V116.171Z" fill="#252C34"/>
<path d="M118.15 116.171C118.15 113.962 119.941 112.171 122.15 112.171H139.181C141.391 112.171 143.181 113.962 143.181 116.171V127.614C143.181 129.823 141.391 131.614 139.181 131.614H122.15C119.941 131.614 118.15 129.823 118.15 127.614V116.171Z" fill="#252C34"/>
<path d="M118.15 136.54C118.15 134.331 119.941 132.54 122.15 132.54H139.181C141.391 132.54 143.181 134.331 143.181 136.54V142.659C143.181 144.869 141.391 146.659 139.181 146.659H122.15C119.941 146.659 118.15 144.869 118.15 142.659V136.54Z" fill="#252C34"/>
<path d="M72.6387 8.30835C72.6387 6.09921 74.4295 4.30835 76.6387 4.30835H103.91C106.119 4.30835 107.91 6.09921 107.91 8.30835V77.8699C107.91 80.0791 106.119 81.8699 103.91 81.8699H76.6387C74.4295 81.8699 72.6387 80.0791 72.6387 77.8699V8.30835Z" fill="#252C34"/>
<path d="M109.049 8.30835C109.049 6.09921 110.84 4.30835 113.049 4.30835H139.182C141.391 4.30835 143.182 6.09921 143.182 8.30835V77.8699C143.182 80.0791 141.391 81.8699 139.182 81.8699H113.049C110.84 81.8699 109.049 80.0791 109.049 77.8699V8.30835Z" fill="#252C34"/>
<path d="M153.42 7.23681C153.42 5.02767 155.211 3.23682 157.42 3.23682H242.149C244.358 3.23682 246.149 5.02768 246.149 7.23682V24.7811C246.149 26.9902 244.358 28.781 242.149 28.781H157.42C155.211 28.781 153.42 26.9902 153.42 24.781V7.23681Z" fill="#252C34"/>
<path d="M153.42 33.7101C153.42 31.5009 155.211 29.7101 157.42 29.7101H196.353C198.562 29.7101 200.353 31.5009 200.353 33.7101V54.5054C200.353 56.7145 198.562 58.5054 196.353 58.5054H157.42C155.211 58.5054 153.42 56.7145 153.42 54.5054V33.7101Z" fill="#252C34"/>
<path d="M201.49 33.7101C201.49 31.5009 203.281 29.7101 205.49 29.7101H237.028C239.237 29.7101 241.028 31.5009 241.028 33.7101V54.5054C241.028 56.7145 239.237 58.5054 237.028 58.5054H205.49C203.281 58.5054 201.49 56.7145 201.49 54.5054V33.7101Z" fill="#252C34"/>
<path d="M247.287 7.23681C247.287 5.02767 249.078 3.23682 251.287 3.23682H295.909C298.118 3.23682 299.909 5.02768 299.909 7.23682V24.7811C299.909 26.9902 298.118 28.781 295.909 28.781H251.287C249.078 28.781 247.287 26.9902 247.287 24.781V7.23681Z" fill="#252C34"/>
<path d="M242.166 33.7101C242.166 31.5009 243.957 29.7101 246.166 29.7101H268.317C270.526 29.7101 272.317 31.5009 272.317 33.7101V54.5054C272.317 56.7145 270.526 58.5054 268.317 58.5054H246.166C243.957 58.5054 242.166 56.7145 242.166 54.5054V33.7101Z" fill="#252C34"/>
<path d="M273.455 33.7101C273.455 31.5009 275.246 29.7101 277.455 29.7101H295.908C298.117 29.7101 299.908 31.5009 299.908 33.7101V42.1977C299.908 44.4069 298.117 46.1977 295.908 46.1977H277.455C275.246 46.1977 273.455 44.4069 273.455 42.1977V33.7101Z" fill="#252C34"/>
<path d="M273.455 50.662C273.455 48.4528 275.246 46.662 277.455 46.662H295.908C298.117 46.662 299.908 48.4528 299.908 50.662V54.5052C299.908 56.7144 298.117 58.5052 295.908 58.5052H277.455C275.246 58.5052 273.455 56.7144 273.455 54.5052V50.662Z" fill="#252C34"/>
</svg>
