<svg width="13" height="13" viewBox="0 0 13 13" fill="none" xmlns="http://www.w3.org/2000/svg">
<path d="M6.10059 3.125C6.10059 3.02554 6.06108 2.93016 5.99075 2.85984C5.92042 2.78951 5.82504 2.75 5.72559 2.75C5.62613 2.75 5.53075 2.78951 5.46042 2.85984C5.39009 2.93016 5.35059 3.02554 5.35059 3.125V7.25C5.35061 7.3161 5.3681 7.38102 5.40129 7.43818C5.43448 7.49534 5.48219 7.54272 5.53959 7.5755L8.16459 9.0755C8.25073 9.12206 8.35167 9.13307 8.44583 9.10619C8.53998 9.07931 8.61989 9.01667 8.66847 8.93165C8.71705 8.84663 8.73046 8.74598 8.70581 8.65122C8.68117 8.55645 8.62043 8.47508 8.53659 8.4245L6.10059 7.0325V3.125Z" fill="#373D43"/>
<path d="M6.10059 12.5C7.69188 12.5 9.21801 11.8679 10.3432 10.7426C11.4684 9.61742 12.1006 8.0913 12.1006 6.5C12.1006 4.9087 11.4684 3.38258 10.3432 2.25736C9.21801 1.13214 7.69188 0.5 6.10059 0.5C4.50929 0.5 2.98316 1.13214 1.85795 2.25736C0.732727 3.38258 0.100586 4.9087 0.100586 6.5C0.100586 8.0913 0.732727 9.61742 1.85795 10.7426C2.98316 11.8679 4.50929 12.5 6.10059 12.5ZM11.3506 6.5C11.3506 7.89239 10.7975 9.22774 9.8129 10.2123C8.82833 11.1969 7.49297 11.75 6.10059 11.75C4.7082 11.75 3.37284 11.1969 2.38828 10.2123C1.40371 9.22774 0.850586 7.89239 0.850586 6.5C0.850586 5.10761 1.40371 3.77226 2.38828 2.78769C3.37284 1.80312 4.7082 1.25 6.10059 1.25C7.49297 1.25 8.82833 1.80312 9.8129 2.78769C10.7975 3.77226 11.3506 5.10761 11.3506 6.5Z" fill="#373D43"/>
</svg>
