<svg width="20" height="18" viewBox="0 0 20 18" fill="none" xmlns="http://www.w3.org/2000/svg">
<g clip-path="url(#clip0_9086_94239)">
<path d="M1.51203 15.3152L2.39406 16.8387C2.57734 17.1594 2.84078 17.4115 3.15008 17.5947C4.03602 16.4702 4.65258 15.6072 5.00008 15.0059C5.35266 14.3957 5.78602 13.4411 6.30016 12.1422C4.91453 11.9598 3.86453 11.8687 3.15016 11.8687C2.46445 11.8687 1.41445 11.9598 0 12.1422C0 12.4973 0.0916406 12.8524 0.274922 13.1732L1.51203 15.3152Z" fill="#0066DA"/>
<path d="M16.85 17.5947C17.1594 17.4115 17.4228 17.1594 17.606 16.8387L17.9726 16.2087L19.7253 13.1732C19.9052 12.8594 19.9999 12.504 20.0001 12.1422C18.5775 11.9598 17.5294 11.8687 16.8558 11.8687C16.1319 11.8687 15.0838 11.9598 13.7114 12.1422C14.2195 13.4482 14.6471 14.4028 14.9944 15.0059C15.3446 15.6144 15.9631 16.4773 16.85 17.5947Z" fill="#EA4335"/>
<path d="M10.0002 5.72742C11.0252 4.48953 11.7316 3.53492 12.1193 2.86375C12.4316 2.32328 12.7753 1.46031 13.1503 0.274922C12.841 0.0916406 12.4859 0 12.1193 0H7.88104C7.51447 0 7.15947 0.103125 6.8501 0.274922C7.32713 1.63445 7.73197 2.60203 8.06447 3.17758C8.43197 3.81367 9.07721 4.66359 10.0002 5.72742Z" fill="#00832D"/>
<path d="M13.7 12.1421H6.30015L3.15015 17.5946C3.45937 17.7779 3.81444 17.8695 4.18101 17.8695H15.8191C16.1857 17.8695 16.5409 17.7664 16.8501 17.5945L13.7001 12.1421H13.7Z" fill="#2684FC"/>
<path d="M10.0001 5.72781L6.85008 0.275391C6.5407 0.458672 6.27727 0.710625 6.09398 1.03141L0.274922 11.1116C0.0950098 11.4255 0.000237693 11.7808 0 12.1426H6.30016L10.0002 5.72781H10.0001Z" fill="#00AC47"/>
<path d="M16.8159 6.07156L13.9063 1.03141C13.7231 0.710625 13.4595 0.458672 13.1502 0.275391L10.0002 5.72789L13.7001 12.1427H19.9888C19.9888 11.7875 19.8972 11.4325 19.7139 11.1117L16.8159 6.07156Z" fill="#FFBA00"/>
</g>
<defs>
<clipPath id="clip0_9086_94239">
<rect width="20" height="17.8906" fill="white"/>
</clipPath>
</defs>
</svg>
