<svg width="14" height="13" viewBox="0 0 14 13" fill="none" xmlns="http://www.w3.org/2000/svg">
<path d="M4.95245 2.28159H3.42898C3.15961 2.28159 2.90128 2.38859 2.71081 2.57906C2.52034 2.76953 2.41333 3.02787 2.41333 3.29724V4.82071M11.5542 4.82071V3.29724C11.5542 3.02787 11.4472 2.76953 11.2567 2.57906C11.0662 2.38859 10.8079 2.28159 10.5385 2.28159H9.01505M9.01505 11.4224H10.5385C10.8079 11.4224 11.0662 11.3154 11.2567 11.125C11.4472 10.9345 11.5542 10.6761 11.5542 10.4068V8.88331M2.41333 8.88331V10.4068C2.41333 10.6761 2.52034 10.9345 2.71081 11.125C2.90128 11.3154 3.15961 11.4224 3.42898 11.4224H4.95245" stroke="white" stroke-width="1.14261" stroke-linecap="round" stroke-linejoin="round"/>
</svg>
