<svg width="13" height="13" viewBox="0 0 13 13" fill="none" xmlns="http://www.w3.org/2000/svg">
<g clip-path="url(#clip0_12008_283280)">
<path d="M6.65513 8.37541C7.49652 8.37541 8.1786 7.69333 8.1786 6.85193C8.1786 6.01054 7.49652 5.32846 6.65513 5.32846C5.81374 5.32846 5.13165 6.01054 5.13165 6.85193C5.13165 7.69333 5.81374 8.37541 6.65513 8.37541Z" stroke="white" stroke-width="1.14261" stroke-linecap="round" stroke-linejoin="round"/>
<path d="M10.4129 8.37554C10.3453 8.5287 10.3252 8.69861 10.355 8.86335C10.3849 9.02808 10.4635 9.18009 10.5805 9.29978L10.611 9.33025C10.7054 9.42457 10.7803 9.53659 10.8315 9.65989C10.8826 9.78318 10.9089 9.91535 10.9089 10.0488C10.9089 10.1823 10.8826 10.3145 10.8315 10.4378C10.7803 10.561 10.7054 10.6731 10.611 10.7674C10.5167 10.8618 10.4047 10.9367 10.2814 10.9878C10.1581 11.039 10.0259 11.0653 9.89242 11.0653C9.75895 11.0653 9.62679 11.039 9.50349 10.9878C9.38019 10.9367 9.26818 10.8618 9.17385 10.7674L9.14338 10.7369C9.0237 10.6198 8.87169 10.5413 8.70695 10.5114C8.54222 10.4816 8.37231 10.5017 8.21914 10.5693C8.06894 10.6337 7.94084 10.7406 7.85062 10.8768C7.76039 11.0131 7.71197 11.1727 7.71132 11.3362V11.4225C7.71132 11.6919 7.60431 11.9502 7.41384 12.1407C7.22337 12.3311 6.96503 12.4381 6.69567 12.4381C6.4263 12.4381 6.16797 12.3311 5.97749 12.1407C5.78702 11.9502 5.68002 11.6919 5.68002 11.4225V11.3768C5.67609 11.2087 5.62168 11.0457 5.52387 10.9089C5.42606 10.7722 5.28937 10.668 5.13157 10.61C4.9784 10.5424 4.80849 10.5222 4.64376 10.5521C4.47902 10.5819 4.32701 10.6605 4.20733 10.7775L4.17686 10.808C4.08253 10.9024 3.97052 10.9774 3.84722 11.0285C3.72392 11.0796 3.59176 11.1059 3.45828 11.1059C3.32481 11.1059 3.19265 11.0796 3.06935 11.0285C2.94605 10.9774 2.83404 10.9024 2.73971 10.808C2.64528 10.7137 2.57037 10.6017 2.51926 10.4784C2.46814 10.3551 2.44184 10.2229 2.44184 10.0894C2.44184 9.95597 2.46814 9.82381 2.51926 9.70051C2.57037 9.57721 2.64528 9.4652 2.73971 9.37087L2.77018 9.3404C2.88725 9.22072 2.96579 9.06871 2.99566 8.90397C3.02553 8.73924 3.00536 8.56933 2.93776 8.41616C2.87339 8.26596 2.7665 8.13787 2.63026 8.04764C2.49401 7.95741 2.33436 7.90899 2.17095 7.90834H2.08462C1.81525 7.90834 1.55692 7.80133 1.36645 7.61086C1.17598 7.42039 1.06897 7.16206 1.06897 6.89269C1.06897 6.62332 1.17598 6.36499 1.36645 6.17452C1.55692 5.98404 1.81525 5.87704 2.08462 5.87704H2.13032C2.29841 5.87311 2.46143 5.8187 2.59818 5.72089C2.73494 5.62308 2.8391 5.48639 2.89714 5.32859C2.96474 5.17542 2.9849 5.00551 2.95503 4.84078C2.92516 4.67604 2.84663 4.52403 2.72956 4.40435L2.69909 4.37388C2.60466 4.27955 2.52974 4.16754 2.47863 4.04424C2.42752 3.92094 2.40121 3.78878 2.40121 3.65531C2.40121 3.52183 2.42752 3.38967 2.47863 3.26637C2.52974 3.14308 2.60466 3.03106 2.69909 2.93673C2.79341 2.8423 2.90543 2.76739 3.02873 2.71628C3.15202 2.66517 3.28419 2.63886 3.41766 2.63886C3.55113 2.63886 3.68329 2.66517 3.80659 2.71628C3.92989 2.76739 4.0419 2.8423 4.13623 2.93673L4.1667 2.9672C4.28638 3.08428 4.43839 3.16281 4.60313 3.19268C4.76787 3.22255 4.93777 3.20239 5.09094 3.13479H5.13157C5.28177 3.07041 5.40986 2.96352 5.50009 2.82728C5.59032 2.69104 5.63874 2.53138 5.63939 2.36797V2.28164C5.63939 2.01227 5.7464 1.75394 5.93687 1.56347C6.12734 1.373 6.38567 1.26599 6.65504 1.26599C6.92441 1.26599 7.18274 1.373 7.37321 1.56347C7.56368 1.75394 7.67069 2.01227 7.67069 2.28164V2.32734C7.67134 2.49076 7.71976 2.65041 7.80999 2.78665C7.90022 2.9229 8.02832 3.02979 8.17851 3.09416C8.33168 3.16176 8.50159 3.18192 8.66633 3.15205C8.83106 3.12218 8.98307 3.04365 9.10276 2.92658L9.13322 2.89611C9.22755 2.80168 9.33957 2.72676 9.46286 2.67565C9.58616 2.62454 9.71833 2.59823 9.8518 2.59823C9.98527 2.59823 10.1174 2.62454 10.2407 2.67565C10.364 2.72676 10.476 2.80168 10.5704 2.89611C10.6648 2.99043 10.7397 3.10245 10.7908 3.22575C10.8419 3.34905 10.8682 3.48121 10.8682 3.61468C10.8682 3.74815 10.8419 3.88032 10.7908 4.00361C10.7397 4.12691 10.6648 4.23893 10.5704 4.33325L10.5399 4.36372C10.4228 4.48341 10.3443 4.63542 10.3144 4.80015C10.2846 4.96489 10.3047 5.13479 10.3723 5.28796V5.32859C10.4367 5.47879 10.5436 5.60689 10.6798 5.69711C10.8161 5.78734 10.9757 5.83576 11.1391 5.83641H11.2255C11.4948 5.83641 11.7532 5.94342 11.9436 6.13389C12.1341 6.32436 12.2411 6.5827 12.2411 6.85206C12.2411 7.12143 12.1341 7.37976 11.9436 7.57023C11.7532 7.76071 11.4948 7.86771 11.2255 7.86771H11.1798C11.0163 7.86836 10.8567 7.91678 10.7204 8.00701C10.5842 8.09724 10.4773 8.22534 10.4129 8.37554V8.37554Z" stroke="white" stroke-width="1.14261" stroke-linecap="round" stroke-linejoin="round"/>
</g>
<defs>
<clipPath id="clip0_12008_283280">
<rect width="12.1878" height="12.1878" fill="white" transform="translate(0.561096 0.75824)"/>
</clipPath>
</defs>
</svg>
