<svg width="46" height="29" viewBox="0 0 46 29" fill="none" xmlns="http://www.w3.org/2000/svg">
	<path d="M0 28.1738H9.04C17.16 28.1738 22.4 22.5338 22.4 14.3338V13.9738C22.4 5.77383 17.16 0.173828 9.04 0.173828H0V28.1738ZM9 5.41383C13.4 5.41383 16.4 8.53383 16.4 14.0938V14.2938C16.4 19.8538 13.4 22.9338 9 22.9338H5.8V5.41383H9Z" fill="#CEA8BC" />
	<path d="M38.96 0.173828L34.12 9.25383L29.36 0.173828H22.76L30.68 13.9338L22.4 28.1738H28.84L34 18.5738L39.12 28.1738H45.72L37.4 13.8538L45.4 0.173828H38.96Z" fill="#CEA8BC" />
</svg>
