

<svg width="129" height="24" viewBox="0 0 129 24" fill="none" xmlns="http://www.w3.org/2000/svg">
<path d="M0 16.95H4.76455C9.04422 16.95 11.806 13.9775 11.806 9.65563V9.46589C11.806 5.14406 9.04422 2.19257 4.76455 2.19257H0V16.95ZM4.74347 4.95432C7.0625 4.95432 8.64366 6.59872 8.64366 9.52913V9.63454C8.64366 12.565 7.0625 14.1883 4.74347 14.1883H3.0569V4.95432H4.74347Z" fill="#CEA8BC"/>
<path d="M20.5339 2.1925L17.983 6.97814L15.4742 2.1925H11.9956L16.1699 9.44475L11.8059 16.95H15.2001L17.9197 11.8903L20.6182 16.95H24.0968L19.7117 9.40258L23.9281 2.1925H20.5339Z" fill="#CEA8BC"/>
<path d="M36.3012 17.2742C37.857 17.2742 38.8437 16.3065 39.5077 15.187V17.0844H40.8739V3.38527H39.5077V9.03948C38.8626 7.95797 37.876 7.00928 36.3012 7.00928C34.2899 7.00928 32.3546 8.77385 32.3546 12.0563V12.2461C32.3546 15.5475 34.2899 17.2742 36.3012 17.2742ZM36.5858 16.0408C35.0489 16.0408 33.7587 14.6178 33.7587 12.2081V12.0563C33.7587 9.62768 35.0109 8.24258 36.5858 8.24258C38.1416 8.24258 39.5647 9.72254 39.5647 12.0563V12.2271C39.5647 14.5609 38.1416 16.0408 36.5858 16.0408ZM46.211 17.2931C47.672 17.2931 48.6397 16.5721 49.2279 15.6424V17.0844H50.575V10.7282C50.575 9.57075 50.2335 8.66001 49.6263 8.05284C48.9812 7.40773 48.0515 7.0662 46.8561 7.0662C45.6418 7.0662 44.6741 7.40773 43.7444 7.8631L44.1808 8.98256C44.8639 8.62206 45.7177 8.31848 46.7043 8.31848C48.2981 8.31848 49.2279 9.1723 49.2279 10.7661V11.3543C48.4879 11.1266 47.7289 10.9558 46.6854 10.9558C44.5034 10.9558 43.0424 12.1133 43.0424 14.1435V14.2194C43.0424 16.1737 44.5603 17.2931 46.211 17.2931ZM46.5146 16.1547C45.3382 16.1547 44.4085 15.3768 44.4085 14.1435V14.0865C44.4085 12.8343 45.2813 12.0184 46.8561 12.0184C47.8238 12.0184 48.6207 12.1891 49.2468 12.4168V13.6501C49.2468 15.0922 48.0325 16.1737 46.5146 16.1547ZM56.0404 17.2362C56.6096 17.2362 57.0839 17.1034 57.5203 16.8947V15.7183C57.1219 15.8891 56.7424 15.9839 56.3629 15.9839C55.5091 15.9839 54.9399 15.6044 54.9399 14.5609V8.41335H57.5203V7.19902H54.9399V4.31499H53.5738V7.19902H52.3784V8.41335H53.5738V14.7886C53.5738 16.5531 54.6363 17.2362 56.0404 17.2362ZM62.2388 17.2931C63.6997 17.2931 64.6674 16.5721 65.2556 15.6424V17.0844H66.6027V10.7282C66.6027 9.57075 66.2612 8.66001 65.6541 8.05284C65.0089 7.40773 64.0792 7.0662 62.8839 7.0662C61.6695 7.0662 60.7019 7.40773 59.7722 7.8631L60.2085 8.98256C60.8916 8.62206 61.7454 8.31848 62.7321 8.31848C64.3259 8.31848 65.2556 9.1723 65.2556 10.7661V11.3543C64.5156 11.1266 63.7567 10.9558 62.7131 10.9558C60.5311 10.9558 59.0701 12.1133 59.0701 14.1435V14.2194C59.0701 16.1737 60.588 17.2931 62.2388 17.2931ZM62.5423 16.1547C61.366 16.1547 60.4362 15.3768 60.4362 14.1435V14.0865C60.4362 12.8343 61.309 12.0184 62.8839 12.0184C63.8515 12.0184 64.6484 12.1891 65.2746 12.4168V13.6501C65.2746 15.0922 64.0602 16.1737 62.5423 16.1547ZM81.2276 19.9305H82.5937V15.2439C83.2388 16.3255 84.2255 17.2742 85.8003 17.2742C87.8115 17.2742 89.7469 15.5096 89.7469 12.2271V12.0374C89.7469 8.75488 87.8115 7.00928 85.8003 7.00928C84.2445 7.00928 83.2578 7.97695 82.5937 9.09641V7.19902H81.2276V19.9305ZM85.5347 16.0408C83.9788 16.0408 82.5368 14.5609 82.5368 12.2461V12.0563C82.5368 9.74152 83.9788 8.24258 85.5347 8.24258C87.0526 8.24258 88.3428 9.66562 88.3428 12.0753V12.2271C88.3428 14.6558 87.0905 16.0408 85.5347 16.0408ZM92.181 17.0844H93.5471V3.38527H92.181V17.0844ZM100.329 17.2931C102.871 17.2931 104.731 15.0732 104.731 12.1891V12.0753C104.731 9.19128 102.89 7.00928 100.348 7.00928C97.8053 7.00928 95.9459 9.21025 95.9459 12.0943V12.2271C95.9459 15.1111 97.7863 17.2931 100.329 17.2931ZM100.348 16.0598C98.6591 16.0598 97.3499 14.4091 97.3499 12.1891V12.0943C97.3499 9.89331 98.5832 8.24258 100.329 8.24258C102.018 8.24258 103.346 9.89331 103.346 12.1133V12.2081C103.346 14.3901 102.093 16.0598 100.348 16.0598ZM107.002 17.0844H108.368V12.3789C108.368 9.83639 109.848 8.54616 111.688 8.54616H111.764V7.0662C110.151 6.99031 108.956 7.99592 108.368 9.38101V7.19902H107.002V17.0844ZM117.098 17.2931C118.578 17.2931 119.602 16.7239 120.494 15.8132L119.716 14.9404C119.033 15.6234 118.236 16.0788 117.155 16.0788C115.599 16.0788 114.252 14.8645 114.1 12.6825H120.741C120.76 12.5117 120.76 12.2461 120.76 12.1133C120.76 9.13435 119.28 7.00928 116.794 7.00928C114.479 7.00928 112.715 9.11538 112.715 12.1322V12.2271C112.715 15.3578 114.688 17.2931 117.098 17.2931ZM114.1 11.6199C114.233 9.55178 115.333 8.20463 116.794 8.20463C118.407 8.20463 119.299 9.74152 119.394 11.6199H114.1ZM122.955 17.0844H124.321V12.3789C124.321 9.83639 125.801 8.54616 127.642 8.54616H127.718V7.0662C126.105 6.99031 124.91 7.99592 124.321 9.38101V7.19902H122.955V17.0844Z" fill="#231D2C"/>
<path d="M76.1643 3.80269L73.8684 8.10976L71.6105 3.80269H68.4798L72.2367 10.3297L68.3091 17.0844H71.3639L73.8115 12.5307L76.2401 17.0844H79.3708L75.4243 10.2918L79.219 3.80269H76.1643Z" fill="#CEA8BC"/>
<path d="M27.4172 19.1425H28.2816V0H27.4172V19.1425Z" fill="#231D2C"/>
</svg>

