<svg width="244" height="44" viewBox="0 0 244 44" fill="none" xmlns="http://www.w3.org/2000/svg">
	<path d="M0 32.1738H9.04C17.16 32.1738 22.4 26.5338 22.4 18.3338V17.9738C22.4 9.77383 17.16 4.17383 9.04 4.17383H0V32.1738ZM9 9.41383C13.4 9.41383 16.4 12.5338 16.4 18.0938V18.2938C16.4 23.8538 13.4 26.9338 9 26.9338H5.8V9.41383H9Z" fill="#CEA8BC" />
	<path d="M38.96 4.17383L34.12 13.2538L29.36 4.17383H22.76L30.68 17.9338L22.4 32.1738H28.84L34 22.5738L39.12 32.1738H45.72L37.4 17.8538L45.4 4.17383H38.96Z" fill="#CEA8BC" />
	<path d="M68.876 32.5338C71.828 32.5338 73.7 30.6978 74.96 28.5738V32.1738H77.552V6.18183H74.96V16.9098C73.736 14.8578 71.864 13.0578 68.876 13.0578C65.06 13.0578 61.388 16.4058 61.388 22.6338V22.9938C61.388 29.2578 65.06 32.5338 68.876 32.5338ZM69.416 30.1938C66.5 30.1938 64.052 27.4938 64.052 22.9218V22.6338C64.052 18.0258 66.428 15.3978 69.416 15.3978C72.368 15.3978 75.068 18.2058 75.068 22.6338V22.9578C75.068 27.3858 72.368 30.1938 69.416 30.1938ZM87.6784 32.5698C90.4504 32.5698 92.2864 31.2018 93.4024 29.4378V32.1738H95.9584V20.1138C95.9584 17.9178 95.3104 16.1898 94.1584 15.0378C92.9344 13.8138 91.1704 13.1658 88.9024 13.1658C86.5984 13.1658 84.7624 13.8138 82.9984 14.6778L83.8264 16.8018C85.1224 16.1178 86.7424 15.5418 88.6144 15.5418C91.6384 15.5418 93.4024 17.1618 93.4024 20.1858V21.3018C91.9984 20.8698 90.5584 20.5458 88.5784 20.5458C84.4384 20.5458 81.6664 22.7418 81.6664 26.5938V26.7378C81.6664 30.4458 84.5464 32.5698 87.6784 32.5698ZM88.2544 30.4098C86.0224 30.4098 84.2584 28.9338 84.2584 26.5938V26.4858C84.2584 24.1098 85.9144 22.5618 88.9024 22.5618C90.7384 22.5618 92.2504 22.8858 93.4384 23.3178V25.6578C93.4384 28.3938 91.1344 30.4458 88.2544 30.4098ZM106.328 32.4618C107.408 32.4618 108.308 32.2098 109.136 31.8138V29.5818C108.38 29.9058 107.66 30.0858 106.94 30.0858C105.32 30.0858 104.24 29.3658 104.24 27.3858V15.7218H109.136V13.4178H104.24V7.94583H101.648V13.4178H99.3801V15.7218H101.648V27.8178C101.648 31.1658 103.664 32.4618 106.328 32.4618ZM118.089 32.5698C120.861 32.5698 122.697 31.2018 123.813 29.4378V32.1738H126.369V20.1138C126.369 17.9178 125.721 16.1898 124.569 15.0378C123.345 13.8138 121.581 13.1658 119.313 13.1658C117.009 13.1658 115.173 13.8138 113.409 14.6778L114.237 16.8018C115.533 16.1178 117.153 15.5418 119.025 15.5418C122.049 15.5418 123.813 17.1618 123.813 20.1858V21.3018C122.409 20.8698 120.969 20.5458 118.989 20.5458C114.849 20.5458 112.077 22.7418 112.077 26.5938V26.7378C112.077 30.4458 114.957 32.5698 118.089 32.5698ZM118.665 30.4098C116.433 30.4098 114.669 28.9338 114.669 26.5938V26.4858C114.669 24.1098 116.325 22.5618 119.313 22.5618C121.149 22.5618 122.661 22.8858 123.849 23.3178V25.6578C123.849 28.3938 121.545 30.4458 118.665 30.4098ZM154.117 37.5738H156.709V28.6818C157.933 30.7338 159.805 32.5338 162.793 32.5338C166.609 32.5338 170.281 29.1858 170.281 22.9578V22.5978C170.281 16.3698 166.609 13.0578 162.793 13.0578C159.841 13.0578 157.969 14.8938 156.709 17.0178V13.4178H154.117V37.5738ZM162.289 30.1938C159.337 30.1938 156.601 27.3858 156.601 22.9938V22.6338C156.601 18.2418 159.337 15.3978 162.289 15.3978C165.169 15.3978 167.617 18.0978 167.617 22.6698V22.9578C167.617 27.5658 165.241 30.1938 162.289 30.1938ZM174.899 32.1738H177.491V6.18183H174.899V32.1738ZM190.359 32.5698C195.183 32.5698 198.711 28.3578 198.711 22.8858V22.6698C198.711 17.1978 195.219 13.0578 190.395 13.0578C185.571 13.0578 182.043 17.2338 182.043 22.7058V22.9578C182.043 28.4298 185.535 32.5698 190.359 32.5698ZM190.395 30.2298C187.191 30.2298 184.707 27.0978 184.707 22.8858V22.7058C184.707 18.5298 187.047 15.3978 190.359 15.3978C193.563 15.3978 196.083 18.5298 196.083 22.7418V22.9218C196.083 27.0618 193.707 30.2298 190.395 30.2298ZM203.019 32.1738H205.611V23.2458C205.611 18.4218 208.419 15.9738 211.911 15.9738H212.055V13.1658C208.995 13.0218 206.727 14.9298 205.611 17.5578V13.4178H203.019V32.1738ZM222.175 32.5698C224.983 32.5698 226.927 31.4898 228.619 29.7618L227.143 28.1058C225.847 29.4018 224.335 30.2658 222.283 30.2658C219.331 30.2658 216.775 27.9618 216.487 23.8218H229.087C229.123 23.4978 229.123 22.9938 229.123 22.7418C229.123 17.0898 226.315 13.0578 221.599 13.0578C217.207 13.0578 213.859 17.0538 213.859 22.7778V22.9578C213.859 28.8978 217.603 32.5698 222.175 32.5698ZM216.487 21.8058C216.739 17.8818 218.827 15.3258 221.599 15.3258C224.659 15.3258 226.351 18.2418 226.531 21.8058H216.487ZM233.289 32.1738H235.881V23.2458C235.881 18.4218 238.689 15.9738 242.181 15.9738H242.325V13.1658C239.265 13.0218 236.997 14.9298 235.881 17.5578V13.4178H233.289V32.1738Z" fill="#231d2c" />
	<path d="M144.51 6.97383L140.154 15.1458L135.87 6.97383H129.93L137.058 19.3578L129.606 32.1738H135.402L140.046 23.5338L144.654 32.1738H150.594L143.106 19.2858L150.306 6.97383H144.51Z" fill="#CEA8BC" />
	<path d="M52.02 36.3337H53.66V0.0136719H52.02V36.3337Z" fill="#231d2c" />
</svg>
