<svg width="18" height="18" viewBox="0 0 18 18" fill="none" xmlns="http://www.w3.org/2000/svg">
	<g clip-path="url(#clip0_11204_2193)">
		<path d="M8.66175 1.44482C4.67402 1.44482 1.44482 4.68124 1.44482 8.66897C1.44482 12.6567 4.67402 15.8931 8.66175 15.8931C12.6567 15.8931 15.8931 12.6567 15.8931 8.66897C15.8931 4.68124 12.6567 1.44482 8.66175 1.44482ZM8.66897 14.4483C5.4759 14.4483 2.88965 11.862 2.88965 8.66897C2.88965 5.4759 5.4759 2.88965 8.66897 2.88965C11.862 2.88965 14.4483 5.4759 14.4483 8.66897C14.4483 11.862 11.862 14.4483 8.66897 14.4483Z" fill="#231D2C" />
		<path d="M9.03022 5.05713H7.94659V9.39162L11.7393 11.6672L12.2811 10.7787L9.03022 8.84981V5.05713Z" fill="#231D2C" />
	</g>
	<defs>
		<clipPath id="clip0_11204_2193">
			<rect width="17.338" height="17.338" fill="white" />
		</clipPath>
	</defs>
</svg>
