<svg width="267" height="267" viewBox="0 0 267 267" fill="none" xmlns="http://www.w3.org/2000/svg">
<g filter="url(#filter0_d_13084_9373)">
<circle cx="133.5" cy="129.5" r="111.5" fill="#CEA8BC"/>
<g clip-path="url(#clip0_13084_9373)">
<path d="M193.74 77.6537C193.451 77.2377 193.082 76.8828 192.656 76.6094C192.229 76.336 191.753 76.1493 191.254 76.0601C190.755 75.971 190.244 75.981 189.749 76.0898C189.254 76.1985 188.785 76.4037 188.37 76.6937L166.33 92.0837C165.66 92.5437 165.16 93.2137 164.89 93.9837L154.78 123.014L137.46 91.5837C137.096 90.9283 136.55 90.3925 135.888 90.0411C135.226 89.6897 134.477 89.5377 133.73 89.6037C132.982 89.673 132.271 89.9586 131.683 90.4257C131.095 90.8928 130.656 91.5211 130.42 92.2337L106.02 166.204L94.12 156.244C93.3756 155.621 92.4236 155.302 91.4541 155.35C90.4846 155.398 89.569 155.81 88.89 156.504L73 172.714V182.174C74.0038 182.157 74.9601 181.743 75.66 181.024L91.9 164.464L105.42 175.774C105.903 176.178 106.478 176.457 107.093 176.588C107.709 176.719 108.348 176.697 108.953 176.525C109.559 176.352 110.113 176.034 110.567 175.598C111.022 175.162 111.363 174.622 111.56 174.024L134.97 103.064L152.2 134.324C152.558 134.98 153.099 135.517 153.759 135.869C154.418 136.221 155.166 136.372 155.91 136.304C156.653 136.243 157.362 135.967 157.951 135.511C158.54 135.055 158.985 134.437 159.23 133.734L171.77 97.7037L192.79 83.0337C193.627 82.4444 194.197 81.5477 194.375 80.5397C194.553 79.5316 194.325 78.494 193.74 77.6537Z" fill="#6061E5"/>
<path d="M194.08 187H74.2C72.99 187 72 186.01 72 184.8V75C72 74.4165 72.0874 74.4126 72.5 74C72.9126 73.5874 73.4165 73.5 74 73.5C74.5835 73.5 75.5874 73.5874 76 74C76.4126 74.4126 76.4 75.0415 76.4 75.625V182.59H194.07C195.29 182.59 196.28 183.58 196.28 184.79C196.28 186 195.3 187 194.08 187Z" fill="white"/>
</g>
</g>
<defs>
<filter id="filter0_d_13084_9373" x="0" y="0" width="267" height="267" filterUnits="userSpaceOnUse" color-interpolation-filters="sRGB">
<feFlood flood-opacity="0" result="BackgroundImageFix"/>
<feColorMatrix in="SourceAlpha" type="matrix" values="0 0 0 0 0 0 0 0 0 0 0 0 0 0 0 0 0 0 127 0" result="hardAlpha"/>
<feOffset dy="4"/>
<feGaussianBlur stdDeviation="11"/>
<feComposite in2="hardAlpha" operator="out"/>
<feColorMatrix type="matrix" values="0 0 0 0 0 0 0 0 0 0 0 0 0 0 0 0 0 0 0.05 0"/>
<feBlend mode="normal" in2="BackgroundImageFix" result="effect1_dropShadow_13084_9373"/>
<feBlend mode="normal" in="SourceGraphic" in2="effect1_dropShadow_13084_9373" result="shape"/>
</filter>
<clipPath id="clip0_13084_9373">
<rect width="124" height="114" fill="white" transform="translate(72 73)"/>
</clipPath>
</defs>
</svg>
