<svg width="695" height="18" viewBox="0 0 695 18" fill="none" xmlns="http://www.w3.org/2000/svg">
	<line y1="-0.5" x2="22.6716" y2="-0.5" transform="matrix(-0.661622 0.749838 -0.950963 -0.309305 501.283 0.5)" stroke="#E4E4E4" />
	<line y1="-0.5" x2="22.6716" y2="-0.5" transform="matrix(-0.661622 0.749838 -0.950963 -0.309305 509.283 0.5)" stroke="#E4E4E4" />
	<line y1="-0.5" x2="22.6716" y2="-0.5" transform="matrix(-0.661622 0.749838 -0.950963 -0.309305 517.283 0.5)" stroke="#E4E4E4" />
	<line y1="-0.5" x2="22.6716" y2="-0.5" transform="matrix(-0.661622 0.749838 -0.950963 -0.309305 525.283 0.5)" stroke="#E4E4E4" />
	<line y1="-0.5" x2="22.6716" y2="-0.5" transform="matrix(-0.661622 0.749838 -0.950963 -0.309305 533.283 0.5)" stroke="#E4E4E4" />
	<line y1="-0.5" x2="22.6716" y2="-0.5" transform="matrix(-0.661622 0.749838 -0.950963 -0.309305 541.283 0.5)" stroke="#E4E4E4" />
	<line y1="-0.5" x2="22.6716" y2="-0.5" transform="matrix(-0.661622 0.749838 -0.950963 -0.309305 549.283 0.5)" stroke="#E4E4E4" />
	<line y1="-0.5" x2="22.6716" y2="-0.5" transform="matrix(-0.661622 0.749838 -0.950963 -0.309305 557.283 0.5)" stroke="#E4E4E4" />
	<line y1="-0.5" x2="22.6716" y2="-0.5" transform="matrix(-0.661622 0.749838 -0.950963 -0.309305 565.283 0.5)" stroke="#E4E4E4" />
	<line y1="-0.5" x2="22.6716" y2="-0.5" transform="matrix(-0.661622 0.749838 -0.950963 -0.309305 573.283 0.5)" stroke="#E4E4E4" />
	<line y1="-0.5" x2="22.6716" y2="-0.5" transform="matrix(-0.661622 0.749838 -0.950963 -0.309305 581.283 0.5)" stroke="#E4E4E4" />
	<line y1="-0.5" x2="22.6716" y2="-0.5" transform="matrix(-0.661622 0.749838 -0.950963 -0.309305 589.283 0.5)" stroke="#E4E4E4" />
	<line y1="-0.5" x2="22.6716" y2="-0.5" transform="matrix(-0.661622 0.749838 -0.950963 -0.309305 597.283 0.5)" stroke="#E4E4E4" />
	<line y1="-0.5" x2="22.6716" y2="-0.5" transform="matrix(-0.661622 0.749838 -0.950963 -0.309305 605.283 0.5)" stroke="#E4E4E4" />
	<line y1="-0.5" x2="22.6716" y2="-0.5" transform="matrix(-0.661622 0.749838 -0.950963 -0.309305 613.283 0.5)" stroke="#E4E4E4" />
	<line y1="-0.5" x2="22.6716" y2="-0.5" transform="matrix(-0.661622 0.749838 -0.950963 -0.309305 621.283 0.5)" stroke="#E4E4E4" />
	<line y1="-0.5" x2="22.6716" y2="-0.5" transform="matrix(-0.661622 0.749838 -0.950963 -0.309305 629.283 0.5)" stroke="#E4E4E4" />
	<line y1="-0.5" x2="22.6716" y2="-0.5" transform="matrix(-0.661622 0.749838 -0.950963 -0.309305 637.283 0.5)" stroke="#E4E4E4" />
	<line y1="-0.5" x2="22.6716" y2="-0.5" transform="matrix(-0.661622 0.749838 -0.950963 -0.309305 645.283 0.5)" stroke="#E4E4E4" />
	<line y1="-0.5" x2="22.6716" y2="-0.5" transform="matrix(-0.661622 0.749838 -0.950963 -0.309305 653.283 0.5)" stroke="#E4E4E4" />
	<line y1="-0.5" x2="22.6716" y2="-0.5" transform="matrix(-0.661622 0.749838 -0.950963 -0.309305 693.283 0.5)" stroke="#E4E4E4" />
	<line y1="-0.5" x2="22.6716" y2="-0.5" transform="matrix(-0.661622 0.749838 -0.950963 -0.309305 461.283 0.5)" stroke="#E4E4E4" />
	<line y1="-0.5" x2="22.6716" y2="-0.5" transform="matrix(-0.661622 0.749838 -0.950963 -0.309305 661.283 0.5)" stroke="#E4E4E4" />
	<line y1="-0.5" x2="22.6716" y2="-0.5" transform="matrix(-0.661622 0.749838 -0.950963 -0.309305 469.283 0.5)" stroke="#E4E4E4" />
	<line y1="-0.5" x2="22.6716" y2="-0.5" transform="matrix(-0.661622 0.749838 -0.950963 -0.309305 669.283 0.5)" stroke="#E4E4E4" />
	<line y1="-0.5" x2="22.6716" y2="-0.5" transform="matrix(-0.661622 0.749838 -0.950963 -0.309305 477.283 0.5)" stroke="#E4E4E4" />
	<line y1="-0.5" x2="22.6716" y2="-0.5" transform="matrix(-0.661622 0.749838 -0.950963 -0.309305 677.283 0.5)" stroke="#E4E4E4" />
	<line y1="-0.5" x2="22.6716" y2="-0.5" transform="matrix(-0.661622 0.749838 -0.950963 -0.309305 485.283 0.5)" stroke="#E4E4E4" />
	<line y1="-0.5" x2="22.6716" y2="-0.5" transform="matrix(-0.661622 0.749838 -0.950963 -0.309305 685.283 0.5)" stroke="#E4E4E4" />
	<line y1="-0.5" x2="22.6716" y2="-0.5" transform="matrix(-0.661622 0.749838 -0.950963 -0.309305 453.283 0.5)" stroke="#E4E4E4" />
	<line y1="-0.5" x2="22.6716" y2="-0.5" transform="matrix(-0.661622 0.749838 -0.950963 -0.309305 493.283 0.5)" stroke="#E4E4E4" />
	<line y1="-0.5" x2="22.6716" y2="-0.5" transform="matrix(-0.661622 0.749838 -0.950963 -0.309305 63.0947 0.5)" stroke="#E4E4E4" />
	<line y1="-0.5" x2="22.6716" y2="-0.5" transform="matrix(-0.661622 0.749838 -0.950963 -0.309305 71.0947 0.5)" stroke="#E4E4E4" />
	<line y1="-0.5" x2="22.6716" y2="-0.5" transform="matrix(-0.661622 0.749838 -0.950963 -0.309305 79.0947 0.5)" stroke="#E4E4E4" />
	<line y1="-0.5" x2="22.6716" y2="-0.5" transform="matrix(-0.661622 0.749838 -0.950963 -0.309305 87.0947 0.5)" stroke="#E4E4E4" />
	<line y1="-0.5" x2="22.6716" y2="-0.5" transform="matrix(-0.661622 0.749838 -0.950963 -0.309305 95.0947 0.5)" stroke="#E4E4E4" />
	<line y1="-0.5" x2="22.6716" y2="-0.5" transform="matrix(-0.661622 0.749838 -0.950963 -0.309305 103.095 0.5)" stroke="#E4E4E4" />
	<line y1="-0.5" x2="22.6716" y2="-0.5" transform="matrix(-0.661622 0.749838 -0.950963 -0.309305 111.095 0.5)" stroke="#E4E4E4" />
	<line y1="-0.5" x2="22.6716" y2="-0.5" transform="matrix(-0.661622 0.749838 -0.950963 -0.309305 119.095 0.5)" stroke="#E4E4E4" />
	<line y1="-0.5" x2="22.6716" y2="-0.5" transform="matrix(-0.661622 0.749838 -0.950963 -0.309305 127.095 0.5)" stroke="#E4E4E4" />
	<line y1="-0.5" x2="22.6716" y2="-0.5" transform="matrix(-0.661622 0.749838 -0.950963 -0.309305 135.095 0.5)" stroke="#E4E4E4" />
	<line y1="-0.5" x2="22.6716" y2="-0.5" transform="matrix(-0.661622 0.749838 -0.950963 -0.309305 143.095 0.5)" stroke="#E4E4E4" />
	<line y1="-0.5" x2="22.6716" y2="-0.5" transform="matrix(-0.661622 0.749838 -0.950963 -0.309305 151.095 0.5)" stroke="#E4E4E4" />
	<line y1="-0.5" x2="22.6716" y2="-0.5" transform="matrix(-0.661622 0.749838 -0.950963 -0.309305 159.095 0.5)" stroke="#E4E4E4" />
	<line y1="-0.5" x2="22.6716" y2="-0.5" transform="matrix(-0.661622 0.749838 -0.950963 -0.309305 167.095 0.5)" stroke="#E4E4E4" />
	<line y1="-0.5" x2="22.6716" y2="-0.5" transform="matrix(-0.661622 0.749838 -0.950963 -0.309305 175.095 0.5)" stroke="#E4E4E4" />
	<line y1="-0.5" x2="22.6716" y2="-0.5" transform="matrix(-0.661622 0.749838 -0.950963 -0.309305 183.095 0.5)" stroke="#E4E4E4" />
	<line y1="-0.5" x2="22.6716" y2="-0.5" transform="matrix(-0.661622 0.749838 -0.950963 -0.309305 191.095 0.5)" stroke="#E4E4E4" />
	<line y1="-0.5" x2="22.6716" y2="-0.5" transform="matrix(-0.661622 0.749838 -0.950963 -0.309305 199.095 0.5)" stroke="#E4E4E4" />
	<line y1="-0.5" x2="22.6716" y2="-0.5" transform="matrix(-0.661622 0.749838 -0.950963 -0.309305 207.095 0.5)" stroke="#E4E4E4" />
	<line y1="-0.5" x2="22.6716" y2="-0.5" transform="matrix(-0.661622 0.749838 -0.950963 -0.309305 215.095 0.5)" stroke="#E4E4E4" />
	<line y1="-0.5" x2="22.6716" y2="-0.5" transform="matrix(-0.661622 0.749838 -0.950963 -0.309305 255.095 0.5)" stroke="#E4E4E4" />
	<line y1="-0.5" x2="22.6716" y2="-0.5" transform="matrix(-0.661622 0.749838 -0.950963 -0.309305 23.0947 0.5)" stroke="#E4E4E4" />
	<line y1="-0.5" x2="22.6716" y2="-0.5" transform="matrix(-0.661622 0.749838 -0.950963 -0.309305 223.095 0.5)" stroke="#E4E4E4" />
	<line y1="-0.5" x2="22.6716" y2="-0.5" transform="matrix(-0.661622 0.749838 -0.950963 -0.309305 31.0947 0.5)" stroke="#E4E4E4" />
	<line y1="-0.5" x2="22.6716" y2="-0.5" transform="matrix(-0.661622 0.749838 -0.950963 -0.309305 231.095 0.5)" stroke="#E4E4E4" />
	<line y1="-0.5" x2="22.6716" y2="-0.5" transform="matrix(-0.661622 0.749838 -0.950963 -0.309305 39.0947 0.5)" stroke="#E4E4E4" />
	<line y1="-0.5" x2="22.6716" y2="-0.5" transform="matrix(-0.661622 0.749838 -0.950963 -0.309305 239.095 0.5)" stroke="#E4E4E4" />
	<line y1="-0.5" x2="22.6716" y2="-0.5" transform="matrix(-0.661622 0.749838 -0.950963 -0.309305 47.0947 0.5)" stroke="#E4E4E4" />
	<line y1="-0.5" x2="22.6716" y2="-0.5" transform="matrix(-0.661622 0.749838 -0.950963 -0.309305 247.095 0.5)" stroke="#E4E4E4" />
	<line y1="-0.5" x2="22.6716" y2="-0.5" transform="matrix(-0.661622 0.749838 -0.950963 -0.309305 15.0947 0.5)" stroke="#E4E4E4" />
	<line y1="-0.5" x2="22.6716" y2="-0.5" transform="matrix(-0.661622 0.749838 -0.950963 -0.309305 55.0947 0.5)" stroke="#E4E4E4" />
</svg>
