<svg width="469" height="84" viewBox="0 0 469 84" fill="none" xmlns="http://www.w3.org/2000/svg">
<path d="M0 61.846H17.3846C32.9999 61.846 43.0768 50.9998 43.0768 35.2307V34.5384C43.0768 18.7692 32.9999 8 17.3846 8H0V61.846ZM17.3076 18.0769C25.7691 18.0769 31.5384 24.0769 31.5384 34.7691V35.1537C31.5384 45.846 25.7691 51.7691 17.3076 51.7691H11.1538V18.0769H17.3076Z" fill="#CEA8BC"/>
<path d="M74.9226 8L65.615 25.4615L56.4612 8H43.7689L58.9996 34.4614L43.0766 61.846H55.4612L65.3842 43.3845L75.2303 61.846H87.9226L71.9226 34.3076L87.3072 8H74.9226Z" fill="#CEA8BC"/>
<path d="M131.876 62.9999C137.553 62.9999 141.153 59.4692 143.576 55.3846V62.3076H148.561V12.3232H143.576V32.9539C141.222 29.0077 137.622 25.5462 131.876 25.5462C124.538 25.5462 117.476 31.9847 117.476 43.9615V44.6538C117.476 56.6999 124.538 62.9999 131.876 62.9999ZM132.915 58.4999C127.307 58.4999 122.599 53.3076 122.599 44.5154V43.9615C122.599 35.1 127.169 30.0462 132.915 30.0462C138.592 30.0462 143.784 35.4462 143.784 43.9615V44.5846C143.784 53.1 138.592 58.4999 132.915 58.4999ZM168.035 63.0692C173.365 63.0692 176.896 60.4384 179.042 57.0461V62.3076H183.958V39.1154C183.958 34.8923 182.712 31.5693 180.496 29.3539C178.142 27.0001 174.75 25.7539 170.388 25.7539C165.958 25.7539 162.427 27.0001 159.035 28.6616L160.627 32.7462C163.119 31.4308 166.235 30.3231 169.835 30.3231C175.65 30.3231 179.042 33.4385 179.042 39.2539V41.4C176.342 40.5692 173.573 39.9462 169.765 39.9462C161.804 39.9462 156.473 44.1692 156.473 51.5769V51.8538C156.473 58.9846 162.012 63.0692 168.035 63.0692ZM169.142 58.9153C164.85 58.9153 161.458 56.0769 161.458 51.5769V51.3692C161.458 46.8 164.642 43.8231 170.388 43.8231C173.919 43.8231 176.827 44.4461 179.112 45.2769V49.7769C179.112 55.0384 174.681 58.9846 169.142 58.9153ZM203.899 62.8615C205.976 62.8615 207.707 62.3768 209.299 61.6153V57.323C207.845 57.9461 206.461 58.2922 205.076 58.2922C201.961 58.2922 199.884 56.9076 199.884 53.1V30.6693H209.299V26.2385H199.884V15.7155H194.899V26.2385H190.538V30.6693H194.899V53.9307C194.899 60.3692 198.776 62.8615 203.899 62.8615ZM226.516 63.0692C231.846 63.0692 235.377 60.4384 237.523 57.0461V62.3076H242.439V39.1154C242.439 34.8923 241.192 31.5693 238.977 29.3539C236.623 27.0001 233.231 25.7539 228.869 25.7539C224.439 25.7539 220.908 27.0001 217.516 28.6616L219.108 32.7462C221.6 31.4308 224.716 30.3231 228.315 30.3231C234.131 30.3231 237.523 33.4385 237.523 39.2539V41.4C234.823 40.5692 232.054 39.9462 228.246 39.9462C220.285 39.9462 214.954 44.1692 214.954 51.5769V51.8538C214.954 58.9846 220.492 63.0692 226.516 63.0692ZM227.623 58.9153C223.331 58.9153 219.939 56.0769 219.939 51.5769V51.3692C219.939 46.8 223.123 43.8231 228.869 43.8231C232.4 43.8231 235.308 44.4461 237.592 45.2769V49.7769C237.592 55.0384 233.162 58.9846 227.623 58.9153ZM295.801 72.6922H300.785V55.5923C303.139 59.5384 306.739 62.9999 312.485 62.9999C319.824 62.9999 326.885 56.5615 326.885 44.5846V43.8923C326.885 31.9154 319.824 25.5462 312.485 25.5462C306.808 25.5462 303.208 29.077 300.785 33.1616V26.2385H295.801V72.6922ZM311.516 58.4999C305.839 58.4999 300.578 53.1 300.578 44.6538V43.9615C300.578 35.5154 305.839 30.0462 311.516 30.0462C317.054 30.0462 321.762 35.2385 321.762 44.0308V44.5846C321.762 53.4461 317.193 58.4999 311.516 58.4999ZM335.767 62.3076H340.751V12.3232H335.767V62.3076ZM365.496 63.0692C374.773 63.0692 381.557 54.9692 381.557 44.4461V44.0308C381.557 33.5077 374.842 25.5462 365.565 25.5462C356.288 25.5462 349.504 33.577 349.504 44.1V44.5846C349.504 55.1076 356.219 63.0692 365.496 63.0692ZM365.565 58.5692C359.403 58.5692 354.627 52.5461 354.627 44.4461V44.1C354.627 36.0693 359.127 30.0462 365.496 30.0462C371.657 30.0462 376.503 36.0693 376.503 44.1692V44.5154C376.503 52.4769 371.934 58.5692 365.565 58.5692ZM389.843 62.3076H394.828V45.1384C394.828 35.8616 400.228 31.1539 406.943 31.1539H407.22V25.7539C401.336 25.477 396.974 29.1462 394.828 34.2V26.2385H389.843V62.3076ZM426.681 63.0692C432.081 63.0692 435.819 60.9922 439.073 57.6692L436.235 54.4846C433.742 56.9769 430.835 58.6384 426.889 58.6384C421.212 58.6384 416.296 54.2076 415.743 46.2461H439.973C440.042 45.6231 440.042 44.6538 440.042 44.1692C440.042 33.3 434.642 25.5462 425.573 25.5462C417.127 25.5462 410.689 33.2308 410.689 44.2385V44.5846C410.689 56.0076 417.889 63.0692 426.681 63.0692ZM415.743 42.3692C416.227 34.8231 420.243 29.9077 425.573 29.9077C431.458 29.9077 434.712 35.5154 435.058 42.3692H415.743ZM448.054 62.3076H453.038V45.1384C453.038 35.8616 458.438 31.1539 465.154 31.1539H465.431V25.7539C459.546 25.477 455.184 29.1462 453.038 34.2V26.2385H448.054V62.3076Z" fill="#262C34"/>
<path d="M277.326 13.8463L268.949 29.5616L260.711 13.8463H249.287L262.995 37.6616L248.664 62.3076H259.811L268.741 45.6923L277.603 62.3076H289.026L274.626 37.5231L288.472 13.8463H277.326Z" fill="#CEA8BC"/>
<path d="M99.461 69.8459H102.615V0H99.461V69.8459Z" fill="#262C34"/>
</svg>
