<svg width="49" height="37" viewBox="0 0 49 37" fill="none" xmlns="http://www.w3.org/2000/svg">
<path d="M12.344 17.1569C10.6385 17.1626 8.9632 17.6073 7.4793 18.448C9.56848 13.0403 13.0335 8.27193 17.5315 4.61466C17.7889 4.40272 18.002 4.14217 18.1586 3.84788C18.3153 3.55359 18.4124 3.23132 18.4446 2.89948C18.4767 2.56764 18.4431 2.23273 18.3458 1.91386C18.2485 1.59499 18.0893 1.29841 17.8774 1.04105C17.6654 0.783699 17.4049 0.570607 17.1106 0.413948C16.8163 0.257289 16.494 0.16013 16.1622 0.128016C15.8303 0.0959024 15.4954 0.129465 15.1765 0.226786C14.8577 0.324107 14.5611 0.48328 14.3037 0.695218C5.08152 8.18827 0.977631 18.5633 0.977631 24.9958C0.993521 27.2702 1.6713 29.4908 2.92822 31.3864C4.18514 33.282 5.96681 34.7706 8.05569 35.6705C9.40757 36.3254 10.888 36.6719 12.3901 36.6849C13.7123 36.7492 15.0337 36.5443 16.2743 36.0826C17.5149 35.6209 18.6488 34.9121 19.6072 33.9991C20.5657 33.0861 21.3287 31.9879 21.8501 30.7712C22.3715 29.5545 22.6403 28.2446 22.6403 26.9209C22.6403 25.5972 22.3715 24.2873 21.8501 23.0706C21.3287 21.8539 20.5657 20.7557 19.6072 19.8427C18.6488 18.9297 17.5149 18.2209 16.2743 17.7592C15.0337 17.2975 13.7123 17.0926 12.3901 17.1569H12.344Z" fill="#6061E5"/>
<path d="M38.0275 17.1572C36.3217 17.1608 34.6459 17.6056 33.1628 18.4483C35.2511 13.0463 38.7071 8.27946 43.192 4.61494C43.4727 4.4126 43.709 4.15496 43.8864 3.85786C44.0638 3.56076 44.1786 3.2305 44.2236 2.88741C44.2686 2.54431 44.2429 2.19563 44.1481 1.86283C44.0533 1.53003 43.8914 1.22015 43.6724 0.952263C43.4533 0.684375 43.1818 0.464144 42.8744 0.305127C42.5671 0.14611 42.2305 0.0516704 41.8853 0.0276183C41.5401 0.00356628 41.1936 0.050411 40.8672 0.165271C40.5408 0.280131 40.2413 0.460576 39.9872 0.695499C30.765 8.18855 26.6611 18.5636 26.6611 24.9961C26.6721 27.2447 27.3301 29.4427 28.5566 31.3274C29.7831 33.2122 31.5262 34.704 33.5778 35.6247C34.9639 36.2987 36.4862 36.6458 38.0275 36.6391C39.3497 36.7034 40.6711 36.4985 41.9117 36.0368C43.1523 35.5751 44.2861 34.8663 45.2446 33.9533C46.2031 33.0403 46.9661 31.9421 47.4875 30.7254C48.0088 29.5087 48.2777 28.1988 48.2777 26.8751C48.2777 25.5514 48.0088 24.2415 47.4875 23.0248C46.9661 21.8081 46.2031 20.7099 45.2446 19.7969C44.2861 18.8839 43.1523 18.1751 41.9117 17.7134C40.6711 17.2517 39.3497 17.0468 38.0275 17.1111V17.1572Z" fill="#6061E5"/>
</svg>
