<svg width="24" height="16" viewBox="0 0 24 16" fill="none" xmlns="http://www.w3.org/2000/svg">
<path fill-rule="evenodd" clip-rule="evenodd" d="M9.53674e-06 7.56372C9.53674e-06 7.78658 0.088541 8.00031 0.246126 8.1579C0.403713 8.31548 0.617445 8.40402 0.840305 8.40402L20.6595 8.40402L15.3707 13.6912C15.2926 13.7693 15.2306 13.862 15.1883 13.9641C15.146 14.0662 15.1243 14.1756 15.1243 14.2861C15.1243 14.3966 15.146 14.506 15.1883 14.6081C15.2306 14.7101 15.2926 14.8029 15.3707 14.881C15.4488 14.9591 15.5416 15.0211 15.6437 15.0634C15.7457 15.1057 15.8551 15.1274 15.9656 15.1274C16.0761 15.1274 16.1855 15.1057 16.2876 15.0634C16.3897 15.0211 16.4824 14.9591 16.5606 14.881L23.2829 8.15865C23.3612 8.08059 23.4233 7.98787 23.4656 7.88578C23.508 7.78369 23.5298 7.67425 23.5298 7.56372C23.5298 7.45319 23.508 7.34375 23.4656 7.24166C23.4233 7.13958 23.3612 7.04685 23.2829 6.96879L16.5606 0.246428C16.4824 0.1683 16.3897 0.106326 16.2876 0.064044C16.1855 0.0217619 16.0761 0 15.9656 0C15.8551 0 15.7457 0.0217619 15.6437 0.064044C15.5416 0.106326 15.4488 0.1683 15.3707 0.246428C15.2926 0.324554 15.2306 0.417305 15.1883 0.519382C15.146 0.621461 15.1243 0.730868 15.1243 0.841357C15.1243 0.951845 15.146 1.06125 15.1883 1.16333C15.2306 1.26541 15.2926 1.35816 15.3707 1.43629L20.6595 6.72342L0.840305 6.72342C0.617445 6.72342 0.403713 6.81196 0.246126 6.96954C0.088541 7.12713 9.53674e-06 7.34086 9.53674e-06 7.56372Z" fill="#231D2C"/>
</svg>
