<svg width="597" height="409" viewBox="0 0 597 409" fill="none" xmlns="http://www.w3.org/2000/svg">
<g filter="url(#filter0_ddd_11512_263422)">
<rect x="23" y="8.00024" width="551" height="363.221" fill="#FBFBFB"/>
<rect x="23" y="8.00024" width="551" height="36.5506" fill="#565656"/>
<circle cx="47.6711" cy="26.2749" r="6.85323" fill="white"/>
<circle cx="75.0835" cy="26.2749" r="6.85323" fill="white"/>
<circle cx="102.498" cy="26.2749" r="6.85323" fill="white"/>
<rect x="416" y="70.0002" width="126" height="286" rx="13.7854" fill="#EAEDF3"/>
<rect x="426.177" y="104.168" width="105.919" height="6.83351" rx="3.41675" fill="#359C96"/>
<rect x="426.177" y="83.6672" width="82.0021" height="6.83351" rx="3.41675" fill="#359C96"/>
<rect x="426.92" y="128.085" width="104.434" height="6.83351" rx="3.41675" fill="#359C96"/>
<rect x="427.687" y="149.63" width="102.819" height="7.51933" rx="3.75967" fill="#359C96"/>
<rect x="426.92" y="196.42" width="104.434" height="6.83351" rx="3.41675" fill="#359C96"/>
<rect x="426.92" y="220.338" width="104.434" height="6.83351" rx="3.41675" fill="#359C96"/>
<rect x="426.92" y="244.255" width="104.434" height="6.83351" rx="3.41675" fill="#359C96"/>
<rect x="426.92" y="172.503" width="104.434" height="6.83351" rx="3.41675" fill="#359C96"/>
<rect x="57" y="70.0002" width="144.592" height="107.467" rx="5.37336" fill="#EAEDF3"/>
<rect x="64.8158" y="91.4937" width="128.961" height="15.1431" rx="7.57155" fill="#359C96"/>
<rect x="64.8158" y="112.499" width="128.961" height="15.1431" rx="7.57155" fill="#359C96"/>
<rect x="64.8158" y="133.504" width="128.961" height="15.1431" rx="7.57155" fill="#359C96"/>
<path d="M106.229 164.095H105.496L105.501 163.716H106.229C106.48 163.716 106.689 163.664 106.857 163.559C107.024 163.453 107.149 163.305 107.233 163.116C107.318 162.924 107.361 162.701 107.361 162.445V162.23C107.361 162.03 107.336 161.851 107.288 161.695C107.24 161.538 107.169 161.405 107.076 161.297C106.983 161.188 106.869 161.105 106.734 161.049C106.6 160.992 106.447 160.964 106.273 160.964H105.482V160.583H106.273C106.503 160.583 106.713 160.622 106.902 160.699C107.092 160.775 107.255 160.885 107.392 161.029C107.53 161.173 107.636 161.346 107.71 161.55C107.784 161.753 107.821 161.981 107.821 162.235V162.445C107.821 162.699 107.784 162.928 107.71 163.132C107.636 163.335 107.529 163.508 107.39 163.651C107.251 163.794 107.084 163.904 106.888 163.981C106.693 164.057 106.474 164.095 106.229 164.095ZM105.745 160.583V164.095H105.279V160.583H105.745ZM108.899 161.895V164.095H108.453V161.485H108.887L108.899 161.895ZM109.714 161.471L109.712 161.886C109.675 161.878 109.64 161.873 109.606 161.871C109.574 161.868 109.537 161.866 109.495 161.866C109.392 161.866 109.301 161.882 109.222 161.915C109.144 161.947 109.077 161.992 109.022 162.05C108.968 162.107 108.924 162.177 108.892 162.257C108.861 162.336 108.841 162.423 108.832 162.517L108.706 162.59C108.706 162.432 108.722 162.284 108.752 162.146C108.784 162.008 108.833 161.886 108.899 161.78C108.965 161.672 109.049 161.588 109.15 161.529C109.253 161.468 109.375 161.437 109.517 161.437C109.549 161.437 109.586 161.441 109.628 161.449C109.669 161.456 109.698 161.463 109.714 161.471ZM109.96 162.819V162.763C109.96 162.575 109.988 162.401 110.042 162.24C110.097 162.078 110.176 161.937 110.279 161.818C110.382 161.698 110.506 161.604 110.653 161.538C110.799 161.471 110.963 161.437 111.145 161.437C111.328 161.437 111.493 161.471 111.639 161.538C111.787 161.604 111.912 161.698 112.015 161.818C112.12 161.937 112.199 162.078 112.254 162.24C112.309 162.401 112.336 162.575 112.336 162.763V162.819C112.336 163.007 112.309 163.181 112.254 163.342C112.199 163.503 112.12 163.644 112.015 163.764C111.912 163.883 111.788 163.977 111.641 164.044C111.497 164.11 111.333 164.143 111.149 164.143C110.966 164.143 110.801 164.11 110.655 164.044C110.509 163.977 110.383 163.883 110.279 163.764C110.176 163.644 110.097 163.503 110.042 163.342C109.988 163.181 109.96 163.007 109.96 162.819ZM110.407 162.763V162.819C110.407 162.949 110.422 163.072 110.452 163.188C110.483 163.302 110.529 163.403 110.59 163.492C110.653 163.58 110.731 163.65 110.824 163.702C110.917 163.751 111.026 163.776 111.149 163.776C111.272 163.776 111.378 163.751 111.47 163.702C111.563 163.65 111.641 163.58 111.702 163.492C111.763 163.403 111.809 163.302 111.839 163.188C111.871 163.072 111.887 162.949 111.887 162.819V162.763C111.887 162.635 111.871 162.513 111.839 162.399C111.809 162.284 111.762 162.181 111.699 162.093C111.638 162.003 111.561 161.932 111.468 161.881C111.376 161.829 111.268 161.804 111.145 161.804C111.022 161.804 110.915 161.829 110.821 161.881C110.73 161.932 110.653 162.003 110.59 162.093C110.529 162.181 110.483 162.284 110.452 162.399C110.422 162.513 110.407 162.635 110.407 162.763ZM113.342 161.987V165.098H112.893V161.485H113.303L113.342 161.987ZM115.1 162.768V162.819C115.1 163.009 115.077 163.185 115.032 163.347C114.987 163.508 114.921 163.648 114.834 163.767C114.749 163.886 114.644 163.978 114.518 164.044C114.393 164.11 114.249 164.143 114.087 164.143C113.921 164.143 113.775 164.116 113.648 164.061C113.521 164.006 113.413 163.927 113.325 163.822C113.236 163.718 113.166 163.592 113.112 163.446C113.061 163.3 113.026 163.135 113.006 162.952V162.681C113.026 162.489 113.062 162.316 113.115 162.163C113.168 162.01 113.238 161.88 113.325 161.772C113.413 161.663 113.52 161.58 113.645 161.524C113.771 161.466 113.916 161.437 114.08 161.437C114.244 161.437 114.389 161.469 114.516 161.534C114.643 161.596 114.75 161.686 114.837 161.804C114.924 161.921 114.989 162.062 115.032 162.226C115.077 162.388 115.1 162.569 115.1 162.768ZM114.651 162.819V162.768C114.651 162.638 114.637 162.516 114.61 162.402C114.583 162.286 114.54 162.185 114.482 162.098C114.426 162.009 114.354 161.94 114.265 161.89C114.177 161.839 114.072 161.813 113.949 161.813C113.837 161.813 113.739 161.833 113.655 161.871C113.573 161.91 113.503 161.962 113.445 162.028C113.387 162.092 113.34 162.166 113.303 162.25C113.268 162.332 113.241 162.417 113.223 162.505V163.13C113.256 163.243 113.301 163.349 113.358 163.448C113.416 163.546 113.494 163.626 113.59 163.687C113.686 163.747 113.808 163.776 113.954 163.776C114.075 163.776 114.178 163.751 114.265 163.702C114.354 163.65 114.426 163.58 114.482 163.492C114.54 163.403 114.583 163.302 114.61 163.188C114.637 163.072 114.651 162.949 114.651 162.819ZM118.539 163.588V160.39H118.987V164.095H118.577L118.539 163.588ZM116.783 162.819V162.768C116.783 162.569 116.807 162.388 116.855 162.226C116.905 162.062 116.975 161.921 117.065 161.804C117.157 161.686 117.265 161.596 117.391 161.534C117.518 161.469 117.659 161.437 117.815 161.437C117.979 161.437 118.122 161.466 118.245 161.524C118.368 161.58 118.473 161.663 118.558 161.772C118.645 161.88 118.713 162.01 118.763 162.163C118.813 162.316 118.847 162.489 118.867 162.681V162.903C118.849 163.095 118.814 163.267 118.763 163.419C118.713 163.572 118.645 163.702 118.558 163.81C118.473 163.918 118.368 164.001 118.245 164.059C118.121 164.115 117.976 164.143 117.81 164.143C117.658 164.143 117.518 164.11 117.391 164.044C117.265 163.978 117.157 163.886 117.065 163.767C116.975 163.648 116.905 163.508 116.855 163.347C116.807 163.185 116.783 163.009 116.783 162.819ZM117.232 162.768V162.819C117.232 162.949 117.244 163.071 117.27 163.186C117.298 163.3 117.339 163.4 117.396 163.487C117.452 163.574 117.523 163.642 117.61 163.692C117.697 163.74 117.801 163.764 117.921 163.764C118.069 163.764 118.191 163.733 118.286 163.67C118.382 163.608 118.459 163.525 118.517 163.422C118.575 163.319 118.62 163.207 118.652 163.087V162.505C118.633 162.417 118.605 162.332 118.568 162.25C118.532 162.166 118.486 162.092 118.428 162.028C118.372 161.962 118.302 161.91 118.218 161.871C118.136 161.833 118.039 161.813 117.926 161.813C117.804 161.813 117.699 161.839 117.61 161.89C117.523 161.94 117.452 162.009 117.396 162.098C117.339 162.185 117.298 162.286 117.27 162.402C117.244 162.516 117.232 162.638 117.232 162.768ZM120.167 161.485V164.095H119.718V161.485H120.167ZM119.684 160.793C119.684 160.721 119.706 160.66 119.749 160.61C119.794 160.56 119.86 160.535 119.947 160.535C120.032 160.535 120.098 160.56 120.143 160.61C120.189 160.66 120.212 160.721 120.212 160.793C120.212 160.862 120.189 160.922 120.143 160.972C120.098 161.02 120.032 161.044 119.947 161.044C119.86 161.044 119.794 161.02 119.749 160.972C119.706 160.922 119.684 160.862 119.684 160.793ZM121.327 162.004V164.095H120.878V161.485H121.303L121.327 162.004ZM121.235 162.691L121.028 162.684C121.029 162.505 121.053 162.341 121.098 162.189C121.143 162.037 121.209 161.904 121.298 161.792C121.386 161.679 121.496 161.592 121.628 161.531C121.76 161.468 121.913 161.437 122.086 161.437C122.209 161.437 122.321 161.455 122.424 161.49C122.527 161.524 122.616 161.578 122.692 161.652C122.767 161.726 122.826 161.821 122.868 161.936C122.91 162.052 122.93 162.192 122.93 162.356V164.095H122.484V162.378C122.484 162.241 122.461 162.132 122.414 162.05C122.369 161.968 122.305 161.908 122.221 161.871C122.138 161.833 122.04 161.813 121.927 161.813C121.795 161.813 121.685 161.837 121.597 161.883C121.508 161.93 121.438 161.994 121.385 162.076C121.332 162.158 121.293 162.252 121.269 162.358C121.246 162.463 121.235 162.574 121.235 162.691ZM122.926 162.445L122.627 162.537C122.628 162.394 122.651 162.256 122.697 162.124C122.743 161.993 122.81 161.875 122.897 161.772C122.985 161.669 123.094 161.588 123.222 161.529C123.351 161.468 123.498 161.437 123.664 161.437C123.803 161.437 123.927 161.456 124.035 161.493C124.144 161.529 124.236 161.587 124.31 161.664C124.386 161.739 124.443 161.837 124.481 161.956C124.52 162.075 124.539 162.216 124.539 162.38V164.095H124.09V162.375C124.09 162.229 124.067 162.116 124.021 162.035C123.976 161.953 123.911 161.896 123.828 161.864C123.746 161.83 123.648 161.813 123.533 161.813C123.435 161.813 123.348 161.83 123.273 161.864C123.197 161.898 123.134 161.944 123.082 162.004C123.031 162.062 122.992 162.128 122.964 162.204C122.938 162.28 122.926 162.36 122.926 162.445ZM126.297 164.143C126.115 164.143 125.951 164.112 125.803 164.051C125.656 163.989 125.53 163.901 125.424 163.788C125.32 163.676 125.239 163.542 125.183 163.388C125.127 163.234 125.099 163.065 125.099 162.882V162.78C125.099 162.568 125.13 162.379 125.193 162.214C125.255 162.046 125.341 161.905 125.448 161.789C125.556 161.673 125.678 161.586 125.815 161.526C125.951 161.467 126.093 161.437 126.239 161.437C126.426 161.437 126.587 161.469 126.722 161.534C126.858 161.598 126.97 161.688 127.057 161.804C127.144 161.918 127.208 162.053 127.25 162.209C127.292 162.363 127.312 162.532 127.312 162.715V162.915H125.364V162.551H126.866V162.517C126.86 162.402 126.836 162.289 126.794 162.18C126.754 162.071 126.689 161.98 126.601 161.91C126.513 161.839 126.392 161.804 126.239 161.804C126.138 161.804 126.045 161.825 125.96 161.869C125.874 161.911 125.801 161.973 125.74 162.057C125.679 162.14 125.632 162.243 125.598 162.363C125.564 162.484 125.547 162.623 125.547 162.78V162.882C125.547 163.005 125.564 163.122 125.598 163.231C125.633 163.339 125.684 163.434 125.75 163.516C125.817 163.598 125.898 163.662 125.993 163.709C126.09 163.755 126.199 163.779 126.321 163.779C126.479 163.779 126.612 163.747 126.722 163.682C126.831 163.618 126.927 163.532 127.009 163.424L127.279 163.639C127.222 163.724 127.151 163.805 127.064 163.882C126.977 163.96 126.87 164.022 126.743 164.071C126.618 164.119 126.469 164.143 126.297 164.143ZM128.28 162.042V164.095H127.833V161.485H128.255L128.28 162.042ZM128.173 162.691L127.988 162.684C127.989 162.505 128.016 162.341 128.067 162.189C128.119 162.037 128.191 161.904 128.284 161.792C128.378 161.679 128.489 161.592 128.617 161.531C128.747 161.468 128.891 161.437 129.049 161.437C129.178 161.437 129.293 161.455 129.396 161.49C129.499 161.524 129.587 161.579 129.659 161.654C129.733 161.73 129.789 161.828 129.828 161.948C129.866 162.067 129.886 162.213 129.886 162.385V164.095H129.437V162.38C129.437 162.243 129.417 162.134 129.377 162.052C129.337 161.968 129.278 161.908 129.201 161.871C129.124 161.833 129.029 161.813 128.916 161.813C128.805 161.813 128.704 161.837 128.612 161.883C128.522 161.93 128.444 161.994 128.378 162.076C128.314 162.158 128.264 162.252 128.227 162.358C128.191 162.463 128.173 162.574 128.173 162.691ZM132.083 163.403C132.083 163.338 132.068 163.279 132.039 163.224C132.012 163.168 131.955 163.117 131.868 163.072C131.783 163.026 131.654 162.985 131.482 162.952C131.338 162.921 131.207 162.885 131.089 162.843C130.973 162.801 130.875 162.751 130.793 162.691C130.712 162.632 130.65 162.562 130.607 162.481C130.563 162.401 130.542 162.307 130.542 162.199C130.542 162.096 130.564 161.999 130.609 161.907C130.656 161.816 130.721 161.734 130.805 161.664C130.89 161.593 130.992 161.538 131.111 161.497C131.23 161.457 131.363 161.437 131.509 161.437C131.718 161.437 131.896 161.474 132.044 161.548C132.192 161.622 132.306 161.721 132.384 161.845C132.463 161.967 132.502 162.103 132.502 162.252H132.056C132.056 162.18 132.035 162.11 131.991 162.042C131.949 161.973 131.887 161.916 131.805 161.871C131.725 161.826 131.626 161.804 131.509 161.804C131.385 161.804 131.285 161.823 131.207 161.862C131.132 161.898 131.076 161.946 131.041 162.004C131.007 162.062 130.99 162.123 130.99 162.187C130.99 162.235 130.998 162.279 131.014 162.317C131.032 162.354 131.063 162.389 131.106 162.421C131.149 162.452 131.211 162.481 131.289 162.508C131.368 162.535 131.469 162.562 131.591 162.59C131.805 162.638 131.981 162.696 132.119 162.763C132.257 162.831 132.36 162.914 132.428 163.012C132.495 163.11 132.529 163.229 132.529 163.369C132.529 163.483 132.505 163.587 132.457 163.682C132.41 163.777 132.342 163.859 132.252 163.928C132.163 163.996 132.057 164.049 131.933 164.087C131.811 164.124 131.674 164.143 131.521 164.143C131.291 164.143 131.096 164.102 130.937 164.02C130.778 163.938 130.658 163.832 130.576 163.702C130.494 163.571 130.453 163.434 130.453 163.289H130.901C130.908 163.411 130.943 163.509 131.007 163.581C131.072 163.652 131.15 163.702 131.244 163.733C131.337 163.762 131.429 163.776 131.521 163.776C131.643 163.776 131.745 163.76 131.827 163.728C131.911 163.696 131.974 163.652 132.018 163.596C132.061 163.539 132.083 163.475 132.083 163.403ZM133.6 161.485V164.095H133.151V161.485H133.6ZM133.117 160.793C133.117 160.721 133.139 160.66 133.183 160.61C133.228 160.56 133.293 160.535 133.38 160.535C133.466 160.535 133.531 160.56 133.576 160.61C133.622 160.66 133.646 160.721 133.646 160.793C133.646 160.862 133.622 160.922 133.576 160.972C133.531 161.02 133.466 161.044 133.38 161.044C133.293 161.044 133.228 161.02 133.183 160.972C133.139 160.922 133.117 160.862 133.117 160.793ZM134.198 162.819V162.763C134.198 162.575 134.225 162.401 134.28 162.24C134.335 162.078 134.413 161.937 134.516 161.818C134.619 161.698 134.744 161.604 134.89 161.538C135.036 161.471 135.2 161.437 135.382 161.437C135.565 161.437 135.73 161.471 135.876 161.538C136.024 161.604 136.15 161.698 136.253 161.818C136.357 161.937 136.437 162.078 136.491 162.24C136.546 162.401 136.573 162.575 136.573 162.763V162.819C136.573 163.007 136.546 163.181 136.491 163.342C136.437 163.503 136.357 163.644 136.253 163.764C136.15 163.883 136.025 163.977 135.879 164.044C135.734 164.11 135.57 164.143 135.387 164.143C135.204 164.143 135.039 164.11 134.892 164.044C134.746 163.977 134.621 163.883 134.516 163.764C134.413 163.644 134.335 163.503 134.28 163.342C134.225 163.181 134.198 163.007 134.198 162.819ZM134.644 162.763V162.819C134.644 162.949 134.659 163.072 134.69 163.188C134.72 163.302 134.766 163.403 134.827 163.492C134.89 163.58 134.968 163.65 135.061 163.702C135.155 163.751 135.263 163.776 135.387 163.776C135.509 163.776 135.616 163.751 135.708 163.702C135.801 163.65 135.878 163.58 135.939 163.492C136 163.403 136.046 163.302 136.077 163.188C136.109 163.072 136.125 162.949 136.125 162.819V162.763C136.125 162.635 136.109 162.513 136.077 162.399C136.046 162.284 135.999 162.181 135.937 162.093C135.876 162.003 135.798 161.932 135.705 161.881C135.614 161.829 135.506 161.804 135.382 161.804C135.26 161.804 135.152 161.829 135.059 161.881C134.967 161.932 134.89 162.003 134.827 162.093C134.766 162.181 134.72 162.284 134.69 162.399C134.659 162.513 134.644 162.635 134.644 162.763ZM137.579 162.042V164.095H137.133V161.485H137.555L137.579 162.042ZM137.473 162.691L137.287 162.684C137.289 162.505 137.315 162.341 137.367 162.189C137.418 162.037 137.491 161.904 137.584 161.792C137.677 161.679 137.788 161.592 137.917 161.531C138.047 161.468 138.191 161.437 138.348 161.437C138.477 161.437 138.593 161.455 138.696 161.49C138.799 161.524 138.886 161.579 138.959 161.654C139.033 161.73 139.089 161.828 139.127 161.948C139.166 162.067 139.185 162.213 139.185 162.385V164.095H138.737V162.38C138.737 162.243 138.717 162.134 138.676 162.052C138.636 161.968 138.578 161.908 138.5 161.871C138.423 161.833 138.328 161.813 138.216 161.813C138.105 161.813 138.004 161.837 137.912 161.883C137.822 161.93 137.744 161.994 137.678 162.076C137.614 162.158 137.563 162.252 137.526 162.358C137.491 162.463 137.473 162.574 137.473 162.691ZM141.534 160.39V164.095H141.088V160.39H141.534ZM141.428 162.691L141.242 162.684C141.244 162.505 141.271 162.341 141.322 162.189C141.373 162.037 141.446 161.904 141.539 161.792C141.632 161.679 141.743 161.592 141.872 161.531C142.002 161.468 142.146 161.437 142.304 161.437C142.432 161.437 142.548 161.455 142.651 161.49C142.754 161.524 142.841 161.579 142.914 161.654C142.988 161.73 143.044 161.828 143.083 161.948C143.121 162.067 143.14 162.213 143.14 162.385V164.095H142.692V162.38C142.692 162.243 142.672 162.134 142.632 162.052C142.591 161.968 142.533 161.908 142.456 161.871C142.378 161.833 142.283 161.813 142.171 161.813C142.06 161.813 141.959 161.837 141.867 161.883C141.777 161.93 141.699 161.994 141.633 162.076C141.569 162.158 141.518 162.252 141.481 162.358C141.446 162.463 141.428 162.574 141.428 162.691ZM144.891 164.143C144.71 164.143 144.545 164.112 144.397 164.051C144.251 163.989 144.124 163.901 144.018 163.788C143.914 163.676 143.833 163.542 143.777 163.388C143.721 163.234 143.693 163.065 143.693 162.882V162.78C143.693 162.568 143.724 162.379 143.787 162.214C143.849 162.046 143.935 161.905 144.042 161.789C144.15 161.673 144.272 161.586 144.409 161.526C144.546 161.467 144.687 161.437 144.833 161.437C145.02 161.437 145.181 161.469 145.316 161.534C145.452 161.598 145.564 161.688 145.651 161.804C145.738 161.918 145.802 162.053 145.844 162.209C145.886 162.363 145.907 162.532 145.907 162.715V162.915H143.958V162.551H145.46V162.517C145.454 162.402 145.43 162.289 145.388 162.18C145.348 162.071 145.284 161.98 145.195 161.91C145.107 161.839 144.986 161.804 144.833 161.804C144.732 161.804 144.639 161.825 144.554 161.869C144.468 161.911 144.395 161.973 144.334 162.057C144.273 162.14 144.226 162.243 144.192 162.363C144.158 162.484 144.141 162.623 144.141 162.78V162.882C144.141 163.005 144.158 163.122 144.192 163.231C144.227 163.339 144.278 163.434 144.344 163.516C144.411 163.598 144.493 163.662 144.587 163.709C144.684 163.755 144.793 163.779 144.915 163.779C145.073 163.779 145.206 163.747 145.316 163.682C145.425 163.618 145.521 163.532 145.603 163.424L145.873 163.639C145.817 163.724 145.745 163.805 145.658 163.882C145.571 163.96 145.464 164.022 145.337 164.071C145.212 164.119 145.063 164.143 144.891 164.143ZM146.874 161.895V164.095H146.428V161.485H146.862L146.874 161.895ZM147.689 161.471L147.686 161.886C147.649 161.878 147.614 161.873 147.58 161.871C147.548 161.868 147.511 161.866 147.469 161.866C147.367 161.866 147.276 161.882 147.197 161.915C147.118 161.947 147.051 161.992 146.997 162.05C146.942 162.107 146.899 162.177 146.866 162.257C146.836 162.336 146.816 162.423 146.806 162.517L146.681 162.59C146.681 162.432 146.696 162.284 146.727 162.146C146.759 162.008 146.808 161.886 146.874 161.78C146.94 161.672 147.023 161.588 147.125 161.529C147.227 161.468 147.35 161.437 147.491 161.437C147.523 161.437 147.56 161.441 147.602 161.449C147.644 161.456 147.673 161.463 147.689 161.471ZM149.136 164.143C148.954 164.143 148.789 164.112 148.641 164.051C148.495 163.989 148.369 163.901 148.263 163.788C148.158 163.676 148.078 163.542 148.022 163.388C147.965 163.234 147.937 163.065 147.937 162.882V162.78C147.937 162.568 147.969 162.379 148.031 162.214C148.094 162.046 148.179 161.905 148.287 161.789C148.395 161.673 148.517 161.586 148.654 161.526C148.79 161.467 148.932 161.437 149.078 161.437C149.265 161.437 149.425 161.469 149.56 161.534C149.697 161.598 149.809 161.688 149.896 161.804C149.982 161.918 150.047 162.053 150.089 162.209C150.13 162.363 150.151 162.532 150.151 162.715V162.915H148.203V162.551H149.705V162.517C149.699 162.402 149.675 162.289 149.633 162.18C149.593 162.071 149.528 161.98 149.44 161.91C149.351 161.839 149.231 161.804 149.078 161.804C148.977 161.804 148.883 161.825 148.798 161.869C148.713 161.911 148.64 161.973 148.579 162.057C148.518 162.14 148.47 162.243 148.437 162.363C148.403 162.484 148.386 162.623 148.386 162.78V162.882C148.386 163.005 148.403 163.122 148.437 163.231C148.472 163.339 148.523 163.434 148.588 163.516C148.656 163.598 148.737 163.662 148.832 163.709C148.928 163.755 149.038 163.779 149.16 163.779C149.318 163.779 149.451 163.747 149.56 163.682C149.67 163.618 149.765 163.532 149.847 163.424L150.117 163.639C150.061 163.724 149.99 163.805 149.903 163.882C149.816 163.96 149.709 164.022 149.582 164.071C149.457 164.119 149.308 164.143 149.136 164.143Z" fill="#757575"/>
<rect x="64.9922" y="154.685" width="128.608" height="14.7903" rx="7.39515" fill="#F1F3F5" stroke="#262C34" stroke-width="0.352796" stroke-dasharray="0.71 0.71"/>
<rect x="209.408" y="70.0002" width="144.592" height="42.4984" rx="5.37336" fill="#EAEDF3"/>
<rect x="217.224" y="89.5398" width="128.961" height="15.1431" rx="7.57155" fill="#359C96"/>
<rect x="275.842" y="91.4937" width="50.8026" height="11.7237" rx="5.86184" fill="#373D43"/>
<path d="M315.898 96.3784L318.34 98.8209L320.783 96.3784H315.898Z" fill="white"/>
<rect x="57" y="190" width="335" height="166" rx="18.9011" fill="#F1F3F5"/>
<path d="M180.263 238.08H144.787V278.63H188.946L213.755 261.162V213.434L180.263 238.08Z" fill="#CFD4DA"/>
<path d="M235.59 214.085H218.065V236.064H234.977L283.261 225.692V200.502L235.59 214.085Z" fill="#CFD4DA"/>
<path d="M239.542 314.73H221.837V334.685H238.923L283.261 346.52V326.565L239.542 314.73Z" fill="#CFD4DA"/>
<path d="M252.331 236.063H219.682V258.154H254.786L283.261 258.154V236.063L252.331 236.063Z" fill="#CFD4DA"/>
<path d="M253.685 293.718H220.759V315.27H256.161L284.878 315.27V293.718L253.685 293.718Z" fill="#CFD4DA"/>
<path d="M187.212 278.628H150.714V312.761H187.212L218.605 335.204V293.876L187.212 278.628Z" fill="#CFD4DA"/>
<rect x="154" y="236" width="79" height="11" rx="5.38812" transform="rotate(90 154 236)" fill="#868E96"/>
<path d="M217.612 291C220.588 291 223 293.413 223 296.388L223 332.612C223 335.588 220.588 338 217.612 338L217.388 338C214.412 338 212 335.588 212 332.612L212 296.388C212 293.413 214.412 291 217.388 291L217.612 291Z" fill="#868E96"/>
<rect x="223" y="211" width="50" height="11" rx="5.38812" transform="rotate(90 223 211)" fill="#868E96"/>
<rect x="291" y="199" width="27" height="12" rx="5.38812" transform="rotate(90 291 199)" fill="#868E96"/>
<rect x="291" y="236" width="22" height="12" rx="5.38812" transform="rotate(90 291 236)" fill="#868E96"/>
<rect x="290.266" y="293.718" width="21.5525" height="11.8539" rx="5.38812" transform="rotate(90 290.266 293.718)" fill="#868E96"/>
<rect x="290" y="325" width="25" height="12" rx="5.38812" transform="rotate(90 290 325)" fill="#868E96"/>
</g>
<defs>
<filter id="filter0_ddd_11512_263422" x="0.544662" y="0.515132" width="595.911" height="408.132" filterUnits="userSpaceOnUse" color-interpolation-filters="sRGB">
<feFlood flood-opacity="0" result="BackgroundImageFix"/>
<feColorMatrix in="SourceAlpha" type="matrix" values="0 0 0 0 0 0 0 0 0 0 0 0 0 0 0 0 0 0 127 0" result="hardAlpha"/>
<feOffset dy="0.748511"/>
<feGaussianBlur stdDeviation="3.74256"/>
<feColorMatrix type="matrix" values="0 0 0 0 0 0 0 0 0 0 0 0 0 0 0 0 0 0 0.05 0"/>
<feBlend mode="normal" in2="BackgroundImageFix" result="effect1_dropShadow_11512_263422"/>
<feColorMatrix in="SourceAlpha" type="matrix" values="0 0 0 0 0 0 0 0 0 0 0 0 0 0 0 0 0 0 127 0" result="hardAlpha"/>
<feOffset dy="4.49107"/>
<feGaussianBlur stdDeviation="3.74256"/>
<feColorMatrix type="matrix" values="0 0 0 0 0 0 0 0 0 0 0 0 0 0 0 0 0 0 0.05 0"/>
<feBlend mode="normal" in2="effect1_dropShadow_11512_263422" result="effect2_dropShadow_11512_263422"/>
<feColorMatrix in="SourceAlpha" type="matrix" values="0 0 0 0 0 0 0 0 0 0 0 0 0 0 0 0 0 0 127 0" result="hardAlpha"/>
<feOffset dy="14.9702"/>
<feGaussianBlur stdDeviation="11.2277"/>
<feColorMatrix type="matrix" values="0 0 0 0 0 0 0 0 0 0 0 0 0 0 0 0 0 0 0.05 0"/>
<feBlend mode="normal" in2="effect2_dropShadow_11512_263422" result="effect3_dropShadow_11512_263422"/>
<feBlend mode="normal" in="SourceGraphic" in2="effect3_dropShadow_11512_263422" result="shape"/>
</filter>
</defs>
</svg>
