<svg width="609" height="430" viewBox="0 0 609 430" fill="none" xmlns="http://www.w3.org/2000/svg">
<g filter="url(#filter0_ddd_11512_263272)">
<rect x="29" y="10" width="551" height="372.711" fill="#FBFBFB"/>
<rect x="29" y="10" width="551" height="37.6434" fill="#565656"/>
<circle cx="54.3162" cy="28.753" r="7.03228" fill="white"/>
<circle cx="82.4454" cy="28.753" r="7.03228" fill="white"/>
<circle cx="110.574" cy="28.753" r="7.03228" fill="white"/>
<path d="M63.47 91.0854V72.5533H67.3088V91.0854H63.47ZM70.8014 91.0854V76.8951H74.5608V78.8013C75.3815 77.6629 76.414 76.6304 78.2143 76.6304C80.8617 76.6304 82.3972 78.4836 82.3972 81.4223V91.0854H78.6378V82.5342C78.6378 80.8663 77.8966 80.0191 76.6258 80.0191C75.3815 80.0191 74.5608 80.8663 74.5608 82.5342V91.0854H70.8014ZM88.5989 91.1913L83.807 76.8951H87.7252L90.3727 86.32L93.0466 76.8951H96.8589L92.0935 91.1913H88.5989ZM104.166 91.4031C100.406 91.4031 97.5208 88.5704 97.5208 84.1491V83.9109C97.5208 79.7014 100.142 76.6304 103.716 76.6304C107.766 76.6304 109.752 79.9397 109.752 84.1756C109.752 84.3874 109.752 84.8375 109.725 85.3934H101.254C101.571 87.2731 102.736 88.2527 104.325 88.2527C105.49 88.2527 106.39 87.7232 107.29 86.8495L109.222 89.1263C107.925 90.556 106.284 91.4031 104.166 91.4031ZM101.227 82.9048H106.125C105.966 80.9457 105.119 79.7279 103.716 79.7279C102.339 79.7279 101.439 80.8928 101.227 82.9048ZM116.508 91.3502C114.84 91.3502 112.855 90.7942 111.134 89.3911L112.775 86.7436C114.046 87.7232 115.396 88.3321 116.561 88.3321C117.62 88.3321 118.07 87.8291 118.07 87.2466V87.1937C118.07 86.373 117.011 86.0288 115.476 85.367C113.464 84.4933 111.743 83.4873 111.743 81.0781V81.0251C111.743 78.2983 113.861 76.6833 116.614 76.6833C118.15 76.6833 119.871 77.2128 121.3 78.2189L119.791 80.9193C118.732 80.2309 117.567 79.7014 116.561 79.7014C115.661 79.7014 115.185 80.1515 115.185 80.7075V80.7604C115.185 81.5017 116.244 81.9253 117.753 82.6136C119.818 83.5932 121.512 84.6257 121.512 86.876V86.929C121.512 89.8676 119.341 91.3502 116.508 91.3502ZM127.937 91.3237C125.766 91.3237 124.178 90.4765 124.178 87.5379V80.0721H122.748V76.8951H124.178V73.2681H127.937V76.8951H130.743V80.0721H127.937V86.7701C127.937 87.5908 128.308 87.9879 129.102 87.9879C129.684 87.9879 130.24 87.8291 130.717 87.5908V90.5824C129.976 91.006 129.075 91.3237 127.937 91.3237ZM133.213 91.0854V76.8951H136.972V78.8013C137.819 77.6099 138.878 76.6304 140.652 76.6304C142.294 76.6304 143.485 77.4246 144.147 78.6954C145.179 77.4511 146.45 76.6304 148.171 76.6304C150.686 76.6304 152.38 78.2718 152.38 81.3958V91.0854H148.648V82.5342C148.648 80.8928 147.933 80.0191 146.688 80.0191C145.444 80.0191 144.676 80.8928 144.676 82.5342V91.0854H140.917V82.5342C140.917 80.8928 140.229 80.0191 138.984 80.0191C137.74 80.0191 136.972 80.8928 136.972 82.5342V91.0854H133.213ZM161.407 91.4031C157.647 91.4031 154.761 88.5704 154.761 84.1491V83.9109C154.761 79.7014 157.382 76.6304 160.957 76.6304C165.007 76.6304 166.993 79.9397 166.993 84.1756C166.993 84.3874 166.993 84.8375 166.966 85.3934H158.494C158.812 87.2731 159.977 88.2527 161.565 88.2527C162.73 88.2527 163.63 87.7232 164.531 86.8495L166.463 89.1263C165.166 90.556 163.525 91.4031 161.407 91.4031ZM158.468 82.9048H163.366C163.207 80.9457 162.36 79.7279 160.957 79.7279C159.58 79.7279 158.68 80.8928 158.468 82.9048ZM169.46 91.0854V76.8951H173.22V78.8013C174.04 77.6629 175.073 76.6304 176.873 76.6304C179.52 76.6304 181.056 78.4836 181.056 81.4223V91.0854H177.297V82.5342C177.297 80.8663 176.555 80.0191 175.285 80.0191C174.04 80.0191 173.22 80.8663 173.22 82.5342V91.0854H169.46ZM188.28 91.3237C186.109 91.3237 184.521 90.4765 184.521 87.5379V80.0721H183.091V76.8951H184.521V73.2681H188.28V76.8951H191.087V80.0721H188.28V86.7701C188.28 87.5908 188.651 87.9879 189.445 87.9879C190.028 87.9879 190.584 87.8291 191.06 87.5908V90.5824C190.319 91.006 189.419 91.3237 188.28 91.3237Z" fill="#231D2C"/>
<line x1="63.334" y1="176.086" x2="548.148" y2="176.086" stroke="#CBCBCB" stroke-width="0.413664"/>
<line x1="63.334" y1="245.995" x2="548.148" y2="245.995" stroke="#CBCBCB" stroke-width="0.413664"/>
<line x1="63.334" y1="322.936" x2="548.148" y2="322.936" stroke="#CBCBCB" stroke-width="0.413664"/>
<rect x="98.0816" y="340.104" width="152.642" height="24.8198" rx="12.4099" transform="rotate(-90 98.0816 340.104)" fill="#6061E5"/>
<rect x="162.2" y="294.601" width="118.308" height="24.8198" rx="12.4099" transform="rotate(-90 162.2 294.601)" fill="#F2D1E2"/>
<rect x="98.0816" y="340.104" width="74.4595" height="24.8198" rx="12.4099" transform="rotate(-90 98.0816 340.104)" fill="#565656"/>
<rect x="162.2" y="294.601" width="56.2583" height="24.8198" rx="12.4099" transform="rotate(-90 162.2 294.601)" fill="#565656"/>
<rect x="226.318" y="294.601" width="150.16" height="24.8198" rx="12.4099" transform="rotate(-90 226.318 294.601)" fill="#6061E5"/>
<rect x="293.331" y="333.899" width="189.458" height="24.8198" rx="12.4099" transform="rotate(-90 293.331 333.899)" fill="#F2D1E2"/>
<rect x="352.485" y="309.079" width="125.754" height="24.8198" rx="12.4099" transform="rotate(-90 352.485 309.079)" fill="#6061E5"/>
<rect x="405.434" y="294.601" width="87.6967" height="24.8198" rx="12.4099" transform="rotate(-90 405.434 294.601)" fill="#F2D1E2"/>
<rect x="457.969" y="290.05" width="87.6967" height="24.8198" rx="12.4099" transform="rotate(-90 457.969 290.05)" fill="#6061E5"/>
<rect x="410.398" y="96.8701" width="23.1652" height="14.0646" rx="7.03228" transform="rotate(180 410.398 96.8701)" fill="#6061E5"/>
<rect x="497.267" y="98.9377" width="23.1652" height="18.2012" rx="9.1006" transform="rotate(180 497.267 98.9377)" fill="#F2D1E2"/>
<rect x="512.573" y="323.971" width="169.602" height="24.8198" rx="12.4099" transform="rotate(-90 512.573 323.971)" fill="#F2D1E2"/>
<rect x="226.318" y="294.601" width="56.2583" height="24.8198" rx="12.4099" transform="rotate(-90 226.318 294.601)" fill="#565656"/>
<rect x="293.331" y="333.899" width="87.6967" height="24.8198" rx="12.4099" transform="rotate(-90 293.331 333.899)" fill="#565656"/>
<rect x="352.898" y="309.079" width="52.1216" height="24.8198" rx="12.4099" transform="rotate(-90 352.898 309.079)" fill="#565656"/>
<rect x="405.434" y="294.601" width="64.5315" height="24.8198" rx="12.4099" transform="rotate(-90 405.434 294.601)" fill="#565656"/>
<rect x="457.969" y="290.05" width="47.1577" height="24.8198" rx="12.4099" transform="rotate(-90 457.969 290.05)" fill="#565656"/>
<rect x="512.573" y="323.971" width="81.0781" height="24.8198" rx="12.4099" transform="rotate(-90 512.573 323.971)" fill="#565656"/>
<rect x="98.0816" y="351.272" width="26.4745" height="4.96396" rx="2.48198" fill="#BCBEC2"/>
<rect x="161.372" y="351.272" width="26.4745" height="4.96396" rx="2.48198" fill="#BCBEC2"/>
<rect x="225.49" y="351.272" width="26.4745" height="4.96396" rx="2.48198" fill="#BCBEC2"/>
<rect x="291.263" y="351.272" width="26.4745" height="4.96396" rx="2.48198" fill="#BCBEC2"/>
<rect x="352.071" y="351.272" width="26.4745" height="4.96396" rx="2.48198" fill="#BCBEC2"/>
<rect x="402.952" y="351.272" width="26.4745" height="4.96396" rx="2.48198" fill="#BCBEC2"/>
<rect x="460.865" y="351.272" width="26.4745" height="4.96396" rx="2.48198" fill="#BCBEC2"/>
<rect x="512.573" y="351.272" width="26.4745" height="4.96396" rx="2.48198" fill="#BCBEC2"/>
<rect x="416.189" y="84.46" width="45.0893" height="11.1689" rx="5.58446" fill="#EAEDF3"/>
<rect x="503.059" y="84.46" width="45.0893" height="11.1689" rx="5.58446" fill="#EAEDF3"/>
</g>
<defs>
<filter id="filter0_ddd_11512_263272" x="0.802835" y="0.600948" width="607.394" height="429.105" filterUnits="userSpaceOnUse" color-interpolation-filters="sRGB">
<feFlood flood-opacity="0" result="BackgroundImageFix"/>
<feColorMatrix in="SourceAlpha" type="matrix" values="0 0 0 0 0 0 0 0 0 0 0 0 0 0 0 0 0 0 127 0" result="hardAlpha"/>
<feOffset dy="0.939906"/>
<feGaussianBlur stdDeviation="4.69953"/>
<feColorMatrix type="matrix" values="0 0 0 0 0 0 0 0 0 0 0 0 0 0 0 0 0 0 0.05 0"/>
<feBlend mode="normal" in2="BackgroundImageFix" result="effect1_dropShadow_11512_263272"/>
<feColorMatrix in="SourceAlpha" type="matrix" values="0 0 0 0 0 0 0 0 0 0 0 0 0 0 0 0 0 0 127 0" result="hardAlpha"/>
<feOffset dy="5.63943"/>
<feGaussianBlur stdDeviation="4.69953"/>
<feColorMatrix type="matrix" values="0 0 0 0 0 0 0 0 0 0 0 0 0 0 0 0 0 0 0.05 0"/>
<feBlend mode="normal" in2="effect1_dropShadow_11512_263272" result="effect2_dropShadow_11512_263272"/>
<feColorMatrix in="SourceAlpha" type="matrix" values="0 0 0 0 0 0 0 0 0 0 0 0 0 0 0 0 0 0 127 0" result="hardAlpha"/>
<feOffset dy="18.7981"/>
<feGaussianBlur stdDeviation="14.0986"/>
<feColorMatrix type="matrix" values="0 0 0 0 0 0 0 0 0 0 0 0 0 0 0 0 0 0 0.05 0"/>
<feBlend mode="normal" in2="effect2_dropShadow_11512_263272" result="effect3_dropShadow_11512_263272"/>
<feBlend mode="normal" in="SourceGraphic" in2="effect3_dropShadow_11512_263272" result="shape"/>
</filter>
</defs>
</svg>
