<svg width="537" height="367" viewBox="0 0 537 367" fill="none" xmlns="http://www.w3.org/2000/svg">
<g filter="url(#filter0_ddd_11512_263244)">
<rect x="21" y="7.00024" width="495" height="326.306" fill="#FBFBFB"/>
<rect x="21" y="7.00024" width="495" height="32.8358" fill="#6061E5"/>
<circle cx="43.1642" cy="23.4182" r="6.15672" fill="white"/>
<circle cx="67.7909" cy="23.4182" r="6.15672" fill="white"/>
<circle cx="92.418" cy="23.4182" r="6.15672" fill="white"/>
<rect x="85.5489" y="101.197" width="365.527" height="20.2654" rx="10.1327" fill="#EAEDF3"/>
<rect x="181.997" y="76.428" width="172.631" height="11.6338" rx="5.81691" fill="#565656"/>
<rect x="85.5489" y="127.467" width="365.527" height="150.489" rx="12.3844" fill="#EAEDF3"/>
<path d="M85.5489 140.601C85.5489 133.347 91.4296 127.467 98.6838 127.467H437.941C445.195 127.467 451.076 133.347 451.076 140.602V152.986H85.5489V140.601Z" fill="#DCE1EA"/>
<path d="M85.5489 171.75H451.076V195.018H85.5489V171.75Z" fill="#DCE1EA"/>
<path d="M85.5489 213.406H451.076V236.674H85.5489V213.406Z" fill="#DCE1EA"/>
<path d="M85.5489 256.94H451.076V268.574C451.076 274.999 445.867 280.207 439.442 280.207H96.8074C90.5895 280.207 85.5489 275.167 85.5489 268.949V256.94Z" fill="#DCE1EA"/>
<rect x="98.6839" y="138.35" width="28.8969" height="7.1304" rx="3.40824" fill="#6061E5"/>
<rect x="155.727" y="138.35" width="36.4026" height="7.1304" rx="3.40824" fill="#6061E5"/>
<rect x="220.276" y="138.35" width="25.144" height="7.1304" rx="3.40824" fill="#6061E5"/>
<rect x="268.312" y="138.35" width="41.6566" height="7.1304" rx="3.40824" fill="#6061E5"/>
<rect x="331.36" y="138.35" width="31.8992" height="7.1304" rx="3.40824" fill="#6061E5"/>
<rect x="385.401" y="138.35" width="43.9083" height="7.1304" rx="3.40824" fill="#6061E5"/>
<rect x="98.6839" y="158.99" width="112.585" height="6.75512" rx="3.37756" fill="#565656"/>
<rect x="95" y="108" width="44" height="7" rx="3.40824" fill="#565656"/>
<rect x="150" y="108" width="30" height="7" rx="3.40824" fill="#565656"/>
<rect x="98.6839" y="181.132" width="169.629" height="6.75512" rx="3.37756" fill="#565656"/>
<rect x="98.6839" y="201.022" width="114.837" height="6.75512" rx="3.37756" fill="#565656"/>
<rect x="98.6839" y="243.429" width="139.606" height="6.75512" rx="3.37756" fill="#565656"/>
<rect x="98.6839" y="265.196" width="169.629" height="6.75512" rx="3.37756" fill="#565656"/>
<rect x="98.6839" y="221.663" width="148.237" height="6.75512" rx="3.37756" fill="#565656"/>
<g clip-path="url(#clip0_11512_263244)">
<path d="M434.876 112.58H434.382L434.207 112.411C434.82 111.698 435.189 110.773 435.189 109.766C435.189 107.52 433.369 105.7 431.123 105.7C428.878 105.7 427.058 107.52 427.058 109.766C427.058 112.011 428.878 113.831 431.123 113.831C432.13 113.831 433.056 113.462 433.769 112.849L433.938 113.024V113.518L437.065 116.639L437.997 115.708L434.876 112.58ZM431.123 112.58C429.566 112.58 428.309 111.323 428.309 109.766C428.309 108.208 429.566 106.951 431.123 106.951C432.681 106.951 433.938 108.208 433.938 109.766C433.938 111.323 432.681 112.58 431.123 112.58Z" fill="#565656"/>
</g>
</g>
<defs>
<filter id="filter0_ddd_11512_263244" x="0.826876" y="0.27587" width="535.346" height="366.652" filterUnits="userSpaceOnUse" color-interpolation-filters="sRGB">
<feFlood flood-opacity="0" result="BackgroundImageFix"/>
<feColorMatrix in="SourceAlpha" type="matrix" values="0 0 0 0 0 0 0 0 0 0 0 0 0 0 0 0 0 0 127 0" result="hardAlpha"/>
<feOffset dy="0.672437"/>
<feGaussianBlur stdDeviation="3.36219"/>
<feColorMatrix type="matrix" values="0 0 0 0 0 0 0 0 0 0 0 0 0 0 0 0 0 0 0.05 0"/>
<feBlend mode="normal" in2="BackgroundImageFix" result="effect1_dropShadow_11512_263244"/>
<feColorMatrix in="SourceAlpha" type="matrix" values="0 0 0 0 0 0 0 0 0 0 0 0 0 0 0 0 0 0 127 0" result="hardAlpha"/>
<feOffset dy="4.03462"/>
<feGaussianBlur stdDeviation="3.36219"/>
<feColorMatrix type="matrix" values="0 0 0 0 0 0 0 0 0 0 0 0 0 0 0 0 0 0 0.05 0"/>
<feBlend mode="normal" in2="effect1_dropShadow_11512_263244" result="effect2_dropShadow_11512_263244"/>
<feColorMatrix in="SourceAlpha" type="matrix" values="0 0 0 0 0 0 0 0 0 0 0 0 0 0 0 0 0 0 127 0" result="hardAlpha"/>
<feOffset dy="13.4488"/>
<feGaussianBlur stdDeviation="10.0866"/>
<feColorMatrix type="matrix" values="0 0 0 0 0 0 0 0 0 0 0 0 0 0 0 0 0 0 0.05 0"/>
<feBlend mode="normal" in2="effect2_dropShadow_11512_263244" result="effect3_dropShadow_11512_263244"/>
<feBlend mode="normal" in="SourceGraphic" in2="effect3_dropShadow_11512_263244" result="shape"/>
</filter>
<clipPath id="clip0_11512_263244">
<rect width="15.0114" height="15.0114" fill="white" transform="translate(425.181 103.823)"/>
</clipPath>
</defs>
</svg>
