<svg width="24" height="24" viewBox="0 0 24 24" fill="none" xmlns="http://www.w3.org/2000/svg">
<path d="M20.4491 20.4495H16.8931V14.8804C16.8931 13.5525 16.8694 11.8429 15.0436 11.8429C13.1915 11.8429 12.9081 13.2899 12.9081 14.7838V20.4491H9.35213V8.99696H12.7658V10.562H12.8137C13.1553 9.97787 13.649 9.49732 14.2421 9.17154C14.8353 8.84576 15.5057 8.68696 16.1819 8.71206C19.7861 8.71206 20.4506 11.0828 20.4506 14.167L20.4491 20.4495ZM5.33963 7.43162C4.19991 7.43181 3.27581 6.508 3.27562 5.36828C3.27544 4.22856 4.19916 3.30446 5.33887 3.30428C6.47859 3.304 7.40269 4.22781 7.40287 5.36753C7.40297 5.91484 7.18566 6.43978 6.79872 6.82687C6.41179 7.21396 5.88694 7.43149 5.33963 7.43162ZM7.11769 20.4496H3.55791V8.99696H7.11759V20.4495L7.11769 20.4496ZM22.2219 0.00174674H1.77103C0.804469 -0.00912826 0.0118125 0.765153 0 1.73171V22.2679C0.0114375 23.235 0.804 24.01 1.77094 23.9999H22.2219C23.1909 24.0119 23.9866 23.2368 24 22.2679V1.73012C23.9862 0.761684 23.1905 -0.0125033 22.2219 0.00015299" fill="#0A66C2"/>
</svg>
