<svg width="395" height="15" viewBox="0 0 395 15" fill="none" xmlns="http://www.w3.org/2000/svg">
<line x1="4.37114e-08" y1="7.5" x2="124" y2="7.50001" stroke="#A1AEBD"/>
<line x1="262" y1="7.5" x2="395" y2="7.5" stroke="#A1AEBD"/>
<path d="M138.58 12.1364C137.989 12.1364 137.47 11.9957 137.024 11.7145C136.581 11.4332 136.234 11.0398 135.984 10.5341C135.737 10.0284 135.614 9.4375 135.614 8.76136C135.614 8.07955 135.737 7.48437 135.984 6.97585C136.234 6.46733 136.581 6.07244 137.024 5.79119C137.47 5.50994 137.989 5.36932 138.58 5.36932C139.17 5.36932 139.688 5.50994 140.131 5.79119C140.577 6.07244 140.923 6.46733 141.17 6.97585C141.42 7.48437 141.545 8.07955 141.545 8.76136C141.545 9.4375 141.42 10.0284 141.17 10.5341C140.923 11.0398 140.577 11.4332 140.131 11.7145C139.688 11.9957 139.17 12.1364 138.58 12.1364ZM138.58 11.233C139.028 11.233 139.398 11.1179 139.688 10.8878C139.977 10.6577 140.192 10.3551 140.331 9.98011C140.47 9.60511 140.54 9.19886 140.54 8.76136C140.54 8.32386 140.47 7.91619 140.331 7.53835C140.192 7.16051 139.977 6.85511 139.688 6.62216C139.398 6.3892 139.028 6.27273 138.58 6.27273C138.131 6.27273 137.761 6.3892 137.472 6.62216C137.182 6.85511 136.967 7.16051 136.828 7.53835C136.689 7.91619 136.619 8.32386 136.619 8.76136C136.619 9.19886 136.689 9.60511 136.828 9.98011C136.967 10.3551 137.182 10.6577 137.472 10.8878C137.761 11.1179 138.131 11.233 138.58 11.233ZM143.081 12V5.45455H144.052V6.44318H144.12C144.24 6.11932 144.456 5.85653 144.768 5.65483C145.081 5.45312 145.433 5.35227 145.825 5.35227C145.899 5.35227 145.991 5.35369 146.102 5.35653C146.213 5.35937 146.297 5.36364 146.353 5.36932V6.39205C146.319 6.38352 146.241 6.37074 146.119 6.35369C146 6.33381 145.873 6.32386 145.74 6.32386C145.422 6.32386 145.137 6.39062 144.887 6.52415C144.64 6.65483 144.444 6.83665 144.299 7.0696C144.157 7.29972 144.086 7.5625 144.086 7.85795V12H143.081ZM151.926 3.27273V12H150.92V3.27273H151.926ZM156.427 12.1364C155.836 12.1364 155.318 11.9957 154.872 11.7145C154.429 11.4332 154.082 11.0398 153.832 10.5341C153.585 10.0284 153.461 9.4375 153.461 8.76136C153.461 8.07955 153.585 7.48437 153.832 6.97585C154.082 6.46733 154.429 6.07244 154.872 5.79119C155.318 5.50994 155.836 5.36932 156.427 5.36932C157.018 5.36932 157.535 5.50994 157.978 5.79119C158.424 6.07244 158.771 6.46733 159.018 6.97585C159.268 7.48437 159.393 8.07955 159.393 8.76136C159.393 9.4375 159.268 10.0284 159.018 10.5341C158.771 11.0398 158.424 11.4332 157.978 11.7145C157.535 11.9957 157.018 12.1364 156.427 12.1364ZM156.427 11.233C156.876 11.233 157.245 11.1179 157.535 10.8878C157.825 10.6577 158.039 10.3551 158.179 9.98011C158.318 9.60511 158.387 9.19886 158.387 8.76136C158.387 8.32386 158.318 7.91619 158.179 7.53835C158.039 7.16051 157.825 6.85511 157.535 6.62216C157.245 6.3892 156.876 6.27273 156.427 6.27273C155.978 6.27273 155.609 6.3892 155.319 6.62216C155.029 6.85511 154.815 7.16051 154.676 7.53835C154.537 7.91619 154.467 8.32386 154.467 8.76136C154.467 9.19886 154.537 9.60511 154.676 9.98011C154.815 10.3551 155.029 10.6577 155.319 10.8878C155.609 11.1179 155.978 11.233 156.427 11.233ZM163.57 14.5909C163.085 14.5909 162.667 14.5284 162.317 14.4034C161.968 14.2812 161.677 14.1193 161.444 13.9176C161.214 13.7188 161.031 13.5057 160.894 13.2784L161.695 12.7159C161.786 12.8352 161.901 12.9716 162.04 13.125C162.18 13.2812 162.37 13.4162 162.612 13.5298C162.856 13.6463 163.175 13.7045 163.57 13.7045C164.099 13.7045 164.535 13.5767 164.879 13.321C165.222 13.0653 165.394 12.6648 165.394 12.1193V10.7898H165.309C165.235 10.9091 165.13 11.0568 164.994 11.233C164.86 11.4062 164.667 11.5611 164.414 11.6974C164.164 11.831 163.826 11.8977 163.4 11.8977C162.871 11.8977 162.397 11.7727 161.977 11.5227C161.559 11.2727 161.228 10.9091 160.984 10.4318C160.742 9.95455 160.621 9.375 160.621 8.69318C160.621 8.02273 160.739 7.43892 160.975 6.94176C161.211 6.44176 161.539 6.0554 161.96 5.78267C162.38 5.5071 162.866 5.36932 163.417 5.36932C163.843 5.36932 164.181 5.44034 164.431 5.58239C164.684 5.72159 164.877 5.88068 165.011 6.05966C165.147 6.2358 165.252 6.38068 165.326 6.49432H165.428V5.45455H166.4V12.1875C166.4 12.75 166.272 13.2074 166.016 13.5597C165.763 13.9148 165.423 14.1747 164.994 14.3395C164.567 14.5071 164.093 14.5909 163.57 14.5909ZM163.536 10.9943C163.94 10.9943 164.281 10.902 164.559 10.7173C164.837 10.5327 165.049 10.267 165.194 9.92045C165.339 9.57386 165.411 9.15909 165.411 8.67614C165.411 8.20455 165.34 7.78835 165.198 7.42756C165.056 7.06676 164.846 6.78409 164.567 6.57955C164.289 6.375 163.945 6.27273 163.536 6.27273C163.11 6.27273 162.755 6.38068 162.471 6.59659C162.19 6.8125 161.978 7.10227 161.836 7.46591C161.697 7.82955 161.627 8.23295 161.627 8.67614C161.627 9.13068 161.698 9.53267 161.84 9.8821C161.985 10.2287 162.198 10.5014 162.479 10.7003C162.763 10.8963 163.116 10.9943 163.536 10.9943ZM171.616 12V5.45455H172.621V12H171.616ZM172.127 4.36364C171.931 4.36364 171.762 4.29688 171.62 4.16335C171.481 4.02983 171.411 3.86932 171.411 3.68182C171.411 3.49432 171.481 3.33381 171.62 3.20028C171.762 3.06676 171.931 3 172.127 3C172.323 3 172.491 3.06676 172.63 3.20028C172.772 3.33381 172.843 3.49432 172.843 3.68182C172.843 3.86932 172.772 4.02983 172.63 4.16335C172.491 4.29688 172.323 4.36364 172.127 4.36364ZM175.469 8.0625V12H174.463V5.45455H175.435V6.47727H175.52C175.674 6.14489 175.907 5.87784 176.219 5.67614C176.532 5.47159 176.935 5.36932 177.429 5.36932C177.873 5.36932 178.26 5.46023 178.593 5.64205C178.925 5.82102 179.184 6.09375 179.368 6.46023C179.553 6.82386 179.645 7.28409 179.645 7.84091V12H178.64V7.90909C178.64 7.39489 178.506 6.99432 178.239 6.70739C177.972 6.41761 177.605 6.27273 177.14 6.27273C176.819 6.27273 176.532 6.34233 176.279 6.48153C176.029 6.62074 175.831 6.82386 175.686 7.09091C175.542 7.35795 175.469 7.68182 175.469 8.0625ZM186.341 12L184.347 5.45455H185.403L186.818 10.4659H186.886L188.284 5.45455H189.358L190.739 10.4489H190.807L192.222 5.45455H193.278L191.284 12H190.295L188.864 6.97159H188.761L187.33 12H186.341ZM194.608 12V5.45455H195.614V12H194.608ZM195.119 4.36364C194.923 4.36364 194.754 4.29688 194.612 4.16335C194.473 4.02983 194.403 3.86932 194.403 3.68182C194.403 3.49432 194.473 3.33381 194.612 3.20028C194.754 3.06676 194.923 3 195.119 3C195.315 3 195.483 3.06676 195.622 3.20028C195.764 3.33381 195.835 3.49432 195.835 3.68182C195.835 3.86932 195.764 4.02983 195.622 4.16335C195.483 4.29688 195.315 4.36364 195.119 4.36364ZM200.302 5.45455V6.30682H196.91V5.45455H200.302ZM197.899 3.88636H198.904V10.125C198.904 10.4091 198.946 10.6222 199.028 10.7642C199.113 10.9034 199.221 10.9972 199.352 11.0455C199.485 11.0909 199.626 11.1136 199.774 11.1136C199.885 11.1136 199.975 11.108 200.047 11.0966C200.118 11.0824 200.174 11.071 200.217 11.0625L200.422 11.9659C200.353 11.9915 200.258 12.017 200.136 12.0426C200.014 12.071 199.859 12.0852 199.672 12.0852C199.387 12.0852 199.109 12.0241 198.836 11.902C198.566 11.7798 198.342 11.5938 198.163 11.3438C197.987 11.0938 197.899 10.7784 197.899 10.3977V3.88636ZM202.961 8.0625V12H201.956V3.27273H202.961V6.47727H203.047C203.2 6.1392 203.43 5.87074 203.737 5.67188C204.047 5.47017 204.458 5.36932 204.973 5.36932C205.419 5.36932 205.809 5.45881 206.145 5.63778C206.48 5.81392 206.74 6.08523 206.924 6.4517C207.112 6.81534 207.206 7.27841 207.206 7.84091V12H206.2V7.90909C206.2 7.3892 206.065 6.98722 205.795 6.70312C205.528 6.41619 205.157 6.27273 204.683 6.27273C204.353 6.27273 204.058 6.34233 203.797 6.48153C203.538 6.62074 203.333 6.82386 203.183 7.09091C203.035 7.35795 202.961 7.68182 202.961 8.0625ZM212.557 12V3.27273H217.824V4.21023H213.614V7.15909H217.551V8.09659H213.614V11.0625H217.892V12H212.557ZM219.592 12V5.45455H220.564V6.47727H220.649C220.786 6.12784 221.006 5.85653 221.31 5.66335C221.614 5.46733 221.979 5.36932 222.405 5.36932C222.837 5.36932 223.196 5.46733 223.483 5.66335C223.773 5.85653 223.999 6.12784 224.161 6.47727H224.229C224.396 6.1392 224.648 5.87074 224.983 5.67188C225.318 5.47017 225.72 5.36932 226.189 5.36932C226.774 5.36932 227.253 5.55256 227.625 5.91903C227.997 6.28267 228.183 6.84943 228.183 7.61932V12H227.178V7.61932C227.178 7.13636 227.045 6.79119 226.781 6.58381C226.517 6.37642 226.206 6.27273 225.848 6.27273C225.388 6.27273 225.031 6.41193 224.778 6.69034C224.526 6.96591 224.399 7.31534 224.399 7.73864V12H223.376V7.51705C223.376 7.14489 223.256 6.84517 223.014 6.6179C222.773 6.38778 222.462 6.27273 222.081 6.27273C221.82 6.27273 221.575 6.34233 221.348 6.48153C221.124 6.62074 220.942 6.81392 220.803 7.06108C220.666 7.3054 220.598 7.58807 220.598 7.90909V12H219.592ZM231.948 12.1534C231.533 12.1534 231.157 12.0753 230.819 11.919C230.481 11.7599 230.212 11.5312 230.013 11.233C229.815 10.9318 229.715 10.5682 229.715 10.142C229.715 9.76705 229.789 9.46307 229.937 9.23011C230.085 8.99432 230.282 8.80966 230.529 8.67614C230.776 8.54261 231.049 8.44318 231.347 8.37784C231.648 8.30966 231.951 8.25568 232.255 8.21591C232.653 8.16477 232.975 8.12642 233.222 8.10085C233.472 8.07244 233.654 8.02557 233.768 7.96023C233.884 7.89489 233.942 7.78125 233.942 7.61932V7.58523C233.942 7.16477 233.827 6.83807 233.597 6.60511C233.37 6.37216 233.025 6.25568 232.562 6.25568C232.082 6.25568 231.705 6.3608 231.433 6.57102C231.16 6.78125 230.968 7.00568 230.857 7.24432L229.903 6.90341C230.073 6.50568 230.3 6.19602 230.585 5.97443C230.871 5.75 231.184 5.59375 231.522 5.50568C231.863 5.41477 232.198 5.36932 232.528 5.36932C232.738 5.36932 232.979 5.39489 233.252 5.44602C233.528 5.49432 233.793 5.59517 234.049 5.74858C234.308 5.90199 234.522 6.13352 234.692 6.44318C234.863 6.75284 234.948 7.16761 234.948 7.6875V12H233.942V11.1136H233.891C233.823 11.2557 233.71 11.4077 233.55 11.5696C233.391 11.7315 233.18 11.8693 232.915 11.983C232.651 12.0966 232.329 12.1534 231.948 12.1534ZM232.102 11.25C232.499 11.25 232.835 11.1719 233.107 11.0156C233.383 10.8594 233.59 10.6577 233.729 10.4105C233.871 10.1634 233.942 9.90341 233.942 9.63068V8.71023C233.9 8.76136 233.806 8.80824 233.661 8.85085C233.519 8.89062 233.354 8.92614 233.167 8.95739C232.982 8.9858 232.802 9.01136 232.626 9.03409C232.452 9.05398 232.312 9.07102 232.204 9.08523C231.942 9.11932 231.698 9.17472 231.471 9.25142C231.246 9.32528 231.065 9.4375 230.925 9.58807C230.789 9.7358 230.721 9.9375 230.721 10.1932C230.721 10.5426 230.85 10.8068 231.109 10.9858C231.37 11.1619 231.701 11.25 232.102 11.25ZM236.784 12V5.45455H237.789V12H236.784ZM237.295 4.36364C237.099 4.36364 236.93 4.29688 236.788 4.16335C236.649 4.02983 236.579 3.86932 236.579 3.68182C236.579 3.49432 236.649 3.33381 236.788 3.20028C236.93 3.06676 237.099 3 237.295 3C237.491 3 237.659 3.06676 237.798 3.20028C237.94 3.33381 238.011 3.49432 238.011 3.68182C238.011 3.86932 237.94 4.02983 237.798 4.16335C237.659 4.29688 237.491 4.36364 237.295 4.36364ZM240.637 3.27273V12H239.631V3.27273H240.637Z" fill="#A1AEBD"/>
</svg>
