<svg width="395" height="15" viewBox="0 0 395 15" fill="none" xmlns="http://www.w3.org/2000/svg">
<line x1="4.37114e-08" y1="7.5" x2="124" y2="7.50001" stroke="#A1AEBD"/>
<line x1="262" y1="7.5" x2="395" y2="7.5" stroke="#A1AEBD"/>
<path d="M138.58 12.1364C137.989 12.1364 137.47 11.9957 137.024 11.7145C136.581 11.4332 136.234 11.0398 135.984 10.5341C135.737 10.0284 135.614 9.4375 135.614 8.76136C135.614 8.07955 135.737 7.48437 135.984 6.97585C136.234 6.46733 136.581 6.07244 137.024 5.79119C137.47 5.50994 137.989 5.36932 138.58 5.36932C139.17 5.36932 139.688 5.50994 140.131 5.79119C140.577 6.07244 140.923 6.46733 141.17 6.97585C141.42 7.48437 141.545 8.07955 141.545 8.76136C141.545 9.4375 141.42 10.0284 141.17 10.5341C140.923 11.0398 140.577 11.4332 140.131 11.7145C139.688 11.9957 139.17 12.1364 138.58 12.1364ZM138.58 11.233C139.028 11.233 139.398 11.1179 139.688 10.8878C139.977 10.6577 140.192 10.3551 140.331 9.98011C140.47 9.60511 140.54 9.19886 140.54 8.76136C140.54 8.32386 140.47 7.91619 140.331 7.53835C140.192 7.16051 139.977 6.85511 139.688 6.62216C139.398 6.3892 139.028 6.27273 138.58 6.27273C138.131 6.27273 137.761 6.3892 137.472 6.62216C137.182 6.85511 136.967 7.16051 136.828 7.53835C136.689 7.91619 136.619 8.32386 136.619 8.76136C136.619 9.19886 136.689 9.60511 136.828 9.98011C136.967 10.3551 137.182 10.6577 137.472 10.8878C137.761 11.1179 138.131 11.233 138.58 11.233ZM143.081 12V5.45455H144.052V6.44318H144.12C144.24 6.11932 144.456 5.85653 144.768 5.65483C145.081 5.45312 145.433 5.35227 145.825 5.35227C145.899 5.35227 145.991 5.35369 146.102 5.35653C146.213 5.35937 146.297 5.36364 146.353 5.36932V6.39205C146.319 6.38352 146.241 6.37074 146.119 6.35369C146 6.33381 145.873 6.32386 145.74 6.32386C145.422 6.32386 145.137 6.39062 144.887 6.52415C144.64 6.65483 144.444 6.83665 144.299 7.0696C144.157 7.29972 144.086 7.5625 144.086 7.85795V12H143.081ZM155.557 6.92045L154.653 7.17614C154.597 7.02557 154.513 6.87926 154.402 6.73722C154.294 6.59233 154.146 6.47301 153.959 6.37926C153.771 6.28551 153.531 6.23864 153.239 6.23864C152.838 6.23864 152.504 6.33097 152.237 6.51562C151.973 6.69744 151.841 6.92898 151.841 7.21023C151.841 7.46023 151.932 7.65767 152.114 7.80256C152.295 7.94744 152.58 8.06818 152.966 8.16477L153.938 8.40341C154.523 8.54545 154.959 8.76278 155.246 9.0554C155.533 9.34517 155.676 9.71875 155.676 10.1761C155.676 10.5511 155.568 10.8864 155.352 11.1818C155.139 11.4773 154.841 11.7102 154.457 11.8807C154.074 12.0511 153.628 12.1364 153.119 12.1364C152.452 12.1364 151.899 11.9915 151.462 11.7017C151.024 11.4119 150.747 10.9886 150.631 10.4318L151.585 10.1932C151.676 10.5455 151.848 10.8097 152.101 10.9858C152.357 11.1619 152.69 11.25 153.102 11.25C153.571 11.25 153.943 11.1506 154.219 10.9517C154.497 10.75 154.636 10.5085 154.636 10.2273C154.636 10 154.557 9.80966 154.398 9.65625C154.239 9.5 153.994 9.38352 153.665 9.30682L152.574 9.05114C151.974 8.90909 151.534 8.68892 151.253 8.39062C150.974 8.08949 150.835 7.71307 150.835 7.26136C150.835 6.89205 150.939 6.56534 151.146 6.28125C151.357 5.99716 151.642 5.77415 152.003 5.61222C152.366 5.45028 152.778 5.36932 153.239 5.36932C153.886 5.36932 154.395 5.51136 154.764 5.79545C155.136 6.07955 155.401 6.45455 155.557 6.92045ZM157.19 12V5.45455H158.196V12H157.19ZM157.701 4.36364C157.505 4.36364 157.336 4.29688 157.194 4.16335C157.055 4.02983 156.985 3.86932 156.985 3.68182C156.985 3.49432 157.055 3.33381 157.194 3.20028C157.336 3.06676 157.505 3 157.701 3C157.897 3 158.065 3.06676 158.204 3.20028C158.346 3.33381 158.417 3.49432 158.417 3.68182C158.417 3.86932 158.346 4.02983 158.204 4.16335C158.065 4.29688 157.897 4.36364 157.701 4.36364ZM162.68 14.5909C162.194 14.5909 161.776 14.5284 161.427 14.4034C161.077 14.2812 160.786 14.1193 160.553 13.9176C160.323 13.7188 160.14 13.5057 160.004 13.2784L160.805 12.7159C160.896 12.8352 161.011 12.9716 161.15 13.125C161.289 13.2812 161.479 13.4162 161.721 13.5298C161.965 13.6463 162.285 13.7045 162.68 13.7045C163.208 13.7045 163.644 13.5767 163.988 13.321C164.332 13.0653 164.504 12.6648 164.504 12.1193V10.7898H164.418C164.344 10.9091 164.239 11.0568 164.103 11.233C163.969 11.4062 163.776 11.5611 163.523 11.6974C163.273 11.831 162.935 11.8977 162.509 11.8977C161.981 11.8977 161.506 11.7727 161.086 11.5227C160.668 11.2727 160.337 10.9091 160.093 10.4318C159.852 9.95455 159.731 9.375 159.731 8.69318C159.731 8.02273 159.849 7.43892 160.085 6.94176C160.32 6.44176 160.648 6.0554 161.069 5.78267C161.489 5.5071 161.975 5.36932 162.526 5.36932C162.952 5.36932 163.29 5.44034 163.54 5.58239C163.793 5.72159 163.987 5.88068 164.12 6.05966C164.256 6.2358 164.362 6.38068 164.435 6.49432H164.538V5.45455H165.509V12.1875C165.509 12.75 165.381 13.2074 165.126 13.5597C164.873 13.9148 164.532 14.1747 164.103 14.3395C163.677 14.5071 163.202 14.5909 162.68 14.5909ZM162.646 10.9943C163.049 10.9943 163.39 10.902 163.668 10.7173C163.947 10.5327 164.158 10.267 164.303 9.92045C164.448 9.57386 164.521 9.15909 164.521 8.67614C164.521 8.20455 164.45 7.78835 164.308 7.42756C164.165 7.06676 163.955 6.78409 163.677 6.57955C163.398 6.375 163.055 6.27273 162.646 6.27273C162.219 6.27273 161.864 6.38068 161.58 6.59659C161.299 6.8125 161.087 7.10227 160.945 7.46591C160.806 7.82955 160.737 8.23295 160.737 8.67614C160.737 9.13068 160.808 9.53267 160.95 9.8821C161.094 10.2287 161.308 10.5014 161.589 10.7003C161.873 10.8963 162.225 10.9943 162.646 10.9943ZM168.356 8.0625V12H167.35V5.45455H168.322V6.47727H168.407C168.56 6.14489 168.793 5.87784 169.106 5.67614C169.418 5.47159 169.822 5.36932 170.316 5.36932C170.759 5.36932 171.147 5.46023 171.479 5.64205C171.812 5.82102 172.07 6.09375 172.255 6.46023C172.44 6.82386 172.532 7.28409 172.532 7.84091V12H171.526V7.90909C171.526 7.39489 171.393 6.99432 171.126 6.70739C170.859 6.41761 170.492 6.27273 170.026 6.27273C169.705 6.27273 169.418 6.34233 169.165 6.48153C168.915 6.62074 168.718 6.82386 168.573 7.09091C168.428 7.35795 168.356 7.68182 168.356 8.0625ZM181.87 9.32386V5.45455H182.875V12H181.87V10.892H181.801C181.648 11.2244 181.409 11.5071 181.086 11.7401C180.762 11.9702 180.353 12.0852 179.858 12.0852C179.449 12.0852 179.086 11.9957 178.767 11.8168C178.449 11.6349 178.199 11.3622 178.017 10.9986C177.836 10.6321 177.745 10.1705 177.745 9.61364V5.45455H178.75V9.54545C178.75 10.0227 178.884 10.4034 179.151 10.6875C179.421 10.9716 179.765 11.1136 180.182 11.1136C180.432 11.1136 180.686 11.0497 180.945 10.9219C181.206 10.794 181.425 10.598 181.601 10.3338C181.78 10.0696 181.87 9.73295 181.87 9.32386ZM184.717 14.4545V5.45455H185.689V6.49432H185.808C185.882 6.38068 185.984 6.2358 186.115 6.05966C186.249 5.88068 186.439 5.72159 186.686 5.58239C186.936 5.44034 187.274 5.36932 187.7 5.36932C188.251 5.36932 188.737 5.5071 189.158 5.78267C189.578 6.05824 189.906 6.44886 190.142 6.95455C190.378 7.46023 190.496 8.05682 190.496 8.74432C190.496 9.4375 190.378 10.0384 190.142 10.5469C189.906 11.0526 189.58 11.4446 189.162 11.723C188.744 11.9986 188.263 12.1364 187.717 12.1364C187.297 12.1364 186.96 12.0668 186.707 11.9276C186.455 11.7855 186.26 11.625 186.124 11.446C185.987 11.2642 185.882 11.1136 185.808 10.9943H185.723V14.4545H184.717ZM185.706 8.72727C185.706 9.22159 185.778 9.65767 185.923 10.0355C186.068 10.4105 186.28 10.7045 186.558 10.9176C186.837 11.1278 187.178 11.233 187.581 11.233C188.001 11.233 188.352 11.1222 188.634 10.9006C188.918 10.6761 189.131 10.375 189.273 9.99716C189.418 9.61648 189.49 9.19318 189.49 8.72727C189.49 8.26705 189.419 7.85227 189.277 7.48295C189.138 7.1108 188.926 6.81676 188.642 6.60085C188.361 6.3821 188.007 6.27273 187.581 6.27273C187.172 6.27273 186.828 6.37642 186.55 6.58381C186.271 6.78835 186.061 7.07528 185.919 7.4446C185.777 7.81108 185.706 8.23864 185.706 8.72727ZM196.888 12L194.893 5.45455H195.95L197.365 10.4659H197.433L198.831 5.45455H199.905L201.286 10.4489H201.354L202.768 5.45455H203.825L201.831 12H200.842L199.411 6.97159H199.308L197.876 12H196.888ZM205.155 12V5.45455H206.161V12H205.155ZM205.666 4.36364C205.47 4.36364 205.301 4.29688 205.159 4.16335C205.02 4.02983 204.95 3.86932 204.95 3.68182C204.95 3.49432 205.02 3.33381 205.159 3.20028C205.301 3.06676 205.47 3 205.666 3C205.862 3 206.03 3.06676 206.169 3.20028C206.311 3.33381 206.382 3.49432 206.382 3.68182C206.382 3.86932 206.311 4.02983 206.169 4.16335C206.03 4.29688 205.862 4.36364 205.666 4.36364ZM210.849 5.45455V6.30682H207.457V5.45455H210.849ZM208.446 3.88636H209.451V10.125C209.451 10.4091 209.493 10.6222 209.575 10.7642C209.66 10.9034 209.768 10.9972 209.899 11.0455C210.032 11.0909 210.173 11.1136 210.321 11.1136C210.431 11.1136 210.522 11.108 210.593 11.0966C210.664 11.0824 210.721 11.071 210.764 11.0625L210.968 11.9659C210.9 11.9915 210.805 12.017 210.683 12.0426C210.561 12.071 210.406 12.0852 210.218 12.0852C209.934 12.0852 209.656 12.0241 209.383 11.902C209.113 11.7798 208.889 11.5938 208.71 11.3438C208.534 11.0938 208.446 10.7784 208.446 10.3977V3.88636ZM213.508 8.0625V12H212.502V3.27273H213.508V6.47727H213.593C213.747 6.1392 213.977 5.87074 214.284 5.67188C214.593 5.47017 215.005 5.36932 215.52 5.36932C215.966 5.36932 216.356 5.45881 216.691 5.63778C217.027 5.81392 217.287 6.08523 217.471 6.4517C217.659 6.81534 217.752 7.27841 217.752 7.84091V12H216.747V7.90909C216.747 7.3892 216.612 6.98722 216.342 6.70312C216.075 6.41619 215.704 6.27273 215.23 6.27273C214.9 6.27273 214.605 6.34233 214.343 6.48153C214.085 6.62074 213.88 6.82386 213.73 7.09091C213.582 7.35795 213.508 7.68182 213.508 8.0625ZM223.104 12V3.27273H228.371V4.21023H224.161V7.15909H228.098V8.09659H224.161V11.0625H228.439V12H223.104ZM230.139 12V5.45455H231.111V6.47727H231.196C231.332 6.12784 231.553 5.85653 231.857 5.66335C232.161 5.46733 232.526 5.36932 232.952 5.36932C233.384 5.36932 233.743 5.46733 234.03 5.66335C234.32 5.85653 234.545 6.12784 234.707 6.47727H234.776C234.943 6.1392 235.195 5.87074 235.53 5.67188C235.865 5.47017 236.267 5.36932 236.736 5.36932C237.321 5.36932 237.8 5.55256 238.172 5.91903C238.544 6.28267 238.73 6.84943 238.73 7.61932V12H237.724V7.61932C237.724 7.13636 237.592 6.79119 237.328 6.58381C237.064 6.37642 236.753 6.27273 236.395 6.27273C235.935 6.27273 235.578 6.41193 235.325 6.69034C235.072 6.96591 234.946 7.31534 234.946 7.73864V12H233.923V7.51705C233.923 7.14489 233.803 6.84517 233.561 6.6179C233.32 6.38778 233.009 6.27273 232.628 6.27273C232.366 6.27273 232.122 6.34233 231.895 6.48153C231.67 6.62074 231.489 6.81392 231.349 7.06108C231.213 7.3054 231.145 7.58807 231.145 7.90909V12H230.139ZM242.495 12.1534C242.08 12.1534 241.704 12.0753 241.366 11.919C241.028 11.7599 240.759 11.5312 240.56 11.233C240.362 10.9318 240.262 10.5682 240.262 10.142C240.262 9.76705 240.336 9.46307 240.484 9.23011C240.631 8.99432 240.829 8.80966 241.076 8.67614C241.323 8.54261 241.596 8.44318 241.894 8.37784C242.195 8.30966 242.498 8.25568 242.802 8.21591C243.2 8.16477 243.522 8.12642 243.769 8.10085C244.019 8.07244 244.201 8.02557 244.315 7.96023C244.431 7.89489 244.489 7.78125 244.489 7.61932V7.58523C244.489 7.16477 244.374 6.83807 244.144 6.60511C243.917 6.37216 243.572 6.25568 243.109 6.25568C242.629 6.25568 242.252 6.3608 241.979 6.57102C241.707 6.78125 241.515 7.00568 241.404 7.24432L240.45 6.90341C240.62 6.50568 240.847 6.19602 241.131 5.97443C241.418 5.75 241.731 5.59375 242.069 5.50568C242.41 5.41477 242.745 5.36932 243.075 5.36932C243.285 5.36932 243.526 5.39489 243.799 5.44602C244.075 5.49432 244.34 5.59517 244.596 5.74858C244.854 5.90199 245.069 6.13352 245.239 6.44318C245.41 6.75284 245.495 7.16761 245.495 7.6875V12H244.489V11.1136H244.438C244.37 11.2557 244.256 11.4077 244.097 11.5696C243.938 11.7315 243.727 11.8693 243.462 11.983C243.198 12.0966 242.876 12.1534 242.495 12.1534ZM242.648 11.25C243.046 11.25 243.381 11.1719 243.654 11.0156C243.93 10.8594 244.137 10.6577 244.276 10.4105C244.418 10.1634 244.489 9.90341 244.489 9.63068V8.71023C244.447 8.76136 244.353 8.80824 244.208 8.85085C244.066 8.89062 243.901 8.92614 243.714 8.95739C243.529 8.9858 243.349 9.01136 243.173 9.03409C242.999 9.05398 242.859 9.07102 242.751 9.08523C242.489 9.11932 242.245 9.17472 242.018 9.25142C241.793 9.32528 241.612 9.4375 241.472 9.58807C241.336 9.7358 241.268 9.9375 241.268 10.1932C241.268 10.5426 241.397 10.8068 241.656 10.9858C241.917 11.1619 242.248 11.25 242.648 11.25ZM247.331 12V5.45455H248.336V12H247.331ZM247.842 4.36364C247.646 4.36364 247.477 4.29688 247.335 4.16335C247.196 4.02983 247.126 3.86932 247.126 3.68182C247.126 3.49432 247.196 3.33381 247.335 3.20028C247.477 3.06676 247.646 3 247.842 3C248.038 3 248.206 3.06676 248.345 3.20028C248.487 3.33381 248.558 3.49432 248.558 3.68182C248.558 3.86932 248.487 4.02983 248.345 4.16335C248.206 4.29688 248.038 4.36364 247.842 4.36364ZM251.184 3.27273V12H250.178V3.27273H251.184Z" fill="#A1AEBD"/>
</svg>
