<svg width="17" height="16" viewBox="0 0 17 16" fill="none" xmlns="http://www.w3.org/2000/svg">
<path d="M8.5 0C4.08214 0 0.5 3.58214 0.5 8C0.5 12.4179 4.08214 16 8.5 16C12.9179 16 16.5 12.4179 16.5 8C16.5 3.58214 12.9179 0 8.5 0ZM8.5 14.6429C4.83214 14.6429 1.85714 11.6679 1.85714 8C1.85714 4.33214 4.83214 1.35714 8.5 1.35714C12.1679 1.35714 15.1429 4.33214 15.1429 8C15.1429 11.6679 12.1679 14.6429 8.5 14.6429ZM8.6 5.13036C9.54643 5.13036 10.1893 5.73393 10.2607 6.61964C10.2661 6.69464 10.3286 6.75179 10.4036 6.75179H11.4161C11.4625 6.75179 11.5 6.71429 11.5 6.66786C11.5 5.11964 10.2786 4.03571 8.59464 4.03571C6.63214 4.03571 5.5 5.36071 5.5 7.55V8.48393C5.5 10.6571 6.63214 11.9643 8.59464 11.9643C10.2732 11.9643 11.5 10.9143 11.5 9.43929C11.5 9.39286 11.4625 9.35536 11.4161 9.35536H10.4018C10.3268 9.35536 10.2661 9.4125 10.2589 9.48571C10.1839 10.3089 9.54286 10.875 8.59822 10.875C7.43214 10.875 6.775 10.0196 6.775 8.48929V7.55C6.77679 5.99643 7.43571 5.13036 8.6 5.13036Z" fill="black"/>
</svg>
