<svg width="92" height="17" viewBox="0 0 92 17" fill="none" xmlns="http://www.w3.org/2000/svg">
<path d="M0 12.0001H3.37315C6.40302 12.0001 8.35826 9.89558 8.35826 6.83586V6.70153C8.35826 3.64181 6.40302 1.55225 3.37315 1.55225H0V12.0001ZM3.35823 3.50748C5.00003 3.50748 6.11944 4.67167 6.11944 6.74631V6.82093C6.11944 8.89557 5.00003 10.0448 3.35823 10.0448H2.16419V3.50748H3.35823Z" fill="#CEA8BC"/>
<path d="M14.5374 1.55225L12.7314 4.94033L10.9553 1.55225H8.49261L11.4478 6.6866L8.35828 12.0001H10.7613L12.6867 8.41796L14.5971 12.0001H17.0598L13.9553 6.65675L16.9404 1.55225H14.5374Z" fill="#CEA8BC"/>
<path d="M25.7001 12.1939C24.2762 12.1939 22.9061 10.9715 22.9061 8.63418V8.49985C22.9061 6.17596 24.2762 4.9267 25.7001 4.9267C26.815 4.9267 27.5136 5.59834 27.9703 6.36402V2.36101H28.9374V12.0596H27.9703V10.7163C27.5001 11.5088 26.8016 12.1939 25.7001 12.1939ZM25.9016 11.3208C27.0031 11.3208 28.0106 10.273 28.0106 8.62075V8.49985C28.0106 6.8476 27.0031 5.79983 25.9016 5.79983C24.7867 5.79983 23.9001 6.78044 23.9001 8.49985V8.60731C23.9001 10.3133 24.8135 11.3208 25.9016 11.3208ZM32.716 12.2073C31.5473 12.2073 30.4727 11.4148 30.4727 10.0312V9.97747C30.4727 8.54015 31.507 7.72074 33.0518 7.72074C33.7906 7.72074 34.3279 7.84164 34.8518 8.00283V7.58641C34.8518 6.45805 34.1936 5.85357 33.0652 5.85357C32.3667 5.85357 31.7622 6.06849 31.2787 6.32372L30.9697 5.53118C31.6279 5.20879 32.313 4.96699 33.1727 4.96699C34.019 4.96699 34.6772 5.20879 35.1339 5.66551C35.5638 6.09536 35.8055 6.74014 35.8055 7.55955V12.0596H34.8518V11.0387C34.4354 11.6969 33.7503 12.2073 32.716 12.2073ZM32.9309 11.4014C34.0055 11.4148 34.8652 10.6491 34.8652 9.62821V8.75507C34.422 8.59388 33.8578 8.47298 33.1727 8.47298C32.0578 8.47298 31.4399 9.0506 31.4399 9.93717V9.97747C31.4399 10.8506 32.0981 11.4014 32.9309 11.4014ZM39.6749 12.167C38.6808 12.167 37.9286 11.6834 37.9286 10.4342V5.92073H37.0823V5.06102H37.9286V3.01922H38.8957V5.06102H40.7226V5.92073H38.8957V10.273C38.8957 11.0118 39.2987 11.2805 39.9032 11.2805C40.1719 11.2805 40.4405 11.2133 40.7226 11.0924V11.9252C40.4137 12.073 40.0778 12.167 39.6749 12.167ZM44.0631 12.2073C42.8945 12.2073 41.8198 11.4148 41.8198 10.0312V9.97747C41.8198 8.54015 42.8542 7.72074 44.3989 7.72074C45.1377 7.72074 45.6751 7.84164 46.1989 8.00283V7.58641C46.1989 6.45805 45.5407 5.85357 44.4124 5.85357C43.7139 5.85357 43.1094 6.06849 42.6258 6.32372L42.3168 5.53118C42.975 5.20879 43.6601 4.96699 44.5198 4.96699C45.3661 4.96699 46.0243 5.20879 46.481 5.66551C46.9109 6.09536 47.1527 6.74014 47.1527 7.55955V12.0596H46.1989V11.0387C45.7825 11.6969 45.0974 12.2073 44.0631 12.2073ZM44.278 11.4014C45.3527 11.4148 46.2124 10.6491 46.2124 9.62821V8.75507C45.7691 8.59388 45.2049 8.47298 44.5198 8.47298C43.4049 8.47298 42.787 9.0506 42.787 9.93717V9.97747C42.787 10.8506 43.4452 11.4014 44.278 11.4014ZM57.5066 14.0745V5.06102H58.4738V6.40432C58.9439 5.61177 59.6425 4.9267 60.744 4.9267C62.1678 4.9267 63.538 6.16252 63.538 8.48642V8.62075C63.538 10.9446 62.1678 12.1939 60.744 12.1939C59.629 12.1939 58.9305 11.5223 58.4738 10.7566V14.0745H57.5066ZM60.5559 11.3208C61.6574 11.3208 62.544 10.3402 62.544 8.62075V8.51328C62.544 6.8073 61.6305 5.79983 60.5559 5.79983C59.4544 5.79983 58.4335 6.86103 58.4335 8.49985V8.63418C58.4335 10.273 59.4544 11.3208 60.5559 11.3208ZM65.2613 12.0596V2.36101H66.2285V12.0596H65.2613ZM71.0297 12.2073C69.2297 12.2073 67.9267 10.6625 67.9267 8.62075V8.52672C67.9267 6.48491 69.2431 4.9267 71.0431 4.9267C72.8431 4.9267 74.1461 6.47148 74.1461 8.51328V8.59388C74.1461 10.6357 72.8297 12.2073 71.0297 12.2073ZM71.0431 11.3342C72.2789 11.3342 73.1655 10.1521 73.1655 8.60731V8.54015C73.1655 6.9685 72.2252 5.79983 71.0297 5.79983C69.7938 5.79983 68.9207 6.9685 68.9207 8.52672V8.59388C68.9207 10.1655 69.8476 11.3342 71.0431 11.3342ZM75.7539 12.0596V5.06102H76.721V6.60581C77.1375 5.62521 77.9837 4.91326 79.1255 4.96699V6.01476H79.0718C77.7688 6.01476 76.721 6.9282 76.721 8.72821V12.0596H75.7539ZM82.9015 12.2073C81.1956 12.2073 79.7985 10.8372 79.7985 8.62075V8.55358C79.7985 6.41775 81.0478 4.9267 82.6866 4.9267C84.4463 4.9267 85.4941 6.43118 85.4941 8.54015C85.4941 8.63418 85.4941 8.82224 85.4807 8.94314H80.7791C80.8866 10.4879 81.8403 11.3476 82.9418 11.3476C83.7075 11.3476 84.2717 11.0252 84.7553 10.5417L85.306 11.1596C84.6747 11.8043 83.9493 12.2073 82.9015 12.2073ZM80.7791 8.19089H84.5269C84.4598 6.86103 83.8284 5.77297 82.6866 5.77297C81.6523 5.77297 80.8732 6.72671 80.7791 8.19089ZM87.0485 12.0596V5.06102H88.0157V6.60581C88.4321 5.62521 89.2784 4.91326 90.4202 4.96699V6.01476H90.3665C89.0635 6.01476 88.0157 6.9282 88.0157 8.72821V12.0596H87.0485Z" fill="#262C34"/>
<path d="M53.9219 2.65653H56.0846L53.398 7.25059L56.1921 12.0596H53.9757L52.2562 8.83567L50.5234 12.0596H48.3607L51.1413 7.27745L48.4816 2.65653H50.698L52.2965 5.7058L53.9219 2.65653Z" fill="#CEA8BC"/>
<path d="M19.4105 13.5523H20.0225V0H19.4105V13.5523Z" fill="#262C34"/>
</svg>
