<svg width="137" height="25" viewBox="0 0 137 25" fill="none" xmlns="http://www.w3.org/2000/svg">
<path d="M0 17.9999H5.05973C9.60453 17.9999 12.5374 14.8431 12.5374 10.2535V10.0521C12.5374 5.46247 9.60453 2.32812 5.05973 2.32812H0V17.9999ZM5.03734 5.26098C7.50004 5.26098 9.17916 7.00726 9.17916 10.1192V10.2312C9.17916 13.3431 7.50004 15.067 5.03734 15.067H3.24629V5.26098H5.03734Z" fill="#CEA8BC"/>
<path d="M21.8062 2.32812L19.0972 7.41024L16.433 2.32812H12.739L17.1718 10.0297L12.5375 17.9999H16.142L19.03 12.6267L21.8957 17.9999H25.5898L20.933 9.98489L25.4107 2.32812H21.8062Z" fill="#CEA8BC"/>
<path d="M38.5502 18.2913C36.4144 18.2913 34.3591 16.4577 34.3591 12.9518V12.7503C34.3591 9.26442 36.4144 7.39053 38.5502 7.39053C40.2226 7.39053 41.2704 8.398 41.9554 9.54651V3.542H43.4062V18.0898H41.9554V16.0749C41.2502 17.2637 40.2025 18.2913 38.5502 18.2913ZM38.8524 16.9816C40.5047 16.9816 42.0159 15.41 42.0159 12.9316V12.7503C42.0159 10.2719 40.5047 8.70024 38.8524 8.70024C37.18 8.70024 35.8502 10.1711 35.8502 12.7503V12.9115C35.8502 15.4704 37.2203 16.9816 38.8524 16.9816ZM49.074 18.3115C47.321 18.3115 45.7091 17.1227 45.7091 15.0473V14.9667C45.7091 12.8107 47.2606 11.5816 49.5777 11.5816C50.6859 11.5816 51.4919 11.7629 52.2777 12.0047V11.3801C52.2777 9.68756 51.2904 8.78084 49.5979 8.78084C48.5501 8.78084 47.6434 9.10323 46.918 9.48606L46.4546 8.29725C47.4419 7.81367 48.4695 7.45098 49.7591 7.45098C51.0285 7.45098 52.0158 7.81367 52.7009 8.49875C53.3457 9.14353 53.7084 10.1107 53.7084 11.3398V18.0898H52.2777V16.5585C51.6531 17.5458 50.6255 18.3115 49.074 18.3115ZM49.3964 17.1025C51.0083 17.1227 52.2979 15.9742 52.2979 14.4428V13.1331C51.633 12.8913 50.7867 12.71 49.7591 12.71C48.0867 12.71 47.1598 13.5764 47.1598 14.9062V14.9667C47.1598 16.2764 48.1471 17.1025 49.3964 17.1025ZM59.5123 18.251C58.0213 18.251 56.8929 17.5257 56.8929 15.6518V8.88158H55.6235V7.59202H56.8929V4.52932H58.3437V7.59202H61.084V8.88158H58.3437V15.41C58.3437 16.5182 58.9481 16.9212 59.8549 16.9212C60.2578 16.9212 60.6608 16.8204 61.084 16.6391V17.8884C60.6205 18.11 60.1168 18.251 59.5123 18.251ZM66.0947 18.3115C64.3417 18.3115 62.7298 17.1227 62.7298 15.0473V14.9667C62.7298 12.8107 64.2813 11.5816 66.5984 11.5816C67.7066 11.5816 68.5126 11.7629 69.2985 12.0047V11.3801C69.2985 9.68756 68.3111 8.78084 66.6186 8.78084C65.5708 8.78084 64.6641 9.10323 63.9387 9.48606L63.4753 8.29725C64.4626 7.81367 65.4902 7.45098 66.7798 7.45098C68.0492 7.45098 69.0365 7.81367 69.7216 8.49875C70.3664 9.14353 70.7291 10.1107 70.7291 11.3398V18.0898H69.2985V16.5585C68.6738 17.5458 67.6462 18.3115 66.0947 18.3115ZM66.4171 17.1025C68.029 17.1227 69.3186 15.9742 69.3186 14.4428V13.1331C68.6537 12.8913 67.8074 12.71 66.7798 12.71C65.1074 12.71 64.1805 13.5764 64.1805 14.9062V14.9667C64.1805 16.2764 65.1678 17.1025 66.4171 17.1025ZM86.26 21.1122V7.59202H87.7107V9.60696C88.4159 8.41815 89.4637 7.39053 91.116 7.39053C93.2518 7.39053 95.307 9.24427 95.307 12.7301V12.9316C95.307 16.4174 93.2518 18.2913 91.116 18.2913C89.4436 18.2913 88.3958 17.2839 87.7107 16.1354V21.1122H86.26ZM90.8339 16.9816C92.4861 16.9816 93.816 15.5107 93.816 12.9316V12.7704C93.816 10.2114 92.4458 8.70024 90.8339 8.70024C89.1816 8.70024 87.6503 10.292 87.6503 12.7503V12.9518C87.6503 15.41 89.1816 16.9816 90.8339 16.9816ZM97.892 18.0898V3.542H99.3427V18.0898H97.892ZM106.545 18.3115C103.845 18.3115 101.89 15.9943 101.89 12.9316V12.7906C101.89 9.72786 103.865 7.39053 106.565 7.39053C109.265 7.39053 111.219 9.70771 111.219 12.7704V12.8913C111.219 15.954 109.245 18.3115 106.545 18.3115ZM106.565 17.0018C108.418 17.0018 109.748 15.2286 109.748 12.9115V12.8107C109.748 10.4532 108.338 8.70024 106.545 8.70024C104.691 8.70024 103.381 10.4532 103.381 12.7906V12.8913C103.381 15.2488 104.771 17.0018 106.565 17.0018ZM113.631 18.0898V7.59202H115.082V9.9092C115.706 8.4383 116.976 7.37038 118.688 7.45098V9.02263H118.608C116.653 9.02263 115.082 10.3928 115.082 13.0928V18.0898H113.631ZM124.352 18.3115C121.793 18.3115 119.698 16.2563 119.698 12.9316V12.8309C119.698 9.62711 121.572 7.39053 124.03 7.39053C126.67 7.39053 128.241 9.64726 128.241 12.8107C128.241 12.9518 128.241 13.2338 128.221 13.4152H121.169C121.33 15.7324 122.761 17.0219 124.413 17.0219C125.561 17.0219 126.408 16.5383 127.133 15.813L127.959 16.7398C127.012 17.707 125.924 18.3115 124.352 18.3115ZM121.169 12.2868H126.79C126.69 10.292 125.743 8.65994 124.03 8.65994C122.478 8.65994 121.31 10.0905 121.169 12.2868ZM130.573 18.0898V7.59202H132.024V9.9092C132.648 8.4383 133.918 7.37038 135.63 7.45098V9.02263H135.55C133.595 9.02263 132.024 10.3928 132.024 13.0928V18.0898H130.573Z" fill="#262C34"/>
<path d="M80.8829 3.98529H84.127L80.0971 10.8764L84.2882 18.0898H80.9635L78.3844 13.254L75.7851 18.0898H72.5411L76.712 10.9167L72.7224 3.98529H76.0471L78.4448 8.55919L80.8829 3.98529Z" fill="#CEA8BC"/>
<path d="M29.1157 20.3285H30.0336V0H29.1157V20.3285Z" fill="#262C34"/>
</svg>
